<?xml version="1.0" standalone="no"?>
<!DOCTYPE svg PUBLIC "-//W3C//DTD SVG 1.1//EN" "http://www.w3.org/Graphics/SVG/1.1/DTD/svg11.dtd" >
<svg xmlns="http://www.w3.org/2000/svg" xmlns:xlink="http://www.w3.org/1999/xlink" version="1.1">
<metadata>
Created by FontForge 20170731 at Thu Jan  5 06:32:08 2023
 By Aleksey,,,
Copyright (c) 2018 by Martin Va'cha. All rights reserved.
</metadata>
<defs>
<font id="RecklessNeue-Light" horiz-adv-x="1505" >
  <font-face 
    font-family="Reckless Neue Light"
    font-weight="300"
    font-stretch="normal"
    units-per-em="2048"
    panose-1="0 0 4 0 0 0 0 0 0 0"
    ascent="1638"
    descent="-410"
    x-height="1020"
    cap-height="1368"
    bbox="-240 -438.421 2292 2120"
    underline-thickness="102"
    underline-position="-307"
    unicode-range="U+000D-F8FF"
  />
<missing-glyph horiz-adv-x="2224" 
d="M98 633q0 202 78 388.5t210 323.5t314.5 222t384.5 92v-2048q-202 7 -385 90.5t-315 220t-209.5 322.5t-77.5 389zM1159 1651q83 -28 153 -172t111 -368.5t41 -477.5t-41 -477t-111 -367t-153 -172v2034zM1823 633q0 -344 -142 -617t-366 -366q103 134 164 398t61 585
t-61 585.5t-164 401.5q146 -62 262 -207.5t181 -349.5t65 -430zM2146 633q0 -311 -170.5 -566.5t-451.5 -373.5q172 149 273 399.5t101 540.5q0 289 -101 541t-273 401q281 -119 451.5 -376t170.5 -566z" />
    <glyph glyph-name="f_f" unicode="ff" horiz-adv-x="1257" 
d="M1133 1413q-89 0 -135 -64.5t-46 -185.5v-143h283v-57h-283v-811q0 -64 49 -88.5t162 -34.5v-29h-479v29q35 5 58 11.5t48 19.5t37.5 36t12.5 56v811h-475v-811q0 -64 50 -88.5t163 -34.5v-29h-480v29q27 4 46 8.5t41.5 13.5t36 21.5t23 32.5t9.5 47v811h-174v57h174v80
q0 173 107 271.5t286 98.5q161 0 264 -106q84 106 244 106q61 0 116.5 -18.5t88.5 -52.5l-96 -99q-16 49 -51.5 81t-79.5 32zM840 1020v94q0 71 16 137q-38 78 -102.5 120t-143.5 42q-115 0 -180 -73t-65 -191v-129h475z" />
    <glyph glyph-name="f_f_i" unicode="ffi" horiz-adv-x="1740" 
d="M1538 150q0 -34 12 -56.5t37 -35t45.5 -18t55.5 -11.5v-29h-410v29q35 6 55 11.5t44.5 18t36 35t11.5 56.5v813h-473v-811q0 -64 49 -88.5t162 -34.5v-29h-479v29q35 5 58 11.5t48 19.5t37.5 36t12.5 56v811h-475v-811q0 -64 50 -88.5t163 -34.5v-29h-480v29q27 4 46 8.5
t41.5 13.5t36 21.5t23 32.5t9.5 47v811h-174v57h174v80q0 173 107 271.5t286 98.5q174 0 279 -120q111 120 311 120q196 0 305 -127l-104 -98q-24 79 -89 123.5t-149 44.5q-115 0 -181.5 -72t-66.5 -192v-129h494l63 31h29v-901zM840 1020v80q0 75 22 139q-37 85 -104 129.5
t-148 44.5q-115 0 -180 -73t-65 -191v-129h475z" />
    <glyph glyph-name="f_f_l" unicode="ffl" horiz-adv-x="1753" 
d="M1538 150q0 -34 12 -56.5t37 -35t45.5 -18t55.5 -11.5v-29h-410v29q35 6 55 11.5t44.5 18t36 35t11.5 56.5v1128q-30 64 -90.5 99.5t-134.5 35.5q-115 0 -181.5 -73t-66.5 -195v-125h277v-57h-277v-811q0 -64 49 -88.5t162 -34.5v-29h-479v29q35 5 58 11.5t48 19.5
t37.5 36t12.5 56v811h-475v-811q0 -64 50 -88.5t163 -34.5v-29h-480v29q27 4 46 8.5t41.5 13.5t36 21.5t23 32.5t9.5 47v811h-174v57h174v80q0 173 107 271.5t286 98.5q174 0 279 -120q111 120 311 120q142 0 233 -63l39 33h29v-1290zM840 1020v82q0 73 22 137
q-37 85 -104 129.5t-148 44.5q-115 0 -180 -73t-65 -191v-129h475z" />
    <glyph glyph-name="f_i" unicode="fi" horiz-adv-x="1153" 
d="M952 150q0 -27 9 -47.5t21.5 -32t35 -20.5t38.5 -12.5t44 -8.5v-29h-410v29q35 6 55.5 11.5t45.5 18t37 35t12 56.5v813h-475v-811q0 -64 50 -88.5t163 -34.5v-29h-480v29q27 4 46 8.5t41.5 13.5t36 21.5t23 32.5t9.5 47v811h-174v57h174v80q0 173 108 271.5t287 98.5
q198 0 307 -127l-104 -98q-24 79 -89 123.5t-149 44.5q-116 0 -182.5 -72t-66.5 -192v-129h495l64 31h28v-901z" />
    <glyph glyph-name="f_l" unicode="fl" horiz-adv-x="1167" 
d="M952 150q0 -27 9 -47.5t21.5 -32t35 -20.5t38.5 -12.5t44 -8.5v-29h-410v29q35 6 55.5 11.5t45.5 18t37 35t12 56.5v1128q-30 64 -91 99.5t-135 35.5q-116 0 -182.5 -72.5t-66.5 -195.5v-125h278v-57h-278v-811q0 -64 50 -88.5t163 -34.5v-29h-480v29q27 4 46 8.5
t41.5 13.5t36 21.5t23 32.5t9.5 47v811h-174v57h174v82q0 171 108 269.5t287 98.5q145 0 236 -63l39 33h28v-1290z" />
    <glyph glyph-name=".notdef" horiz-adv-x="2224" 
d="M98 633q0 202 78 388.5t210 323.5t314.5 222t384.5 92v-2048q-202 7 -385 90.5t-315 220t-209.5 322.5t-77.5 389zM1159 1651q83 -28 153 -172t111 -368.5t41 -477.5t-41 -477t-111 -367t-153 -172v2034zM1823 633q0 -344 -142 -617t-366 -366q103 134 164 398t61 585
t-61 585.5t-164 401.5q146 -62 262 -207.5t181 -349.5t65 -430zM2146 633q0 -311 -170.5 -566.5t-451.5 -373.5q172 149 273 399.5t101 540.5q0 289 -101 541t-273 401q281 -119 451.5 -376t170.5 -566z" />
    <glyph glyph-name=".null" horiz-adv-x="0" 
 />
    <glyph glyph-name="nonmarkingreturn" horiz-adv-x="682" 
 />
    <glyph glyph-name="CR" unicode="&#xd;" horiz-adv-x="1228" 
 />
    <glyph glyph-name="space" unicode=" " horiz-adv-x="487" 
 />
    <glyph glyph-name="exclam" unicode="!" horiz-adv-x="528" 
d="M250 367l-55 1001h143l-59 -1001h-29zM264 -23q-43 0 -74.5 31.5t-31.5 75.5t31.5 75t74.5 31q48 0 76.5 -30t28.5 -76q0 -44 -30.5 -75.5t-74.5 -31.5z" />
    <glyph glyph-name="quotedbl" unicode="&#x22;" horiz-adv-x="497" 
d="M123 860l-37 508h107l-41 -508h-29zM344 860l-37 508h107l-41 -508h-29z" />
    <glyph glyph-name="numbersign" unicode="#" horiz-adv-x="1310" 
d="M1223 895h-242l-107 -379h267v-65h-285l-147 -527h-72l147 527h-397l-147 -527h-74l147 527h-227v65h246l106 379h-270v63h289l149 533h74l-150 -533h398l149 533h72l-150 -533h224v-63zM803 516l106 379h-397l-106 -379h397z" />
    <glyph glyph-name="dollar" unicode="$" horiz-adv-x="1148" 
d="M1044 356q0 -168 -113.5 -272t-309.5 -113v-211h-58v211q-173 8 -299 96t-160 228l134 43q26 -126 114.5 -209t210.5 -98v616q-166 64 -233 105q-154 94 -172 251q-2 21 -2 44q0 151 112 247.5t295 102.5v190h58v-192q144 -9 258.5 -85.5t152.5 -195.5l-133 -43
q-30 102 -106.5 172.5t-171.5 89.5v-555h1l1 -1h1l1 -1h1h1l2 -1q171 -68 243 -116q161 -105 171 -277q1 -13 1 -26zM266 1096q0 -58 22.5 -104.5t68 -81.5t91 -58.5t115.5 -50.5v538h-2q-131 0 -213 -67.5t-82 -175.5zM621 29q134 3 216.5 77.5t82.5 192.5q0 53 -16.5 98
t-42 77t-67 61t-80 48t-93.5 42v-596z" />
    <glyph glyph-name="percent" unicode="%" horiz-adv-x="1308" 
d="M322 768q-112 0 -180 86t-68 227q0 143 67.5 229.5t180.5 86.5q112 0 179.5 -87t67.5 -229q0 -140 -67.5 -226.5t-179.5 -86.5zM252 0l754 1368h53l-754 -1368h-53zM336 807q49 0 83 65t34 179q0 133 -43.5 219t-102.5 86q-50 0 -83.5 -64t-33.5 -180q0 -138 41.5 -221.5
t104.5 -83.5zM987 -31q-112 0 -180 86.5t-68 229.5q0 142 67.5 227.5t180.5 85.5q112 0 180 -86.5t68 -226.5q0 -142 -68 -229t-180 -87zM1001 8q48 0 82.5 65.5t34.5 178.5q0 133 -43 219t-102 86q-50 0 -82.5 -63.5t-32.5 -178.5q0 -140 40 -223.5t103 -83.5z" />
    <glyph glyph-name="ampersand" unicode="&#x26;" horiz-adv-x="1327" 
d="M1325 74l8 -29l-209 -76h-28l-160 178q-172 -178 -408 -178q-194 0 -311 104t-117 275q0 141 81.5 246t221.5 151q-39 43 -62.5 73.5t-52 76t-42 94.5t-13.5 103q0 138 93.5 222.5t248.5 84.5q148 0 237 -78.5t89 -204.5q0 -108 -81 -199t-247 -157l410 -459
q116 178 137 457l125 -17q-67 -296 -219 -491l109 -121q37 -44 82.5 -56t107.5 1zM557 1341q-83 0 -135.5 -60t-52.5 -155q0 -24 2 -46.5t10.5 -45.5t12 -37.5t19.5 -38.5t20 -32.5t25.5 -34.5t24.5 -29.5t29 -32.5t27 -30q227 108 227 307q0 103 -58 169t-151 66zM575 43
q178 0 322 150l-457 512q-95 -46 -146.5 -128.5t-51.5 -191.5q0 -152 88 -247t245 -95z" />
    <glyph glyph-name="quotesingle" unicode="'" horiz-adv-x="276" 
d="M123 860l-37 508h107l-41 -508h-29z" />
    <glyph glyph-name="parenleft" unicode="(" horiz-adv-x="651" 
d="M547 -436q-82 77 -156 174.5t-142.5 224t-109.5 283t-41 317.5t41 317.5t109.5 283t142.5 224t156 175.5l22 -19q-75 -93 -131.5 -187t-106.5 -214t-77 -266.5t-27 -311.5t27 -312t77 -268t107 -215.5t131 -187.5z" />
    <glyph glyph-name="parenright" unicode=")" horiz-adv-x="651" 
d="M104 -436l-22 18q74 93 131 187.5t107 215.5t77 268t27 312t-27 311.5t-77 266.5t-106.5 214t-131.5 187l22 19q82 -78 156 -175.5t142.5 -224t109.5 -283t41 -317.5t-41 -317.5t-109.5 -283t-142.5 -224t-156 -174.5z" />
    <glyph glyph-name="asterisk" unicode="*" horiz-adv-x="827" 
d="M231 805l-79 63l231 238l-307 72l28 94l293 -133l-41 313h115l-41 -313l291 133l31 -94l-308 -72l232 -238l-80 -63l-182 280z" />
    <glyph glyph-name="plus" unicode="+" horiz-adv-x="1009" 
d="M930 684v-61h-402v-404h-61v404h-389v61h389v387h61v-387h402z" />
    <glyph glyph-name="comma" unicode="," horiz-adv-x="471" 
d="M117 -229v28q75 14 125 70t51 141q-30 -30 -74 -30q-46 0 -74 28.5t-28 75.5q0 44 32.5 75t79.5 31q57 0 91 -38.5t34 -102.5q0 -116 -63 -192t-174 -86z" />
    <glyph glyph-name="hyphen" unicode="-" horiz-adv-x="632" 
d="M59 543v80h512v-80h-512z" />
    <glyph glyph-name="period" unicode="." horiz-adv-x="444" 
d="M223 -23q-43 0 -74.5 31.5t-31.5 75.5t31.5 75t74.5 31q46 0 75.5 -30.5t29.5 -75.5q0 -44 -31 -75.5t-74 -31.5z" />
    <glyph glyph-name="slash" unicode="/" horiz-adv-x="755" 
d="M57 -92l566 1497h73l-565 -1497h-74z" />
    <glyph glyph-name="zero" unicode="0" horiz-adv-x="1220" 
d="M610 -31q-157 0 -273 96.5t-173.5 257t-57.5 361.5q0 202 57.5 362.5t173.5 256.5t273 96t272.5 -96t173.5 -256.5t58 -362.5q0 -201 -58 -361.5t-174 -257t-272 -96.5zM641 27q144 0 240 162t96 423q0 76 -11 164.5t-40.5 190.5t-72.5 183.5t-114.5 136t-160.5 54.5
q-147 0 -239.5 -160.5t-92.5 -424.5q0 -86 10 -176.5t38 -192t70.5 -179.5t114 -129.5t162.5 -51.5z" />
    <glyph glyph-name="one" unicode="1" horiz-adv-x="780" 
d="M137 0v29q131 3 179.5 33t48.5 128v990h-228v28q114 27 192 65t136 99h29v-1182q0 -96 42 -127t144 -34v-29h-543z" />
    <glyph glyph-name="two" unicode="2" horiz-adv-x="1064" 
d="M66 0v29l321 346q49 52 75 80.5t73 82t73 90t60 90.5t52 98.5t31 97.5t13 104q0 123 -76.5 198.5t-200.5 75.5q-116 0 -212 -68.5t-138 -189.5l-22 10q34 158 149 255.5t277 97.5q166 0 266 -98t100 -263q0 -182 -137 -367q-94 -128 -324 -344q-42 -40 -134 -124
q-53 -50 -81 -76h445q72 0 112 6t70.5 29.5t47 59.5t36.5 104h29l-56 -324h-849z" />
    <glyph glyph-name="three" unicode="3" horiz-adv-x="1075" 
d="M557 727q209 -12 316.5 -110.5t107.5 -254.5q0 -180 -122.5 -285.5t-334.5 -105.5q-80 0 -150.5 17t-134 54t-107 103.5t-58.5 157.5l137 41q15 -142 106 -228.5t226 -86.5q134 0 215.5 91t81.5 232q0 161 -118 254t-337 90v31q183 14 287 105.5t104 211.5
q0 105 -76 176.5t-192 71.5q-117 0 -216 -65.5t-140 -173.5l-23 10q33 145 150 239.5t280 94.5q161 0 261 -91t100 -229q0 -131 -96.5 -221t-266.5 -129z" />
    <glyph glyph-name="four" unicode="4" horiz-adv-x="1148" 
d="M471 0v29q140 3 190 33t50 128v195h-654v35l695 948h88v-922h243v-61h-243v-195q0 -96 42 -127t144 -34v-29h-555zM154 446h557v764z" />
    <glyph glyph-name="five" unicode="5" horiz-adv-x="1093" 
d="M512 -29q-79 0 -150.5 17.5t-136 55t-109 104t-59.5 155.5l140 41q10 -144 109.5 -229.5t236.5 -85.5q150 0 233.5 100t83.5 260q0 176 -99.5 283.5t-264.5 107.5q-174 0 -312 -112l-18 10l113 690h657v-119h-619l-84 -499q124 131 320 131q194 0 321 -127t127 -320
q0 -130 -55 -233.5t-167.5 -166.5t-266.5 -63z" />
    <glyph glyph-name="six" unicode="6" horiz-adv-x="1142" 
d="M633 879q116 0 210.5 -52.5t151 -154.5t56.5 -236q0 -207 -126.5 -337t-326.5 -130q-236 0 -364 186.5t-128 514.5q0 123 19 227t51 177.5t76.5 131.5t92 93.5t101 58.5t100.5 32t93 9q55 0 110 -13t109 -39t99 -72t71 -106l-141 -61q-29 104 -109 168.5t-174 64.5
q-53 0 -102.5 -22t-95 -71.5t-79 -123t-53.5 -184.5t-20 -248v-20q68 103 172 155t207 52zM614 27q137 0 216 108.5t79 267.5q0 178 -98.5 279.5t-239.5 101.5q-79 0 -167.5 -41t-147.5 -125q5 -130 30.5 -237t69 -186.5t109.5 -123.5t149 -44z" />
    <glyph glyph-name="seven" unicode="7" horiz-adv-x="1030" 
d="M356 0q-4 113 12 227t44 210t73 197t88.5 178.5t102.5 164t103.5 144.5t101.5 128h-500q-104 0 -162 -59.5t-92 -198.5h-29l58 377h856v-29q-55 -70 -94 -123t-97.5 -142.5t-99.5 -169t-86.5 -189t-73 -215.5t-44 -236.5t-13.5 -263.5h-148z" />
    <glyph glyph-name="eight" unicode="8" horiz-adv-x="1124" 
d="M686 750q74 -34 124 -64.5t101 -77t77 -108.5t26 -140q0 -169 -125.5 -280t-323.5 -111q-199 0 -325.5 101t-126.5 260q0 123 75.5 215.5t233.5 161.5q-59 29 -100 57t-79 67.5t-57.5 91.5t-19.5 115q0 155 112 258t285 103q172 0 285 -92.5t113 -231.5q0 -109 -72 -193
t-203 -132zM293 1104q0 -37 10.5 -70.5t24.5 -58.5t42.5 -50.5t50.5 -42t63 -38t66 -33.5t73 -33q113 57 153.5 124.5t40.5 170.5q0 116 -72.5 192t-181.5 76q-118 0 -194 -67t-76 -170zM565 27q135 0 224.5 80.5t89.5 203.5q0 31 -6.5 59.5t-16 51t-28 45.5t-33.5 39.5
t-43 35.5t-46.5 30.5t-53 28.5t-53.5 25.5t-58 26t-56 25.5q-62 -33 -105.5 -68.5t-67.5 -66.5t-37 -70t-16 -68.5t-3 -72.5q0 -132 88.5 -218.5t220.5 -86.5z" />
    <glyph glyph-name="nine" unicode="9" horiz-adv-x="1142" 
d="M545 1399q236 0 363.5 -186t127.5 -513q0 -124 -19 -228t-51 -178t-76 -132t-91.5 -93.5t-100.5 -58.5t-99.5 -32t-92.5 -9q-119 0 -230 57.5t-161 172.5l141 63q29 -105 109 -170t174 -65q54 0 103.5 22t95.5 71.5t79.5 123t53.5 184.5t20 248v22
q-68 -104 -171.5 -156.5t-207.5 -52.5q-180 0 -300 120.5t-120 322.5q0 208 126.5 337.5t326.5 129.5zM571 584q80 0 168.5 41t149.5 125q-11 266 -104.5 428.5t-256.5 162.5q-137 0 -216 -108.5t-79 -267.5q0 -178 98.5 -279.5t239.5 -101.5z" />
    <glyph glyph-name="colon" unicode=":" horiz-adv-x="444" 
d="M223 819q-43 0 -74.5 31.5t-31.5 75.5t31.5 75t74.5 31q46 0 75.5 -30.5t29.5 -75.5q0 -44 -31 -75.5t-74 -31.5zM223 -23q-43 0 -74.5 31.5t-31.5 75.5t31.5 75t74.5 31q46 0 75.5 -30.5t29.5 -75.5q0 -44 -31 -75.5t-74 -31.5z" />
    <glyph glyph-name="semicolon" unicode=";" horiz-adv-x="471" 
d="M233 821q-43 0 -74.5 31.5t-31.5 75.5q0 43 31.5 74.5t74.5 31.5q48 0 76.5 -30.5t28.5 -75.5q0 -44 -30.5 -75.5t-74.5 -31.5zM117 -229v28q75 14 125 70t51 141q-30 -30 -74 -30q-46 0 -74 28.5t-28 75.5q0 44 32.5 75t79.5 31q57 0 91 -38.5t34 -102.5
q0 -116 -63 -192t-174 -86z" />
    <glyph glyph-name="less" unicode="&#x3c;" horiz-adv-x="911" 
d="M834 219l-762 393v86l762 394l24 -54l-739 -383l739 -381z" />
    <glyph glyph-name="equal" unicode="=" horiz-adv-x="1009" 
d="M78 807v61h852v-61h-852zM78 477v62h852v-62h-852z" />
    <glyph glyph-name="greater" unicode="&#x3e;" horiz-adv-x="909" 
d="M78 219l-27 55l742 381l-742 383l27 54l762 -394v-86z" />
    <glyph glyph-name="question" unicode="?" horiz-adv-x="851" 
d="M358 360q-17 77 -10 132t33 108t61 93.5t74.5 87t72 88.5t54 98.5t21.5 117.5q0 115 -67 184.5t-175 69.5q-106 0 -183.5 -89t-95.5 -214l-129 39q23 133 132 227.5t274 94.5q171 0 277 -88t106 -232q0 -68 -24.5 -130t-63.5 -109.5t-85.5 -92.5t-92 -87.5t-81.5 -86.5
t-55.5 -98t-13.5 -113h-29zM387 -23q-44 0 -75 31.5t-31 75.5t31 75t75 31q46 0 75.5 -30.5t29.5 -75.5q0 -44 -31 -75.5t-74 -31.5z" />
    <glyph glyph-name="at" unicode="@" horiz-adv-x="1818" 
d="M922 -299q-189 0 -347.5 58.5t-269 164.5t-172 258.5t-61.5 335.5q0 191 67 355t185.5 279.5t286.5 181t364 65.5q229 0 404.5 -87t271.5 -246t96 -366q0 -249 -136.5 -407t-336.5 -158q-131 0 -197 75t-41 200q-62 -141 -149.5 -207t-175.5 -66q-105 0 -173.5 85.5
t-68.5 228.5q0 118 44.5 230.5t115.5 193.5t163.5 130.5t184.5 49.5q77 0 133.5 -37t79.5 -107l70 115h73l-184 -573q-34 -106 6 -181t139 -75q150 0 243 136.5t93 352.5q0 297 -179.5 478.5t-479.5 181.5q-228 0 -406.5 -106.5t-276.5 -293.5t-98 -422q0 -351 213 -557.5
t568 -206.5q294 0 522 158l20 -33q-101 -85 -257.5 -134.5t-333.5 -49.5zM739 207q50 0 98.5 29t86.5 76.5t68 102t50 111.5q11 32 26.5 75.5t23.5 65.5t18 51.5t15 45.5t10 34t6.5 30.5t1.5 23.5q0 67 -45.5 105t-116.5 38q-102 0 -193.5 -78.5t-145.5 -206.5t-54 -266
q0 -114 39.5 -175.5t111.5 -61.5z" />
    <glyph glyph-name="A" unicode="A" horiz-adv-x="1478" 
d="M1253 195q40 -95 81 -128t124 -38v-29h-457v29q107 5 129.5 38t-18.5 128l-108 264h-611l-108 -264q-40 -95 -18.5 -128.5t128.5 -37.5v-29h-372v29q80 5 120 38t80 128l496 1204h33zM416 516h563l-283 688z" />
    <glyph glyph-name="B" unicode="B" horiz-adv-x="1320" 
d="M86 0v29q103 3 145.5 34t42.5 127v990q0 94 -43 125t-145 34v29h547q223 0 349 -85t126 -236q0 -126 -86.5 -214t-237.5 -116q195 -22 306.5 -116.5t111.5 -233.5q0 -172 -127.5 -269.5t-351.5 -97.5h-637zM401 739h244q149 0 233.5 81t84.5 224q0 125 -97 196t-268 71
h-197v-572zM592 57h113q164 0 259 83.5t95 226.5q0 146 -109.5 230.5t-304.5 84.5h-244v-489q0 -69 43.5 -102.5t147.5 -33.5z" />
    <glyph glyph-name="C" unicode="C" horiz-adv-x="1341" 
d="M723 -31q-178 0 -322 89t-224 245t-79 348q0 217 81.5 387t231 265.5t343.5 95.5q178 0 304.5 -79t164.5 -214l-138 -45q-37 131 -133.5 206.5t-226.5 75.5q-214 0 -349 -173t-136 -451q0 -282 148 -455.5t388 -173.5q164 0 285.5 83.5t171.5 225.5l24 -6
q-57 -199 -198.5 -311.5t-335.5 -112.5z" />
    <glyph glyph-name="D" unicode="D" horiz-adv-x="1441" 
d="M649 1368q147 0 266.5 -33t201.5 -91t138 -138.5t81.5 -174.5t25.5 -200q0 -172 -59 -313.5t-156 -231t-217.5 -138t-247.5 -48.5h-596v29q103 3 145.5 34t42.5 127v990q0 94 -43 125t-145 34v29h563zM682 57q250 0 393.5 165.5t143.5 461.5q0 119 -38.5 229.5t-111 200
t-190.5 143.5t-265 54h-213v-1123q0 -79 60 -105t221 -26z" />
    <glyph glyph-name="E" unicode="E" horiz-adv-x="1331" 
d="M1176 358h28l-57 -358h-1061v29q103 3 145.5 34t42.5 127v990q0 94 -43 125t-145 34v29h1036l56 -358h-29q-34 154 -106 227.5t-189 73.5h-453v-580h310q54 0 87.5 10.5t50.5 37t22.5 57.5t7.5 86h28v-439h-28q-1 43 -5 70t-13.5 52.5t-28 39t-48 21.5t-73.5 8h-310v-484
q0 -73 26 -103t87 -30h367q117 0 188.5 73.5t106.5 227.5z" />
    <glyph glyph-name="F" unicode="F" horiz-adv-x="1249" 
d="M1120 1368l56 -358h-29q-34 154 -106 227.5t-189 73.5h-451v-580h308q54 0 87.5 10.5t50.5 37t23 57.5t9 86h28v-439h-28q-3 54 -9 85t-23 58t-50.5 37.5t-87.5 10.5h-308v-481q0 -100 51.5 -130.5t196.5 -33.5v-29h-563v29q103 3 145.5 34t42.5 127v990q0 94 -43 125
t-145 34v29h1034z" />
    <glyph glyph-name="G" unicode="G" horiz-adv-x="1497" 
d="M743 -31q-183 0 -331.5 90t-231.5 246.5t-82 345.5q0 219 83 388.5t237 264.5t356 95q186 0 325 -80.5t179 -212.5l-137 -45q-38 125 -148.5 203.5t-249.5 78.5q-217 0 -359 -177.5t-142 -456.5q0 -134 42.5 -257.5t115.5 -216.5t178.5 -148.5t224.5 -55.5q95 0 184.5 30
t149.5 91v342q0 88 -43 125t-154 40v29h510v-29q-96 -3 -140 -43.5t-44 -121.5v-291q-72 -101 -208 -167.5t-315 -66.5z" />
    <glyph glyph-name="H" unicode="H" horiz-adv-x="1570" 
d="M1483 1339q-51 -2 -82 -8.5t-57 -23t-37 -47.5t-11 -80v-990q0 -96 42 -126t145 -35v-29h-502v29q52 3 83 9t57 22.5t37 47.5t11 82v484h-768v-484q0 -96 42 -126t145 -35v-29h-502v29q52 3 83 9t57 22.5t37 47.5t11 82v990q0 94 -42.5 124t-145.5 35v29h502v-29
q-51 -2 -82 -8.5t-57 -23t-37 -47.5t-11 -80v-449h768v449q0 94 -42.5 124t-145.5 35v29h502v-29z" />
    <glyph glyph-name="I" unicode="I" horiz-adv-x="675" 
d="M86 0v29q52 3 83 9t57 22.5t37 47.5t11 82v990q0 94 -42.5 124t-145.5 35v29h502v-29q-51 -2 -82 -8.5t-57 -23t-37 -47.5t-11 -80v-990q0 -96 42 -126t145 -35v-29h-502z" />
    <glyph glyph-name="J" unicode="J" horiz-adv-x="1015" 
d="M952 1368v-29q-97 -3 -139.5 -36.5t-42.5 -124.5v-799q0 -205 -97.5 -307.5t-275.5 -102.5q-155 0 -247 81t-121 226l145 41q10 -133 77 -211.5t165 -78.5q104 0 165.5 78t61.5 237v836q0 91 -43.5 124.5t-144.5 36.5v29h497z" />
    <glyph glyph-name="K" unicode="K" horiz-adv-x="1476" 
d="M1231 147q37 -51 96.5 -84t120.5 -34v-29h-291q-8 41 -65 117l-465 641l-226 -213v-355q0 -96 42 -126t145 -35v-29h-502v29q52 3 83 9t57 22.5t37 47.5t11 82v990q0 94 -42.5 124t-145.5 35v29h502v-29q-51 -2 -82 -8.5t-57 -23t-37 -47.5t-11 -80v-555l635 596
q64 62 41 88.5t-143 29.5v29h428v-29q-124 -6 -238 -114l-403 -379z" />
    <glyph glyph-name="L" unicode="L" horiz-adv-x="1179" 
d="M1079 358h29l-57 -358h-965v29q103 3 145.5 34t42.5 127v990q0 93 -42.5 124.5t-145.5 34.5v29h502v-29q-101 -3 -144 -34.5t-43 -124.5v-990q0 -73 26 -103t87 -30h270q117 0 188.5 73.5t106.5 227.5z" />
    <glyph glyph-name="M" unicode="M" horiz-adv-x="1867" 
d="M1782 1368v-29q-102 -3 -143.5 -42t-41.5 -134v-991q0 -78 41.5 -106.5t143.5 -36.5v-29h-496v29q100 8 142 37.5t42 105.5v999l-567 -1171h-37l-538 1178v-1006q0 -78 42 -106.5t144 -36.5v-29h-426v29q100 8 141 37.5t41 105.5v991q0 95 -41 134t-143 42v29h295
l545 -1188l575 1188h281z" />
    <glyph glyph-name="N" unicode="N" horiz-adv-x="1519" 
d="M981 1368h453v-29q-109 -5 -148 -39t-39 -126v-1205h-37l-872 1209v-983q0 -92 43.5 -126.5t165.5 -39.5v-29h-453v29q107 5 147 40t40 126v1058q-38 44 -81 63.5t-114 22.5v29h274l830 -1155v961q0 91 -44 126t-165 39v29z" />
    <glyph glyph-name="O" unicode="O" 
d="M758 -31q-194 0 -345 88t-233 244t-82 354q0 216 85 386t238 264t347 94t344.5 -88t231.5 -244t81 -354q0 -216 -84.5 -386t-236.5 -264t-346 -94zM793 27q147 0 258.5 83.5t171 230t59.5 333.5q0 193 -71.5 345.5t-197 237t-282.5 84.5q-223 0 -356 -179.5t-133 -467.5
q0 -192 72 -345t197.5 -237.5t281.5 -84.5z" />
    <glyph glyph-name="P" unicode="P" horiz-adv-x="1214" 
d="M627 1368q116 0 209 -22t163 -67t108 -118.5t38 -171.5q0 -97 -38 -171t-107.5 -120t-163.5 -69t-209 -23h-226v-416q0 -96 42.5 -127t144.5 -34v-29h-502v29q103 3 145.5 34t42.5 127v990q0 94 -43 125t-145 34v29h541zM618 664q185 0 284 89t99 236q0 145 -99.5 233.5
t-283.5 88.5h-217v-647h217z" />
    <glyph glyph-name="Q" unicode="Q" 
d="M795 -31q25 -73 67 -126.5t93.5 -83t104.5 -46.5t111.5 -20t101 -1t85.5 9l-25 -139q-57 -2 -115 5.5t-130.5 33.5t-133.5 69t-115.5 120t-84.5 179q-193 1 -343 89.5t-231.5 244t-81.5 352.5q0 216 85 386t238 264t347 94t344.5 -88t231.5 -244t81 -354
q0 -318 -175 -524t-455 -220zM242 694q0 -192 72 -345t197.5 -237.5t281.5 -84.5q147 0 258.5 83.5t171 230t59.5 333.5q0 193 -71.5 345.5t-197 237t-282.5 84.5q-223 0 -356 -179.5t-133 -467.5z" />
    <glyph glyph-name="R" unicode="R" horiz-adv-x="1345" 
d="M1137 123q34 -41 85.5 -66.5t104.5 -27.5v-29h-270q-12 32 -60 96l-395 510h-201v-416q0 -96 42.5 -127t144.5 -34v-29h-502v29q103 3 145.5 34t42.5 127v990q0 94 -43 125t-145 34v29h541q116 0 209 -22t163 -67t108 -118.5t38 -171.5q0 -164 -104.5 -258t-288.5 -117z
M401 1311v-647h217q185 0 284 89t99 236q0 145 -99.5 233.5t-283.5 88.5h-217z" />
    <glyph glyph-name="S" unicode="S" horiz-adv-x="1148" 
d="M590 -29q-183 0 -317 88.5t-169 235.5l134 43q29 -138 132 -223.5t240 -85.5q138 0 224 75t86 195q0 69 -26 123t-70.5 90.5t-101.5 66t-120.5 54t-127 49.5t-120.5 57t-101.5 72t-70.5 100t-26 136q0 155 119 252.5t309 97.5q155 0 281 -78t167 -205l-133 -43
q-35 119 -131.5 193.5t-206.5 74.5q-131 0 -213 -67.5t-82 -175.5q0 -61 26.5 -110t71.5 -82.5t103.5 -62t123 -53t129 -51t123 -60.5t103.5 -76.5t71.5 -105t26.5 -139.5q0 -175 -122.5 -280t-331.5 -105z" />
    <glyph glyph-name="T" unicode="T" horiz-adv-x="1372" 
d="M1241 1368l57 -358h-28q-35 154 -106.5 227.5t-188.5 73.5h-225v-1121q0 -95 42 -126.5t144 -34.5v-29h-502v29q104 3 146.5 34.5t42.5 126.5v1121h-226q-117 0 -189 -73.5t-106 -227.5h-28l55 358h1112z" />
    <glyph glyph-name="U" unicode="U" 
d="M1014 1368h432v-29q-102 -3 -145.5 -34t-43.5 -125v-693q0 -238 -131.5 -377t-357.5 -139q-241 0 -380.5 138.5t-139.5 377.5v693q0 94 -43 125t-144 34v29h500v-29q-101 -3 -143.5 -34t-42.5 -125v-693q0 -204 119.5 -323t324.5 -119q176 0 278.5 119.5t102.5 322.5v693
q0 94 -42.5 125t-143.5 34v29z" />
    <glyph glyph-name="V" unicode="V" horiz-adv-x="1472" 
d="M725 -31l-502 1205q-40 95 -80.5 127.5t-124.5 37.5v29h457v-29q-109 -4 -131 -37t18 -128l416 -1008l412 1008q40 95 19 128t-128 37v29h373v-29q-82 -5 -121.5 -37.5t-79.5 -127.5l-497 -1205h-31z" />
    <glyph glyph-name="W" unicode="W" horiz-adv-x="2041" 
d="M1679 1368h338v-29q-77 -11 -110 -39t-68 -126l-430 -1205h-29l-360 1008l-354 -1008h-29l-434 1205q-13 35 -21 55t-22.5 43t-31.5 35t-43 21t-60 11v29h405v-29q-51 -3 -78.5 -12t-35.5 -31t-3 -48t21 -74l348 -984l307 871l-41 113q-13 36 -22 56.5t-23.5 43.5
t-31.5 34.5t-42.5 20t-60.5 10.5v29h406v-29q-94 -6 -112 -43.5t17 -121.5l348 -990l351 990q11 30 15.5 46.5t8 38t-2.5 33t-19 23.5t-38.5 17.5t-62.5 6.5v29z" />
    <glyph glyph-name="X" unicode="X" horiz-adv-x="1388" 
d="M1128 195q68 -95 114 -128.5t118 -37.5v-29h-453v29q108 5 121 37t-55 129l-309 440l-318 -440q-69 -95 -57.5 -128.5t117.5 -37.5v-29h-377v29q78 4 127 37.5t120 128.5l353 489l-344 490q-67 96 -113 128t-119 37v29h451v-29q-106 -5 -119.5 -36.5t53.5 -128.5
l277 -392l280 392q69 97 58 129t-117 36v29h377v-29q-79 -5 -128.5 -37.5t-117.5 -127.5l-319 -441z" />
    <glyph glyph-name="Y" unicode="Y" horiz-adv-x="1267" 
d="M385 0v29q100 3 142 34t42 127v449l-346 535q-63 95 -105 128t-108 37v29h447v-29q-116 -5 -132.5 -36.5t46.5 -128.5l303 -469l301 469q62 97 44 128.5t-136 36.5v29h377v-29q-70 -5 -112.5 -37t-103.5 -128l-348 -535v-449q0 -96 42.5 -127t142.5 -34v-29h-496z" />
    <glyph glyph-name="Z" unicode="Z" horiz-adv-x="1193" 
d="M1092 358h28l-57 -358h-989v29l862 1282h-492q-117 0 -188.5 -73.5t-105.5 -227.5h-29l55 358h932v-29l-860 -1282h549q117 0 188.5 73.5t106.5 227.5z" />
    <glyph glyph-name="bracketleft" unicode="[" horiz-adv-x="475" 
d="M141 -379v1925h303v-45h-198v-1835h198v-45h-303z" />
    <glyph glyph-name="backslash" unicode="\" horiz-adv-x="698" 
d="M659 -92h-73l-566 1497h74z" />
    <glyph glyph-name="bracketright" unicode="]" horiz-adv-x="475" 
d="M334 -379h-303v45h198v1835h-198v45h303v-1925z" />
    <glyph glyph-name="asciicircum" unicode="^" horiz-adv-x="856" 
d="M57 903l342 508h62l338 -508h-74l-297 453l-295 -453h-76z" />
    <glyph glyph-name="underscore" unicode="_" horiz-adv-x="792" 
d="M59 -82v62h672v-62h-672z" />
    <glyph glyph-name="grave" unicode="`" horiz-adv-x="483" 
d="M381 1155h-29l-250 320h144z" />
    <glyph glyph-name="a" unicode="a" horiz-adv-x="1034" 
d="M950 68h56v-29l-244 -70h-29v273q-47 -127 -140 -200t-208 -73q-117 0 -190.5 74.5t-73.5 192.5q0 145 98 224t328 124l186 37v63q0 145 -70.5 227t-193.5 82q-61 0 -110 -27.5t-74 -71.5t-29 -100t25 -114l-119 -43q-29 62 -31 121t28 112.5t78 93.5t117.5 63.5
t147.5 23.5q157 0 250.5 -98.5t93.5 -268.5v-512q0 -55 24 -78.5t80 -25.5zM733 295v268l-178 -37q-164 -31 -237.5 -91.5t-73.5 -164.5q0 -91 54.5 -149t141.5 -58t166 63.5t127 168.5z" />
    <glyph glyph-name="b" unicode="b" horiz-adv-x="1159" 
d="M659 1051q176 0 289 -146.5t113 -361.5q0 -140 -38.5 -251.5t-104.5 -180.5t-149.5 -105.5t-178.5 -36.5q-85 0 -160.5 39.5t-126.5 110.5l-72 -150h-28v1268q0 54 -24.5 78t-80.5 26h-57v29l246 70h28v-658q45 114 135.5 191.5t208.5 77.5zM627 31q134 0 222.5 127
t88.5 307q0 87 -19.5 171t-57.5 156.5t-103 117t-148 44.5q-87 0 -174.5 -72t-120.5 -165v-375q0 -49 19.5 -101.5t56 -100.5t98.5 -78.5t138 -30.5z" />
    <glyph glyph-name="c" unicode="c" horiz-adv-x="999" 
d="M545 -29q-195 0 -322 149t-127 372q0 246 130.5 402.5t342.5 156.5q131 0 224 -73t112 -167l-121 -43q-8 39 -25.5 76t-46 72t-73 56t-98.5 21q-142 0 -233 -118.5t-91 -303.5q0 -210 101.5 -345.5t271.5 -135.5q202 0 321 207l25 -6q-47 -150 -148 -235t-243 -85z" />
    <glyph glyph-name="d" unicode="d" horiz-adv-x="1120" 
d="M500 -31q-176 0 -290 146.5t-114 361.5q0 140 38.5 251.5t104.5 180.5t149.5 105.5t176.5 36.5q81 0 157 -39t122 -103v328q0 54 -24.5 78t-80.5 26h-55v29l244 70h28v-1268q0 -55 24.5 -78.5t80.5 -25.5h55v-29l-244 -70h-28v269q-43 -121 -137 -195t-207 -74zM547 68
q97 0 178.5 64.5t118.5 170.5v375q0 49 -19.5 101.5t-56.5 100.5t-99 78.5t-137 30.5q-134 0 -223.5 -127t-89.5 -307q0 -87 19.5 -170.5t58 -156t103.5 -116.5t147 -44z" />
    <glyph glyph-name="e" unicode="e" horiz-adv-x="1032" 
d="M911 266l25 -10q-40 -125 -148 -205t-245 -80q-133 0 -235 66.5t-157 183.5t-55 266q0 251 130 407.5t339 156.5q166 0 267.5 -126t101.5 -321h-713q-4 -32 -4 -53q-6 -210 102 -337.5t287 -127.5q191 0 305 180zM535 993q-115 0 -197 -90.5t-109 -240.5h570
q-3 138 -76 234.5t-188 96.5z" />
    <glyph glyph-name="f" unicode="f" horiz-adv-x="671" 
d="M545 1413q-87 0 -133.5 -65t-46.5 -185v-143h284v-57h-284v-811q0 -64 50 -88.5t163 -34.5v-29h-480v29q27 4 46 8.5t41.5 13.5t36 21.5t23 32.5t9.5 47v811h-174v57h174v94q0 174 84.5 265t230.5 91q61 0 116.5 -18.5t86.5 -52.5l-96 -99q-14 49 -49.5 81t-81.5 32z" />
    <glyph glyph-name="g" unicode="g" horiz-adv-x="1073" 
d="M702 127q310 -21 310 -248q0 -146 -144 -229.5t-379 -83.5q-189 0 -304 68.5t-115 179.5q0 50 17.5 93.5t47 74.5t59 51.5t62.5 36.5q-96 44 -96 143q0 57 32.5 110t92.5 89q-73 47 -113.5 120t-40.5 164q0 157 109.5 256t285.5 99q95 0 174 -31h310v-57h-209
q123 -99 123 -267q0 -153 -111 -251.5t-287 -98.5q-124 0 -219 53q-71 -65 -71 -133q0 -42 34.5 -78.5t108.5 -40.5zM512 991q-114 0 -185 -72.5t-71 -189.5q0 -144 79.5 -233.5t205.5 -89.5q115 0 186.5 72.5t71.5 189.5q0 143 -80 233t-207 90zM535 -383q168 0 280.5 62
t112.5 159q0 170 -236 185l-319 20q-51 3 -82 14q-31 -25 -50 -44t-40 -60t-21 -86q0 -112 99 -181t256 -69z" />
    <glyph glyph-name="h" unicode="h" horiz-adv-x="1161" 
d="M983 150q0 -34 12 -56.5t37 -35t45.5 -18t55.5 -11.5v-29h-410v29q35 6 55 11.5t44.5 18t36 35t11.5 56.5v593q0 103 -54 161.5t-150 58.5q-86 0 -161.5 -45.5t-164.5 -151.5v-616q0 -34 11.5 -56.5t36 -35t44.5 -18t55 -11.5v-29h-409v29q35 6 55.5 11.5t45.5 18
t36.5 35t11.5 56.5v1087q0 54 -24.5 78.5t-79.5 25.5h-55v29l243 70h29v-623q90 120 177 177t190 57q130 0 203 -78t73 -223v-600z" />
    <glyph glyph-name="i" unicode="i" horiz-adv-x="559" 
d="M285 1206q-43 0 -73 29t-30 70t30 69.5t73 28.5q41 0 68.5 -28.5t27.5 -69.5q0 -42 -27.5 -70.5t-68.5 -28.5zM356 150q0 -34 12 -56.5t37 -35t45.5 -18t55.5 -11.5v-29h-412v29q35 6 55.5 11.5t45.5 18t37 35t12 56.5v700q0 54 -24.5 78t-80.5 26h-55v29l244 70h28v-903
z" />
    <glyph glyph-name="j" unicode="j" horiz-adv-x="512" 
d="M281 1405q40 0 68 -28.5t28 -69.5t-28 -70t-68 -29q-43 0 -73 29t-30 70t30 69.5t73 28.5zM72 983l243 70h29v-897q0 -231 -68.5 -367.5t-236.5 -222.5l-14 20q110 90 158 209t48 316v739q0 54 -23.5 78.5t-78.5 25.5h-57v29z" />
    <glyph glyph-name="k" unicode="k" horiz-adv-x="1150" 
d="M918 131q36 -53 82.5 -77t123.5 -25v-29h-266q-6 31 -51 100l-309 473l-158 -147v-276q0 -34 11.5 -56.5t36 -35t44.5 -18t55 -11.5v-29h-409v29q35 6 55.5 11.5t45.5 18t36.5 35t11.5 56.5v1087q0 54 -24.5 78.5t-79.5 25.5h-55v29l243 70h29v-932l410 385
q47 43 30.5 70.5t-94.5 27.5v29h356v-29q-60 0 -111.5 -27.5t-129.5 -101.5l-221 -211z" />
    <glyph glyph-name="l" unicode="l" horiz-adv-x="555" 
d="M340 150q0 -34 11.5 -56.5t36 -35t44.5 -18t55 -11.5v-29h-409v29q35 6 55.5 11.5t45.5 18t36.5 35t11.5 56.5v1087q0 54 -24.5 78.5t-79.5 25.5h-55v29l243 70h29v-1290z" />
    <glyph glyph-name="m" unicode="m" horiz-adv-x="1810" 
d="M1634 150q0 -27 9 -47.5t21.5 -32t35 -20.5t38.5 -12.5t44 -8.5v-29h-410v29q35 6 55.5 11.5t45.5 18t37 35t12 56.5v593q0 103 -55 161.5t-150 58.5q-89 0 -166 -47t-168 -156v-10v-600q0 -34 12 -56.5t37 -35t45.5 -18t55.5 -11.5v-29h-410v29q35 6 55 11.5t44.5 18
t36 35t11.5 56.5v593q0 103 -54 161.5t-150 58.5q-82 0 -154.5 -41t-155.5 -136v-636q0 -34 12 -56.5t37 -35t45.5 -18t55.5 -11.5v-29h-412v29q35 6 55.5 11.5t45.5 18t37 35t12 56.5v700q0 54 -24.5 78t-80.5 26h-55v29l244 70h28v-215q85 110 168.5 161.5t182.5 51.5
q118 0 189.5 -63.5t84.5 -182.5q94 127 181.5 186.5t193.5 59.5q130 0 204 -78t74 -223v-600z" />
    <glyph glyph-name="n" unicode="n" horiz-adv-x="1183" 
d="M1006 150q0 -34 12 -56.5t37 -35t45 -18t55 -11.5v-29h-410v29q28 5 44 8.5t39 12.5t35.5 20.5t22 32t9.5 47.5v593q0 103 -55 161.5t-152 58.5q-88 0 -164.5 -47t-167.5 -156v-610q0 -34 12 -56.5t37 -35t45.5 -18t55.5 -11.5v-29h-412v29q35 6 55.5 11.5t45.5 18t37 35
t12 56.5v698q0 55 -24.5 78.5t-80.5 25.5h-55v29l244 70h28v-242q91 125 179.5 183.5t193.5 58.5q130 0 203.5 -78t73.5 -223v-600z" />
    <glyph glyph-name="o" unicode="o" horiz-adv-x="1101" 
d="M541 -29q-197 0 -321 144t-124 374q0 249 129.5 405.5t335.5 156.5q198 0 321.5 -144.5t123.5 -376.5q0 -249 -129 -404t-336 -155zM571 29q140 0 226 124.5t86 319.5q0 59 -10.5 124.5t-37 137t-65 128t-100.5 93.5t-138 37q-140 0 -225.5 -122.5t-85.5 -317.5
q0 -49 7.5 -103t23.5 -114.5t44 -114t65 -97.5t91.5 -69.5t118.5 -25.5z" />
    <glyph glyph-name="p" unicode="p" horiz-adv-x="1200" 
d="M700 1051q176 0 290 -146.5t114 -361.5q0 -140 -38.5 -251.5t-104.5 -180.5t-148.5 -105.5t-175.5 -36.5q-83 0 -159 39.5t-122 104.5v-365q0 -65 48.5 -89t162.5 -34v-28h-477v28q28 4 46 8t40.5 13t35.5 21.5t22.5 33t9.5 47.5v1100q0 55 -24.5 78.5t-80.5 25.5h-55v29
l244 70h28v-265q46 120 140 192.5t204 72.5zM668 31q134 0 223.5 127t89.5 307q0 87 -19.5 170.5t-57.5 156t-103 116.5t-148 44q-97 0 -178.5 -64.5t-118.5 -170.5v-375q0 -49 19.5 -101.5t56.5 -100.5t99 -78.5t137 -30.5z" />
    <glyph glyph-name="q" unicode="q" horiz-adv-x="1144" 
d="M956 -254q0 -33 12.5 -56t37 -36t47.5 -19.5t57 -11.5v-29h-477v29q113 10 162 34.5t49 88.5v490q-47 -114 -137.5 -191.5t-208.5 -77.5q-116 0 -208.5 68t-143 183.5t-50.5 256.5q0 140 38.5 251.5t105 180.5t150.5 105.5t179 36.5q84 0 159 -39t126 -109l74 150h28
v-1305zM547 68q89 0 176.5 70.5t120.5 162.5v385q0 47 -19.5 97.5t-56.5 97t-99 76.5t-137 30q-134 0 -223.5 -127t-89.5 -307q0 -86 19.5 -169.5t58 -155.5t103.5 -116t147 -44z" />
    <glyph glyph-name="r" unicode="r" horiz-adv-x="763" 
d="M641 1051q36 0 82 -19l-8 -119q-38 21 -92 21q-75 0 -146 -54.5t-121 -156.5v-571q0 -64 49 -88.5t162 -34.5v-29h-477v29q34 5 57 11.5t47.5 19.5t37 36t12.5 56v696q0 55 -24.5 78.5t-80.5 25.5h-55v29l244 70h28v-273q55 135 128.5 204t156.5 69z" />
    <glyph glyph-name="s" unicode="s" horiz-adv-x="915" 
d="M477 -29q-127 0 -234.5 66.5t-148.5 171.5l123 53q20 -104 94.5 -168.5t169.5 -64.5q106 0 172.5 56t65.5 146q-1 62 -34 107.5t-85 73t-115 50.5t-126 48t-115.5 55.5t-86 82.5t-34.5 122q-3 126 87 203.5t241 77.5q123 0 219.5 -55t130.5 -146l-113 -51
q-28 87 -95 140.5t-149 53.5q-100 0 -160.5 -50t-60.5 -130q0 -55 32.5 -95.5t84.5 -66t114.5 -48t126 -48t116.5 -58t87.5 -87t36.5 -127.5q3 -138 -93 -225t-251 -87z" />
    <glyph glyph-name="t" unicode="t" horiz-adv-x="651" 
d="M600 963h-309v-730q0 -88 41 -136t119 -48q36 0 64.5 10.5t41 21t29.5 28.5l14 -9q-17 -49 -68.5 -90t-134.5 -41q-102 0 -160.5 68.5t-58.5 193.5v732h-110v28l194 232h29v-203h309v-57z" />
    <glyph glyph-name="u" unicode="u" horiz-adv-x="1150" 
d="M1063 68h55v-29l-244 -70h-28v240q-91 -124 -178.5 -182t-192.5 -58q-130 0 -203 78t-73 223v580q0 54 -24.5 78t-80.5 26h-57v29l244 70h28v-777q0 -103 55 -161t152 -58q87 0 163.5 46.5t166.5 154.5v592q0 54 -24.5 78t-80.5 26h-55v29l244 70h28v-881
q0 -55 24.5 -78.5t80.5 -25.5z" />
    <glyph glyph-name="v" unicode="v" horiz-adv-x="1064" 
d="M520 -31l-360 914q-23 56 -54 80.5t-83 27.5v29h368v-29q-68 -2 -98.5 -31.5t-11.5 -76.5l286 -731l279 731q19 47 -9.5 76.5t-93.5 31.5v29h299v-29q-51 -3 -81 -27.5t-52 -80.5l-360 -914h-29z" />
    <glyph glyph-name="w" unicode="w" horiz-adv-x="1619" 
d="M1303 1020h294v-29q-49 -3 -78 -27.5t-51 -80.5l-356 -914h-29l-270 695l-270 -695h-29l-356 914q-22 55 -52.5 80t-82.5 28v29h364v-29q-66 -2 -96.5 -31.5t-11.5 -76.5l280 -729l223 594l-53 135q-22 55 -53 80t-84 28v29h366v-29q-67 -1 -97 -31t-13 -77l280 -729
l277 729q17 47 -11 76.5t-91 31.5v29z" />
    <glyph glyph-name="x" unicode="x" horiz-adv-x="1089" 
d="M901 137q42 -58 76.5 -81.5t79.5 -26.5v-29h-369v29q67 3 87 30.5t-15 77.5l-246 330l-256 -330q-38 -50 -16.5 -77.5t92.5 -30.5v-29h-303v29q39 3 74 27t81 81l295 377l-274 369q-41 57 -76.5 80t-81.5 28v29h367v-29q-67 -3 -86 -30t16 -78l213 -287l225 287
q37 51 16.5 78t-91.5 30v29h303v-29q-39 -3 -74.5 -27t-81.5 -81l-260 -336z" />
    <glyph glyph-name="y" unicode="y" horiz-adv-x="1058" 
d="M758 1020h299v-29q-52 -3 -82 -26.5t-53 -81.5l-392 -994q-65 -165 -152 -244t-208 -79q-86 0 -147 24l47 134q75 -52 153 -52q167 0 254 232l41 106l-344 873q-23 57 -53.5 81t-81.5 27v29h367v-29q-70 -3 -99.5 -30t-11.5 -76l283 -725l284 723q20 50 -8 77.5t-96 30.5
v29z" />
    <glyph glyph-name="z" unicode="z" horiz-adv-x="950" 
d="M866 1020v-29l-643 -934h393q92 0 143.5 63.5t86.5 207.5h28l-49 -328h-751v29l641 934h-373q-87 0 -133.5 -52t-85.5 -184h-29l27 293h745z" />
    <glyph glyph-name="braceleft" unicode="{" horiz-adv-x="618" 
d="M545 -391q-140 5 -224.5 82t-84.5 213v426q0 108 -45.5 161t-143.5 76v29q98 24 143.5 78.5t45.5 163.5v436q0 135 83.5 207.5t225.5 77.5v-29q-205 -36 -205 -248v-436q0 -108 -43.5 -170.5t-155.5 -91.5q112 -28 155.5 -90t43.5 -170v-428q0 -107 53.5 -174t151.5 -84
v-29z" />
    <glyph glyph-name="bar" unicode="|" horiz-adv-x="339" 
d="M139 -434v2048h62v-2048h-62z" />
    <glyph glyph-name="braceright" unicode="}" horiz-adv-x="618" 
d="M72 -391v29q99 17 151.5 83.5t52.5 174.5v428q0 108 44.5 170t156.5 90q-112 30 -156.5 92t-44.5 170v436q0 213 -204 248v29q143 -5 226 -77t83 -208v-436q0 -109 45.5 -163.5t144.5 -78.5v-29q-99 -23 -144.5 -75.5t-45.5 -161.5v-426q0 -137 -84 -213.5t-225 -81.5z
" />
    <glyph glyph-name="asciitilde" unicode="~" horiz-adv-x="702" 
d="M465 567q-42 0 -133 57.5t-127 57.5q-72 0 -99 -109h-28q11 88 54 140.5t104 52.5q30 0 67.5 -18t67 -39.5t65 -39.5t62.5 -18q72 0 98 107l29 -2q-9 -84 -53 -136.5t-107 -52.5z" />
    <glyph glyph-name="uni00A0" unicode="&#xa0;" horiz-adv-x="409" 
 />
    <glyph glyph-name="exclamdown" unicode="&#xa1;" horiz-adv-x="528" 
d="M264 1038q44 0 74.5 -31t30.5 -75q0 -46 -28.5 -76.5t-76.5 -30.5q-43 0 -74.5 31.5t-31.5 75.5t31.5 75t74.5 31zM250 651h29l59 -1003h-143z" />
    <glyph glyph-name="cent" unicode="&#xa2;" horiz-adv-x="999" 
d="M936 291q-43 -141 -137 -225t-224 -93v-213h-57v211q-185 12 -303.5 159t-118.5 362q0 230 115.5 383.5t306.5 173.5v200h57v-198q128 -1 219.5 -74t110.5 -166l-121 -43q-8 39 -25.5 76t-46 72t-73 56t-98.5 21q-142 0 -233 -118.5t-91 -303.5q0 -210 101.5 -345.5
t271.5 -135.5q202 0 321 207z" />
    <glyph glyph-name="sterling" unicode="&#xa3;" horiz-adv-x="1161" 
d="M1087 283l27 -7q-13 -81 -48.5 -142.5t-84 -95.5t-100 -50.5t-103.5 -16.5q-61 0 -126 19.5t-112 43t-108 43t-115 19.5q-112 0 -249 -96l-21 29q149 158 210.5 283.5t61.5 238.5q0 50 -14 115h-244v61h228q-6 20 -23.5 70.5t-26 78t-16.5 71t-8 81.5q0 168 115 268.5
t301 100.5q89 0 168 -27.5t147 -93t98 -162.5l-137 -45q-33 125 -116 197.5t-183 72.5q-115 0 -193.5 -67.5t-78.5 -177.5q0 -56 15.5 -116.5t42.5 -134.5t38 -116h526v-61h-514q7 -40 7 -70q0 -109 -55.5 -219t-188.5 -240q120 64 223 64q52 0 106.5 -17t93.5 -37.5
t90.5 -37.5t98.5 -17q99 0 167 53t101 138z" />
    <glyph glyph-name="currency" unicode="&#xa4;" horiz-adv-x="1144" 
d="M1028 510q0 -177 -108 -307l180 -180l-41 -43l-180 182q-126 -123 -306 -123q-178 0 -311 123l-174 -176l-43 41l176 178q-108 130 -108 305t108 305l-176 178l43 41l176 -176q129 123 309 123q175 0 306 -121l180 180l41 -41l-180 -182q108 -130 108 -307zM571 98
q163 0 280.5 120t117.5 292q0 171 -116.5 291.5t-281.5 120.5t-282 -120.5t-117 -291.5t117 -291.5t282 -120.5z" />
    <glyph glyph-name="yen" unicode="&#xa5;" horiz-adv-x="1267" 
d="M883 1368h377v-29q-70 -5 -112.5 -37t-103.5 -128l-344 -529h400v-59h-404v-396q0 -96 42.5 -127t142.5 -34v-29h-496v29q100 3 142 34t42 127v396h-403v59h399l-342 529q-63 95 -105 128t-108 37v29h447v-29q-116 -5 -132.5 -36.5t46.5 -128.5l303 -469l301 469
q62 97 44 128.5t-136 36.5v29z" />
    <glyph glyph-name="brokenbar" unicode="&#xa6;" horiz-adv-x="339" 
d="M139 815v799h62v-799h-62zM201 365v-799h-62v799h62z" />
    <glyph glyph-name="section" unicode="&#xa7;" horiz-adv-x="978" 
d="M332 1176q0 -74 31 -149.5t80.5 -143t109.5 -138.5t119.5 -149t109 -160.5t80.5 -187.5t31 -217q0 -203 -120 -334t-312 -131q-117 0 -196.5 67.5t-98.5 159.5l162 39q8 -88 56 -148.5t116 -60.5q61 0 101 39t40 105q0 71 -31 146.5t-80.5 147t-109.5 147t-120.5 158
t-110 168t-80.5 189t-31 209.5q0 127 48 231t147.5 169t234.5 65q120 0 200 -67.5t99 -158.5l-160 -41q-8 89 -58 149t-118 60q-62 0 -100.5 -41t-38.5 -122zM688 -307q69 61 107.5 148.5t38.5 189.5q0 106 -31 206.5t-80.5 180.5t-109.5 157t-120 149t-109.5 142
t-80.5 149.5t-31 158.5q0 64 29 116q-75 -62 -119.5 -154t-44.5 -204q0 -97 31 -195.5t80 -183t109 -167t119.5 -159.5t109 -149t81 -147.5t31.5 -143.5q0 -65 -10 -94z" />
    <glyph glyph-name="dieresis" unicode="&#xa8;" horiz-adv-x="722" 
d="M205 1202q-43 0 -73 28.5t-30 69.5t30 71t73 30q41 0 69.5 -29.5t28.5 -71.5q0 -41 -28.5 -69.5t-69.5 -28.5zM528 1202q-44 0 -73 28t-29 70t29 71.5t73 29.5q41 0 70 -30t29 -71t-29 -69.5t-70 -28.5z" />
    <glyph glyph-name="copyright" unicode="&#xa9;" horiz-adv-x="1630" 
d="M813 -29q-144 0 -275.5 57t-227 152.5t-152 227.5t-56.5 276t56.5 276t152 227.5t227 152.5t275.5 57q145 0 277 -57t228 -152.5t153 -227.5t57 -276t-57 -276t-153 -227.5t-228 -152.5t-277 -57zM813 27q178 0 330 88.5t241 240t89 328.5t-89 328.5t-241 240t-330 88.5
q-133 0 -254 -52.5t-209 -140.5t-140 -209.5t-52 -254.5t52 -254.5t140 -209.5t209 -140.5t254 -52.5zM823 252q-178 0 -287.5 119t-109.5 313q0 195 110 314.5t287 119.5q131 0 218 -71t120 -193l-61 -16q-19 100 -95 161.5t-182 61.5q-155 0 -245.5 -101t-90.5 -276
q0 -173 90.5 -274t245.5 -101q101 0 178.5 60.5t102.5 160.5l57 -12q-31 -120 -123.5 -193t-214.5 -73z" />
    <glyph glyph-name="ordfeminine" unicode="&#xaa;" horiz-adv-x="657" 
d="M614 936h29v-21l-186 -51h-19v158q-26 -73 -83 -115.5t-128 -42.5q-72 0 -119 45t-47 115q0 92 68 139.5t215 73.5l94 18v45q0 86 -38.5 135.5t-104.5 49.5q-71 0 -103 -61.5t1 -129.5l-103 -34q-27 51 -18.5 98t40.5 83t86.5 57.5t118.5 21.5q107 0 169.5 -61t62.5 -163
v-297q0 -60 65 -63zM438 1057v164l-90 -19q-89 -17 -130.5 -52.5t-41.5 -94.5q0 -51 31.5 -84t79.5 -33q43 0 85 32t66 87z" />
    <glyph glyph-name="guillemotleft" unicode="&#xab;" horiz-adv-x="727" 
d="M63 621v22l291 238l17 -19l-176 -229l176 -236l-17 -12zM379 621v22l289 238l18 -19l-178 -229l178 -236l-18 -12z" />
    <glyph glyph-name="logicalnot" unicode="&#xac;" horiz-adv-x="1040" 
d="M930 711v-602h-64v538h-788v64h852z" />
    <glyph glyph-name="registered" unicode="&#xae;" horiz-adv-x="1630" 
d="M813 -29q-144 0 -275.5 57t-227 152.5t-152 227.5t-56.5 276t56.5 276t152 227.5t227 152.5t275.5 57q145 0 277 -57t228 -152.5t153 -227.5t57 -276t-57 -276t-153 -227.5t-228 -152.5t-277 -57zM813 27q178 0 330 88.5t241 240t89 328.5t-89 328.5t-241 240t-330 88.5
q-133 0 -254 -52.5t-209 -140.5t-140 -209.5t-52 -254.5t52 -254.5t140 -209.5t209 -140.5t254 -52.5zM532 254v858h297q107 0 172.5 -62t65.5 -165q0 -77 -47.5 -135t-124.5 -78l256 -418h-74l-248 408h-235v-408h-62zM594 719h233q84 0 131.5 45t47.5 121
q0 77 -47.5 123.5t-129.5 46.5h-235v-336z" />
    <glyph glyph-name="macron" unicode="&#xaf;" horiz-adv-x="684" 
d="M102 1196v61h480v-61h-480z" />
    <glyph glyph-name="degree" unicode="&#xb0;" horiz-adv-x="595" 
d="M301 956q-94 -1 -159.5 63.5t-65.5 156.5q0 91 64.5 154t154.5 65q94 1 159.5 -63t65.5 -156q0 -91 -64.5 -154.5t-154.5 -65.5zM301 1014q68 0 113 47t45 115q0 69 -47 115t-117 46q-69 0 -113.5 -46t-44.5 -115q0 -68 47 -115t117 -47z" />
    <glyph glyph-name="plusminus" unicode="&#xb1;" horiz-adv-x="1009" 
d="M528 770h402v-61h-402v-404h-61v404h-389v61h389v387h61v-387zM78 -20v61h852v-61h-852z" />
    <glyph glyph-name="uni00B2" unicode="&#xb2;" horiz-adv-x="653" 
d="M31 752v16l215 236q43 46 71.5 80t60.5 80.5t48 93.5t16 94q0 72 -44.5 115.5t-116.5 43.5q-67 0 -122 -37t-81 -102l-15 4q19 89 90 151t181 62q107 0 171 -61t64 -162q0 -52 -20.5 -103t-45 -89t-85 -96t-100 -91t-130.5 -107q-7 -6 -11 -9t-10 -8t-11 -9h270
q78 0 109 21t55 102h18l-35 -225h-542z" />
    <glyph glyph-name="uni00B3" unicode="&#xb3;" horiz-adv-x="667" 
d="M322 735q-108 0 -188.5 49.5t-96.5 147.5l121 37q11 -91 59.5 -146t120.5 -55q71 0 112.5 54t41.5 139q0 94 -67.5 149.5t-193.5 54.5v19q106 12 165 63t59 119q0 62 -45.5 103.5t-112.5 41.5q-68 0 -125 -37.5t-80 -101.5l-14 4q16 88 87.5 150.5t182.5 62.5
q107 0 170.5 -56t63.5 -138q0 -84 -64 -137t-174 -74q132 -6 204.5 -62t72.5 -155q0 -107 -80.5 -169.5t-218.5 -62.5z" />
    <glyph glyph-name="acute" unicode="&#xb4;" horiz-adv-x="483" 
d="M102 1155l136 320h143l-250 -320h-29z" />
    <glyph glyph-name="uni00B5" unicode="&#xb5;" horiz-adv-x="1071" 
d="M129 -406v1428h59v-666q0 -84 35.5 -157t107.5 -120.5t167 -47.5q175 0 284 149.5t109 388.5v453h61v-1022h-61v276q-39 -136 -145 -220.5t-250 -84.5q-109 0 -186.5 48t-121.5 124v-549h-59z" />
    <glyph glyph-name="paragraph" unicode="&#xb6;" horiz-adv-x="1091" 
d="M395 -434v1210q-136 0 -231.5 87t-95.5 210t95.5 209t231.5 86h606v-57h-141v-1745h-67v1743h-330v-1743h-68z" />
    <glyph glyph-name="periodcentered" unicode="&#xb7;" horiz-adv-x="444" 
d="M223 590q-43 0 -74.5 31t-31.5 75t31.5 75.5t74.5 31.5q46 0 75.5 -31t29.5 -76q0 -44 -31 -75t-74 -31z" />
    <glyph glyph-name="cedilla" unicode="&#xb8;" horiz-adv-x="493" 
d="M102 -416l2 29q85 -15 138.5 13.5t56.5 86.5q1 50 -32 78.5t-93 38.5l88 170h35l-37 -115q60 -13 95.5 -51.5t35.5 -103.5q0 -90 -81.5 -132.5t-207.5 -13.5z" />
    <glyph glyph-name="uni00B9" unicode="&#xb9;" horiz-adv-x="485" 
d="M68 752v16q78 5 106.5 22.5t28.5 67.5v590h-135v16q162 42 239 113h17v-719q0 -49 25.5 -67t86.5 -23v-16h-368z" />
    <glyph glyph-name="ordmasculine" unicode="&#xba;" horiz-adv-x="688" 
d="M338 864q-128 0 -208.5 88.5t-80.5 227.5q0 150 84 245t217 95q128 0 208.5 -88.5t80.5 -227.5q0 -151 -84 -245.5t-217 -94.5zM360 899q74 0 118 71t44 185q0 56 -11 111.5t-33 106t-60.5 81.5t-87.5 31q-74 0 -119 -71t-45 -185q0 -56 11.5 -112t34 -106t61 -81
t87.5 -31z" />
    <glyph glyph-name="guillemotright" unicode="&#xbb;" horiz-adv-x="727" 
d="M348 621l-289 -236l-18 12l178 236l-178 229l18 19l289 -238v-22zM664 621l-291 -236l-17 12l176 236l-176 229l17 19l291 -238v-22z" />
    <glyph glyph-name="onequarter" unicode="&#xbc;" horiz-adv-x="1353" 
d="M68 547v16q78 5 106.5 22.5t28.5 67.5v590h-135v17q163 42 239 112h17v-719q0 -49 25.5 -67t86.5 -23v-16h-368zM250 0l754 1368h53l-754 -1368h-53zM920 0v16q82 4 109.5 23.5t27.5 66.5v125h-387v23l417 567h89v-553h143v-37h-143v-125q0 -48 26.5 -66.5t87.5 -23.5
v-16h-370zM725 268h332v453z" />
    <glyph glyph-name="onehalf" unicode="&#xbd;" horiz-adv-x="1466" 
d="M68 547v16q78 5 106.5 22.5t28.5 67.5v590h-135v17q163 42 239 112h17v-719q0 -49 25.5 -67t86.5 -23v-16h-368zM246 0l753 1368h54l-754 -1368h-53zM844 0v16l215 236q43 46 71.5 80t60.5 80.5t48 93.5t16 94q0 72 -44.5 116t-116.5 44q-67 0 -122 -37t-81 -102l-14 4
q19 89 89.5 151t180.5 62q107 0 171 -61.5t64 -162.5q0 -52 -20.5 -103t-45 -89t-85 -96t-100 -91t-130.5 -107q-21 -17 -32 -26h270q78 0 109 21t55 102h18l-35 -225h-542z" />
    <glyph glyph-name="threequarters" unicode="&#xbe;" horiz-adv-x="1603" 
d="M322 530q-108 0 -188.5 49.5t-96.5 147.5l121 37q11 -91 59.5 -146t120.5 -55q71 0 112.5 54t41.5 139q0 94 -68 150t-193 55v18q106 12 165 63t59 119q0 62 -45.5 104t-112.5 42q-68 0 -125 -38t-80 -102l-14 4q16 88 87.5 150.5t182.5 62.5q107 0 170.5 -56t63.5 -138
q0 -84 -64 -137t-174 -74q132 -6 204.5 -62t72.5 -155q0 -107 -80.5 -169.5t-218.5 -62.5zM428 0l754 1368h53l-754 -1368h-53zM1171 0v16q81 4 109.5 23.5t28.5 66.5v125h-389v23l417 567h90v-553h144v-37h-144v-125q0 -48 26 -66.5t87 -23.5v-16h-369zM975 268h334v453z
" />
    <glyph glyph-name="questiondown" unicode="&#xbf;" horiz-adv-x="790" 
d="M430 1038q44 0 75.5 -31t31.5 -75t-31.5 -75.5t-75.5 -31.5q-46 0 -75 31t-29 76q0 44 30.5 75t73.5 31zM459 655q17 -77 10 -132t-33 -108t-61 -93.5t-74 -87t-71.5 -88.5t-54 -98.5t-21.5 -117.5q0 -115 66.5 -184.5t174.5 -69.5q106 0 182.5 89t96.5 215l129 -39
q-23 -133 -133 -227.5t-275 -94.5q-170 0 -275.5 88t-105.5 232q0 68 24.5 130t63 109.5t85 92t92 87.5t81.5 86.5t56 97.5t14 113h29z" />
    <glyph glyph-name="Agrave" unicode="&#xc0;" horiz-adv-x="1478" 
d="M799 1503h-29l-250 320h144zM1255 195q40 -95 81 -128t124 -38v-29h-456v29q108 4 130 37.5t-18 128.5l-108 264h-613l-108 -264q-40 -95 -18.5 -128.5t128.5 -37.5v-29h-372v29q81 4 120.5 37t79.5 129l498 1204h31zM418 516h565l-283 688z" />
    <glyph glyph-name="Aacute" unicode="&#xc1;" horiz-adv-x="1478" 
d="M981 1823l-250 -320h-29l136 320h143zM1255 195q40 -95 81 -128t124 -38v-29h-456v29q108 4 130 37.5t-18 128.5l-108 264h-613l-108 -264q-40 -95 -18.5 -128.5t128.5 -37.5v-29h-372v29q81 4 120.5 37t79.5 129l498 1204h31zM418 516h565l-283 688z" />
    <glyph glyph-name="Acircumflex" unicode="&#xc2;" horiz-adv-x="1478" 
d="M731 1737l-235 -232h-29l197 322h135l192 -322h-28zM1255 195q40 -95 81 -128t124 -38v-29h-456v29q108 4 130 37.5t-18 128.5l-108 264h-613l-108 -264q-40 -95 -18.5 -128.5t128.5 -37.5v-29h-372v29q81 4 120.5 37t79.5 129l498 1204h31zM418 516h565l-283 688z" />
    <glyph glyph-name="Atilde" unicode="&#xc3;" horiz-adv-x="1478" 
d="M594 1645q-68 0 -98 -109h-27q9 87 52.5 140t105.5 53q38 0 86.5 -28.5t95.5 -57.5t80 -29q72 0 98 104h27q-8 -83 -51.5 -135.5t-106.5 -52.5q-34 0 -84 29t-98 57.5t-80 28.5zM1255 195q40 -95 81 -128t124 -38v-29h-456v29q108 4 130 37.5t-18 128.5l-108 264h-613
l-108 -264q-40 -95 -18.5 -128.5t128.5 -37.5v-29h-372v29q81 4 120.5 37t79.5 129l498 1204h31zM418 516h565l-283 688z" />
    <glyph glyph-name="Adieresis" unicode="&#xc4;" horiz-adv-x="1478" 
d="M592 1550q-44 0 -74.5 29t-30.5 70t30.5 70.5t74.5 29.5q41 0 69.5 -29.5t28.5 -70.5t-28.5 -70t-69.5 -29zM915 1550q-44 0 -74 29t-30 70q0 42 30 71t74 29q41 0 70 -29.5t29 -70.5t-29 -70t-70 -29zM1255 195q40 -95 81 -128t124 -38v-29h-456v29q108 4 130 37.5
t-18 128.5l-108 264h-613l-108 -264q-40 -95 -18.5 -128.5t128.5 -37.5v-29h-372v29q81 4 120.5 37t79.5 129l498 1204h31zM418 516h565l-283 688z" />
    <glyph glyph-name="Aring" unicode="&#xc5;" horiz-adv-x="1478" 
d="M741 1489q-79 0 -131.5 51.5t-52.5 126.5q0 76 52 126t132 50t132.5 -50t52.5 -126q0 -75 -53 -126.5t-132 -51.5zM741 1790q-51 0 -84.5 -34.5t-33.5 -86.5q0 -53 33.5 -88t84.5 -35q52 0 85.5 35t33.5 88t-33.5 87t-85.5 34zM1255 195q40 -95 81 -128t124 -38v-29h-456
v29q108 4 130 37.5t-18 128.5l-108 264h-613l-108 -264q-40 -95 -18.5 -128.5t128.5 -37.5v-29h-372v29q81 4 120.5 37t79.5 129l498 1204h31zM418 516h565l-283 688z" />
    <glyph glyph-name="AE" unicode="&#xc6;" horiz-adv-x="2064" 
d="M1907 358h28l-55 -358h-1061v29q102 3 144.5 34t42.5 127v283h-496l-168 -258q-56 -85 -36 -128t124 -58v-29h-407v29q77 17 136.5 61t112.5 125l629 965q46 72 14 108.5t-149 50.5v29h1087l56 -358h-29q-34 154 -106 227.5t-189 73.5h-452v-580h317q51 0 82.5 10.5
t48.5 37t22.5 57.5t8.5 86h28v-439h-28q-2 43 -6 70t-13.5 52.5t-27 39t-46 21.5t-69.5 8h-317v-484q0 -73 25.5 -103t86.5 -30h367q117 0 188.5 73.5t106.5 227.5zM547 530h459v705z" />
    <glyph glyph-name="Ccedilla" unicode="&#xc7;" horiz-adv-x="1341" 
d="M723 -31h-16l-27 -84q60 -13 95.5 -51.5t35.5 -103.5q0 -90 -81.5 -132.5t-207.5 -13.5l2 29q85 -15 138.5 13.5t56.5 86.5q1 50 -32 78.5t-93 38.5l74 141q-251 22 -411 213t-159 467q0 217 81.5 387t231 265.5t343.5 95.5q178 0 304.5 -79t164.5 -214l-138 -45
q-37 131 -133.5 206.5t-226.5 75.5q-214 0 -349 -173t-136 -451q0 -282 148 -455.5t388 -173.5q164 0 285.5 83.5t171.5 225.5l24 -6q-57 -199 -198.5 -311.5t-335.5 -112.5z" />
    <glyph glyph-name="Egrave" unicode="&#xc8;" horiz-adv-x="1331" 
d="M729 1503h-29l-249 320h143zM1176 358h28l-57 -358h-1061v29q103 3 145.5 34t42.5 127v990q0 94 -43 125t-145 34v29h1036l56 -358h-29q-34 154 -106 227.5t-189 73.5h-453v-580h310q54 0 87.5 10.5t50.5 37t22.5 57.5t7.5 86h28v-439h-28q-1 43 -5 70t-13.5 52.5t-28 39
t-48 21.5t-73.5 8h-310v-484q0 -73 26 -103t87 -30h367q117 0 188.5 73.5t106.5 227.5z" />
    <glyph glyph-name="Eacute" unicode="&#xc9;" horiz-adv-x="1331" 
d="M911 1823l-249 -320h-29l135 320h143zM1176 358h28l-57 -358h-1061v29q103 3 145.5 34t42.5 127v990q0 94 -43 125t-145 34v29h1036l56 -358h-29q-34 154 -106 227.5t-189 73.5h-453v-580h310q54 0 87.5 10.5t50.5 37t22.5 57.5t7.5 86h28v-439h-28q-1 43 -5 70
t-13.5 52.5t-28 39t-48 21.5t-73.5 8h-310v-484q0 -73 26 -103t87 -30h367q117 0 188.5 73.5t106.5 227.5z" />
    <glyph glyph-name="Ecircumflex" unicode="&#xca;" horiz-adv-x="1331" 
d="M664 1737l-236 -232h-29l197 322h135l193 -322h-29zM1176 358h28l-57 -358h-1061v29q103 3 145.5 34t42.5 127v990q0 94 -43 125t-145 34v29h1036l56 -358h-29q-34 154 -106 227.5t-189 73.5h-453v-580h310q54 0 87.5 10.5t50.5 37t22.5 57.5t7.5 86h28v-439h-28
q-1 43 -5 70t-13.5 52.5t-28 39t-48 21.5t-73.5 8h-310v-484q0 -73 26 -103t87 -30h367q117 0 188.5 73.5t106.5 227.5z" />
    <glyph glyph-name="Edieresis" unicode="&#xcb;" horiz-adv-x="1331" 
d="M522 1550q-43 0 -72.5 29t-29.5 70t29.5 70.5t72.5 29.5q41 0 70 -29.5t29 -70.5t-29 -70t-70 -29zM846 1550q-44 0 -73.5 28.5t-29.5 70.5t29.5 71t73.5 29q41 0 69.5 -29.5t28.5 -70.5t-28.5 -70t-69.5 -29zM1176 358h28l-57 -358h-1061v29q103 3 145.5 34t42.5 127
v990q0 94 -43 125t-145 34v29h1036l56 -358h-29q-34 154 -106 227.5t-189 73.5h-453v-580h310q54 0 87.5 10.5t50.5 37t22.5 57.5t7.5 86h28v-439h-28q-1 43 -5 70t-13.5 52.5t-28 39t-48 21.5t-73.5 8h-310v-484q0 -73 26 -103t87 -30h367q117 0 188.5 73.5t106.5 227.5z
" />
    <glyph glyph-name="Igrave" unicode="&#xcc;" horiz-adv-x="675" 
d="M391 1503h-29l-249 320h143zM86 0v29q52 3 83 9t57 22.5t37 47.5t11 82v990q0 94 -42.5 124t-145.5 35v29h502v-29q-51 -2 -82 -8.5t-57 -23t-37 -47.5t-11 -80v-990q0 -96 42 -126t145 -35v-29h-502z" />
    <glyph glyph-name="Iacute" unicode="&#xcd;" horiz-adv-x="675" 
d="M295 1503l135 320h143l-249 -320h-29zM86 0v29q52 3 83 9t57 22.5t37 47.5t11 82v990q0 94 -42.5 124t-145.5 35v29h502v-29q-51 -2 -82 -8.5t-57 -23t-37 -47.5t-11 -80v-990q0 -96 42 -126t145 -35v-29h-502z" />
    <glyph glyph-name="Icircumflex" unicode="&#xce;" horiz-adv-x="675" 
d="M258 1827h135l193 -322h-29l-231 232l-236 -232h-29zM86 0v29q52 3 83 9t57 22.5t37 47.5t11 82v990q0 94 -42.5 124t-145.5 35v29h502v-29q-51 -2 -82 -8.5t-57 -23t-37 -47.5t-11 -80v-990q0 -96 42 -126t145 -35v-29h-502z" />
    <glyph glyph-name="Idieresis" unicode="&#xcf;" horiz-adv-x="675" 
d="M184 1550q-43 0 -72.5 29t-29.5 70t29.5 70.5t72.5 29.5q41 0 70 -29.5t29 -70.5t-29 -70t-70 -29zM508 1550q-44 0 -73 28.5t-29 70.5t29 71t73 29q41 0 69.5 -29.5t28.5 -70.5t-28.5 -70t-69.5 -29zM86 0v29q52 3 83 9t57 22.5t37 47.5t11 82v990q0 94 -42.5 124
t-145.5 35v29h502v-29q-51 -2 -82 -8.5t-57 -23t-37 -47.5t-11 -80v-990q0 -96 42 -126t145 -35v-29h-502z" />
    <glyph glyph-name="Eth" unicode="&#xd0;" horiz-adv-x="1441" 
d="M649 1368q147 0 266.5 -33t201.5 -91t138 -138.5t81.5 -174.5t25.5 -200q0 -172 -59 -313.5t-156 -231t-217.5 -138t-247.5 -48.5h-596v29q103 3 145.5 34t42.5 127v463h-231v58h231v469q0 94 -43 125t-145 34v29h563zM682 57q250 0 393.5 165.5t143.5 461.5
q0 119 -38.5 229.5t-111 200t-190.5 143.5t-265 54h-213v-600h236v-58h-236v-465q0 -79 60 -105t221 -26z" />
    <glyph glyph-name="Ntilde" unicode="&#xd1;" horiz-adv-x="1519" 
d="M600 1645q-69 0 -98 -109h-27q9 87 52.5 140t105.5 53q38 0 86.5 -28.5t95.5 -57.5t80 -29q72 0 98 106l27 -2q-8 -83 -51.5 -135.5t-106.5 -52.5q-34 0 -84 29t-98 57.5t-80 28.5zM981 1368h453v-29q-109 -5 -148 -39t-39 -126v-1205h-37l-872 1209v-983
q0 -92 43.5 -126.5t165.5 -39.5v-29h-453v29q107 5 147 40t40 126v1058q-38 44 -81 63.5t-114 22.5v29h274l830 -1155v961q0 91 -44 126t-165 39v29z" />
    <glyph glyph-name="Ograve" unicode="&#xd2;" 
d="M817 1503h-29l-249 320h143zM758 -31q-194 0 -345 88t-233 244t-82 354q0 216 85 386t238 264t347 94t344.5 -88t231.5 -244t81 -354q0 -216 -84.5 -386t-236.5 -264t-346 -94zM793 27q147 0 258.5 83.5t171 230t59.5 333.5q0 193 -71.5 345.5t-197 237t-282.5 84.5
q-223 0 -356 -179.5t-133 -467.5q0 -192 72 -345t197.5 -237.5t281.5 -84.5z" />
    <glyph glyph-name="Oacute" unicode="&#xd3;" 
d="M721 1503l135 320h143l-249 -320h-29zM758 -31q-194 0 -345 88t-233 244t-82 354q0 216 85 386t238 264t347 94t344.5 -88t231.5 -244t81 -354q0 -216 -84.5 -386t-236.5 -264t-346 -94zM793 27q147 0 258.5 83.5t171 230t59.5 333.5q0 193 -71.5 345.5t-197 237
t-282.5 84.5q-223 0 -356 -179.5t-133 -467.5q0 -192 72 -345t197.5 -237.5t281.5 -84.5z" />
    <glyph glyph-name="Ocircumflex" unicode="&#xd4;" 
d="M684 1827h135l193 -322h-29l-231 232l-236 -232h-29zM758 -31q-194 0 -345 88t-233 244t-82 354q0 216 85 386t238 264t347 94t344.5 -88t231.5 -244t81 -354q0 -216 -84.5 -386t-236.5 -264t-346 -94zM793 27q147 0 258.5 83.5t171 230t59.5 333.5q0 193 -71.5 345.5
t-197 237t-282.5 84.5q-223 0 -356 -179.5t-133 -467.5q0 -192 72 -345t197.5 -237.5t281.5 -84.5z" />
    <glyph glyph-name="Otilde" unicode="&#xd5;" 
d="M874 1530q-34 0 -84 29t-98 57.5t-80 28.5q-69 0 -98 -109h-27q9 87 52.5 140t105.5 53q38 0 86.5 -28.5t95.5 -57.5t80 -29q73 0 99 106l26 -2q-8 -83 -51.5 -135.5t-106.5 -52.5zM758 -31q-194 0 -345 88t-233 244t-82 354q0 216 85 386t238 264t347 94t344.5 -88
t231.5 -244t81 -354q0 -216 -84.5 -386t-236.5 -264t-346 -94zM793 27q147 0 258.5 83.5t171 230t59.5 333.5q0 193 -71.5 345.5t-197 237t-282.5 84.5q-223 0 -356 -179.5t-133 -467.5q0 -192 72 -345t197.5 -237.5t281.5 -84.5z" />
    <glyph glyph-name="Odieresis" unicode="&#xd6;" 
d="M610 1550q-43 0 -72.5 29t-29.5 70t29.5 70.5t72.5 29.5q41 0 70 -29.5t29 -70.5t-29 -70t-70 -29zM934 1550q-44 0 -73.5 28.5t-29.5 70.5t29.5 71t73.5 29q41 0 69.5 -29.5t28.5 -70.5t-28.5 -70t-69.5 -29zM758 -31q-194 0 -345 88t-233 244t-82 354q0 216 85 386
t238 264t347 94t344.5 -88t231.5 -244t81 -354q0 -216 -84.5 -386t-236.5 -264t-346 -94zM793 27q147 0 258.5 83.5t171 230t59.5 333.5q0 193 -71.5 345.5t-197 237t-282.5 84.5q-223 0 -356 -179.5t-133 -467.5q0 -192 72 -345t197.5 -237.5t281.5 -84.5z" />
    <glyph glyph-name="multiply" unicode="&#xd7;" horiz-adv-x="870" 
d="M793 268l-48 -47l-309 311l-311 -311l-45 49l309 310l-311 311l47 47l311 -311l309 309l46 -49l-308 -307z" />
    <glyph glyph-name="Oslash" unicode="&#xd8;" 
d="M1081 1327q162 -82 253 -243t91 -371q0 -216 -84.5 -386t-236.5 -264t-346 -94q-143 0 -258 47l-86 -192l-54 22l86 193q-164 82 -256 243.5t-92 372.5q0 216 85 386t238 264t347 94q142 0 260 -47l84 190l53 -22zM242 694q0 -183 64.5 -330t178.5 -235l506 1141
q-115 71 -260 71q-223 0 -356 -179.5t-133 -467.5zM793 27q147 0 258.5 83.5t171 230t59.5 333.5q0 182 -64.5 328.5t-177.5 234.5l-505 -1141q117 -69 258 -69z" />
    <glyph glyph-name="Ugrave" unicode="&#xd9;" 
d="M836 1503h-29l-250 320h143zM1014 1368h432v-29q-102 -3 -145.5 -34t-43.5 -125v-693q0 -238 -131.5 -377t-357.5 -139q-241 0 -380.5 138.5t-139.5 377.5v693q0 94 -43 125t-144 34v29h500v-29q-101 -3 -143.5 -34t-42.5 -125v-693q0 -204 119.5 -323t324.5 -119
q176 0 278.5 119.5t102.5 322.5v693q0 94 -42.5 125t-143.5 34v29z" />
    <glyph glyph-name="Uacute" unicode="&#xda;" 
d="M1018 1823l-250 -320h-29l135 320h144zM1014 1368h432v-29q-102 -3 -145.5 -34t-43.5 -125v-693q0 -238 -131.5 -377t-357.5 -139q-241 0 -380.5 138.5t-139.5 377.5v693q0 94 -43 125t-144 34v29h500v-29q-101 -3 -143.5 -34t-42.5 -125v-693q0 -204 119.5 -323
t324.5 -119q176 0 278.5 119.5t102.5 322.5v693q0 94 -42.5 125t-143.5 34v29z" />
    <glyph glyph-name="Ucircumflex" unicode="&#xdb;" 
d="M770 1737l-235 -232h-29l196 322h136l192 -322h-29zM1014 1368h432v-29q-102 -3 -145.5 -34t-43.5 -125v-693q0 -238 -131.5 -377t-357.5 -139q-241 0 -380.5 138.5t-139.5 377.5v693q0 94 -43 125t-144 34v29h500v-29q-101 -3 -143.5 -34t-42.5 -125v-693
q0 -204 119.5 -323t324.5 -119q176 0 278.5 119.5t102.5 322.5v693q0 94 -42.5 125t-143.5 34v29z" />
    <glyph glyph-name="Udieresis" unicode="&#xdc;" 
d="M631 1550q-43 0 -73 29t-30 70t30 70.5t73 29.5q41 0 69.5 -29.5t28.5 -70.5t-28.5 -70t-69.5 -29zM954 1550q-44 0 -73 28.5t-29 70.5t29 71t73 29q41 0 70 -29.5t29 -70.5t-29 -70t-70 -29zM1014 1368h432v-29q-102 -3 -145.5 -34t-43.5 -125v-693q0 -238 -131.5 -377
t-357.5 -139q-241 0 -380.5 138.5t-139.5 377.5v693q0 94 -43 125t-144 34v29h500v-29q-101 -3 -143.5 -34t-42.5 -125v-693q0 -204 119.5 -323t324.5 -119q176 0 278.5 119.5t102.5 322.5v693q0 94 -42.5 125t-143.5 34v29z" />
    <glyph glyph-name="Yacute" unicode="&#xdd;" horiz-adv-x="1267" 
d="M625 1503l135 320h143l-250 -320h-28zM385 0v29q100 3 142 34t42 127v449l-346 535q-63 95 -105 128t-108 37v29h447v-29q-116 -5 -132.5 -36.5t46.5 -128.5l303 -469l301 469q62 97 44 128.5t-136 36.5v29h377v-29q-70 -5 -112.5 -37t-103.5 -128l-348 -535v-449
q0 -96 42.5 -127t142.5 -34v-29h-496z" />
    <glyph glyph-name="Thorn" unicode="&#xde;" horiz-adv-x="1239" 
d="M641 1071q117 0 210.5 -22t163.5 -67t108 -118.5t38 -171.5q0 -192 -140.5 -288.5t-379.5 -96.5h-240v-117q0 -96 42 -126t145 -35v-29h-502v29q52 3 83 9t57 22.5t37 47.5t11 82v990q0 94 -42.5 124t-145.5 35v29h502v-29q-51 -2 -82 -8.5t-57 -23t-37 -47.5t-11 -80
v-109h240zM637 369q182 0 280.5 88.5t98.5 234.5q0 144 -98.5 231t-280.5 87h-236v-641h236z" />
    <glyph glyph-name="germandbls" unicode="&#xdf;" horiz-adv-x="1212" 
d="M637 774q0 -47 28 -82.5t73 -59.5t99 -46t108 -48t99 -59t73 -86.5t28 -122.5q0 -136 -88 -217.5t-228 -81.5q-114 0 -208.5 55t-147.5 167l125 71q20 -108 87.5 -171.5t152.5 -63.5q92 0 149 55.5t57 144.5q0 60 -28 104.5t-73 71.5t-99 50t-108.5 46t-99.5 52t-73 76
t-28 110q0 54 23 96.5t59.5 69t80.5 48.5t88.5 42.5t81 44t59.5 59t23 81.5q0 102 -82 167.5t-219 65.5q-145 0 -214.5 -72t-69.5 -190v-1151h-267v29q27 4 46 8.5t41.5 13.5t36 21.5t23 32.5t9.5 47v811h-174v57h174v82q0 177 107 272.5t315 95.5q105 0 190.5 -31.5
t138 -95.5t52.5 -149q0 -50 -18 -90t-47.5 -64.5t-67.5 -46t-77 -35.5t-77 -32t-67.5 -36.5t-47.5 -48t-18 -67.5z" />
    <glyph glyph-name="agrave" unicode="&#xe0;" horiz-adv-x="1034" 
d="M555 1155h-29l-250 320h144zM950 68h56v-29l-244 -70h-29v273q-47 -127 -140 -200t-208 -73q-117 0 -190.5 74.5t-73.5 192.5q0 145 98 224t328 124l186 37v63q0 145 -70.5 227t-193.5 82q-61 0 -110 -27.5t-74 -71.5t-29 -100t25 -114l-119 -43q-29 62 -31 121t28 112.5
t78 93.5t117.5 63.5t147.5 23.5q157 0 250.5 -98.5t93.5 -268.5v-512q0 -55 24 -78.5t80 -25.5zM733 295v268l-178 -37q-164 -31 -237.5 -91.5t-73.5 -164.5q0 -91 54.5 -149t141.5 -58t166 63.5t127 168.5z" />
    <glyph glyph-name="aacute" unicode="&#xe1;" horiz-adv-x="1034" 
d="M737 1475l-250 -320h-28l135 320h143zM950 68h56v-29l-244 -70h-29v273q-47 -127 -140 -200t-208 -73q-117 0 -190.5 74.5t-73.5 192.5q0 145 98 224t328 124l186 37v63q0 145 -70.5 227t-193.5 82q-61 0 -110 -27.5t-74 -71.5t-29 -100t25 -114l-119 -43q-29 62 -31 121
t28 112.5t78 93.5t117.5 63.5t147.5 23.5q157 0 250.5 -98.5t93.5 -268.5v-512q0 -55 24 -78.5t80 -25.5zM733 295v268l-178 -37q-164 -31 -237.5 -91.5t-73.5 -164.5q0 -91 54.5 -149t141.5 -58t166 63.5t127 168.5z" />
    <glyph glyph-name="acircumflex" unicode="&#xe2;" horiz-adv-x="1034" 
d="M489 1389l-235 -232h-29l197 322h135l193 -322h-29zM950 68h56v-29l-244 -70h-29v273q-47 -127 -140 -200t-208 -73q-117 0 -190.5 74.5t-73.5 192.5q0 145 98 224t328 124l186 37v63q0 145 -70.5 227t-193.5 82q-61 0 -110 -27.5t-74 -71.5t-29 -100t25 -114l-119 -43
q-29 62 -31 121t28 112.5t78 93.5t117.5 63.5t147.5 23.5q157 0 250.5 -98.5t93.5 -268.5v-512q0 -55 24 -78.5t80 -25.5zM733 295v268l-178 -37q-164 -31 -237.5 -91.5t-73.5 -164.5q0 -91 54.5 -149t141.5 -58t166 63.5t127 168.5z" />
    <glyph glyph-name="atilde" unicode="&#xe3;" horiz-adv-x="1034" 
d="M350 1296q-69 0 -98 -108h-27q9 87 52.5 139.5t105.5 52.5q46 0 134.5 -57t127.5 -57q72 0 98 106l27 -2q-8 -83 -51.5 -135.5t-106.5 -52.5q-34 0 -84 28.5t-98.5 57t-79.5 28.5zM950 68h56v-29l-244 -70h-29v273q-47 -127 -140 -200t-208 -73q-117 0 -190.5 74.5
t-73.5 192.5q0 145 98 224t328 124l186 37v63q0 145 -70.5 227t-193.5 82q-61 0 -110 -27.5t-74 -71.5t-29 -100t25 -114l-119 -43q-29 62 -31 121t28 112.5t78 93.5t117.5 63.5t147.5 23.5q157 0 250.5 -98.5t93.5 -268.5v-512q0 -55 24 -78.5t80 -25.5zM733 295v268
l-178 -37q-164 -31 -237.5 -91.5t-73.5 -164.5q0 -91 54.5 -149t141.5 -58t166 63.5t127 168.5z" />
    <glyph glyph-name="adieresis" unicode="&#xe4;" horiz-adv-x="1034" 
d="M348 1202q-43 0 -72.5 28.5t-29.5 69.5q0 42 30 71.5t72 29.5q41 0 69.5 -29.5t28.5 -71.5q0 -41 -28.5 -69.5t-69.5 -28.5zM672 1202q-44 0 -73.5 28.5t-29.5 69.5q0 42 29.5 71.5t73.5 29.5q41 0 69.5 -29.5t28.5 -71.5q0 -41 -28.5 -69.5t-69.5 -28.5zM950 68h56v-29
l-244 -70h-29v273q-47 -127 -140 -200t-208 -73q-117 0 -190.5 74.5t-73.5 192.5q0 145 98 224t328 124l186 37v63q0 145 -70.5 227t-193.5 82q-61 0 -110 -27.5t-74 -71.5t-29 -100t25 -114l-119 -43q-29 62 -31 121t28 112.5t78 93.5t117.5 63.5t147.5 23.5
q157 0 250.5 -98.5t93.5 -268.5v-512q0 -55 24 -78.5t80 -25.5zM733 295v268l-178 -37q-164 -31 -237.5 -91.5t-73.5 -164.5q0 -91 54.5 -149t141.5 -58t166 63.5t127 168.5z" />
    <glyph glyph-name="aring" unicode="&#xe5;" horiz-adv-x="1034" 
d="M500 1143q-81 0 -134 50.5t-53 125.5q0 77 52.5 126.5t134.5 49.5q78 0 130 -50t52 -126q0 -75 -52 -125.5t-130 -50.5zM500 1442q-51 0 -85 -34.5t-34 -86.5q0 -53 34 -88t85 -35t84.5 35t33.5 88q0 52 -33.5 86.5t-84.5 34.5zM950 68h56v-29l-244 -70h-29v273
q-47 -127 -140 -200t-208 -73q-117 0 -190.5 74.5t-73.5 192.5q0 145 98 224t328 124l186 37v63q0 145 -70.5 227t-193.5 82q-61 0 -110 -27.5t-74 -71.5t-29 -100t25 -114l-119 -43q-29 62 -31 121t28 112.5t78 93.5t117.5 63.5t147.5 23.5q157 0 250.5 -98.5t93.5 -268.5
v-512q0 -55 24 -78.5t80 -25.5zM733 295v268l-178 -37q-164 -31 -237.5 -91.5t-73.5 -164.5q0 -91 54.5 -149t141.5 -58t166 63.5t127 168.5z" />
    <glyph glyph-name="ae" unicode="&#xe6;" horiz-adv-x="1669" 
d="M1548 266l23 -10q-39 -125 -146.5 -205t-244.5 -80q-136 0 -238.5 68.5t-157.5 189.5q-60 -125 -155.5 -192.5t-222.5 -67.5q-128 0 -206.5 74t-78.5 193q0 144 98 223t328 125l186 37v63q0 145 -70.5 227t-193.5 82q-61 0 -110 -27.5t-74 -71.5t-29 -101t25 -115
l-119 -43q-29 62 -31 122t28 113t78 93.5t117.5 64t147.5 23.5q119 0 201 -57.5t116 -162.5q61 104 159.5 162t221.5 58q168 0 268.5 -126t100.5 -321h-711q-4 -32 -4 -53q-6 -210 101.5 -337.5t285.5 -127.5q189 0 307 180zM1171 993q-115 0 -196.5 -90.5t-108.5 -240.5
h568q-3 138 -75.5 234.5t-187.5 96.5zM455 63q183 0 315 201q-37 98 -37 221v78l-178 -37q-165 -34 -238 -93t-73 -163q0 -92 57 -149.5t154 -57.5z" />
    <glyph glyph-name="ccedilla" unicode="&#xe7;" horiz-adv-x="999" 
d="M545 -29h-27l-29 -86q60 -13 96 -51.5t36 -103.5q0 -90 -81.5 -132.5t-207.5 -13.5l2 29q85 -15 138 13.5t56 86.5q1 50 -32 78.5t-93 38.5l76 145q-170 26 -276.5 170t-106.5 347q0 246 130.5 402.5t342.5 156.5q131 0 224 -73t112 -167l-121 -43q-8 39 -25.5 76t-46 72
t-73 56t-98.5 21q-142 0 -233 -118.5t-91 -303.5q0 -210 101.5 -345.5t271.5 -135.5q202 0 321 207l25 -6q-47 -150 -148 -235t-243 -85z" />
    <glyph glyph-name="egrave" unicode="&#xe8;" horiz-adv-x="1032" 
d="M608 1155h-28l-250 320h143zM911 266l25 -10q-40 -125 -148 -205t-245 -80q-133 0 -235 66.5t-157 183.5t-55 266q0 251 130 407.5t339 156.5q166 0 267.5 -126t101.5 -321h-713q-4 -32 -4 -53q-6 -210 102 -337.5t287 -127.5q191 0 305 180zM535 993q-115 0 -197 -90.5
t-109 -240.5h570q-3 138 -76 234.5t-188 96.5z" />
    <glyph glyph-name="eacute" unicode="&#xe9;" horiz-adv-x="1032" 
d="M791 1475l-250 -320h-29l135 320h144zM911 266l25 -10q-40 -125 -148 -205t-245 -80q-133 0 -235 66.5t-157 183.5t-55 266q0 251 130 407.5t339 156.5q166 0 267.5 -126t101.5 -321h-713q-4 -32 -4 -53q-6 -210 102 -337.5t287 -127.5q191 0 305 180zM535 993
q-115 0 -197 -90.5t-109 -240.5h570q-3 138 -76 234.5t-188 96.5z" />
    <glyph glyph-name="ecircumflex" unicode="&#xea;" horiz-adv-x="1032" 
d="M541 1389l-236 -232h-29l197 322h135l193 -322h-29zM911 266l25 -10q-40 -125 -148 -205t-245 -80q-133 0 -235 66.5t-157 183.5t-55 266q0 251 130 407.5t339 156.5q166 0 267.5 -126t101.5 -321h-713q-4 -32 -4 -53q-6 -210 102 -337.5t287 -127.5q191 0 305 180z
M535 993q-115 0 -197 -90.5t-109 -240.5h570q-3 138 -76 234.5t-188 96.5z" />
    <glyph glyph-name="edieresis" unicode="&#xeb;" horiz-adv-x="1032" 
d="M401 1202q-43 0 -72.5 28.5t-29.5 69.5q0 42 29.5 71.5t72.5 29.5q41 0 70 -30t29 -71t-29 -69.5t-70 -28.5zM725 1202q-44 0 -73 28t-29 70t29 71.5t73 29.5q41 0 69.5 -29.5t28.5 -71.5q0 -41 -28.5 -69.5t-69.5 -28.5zM911 266l25 -10q-40 -125 -148 -205t-245 -80
q-133 0 -235 66.5t-157 183.5t-55 266q0 251 130 407.5t339 156.5q166 0 267.5 -126t101.5 -321h-713q-4 -32 -4 -53q-6 -210 102 -337.5t287 -127.5q191 0 305 180zM535 993q-115 0 -197 -90.5t-109 -240.5h570q-3 138 -76 234.5t-188 96.5z" />
    <glyph glyph-name="igrave" unicode="&#xec;" horiz-adv-x="575" 
d="M340 1155h-29l-250 320h144zM356 150q0 -34 12 -56.5t37 -35t45.5 -18t55.5 -11.5v-29h-412v29q35 6 55.5 11.5t45.5 18t37 35t12 56.5v700q0 54 -24.5 78t-80.5 26h-55v29l244 70h28v-903z" />
    <glyph glyph-name="iacute" unicode="&#xed;" horiz-adv-x="575" 
d="M524 1475l-250 -320h-28l135 320h143zM356 150q0 -34 12 -56.5t37 -35t45.5 -18t55.5 -11.5v-29h-412v29q35 6 55.5 11.5t45.5 18t37 35t12 56.5v700q0 54 -24.5 78t-80.5 26h-55v29l244 70h28v-903z" />
    <glyph glyph-name="icircumflex" unicode="&#xee;" horiz-adv-x="575" 
d="M342 1479l193 -322h-29l-232 232l-235 -232h-29l197 322h135zM356 150q0 -34 12 -56.5t37 -35t45.5 -18t55.5 -11.5v-29h-412v29q35 6 55.5 11.5t45.5 18t37 35t12 56.5v700q0 54 -24.5 78t-80.5 26h-55v29l244 70h28v-903z" />
    <glyph glyph-name="idieresis" unicode="&#xef;" horiz-adv-x="575" 
d="M233 1300q0 -41 -28.5 -69.5t-69.5 -28.5q-43 0 -72.5 28.5t-29.5 69.5q0 42 29.5 71.5t72.5 29.5q41 0 69.5 -29.5t28.5 -71.5zM459 1401q41 0 69.5 -29.5t28.5 -71.5q0 -41 -28.5 -69.5t-69.5 -28.5q-44 0 -73.5 28.5t-29.5 69.5q0 42 29.5 71.5t73.5 29.5zM356 150
q0 -34 12 -56.5t37 -35t45.5 -18t55.5 -11.5v-29h-412v29q35 6 55.5 11.5t45.5 18t37 35t12 56.5v700q0 54 -24.5 78t-80.5 26h-55v29l244 70h28v-903z" />
    <glyph glyph-name="eth" unicode="&#xf0;" horiz-adv-x="1101" 
d="M1006 532v-18q0 -157 -57.5 -280.5t-164.5 -194t-245 -70.5q-197 0 -320 136t-123 364q0 242 130 394.5t335 152.5q155 0 270 -92q-91 230 -251 360l-244 -154l-31 52l225 139q-106 74 -233 111l10 38q150 -29 281 -112l198 123l29 -47l-176 -111q172 -127 269.5 -332.5
t97.5 -458.5zM571 27q139 0 225.5 121.5t86.5 304.5q0 59 -10.5 123t-37 133.5t-65 123.5t-101 89.5t-139.5 35.5q-138 0 -223.5 -121t-85.5 -309q0 -58 10.5 -121.5t36 -132.5t64 -123t100.5 -89t139 -35z" />
    <glyph glyph-name="ntilde" unicode="&#xf1;" horiz-adv-x="1183" 
d="M477 1296q-69 0 -98 -108h-27q9 87 52.5 139.5t105.5 52.5q46 0 134.5 -57t127.5 -57q72 0 98 106l27 -2q-8 -83 -51.5 -135.5t-106.5 -52.5q-34 0 -84 28.5t-98.5 57t-79.5 28.5zM1006 150q0 -34 12 -56.5t37 -35t45 -18t55 -11.5v-29h-410v29q28 5 44 8.5t39 12.5
t35.5 20.5t22 32t9.5 47.5v593q0 103 -55 161.5t-152 58.5q-88 0 -164.5 -47t-167.5 -156v-610q0 -34 12 -56.5t37 -35t45.5 -18t55.5 -11.5v-29h-412v29q35 6 55.5 11.5t45.5 18t37 35t12 56.5v698q0 55 -24.5 78.5t-80.5 25.5h-55v29l244 70h28v-242q91 125 179.5 183.5
t193.5 58.5q130 0 203.5 -78t73.5 -223v-600z" />
    <glyph glyph-name="ograve" unicode="&#xf2;" horiz-adv-x="1101" 
d="M608 1155h-28l-250 320h143zM541 -29q-197 0 -321 144t-124 374q0 249 129.5 405.5t335.5 156.5q198 0 321.5 -144.5t123.5 -376.5q0 -249 -129 -404t-336 -155zM571 29q140 0 226 124.5t86 319.5q0 59 -10.5 124.5t-37 137t-65 128t-100.5 93.5t-138 37
q-140 0 -225.5 -122.5t-85.5 -317.5q0 -49 7.5 -103t23.5 -114.5t44 -114t65 -97.5t91.5 -69.5t118.5 -25.5z" />
    <glyph glyph-name="oacute" unicode="&#xf3;" horiz-adv-x="1101" 
d="M512 1155l135 320h144l-250 -320h-29zM541 -29q-197 0 -321 144t-124 374q0 249 129.5 405.5t335.5 156.5q198 0 321.5 -144.5t123.5 -376.5q0 -249 -129 -404t-336 -155zM571 29q140 0 226 124.5t86 319.5q0 59 -10.5 124.5t-37 137t-65 128t-100.5 93.5t-138 37
q-140 0 -225.5 -122.5t-85.5 -317.5q0 -49 7.5 -103t23.5 -114.5t44 -114t65 -97.5t91.5 -69.5t118.5 -25.5z" />
    <glyph glyph-name="ocircumflex" unicode="&#xf4;" horiz-adv-x="1101" 
d="M475 1479h135l193 -322h-29l-231 232l-236 -232h-28zM541 -29q-197 0 -321 144t-124 374q0 249 129.5 405.5t335.5 156.5q198 0 321.5 -144.5t123.5 -376.5q0 -249 -129 -404t-336 -155zM571 29q140 0 226 124.5t86 319.5q0 59 -10.5 124.5t-37 137t-65 128t-100.5 93.5
t-138 37q-140 0 -225.5 -122.5t-85.5 -317.5q0 -49 7.5 -103t23.5 -114.5t44 -114t65 -97.5t91.5 -69.5t118.5 -25.5z" />
    <glyph glyph-name="otilde" unicode="&#xf5;" horiz-adv-x="1101" 
d="M666 1182q-42 0 -134 57t-129 57q-69 0 -98 -108h-26q9 87 52 139.5t105 52.5q46 0 134.5 -57t127.5 -57q73 0 99 106l26 -2q-8 -84 -51 -136t-106 -52zM541 -29q-197 0 -321 144t-124 374q0 249 129.5 405.5t335.5 156.5q198 0 321.5 -144.5t123.5 -376.5
q0 -249 -129 -404t-336 -155zM571 29q140 0 226 124.5t86 319.5q0 59 -10.5 124.5t-37 137t-65 128t-100.5 93.5t-138 37q-140 0 -225.5 -122.5t-85.5 -317.5q0 -49 7.5 -103t23.5 -114.5t44 -114t65 -97.5t91.5 -69.5t118.5 -25.5z" />
    <glyph glyph-name="odieresis" unicode="&#xf6;" horiz-adv-x="1101" 
d="M401 1202q-43 0 -72.5 28.5t-29.5 69.5q0 42 29.5 71.5t72.5 29.5q41 0 70 -30t29 -71t-29 -69.5t-70 -28.5zM725 1202q-44 0 -73 28t-29 70t29 71.5t73 29.5q41 0 69.5 -29.5t28.5 -71.5q0 -41 -28.5 -69.5t-69.5 -28.5zM541 -29q-197 0 -321 144t-124 374
q0 249 129.5 405.5t335.5 156.5q198 0 321.5 -144.5t123.5 -376.5q0 -249 -129 -404t-336 -155zM571 29q140 0 226 124.5t86 319.5q0 59 -10.5 124.5t-37 137t-65 128t-100.5 93.5t-138 37q-140 0 -225.5 -122.5t-85.5 -317.5q0 -49 7.5 -103t23.5 -114.5t44 -114t65 -97.5
t91.5 -69.5t118.5 -25.5z" />
    <glyph glyph-name="divide" unicode="&#xf7;" horiz-adv-x="1009" 
d="M504 866q-37 0 -62.5 25t-25.5 63q0 37 25.5 62.5t62.5 25.5q40 0 64 -25t24 -63t-25.5 -63t-62.5 -25zM78 623v61h852v-61h-852zM504 264q-37 0 -62.5 25.5t-25.5 62.5t25.5 62.5t62.5 25.5q40 0 64 -25t24 -63q0 -37 -25.5 -62.5t-62.5 -25.5z" />
    <glyph glyph-name="oslash" unicode="&#xf8;" horiz-adv-x="1101" 
d="M776 995q107 -62 168.5 -184t61.5 -281q0 -249 -129 -404t-336 -155q-87 0 -166 31l-58 -143l-49 20l60 148q-109 62 -170.5 182.5t-61.5 279.5q0 249 129.5 405.5t335.5 156.5q90 0 166 -31l57 141l50 -22zM221 553q0 -109 35.5 -232t108.5 -202l331 821q-72 53 -164 53
q-140 0 -225.5 -122.5t-85.5 -317.5zM571 29q140 0 226 124.5t86 319.5q0 107 -36.5 229t-109.5 201l-329 -821q72 -53 163 -53z" />
    <glyph glyph-name="ugrave" unicode="&#xf9;" horiz-adv-x="1150" 
d="M612 1155h-28l-250 320h143zM1063 68h55v-29l-244 -70h-28v240q-91 -124 -178.5 -182t-192.5 -58q-130 0 -203 78t-73 223v580q0 54 -24.5 78t-80.5 26h-57v29l244 70h28v-777q0 -103 55 -161t152 -58q87 0 163.5 46.5t166.5 154.5v592q0 54 -24.5 78t-80.5 26h-55v29
l244 70h28v-881q0 -55 24.5 -78.5t80.5 -25.5z" />
    <glyph glyph-name="uacute" unicode="&#xfa;" horiz-adv-x="1150" 
d="M795 1475l-250 -320h-29l135 320h144zM1063 68h55v-29l-244 -70h-28v240q-91 -124 -178.5 -182t-192.5 -58q-130 0 -203 78t-73 223v580q0 54 -24.5 78t-80.5 26h-57v29l244 70h28v-777q0 -103 55 -161t152 -58q87 0 163.5 46.5t166.5 154.5v592q0 54 -24.5 78t-80.5 26
h-55v29l244 70h28v-881q0 -55 24.5 -78.5t80.5 -25.5z" />
    <glyph glyph-name="ucircumflex" unicode="&#xfb;" horiz-adv-x="1150" 
d="M547 1389l-236 -232h-28l196 322h135l193 -322h-29zM1063 68h55v-29l-244 -70h-28v240q-91 -124 -178.5 -182t-192.5 -58q-130 0 -203 78t-73 223v580q0 54 -24.5 78t-80.5 26h-57v29l244 70h28v-777q0 -103 55 -161t152 -58q87 0 163.5 46.5t166.5 154.5v592
q0 54 -24.5 78t-80.5 26h-55v29l244 70h28v-881q0 -55 24.5 -78.5t80.5 -25.5z" />
    <glyph glyph-name="udieresis" unicode="&#xfc;" horiz-adv-x="1150" 
d="M406 1202q-43 0 -73 28.5t-30 69.5t30 71t73 30q41 0 69.5 -29.5t28.5 -71.5q0 -41 -28.5 -69.5t-69.5 -28.5zM729 1202q-44 0 -73 28t-29 70t29 71.5t73 29.5q41 0 69.5 -29.5t28.5 -71.5q0 -41 -28.5 -69.5t-69.5 -28.5zM1063 68h55v-29l-244 -70h-28v240
q-91 -124 -178.5 -182t-192.5 -58q-130 0 -203 78t-73 223v580q0 54 -24.5 78t-80.5 26h-57v29l244 70h28v-777q0 -103 55 -161t152 -58q87 0 163.5 46.5t166.5 154.5v592q0 54 -24.5 78t-80.5 26h-55v29l244 70h28v-881q0 -55 24.5 -78.5t80.5 -25.5z" />
    <glyph glyph-name="yacute" unicode="&#xfd;" horiz-adv-x="1058" 
d="M811 1475l-250 -320h-29l136 320h143zM758 1020h299v-29q-52 -3 -82 -26.5t-53 -81.5l-392 -994q-65 -165 -152 -244t-208 -79q-86 0 -147 24l47 134q75 -52 153 -52q167 0 254 232l41 106l-344 873q-23 57 -53.5 81t-81.5 27v29h367v-29q-70 -3 -99.5 -30t-11.5 -76
l283 -725l284 723q20 50 -8 77.5t-96 30.5v29z" />
    <glyph glyph-name="thorn" unicode="&#xfe;" horiz-adv-x="1183" 
d="M684 1051q116 0 208.5 -68t142.5 -183.5t50 -256.5q0 -140 -38.5 -251.5t-104 -180.5t-148.5 -105.5t-176 -36.5q-81 0 -157.5 39.5t-120.5 104.5v-365q0 -65 48.5 -89t162.5 -34v-28h-479v28q28 4 46.5 8t41 13t36 21.5t22.5 33t9 47.5v1489q0 54 -24.5 78.5t-79.5 25.5
h-55v29l243 70h29v-654q44 120 138 192.5t206 72.5zM651 31q89 0 161.5 59t112.5 158.5t40 216.5q0 87 -19.5 170.5t-58 156t-103.5 116.5t-147 44q-98 0 -179 -64.5t-118 -170.5v-375q0 -39 12 -80.5t37.5 -83t61 -74t87.5 -53t113 -20.5z" />
    <glyph glyph-name="ydieresis" unicode="&#xff;" horiz-adv-x="1058" 
d="M422 1202q-43 0 -73 28.5t-30 69.5t30 71t73 30q41 0 69.5 -29.5t28.5 -71.5q0 -41 -28.5 -69.5t-69.5 -28.5zM745 1202q-44 0 -73 28t-29 70t29 71.5t73 29.5q41 0 70 -30t29 -71t-29 -69.5t-70 -28.5zM758 1020h299v-29q-52 -3 -82 -26.5t-53 -81.5l-392 -994
q-65 -165 -152 -244t-208 -79q-86 0 -147 24l47 134q75 -52 153 -52q167 0 254 232l41 106l-344 873q-23 57 -53.5 81t-81.5 27v29h367v-29q-70 -3 -99.5 -30t-11.5 -76l283 -725l284 723q20 50 -8 77.5t-96 30.5v29z" />
    <glyph glyph-name="Amacron" unicode="&#x100;" horiz-adv-x="1478" 
d="M981 1606v-62h-479v62h479zM1255 195q40 -95 81 -128t124 -38v-29h-456v29q108 4 130 37.5t-18 128.5l-108 264h-613l-108 -264q-40 -95 -18.5 -128.5t128.5 -37.5v-29h-372v29q81 4 120.5 37t79.5 129l498 1204h31zM418 516h565l-283 688z" />
    <glyph glyph-name="amacron" unicode="&#x101;" horiz-adv-x="1034" 
d="M737 1257v-61h-479v61h479zM950 68h56v-29l-244 -70h-29v273q-47 -127 -140 -200t-208 -73q-117 0 -190.5 74.5t-73.5 192.5q0 145 98 224t328 124l186 37v63q0 145 -70.5 227t-193.5 82q-61 0 -110 -27.5t-74 -71.5t-29 -100t25 -114l-119 -43q-29 62 -31 121t28 112.5
t78 93.5t117.5 63.5t147.5 23.5q157 0 250.5 -98.5t93.5 -268.5v-512q0 -55 24 -78.5t80 -25.5zM733 295v268l-178 -37q-164 -31 -237.5 -91.5t-73.5 -164.5q0 -91 54.5 -149t141.5 -58t166 63.5t127 168.5z" />
    <glyph glyph-name="Abreve" unicode="&#x102;" horiz-adv-x="1478" 
d="M741 1501q-237 0 -243 322h30q4 -62 24.5 -107.5t52 -69t65 -34t71.5 -10.5q85 0 146.5 51t68.5 170h31q-3 -322 -246 -322zM1255 195q40 -95 81 -128t124 -38v-29h-456v29q108 4 130 37.5t-18 128.5l-108 264h-613l-108 -264q-40 -95 -18.5 -128.5t128.5 -37.5v-29h-372
v29q81 4 120.5 37t79.5 129l498 1204h31zM418 516h565l-283 688z" />
    <glyph glyph-name="abreve" unicode="&#x103;" horiz-adv-x="1034" 
d="M500 1153q-241 0 -244 322h31q7 -119 68.5 -170.5t144.5 -51.5q84 0 145.5 51.5t69.5 170.5h30q-6 -322 -245 -322zM950 68h56v-29l-244 -70h-29v273q-47 -127 -140 -200t-208 -73q-117 0 -190.5 74.5t-73.5 192.5q0 145 98 224t328 124l186 37v63q0 145 -70.5 227
t-193.5 82q-61 0 -110 -27.5t-74 -71.5t-29 -100t25 -114l-119 -43q-29 62 -31 121t28 112.5t78 93.5t117.5 63.5t147.5 23.5q157 0 250.5 -98.5t93.5 -268.5v-512q0 -55 24 -78.5t80 -25.5zM733 295v268l-178 -37q-164 -31 -237.5 -91.5t-73.5 -164.5q0 -91 54.5 -149
t141.5 -58t166 63.5t127 168.5z" />
    <glyph glyph-name="Aogonek" unicode="&#x104;" horiz-adv-x="1478" 
d="M1303 0q-87 -74 -117.5 -124.5t-30.5 -104.5q0 -80 62 -111.5t169 4.5l9 -20q-83 -72 -183 -72q-72 0 -120 44.5t-48 117.5q0 149 222 266h-265v29q107 5 129.5 38t-18.5 128l-108 264h-611l-108 -264q-40 -95 -18.5 -128.5t128.5 -37.5v-29h-372v29q80 5 120 38t80 128
l496 1204h33l501 -1204q40 -95 81 -128t124 -38v-29h-155zM416 516h563l-283 688z" />
    <glyph glyph-name="aogonek" unicode="&#x105;" horiz-adv-x="1034" 
d="M1053 -342l8 -20q-83 -72 -182 -72q-72 0 -120 44.5t-48 117.5q0 165 266 303l-215 -62h-29v273q-47 -127 -140 -200t-208 -73q-117 0 -190.5 74.5t-73.5 192.5q0 145 98 224t328 124l186 37v63q0 145 -70.5 227t-193.5 82q-61 0 -110 -27.5t-74 -71.5t-29 -100t25 -114
l-119 -43q-29 62 -31 121t28 112.5t78 93.5t117.5 63.5t147.5 23.5q157 0 250.5 -98.5t93.5 -268.5v-512q0 -55 24 -78.5t80 -25.5h56v-29h-2l2 -4q-107 -86 -146 -146.5t-39 -121.5q0 -81 62.5 -113t169.5 4zM733 295v268l-178 -37q-164 -31 -237.5 -91.5t-73.5 -164.5
q0 -91 54.5 -149t141.5 -58t166 63.5t127 168.5z" />
    <glyph glyph-name="Cacute" unicode="&#x106;" horiz-adv-x="1341" 
d="M709 1503l135 320h143l-250 -320h-28zM723 -31q-178 0 -322 89t-224 245t-79 348q0 217 81.5 387t231 265.5t343.5 95.5q178 0 304.5 -79t164.5 -214l-138 -45q-37 131 -133.5 206.5t-226.5 75.5q-214 0 -349 -173t-136 -451q0 -282 148 -455.5t388 -173.5
q164 0 285.5 83.5t171.5 225.5l24 -6q-57 -199 -198.5 -311.5t-335.5 -112.5z" />
    <glyph glyph-name="cacute" unicode="&#x107;" horiz-adv-x="999" 
d="M518 1155l135 320h144l-250 -320h-29zM545 -29q-195 0 -322 149t-127 372q0 246 130.5 402.5t342.5 156.5q131 0 224 -73t112 -167l-121 -43q-8 39 -25.5 76t-46 72t-73 56t-98.5 21q-142 0 -233 -118.5t-91 -303.5q0 -210 101.5 -345.5t271.5 -135.5q202 0 321 207
l25 -6q-47 -150 -148 -235t-243 -85z" />
    <glyph glyph-name="Ccircumflex" unicode="&#x108;" horiz-adv-x="1341" 
d="M670 1827h135l192 -322h-28l-232 232l-235 -232h-29zM723 -31q-178 0 -322 89t-224 245t-79 348q0 217 81.5 387t231 265.5t343.5 95.5q178 0 304.5 -79t164.5 -214l-138 -45q-37 131 -133.5 206.5t-226.5 75.5q-214 0 -349 -173t-136 -451q0 -282 148 -455.5t388 -173.5
q164 0 285.5 83.5t171.5 225.5l24 -6q-57 -199 -198.5 -311.5t-335.5 -112.5z" />
    <glyph glyph-name="ccircumflex" unicode="&#x109;" horiz-adv-x="999" 
d="M481 1479h135l193 -322h-29l-231 232l-236 -232h-28zM545 -29q-195 0 -322 149t-127 372q0 246 130.5 402.5t342.5 156.5q131 0 224 -73t112 -167l-121 -43q-8 39 -25.5 76t-46 72t-73 56t-98.5 21q-142 0 -233 -118.5t-91 -303.5q0 -210 101.5 -345.5t271.5 -135.5
q202 0 321 207l25 -6q-47 -150 -148 -235t-243 -85z" />
    <glyph glyph-name="Cdotaccent" unicode="&#x10a;" horiz-adv-x="1341" 
d="M750 1554q-43 0 -73 29t-30 70t30 69.5t73 28.5q40 0 68 -28.5t28 -69.5t-28 -70t-68 -29zM723 -31q-178 0 -322 89t-224 245t-79 348q0 217 81.5 387t231 265.5t343.5 95.5q178 0 304.5 -79t164.5 -214l-138 -45q-37 131 -133.5 206.5t-226.5 75.5q-214 0 -349 -173
t-136 -451q0 -282 148 -455.5t388 -173.5q164 0 285.5 83.5t171.5 225.5l24 -6q-57 -199 -198.5 -311.5t-335.5 -112.5z" />
    <glyph glyph-name="cdotaccent" unicode="&#x10b;" horiz-adv-x="999" 
d="M561 1206q-43 0 -72.5 29t-29.5 70t29.5 69.5t72.5 28.5q40 0 68 -28.5t28 -69.5t-28 -70t-68 -29zM545 -29q-195 0 -322 149t-127 372q0 246 130.5 402.5t342.5 156.5q131 0 224 -73t112 -167l-121 -43q-8 39 -25.5 76t-46 72t-73 56t-98.5 21q-142 0 -233 -118.5
t-91 -303.5q0 -210 101.5 -345.5t271.5 -135.5q202 0 321 207l25 -6q-47 -150 -148 -235t-243 -85z" />
    <glyph glyph-name="Ccaron" unicode="&#x10c;" horiz-adv-x="1341" 
d="M682 1503l-197 320h29l236 -232l231 232h29l-193 -320h-135zM723 -31q-178 0 -322 89t-224 245t-79 348q0 217 81.5 387t231 265.5t343.5 95.5q178 0 304.5 -79t164.5 -214l-138 -45q-37 131 -133.5 206.5t-226.5 75.5q-214 0 -349 -173t-136 -451q0 -282 148 -455.5
t388 -173.5q164 0 285.5 83.5t171.5 225.5l24 -6q-57 -199 -198.5 -311.5t-335.5 -112.5z" />
    <glyph glyph-name="ccaron" unicode="&#x10d;" horiz-adv-x="999" 
d="M494 1155l-197 320h29l235 -232l232 232h28l-192 -320h-135zM545 -29q-195 0 -322 149t-127 372q0 246 130.5 402.5t342.5 156.5q131 0 224 -73t112 -167l-121 -43q-8 39 -25.5 76t-46 72t-73 56t-98.5 21q-142 0 -233 -118.5t-91 -303.5q0 -210 101.5 -345.5
t271.5 -135.5q202 0 321 207l25 -6q-47 -150 -148 -235t-243 -85z" />
    <glyph glyph-name="Dcaron" unicode="&#x10e;" horiz-adv-x="1441" 
d="M662 1503l-197 320h29l235 -232l232 232h28l-192 -320h-135zM649 1368q147 0 266.5 -33t201.5 -91t138 -138.5t81.5 -174.5t25.5 -200q0 -172 -59 -313.5t-156 -231t-217.5 -138t-247.5 -48.5h-596v29q103 3 145.5 34t42.5 127v990q0 94 -43 125t-145 34v29h563zM682 57
q250 0 393.5 165.5t143.5 461.5q0 119 -38.5 229.5t-111 200t-190.5 143.5t-265 54h-213v-1123q0 -79 60 -105t221 -26z" />
    <glyph glyph-name="dcaron" unicode="&#x10f;" horiz-adv-x="1198" 
d="M1065 1151l70 412h141l-182 -412h-29zM500 -31q-176 0 -290 146.5t-114 361.5q0 140 38.5 251.5t104.5 180.5t149.5 105.5t176.5 36.5q81 0 157 -39t122 -103v328q0 54 -24.5 78t-80.5 26h-55v29l244 70h28v-1268q0 -55 24.5 -78.5t80.5 -25.5h55v-29l-244 -70h-28v269
q-43 -121 -137 -195t-207 -74zM547 68q97 0 178.5 64.5t118.5 170.5v375q0 49 -19.5 101.5t-56.5 100.5t-99 78.5t-137 30.5q-134 0 -223.5 -127t-89.5 -307q0 -87 19.5 -170.5t58 -156t103.5 -116.5t147 -44z" />
    <glyph glyph-name="Dcroat" unicode="&#x110;" horiz-adv-x="1441" 
d="M649 1368q147 0 266.5 -33t201.5 -91t138 -138.5t81.5 -174.5t25.5 -200q0 -172 -59 -313.5t-156 -231t-217.5 -138t-247.5 -48.5h-596v29q103 3 145.5 34t42.5 127v463h-231v58h231v469q0 94 -43 125t-145 34v29h563zM682 57q250 0 393.5 165.5t143.5 461.5
q0 119 -38.5 229.5t-111 200t-190.5 143.5t-265 54h-213v-600h236v-58h-236v-465q0 -79 60 -105t221 -26z" />
    <glyph glyph-name="dcroat" unicode="&#x111;" horiz-adv-x="1120" 
d="M1190 1147h-234v-975q0 -55 24.5 -78.5t80.5 -25.5h55v-29l-244 -70h-28v269q-43 -121 -137 -195t-207 -74q-176 0 -290 146.5t-114 361.5q0 140 38.5 251.5t104.5 180.5t149.5 105.5t176.5 36.5q81 0 157 -39t122 -103v238h-248v57h248v33q0 54 -24.5 78t-80.5 26h-55
v29l244 70h28v-236h234v-57zM844 303v375q0 49 -19.5 101.5t-56.5 100.5t-99 78.5t-137 30.5q-134 0 -223.5 -127t-89.5 -307q0 -87 19.5 -170.5t58 -156t103.5 -116.5t147 -44q97 0 178.5 64.5t118.5 170.5z" />
    <glyph glyph-name="Emacron" unicode="&#x112;" horiz-adv-x="1331" 
d="M911 1606v-62h-479v62h479zM1176 358h28l-57 -358h-1061v29q103 3 145.5 34t42.5 127v990q0 94 -43 125t-145 34v29h1036l56 -358h-29q-34 154 -106 227.5t-189 73.5h-453v-580h310q54 0 87.5 10.5t50.5 37t22.5 57.5t7.5 86h28v-439h-28q-1 43 -5 70t-13.5 52.5t-28 39
t-48 21.5t-73.5 8h-310v-484q0 -73 26 -103t87 -30h367q117 0 188.5 73.5t106.5 227.5z" />
    <glyph glyph-name="emacron" unicode="&#x113;" horiz-adv-x="1032" 
d="M791 1257v-61h-480v61h480zM911 266l25 -10q-40 -125 -148 -205t-245 -80q-133 0 -235 66.5t-157 183.5t-55 266q0 251 130 407.5t339 156.5q166 0 267.5 -126t101.5 -321h-713q-4 -32 -4 -53q-6 -210 102 -337.5t287 -127.5q191 0 305 180zM535 993q-115 0 -197 -90.5
t-109 -240.5h570q-3 138 -76 234.5t-188 96.5z" />
    <glyph glyph-name="Ebreve" unicode="&#x114;" horiz-adv-x="1331" 
d="M674 1501q-241 0 -244 322h31q4 -62 24 -107.5t51.5 -69t65.5 -34t72 -10.5q39 0 73 10.5t65.5 34t52 69t24.5 107.5h31q-6 -322 -246 -322zM1176 358h28l-57 -358h-1061v29q103 3 145.5 34t42.5 127v990q0 94 -43 125t-145 34v29h1036l56 -358h-29q-34 154 -106 227.5
t-189 73.5h-453v-580h310q54 0 87.5 10.5t50.5 37t22.5 57.5t7.5 86h28v-439h-28q-1 43 -5 70t-13.5 52.5t-28 39t-48 21.5t-73.5 8h-310v-484q0 -73 26 -103t87 -30h367q117 0 188.5 73.5t106.5 227.5z" />
    <glyph glyph-name="ebreve" unicode="&#x115;" horiz-adv-x="1032" 
d="M551 1153q-241 0 -244 322h31q7 -119 68.5 -170.5t144.5 -51.5q84 0 145.5 51.5t69.5 170.5h31q-6 -322 -246 -322zM911 266l25 -10q-40 -125 -148 -205t-245 -80q-133 0 -235 66.5t-157 183.5t-55 266q0 251 130 407.5t339 156.5q166 0 267.5 -126t101.5 -321h-713
q-4 -32 -4 -53q-6 -210 102 -337.5t287 -127.5q191 0 305 180zM535 993q-115 0 -197 -90.5t-109 -240.5h570q-3 138 -76 234.5t-188 96.5z" />
    <glyph glyph-name="Edotaccent" unicode="&#x116;" horiz-adv-x="1331" 
d="M676 1554q-43 0 -73 29t-30 70t30 69.5t73 28.5q40 0 68 -28.5t28 -69.5t-28 -70t-68 -29zM1176 358h28l-57 -358h-1061v29q103 3 145.5 34t42.5 127v990q0 94 -43 125t-145 34v29h1036l56 -358h-29q-34 154 -106 227.5t-189 73.5h-453v-580h310q54 0 87.5 10.5t50.5 37
t22.5 57.5t7.5 86h28v-439h-28q-1 43 -5 70t-13.5 52.5t-28 39t-48 21.5t-73.5 8h-310v-484q0 -73 26 -103t87 -30h367q117 0 188.5 73.5t106.5 227.5z" />
    <glyph glyph-name="edotaccent" unicode="&#x117;" horiz-adv-x="1032" 
d="M553 1206q-43 0 -72.5 29t-29.5 70t29.5 69.5t72.5 28.5q40 0 68 -28.5t28 -69.5t-28 -70t-68 -29zM911 266l25 -10q-40 -125 -148 -205t-245 -80q-133 0 -235 66.5t-157 183.5t-55 266q0 251 130 407.5t339 156.5q166 0 267.5 -126t101.5 -321h-713q-4 -32 -4 -53
q-6 -210 102 -337.5t287 -127.5q191 0 305 180zM535 993q-115 0 -197 -90.5t-109 -240.5h570q-3 138 -76 234.5t-188 96.5z" />
    <glyph glyph-name="Eogonek" unicode="&#x118;" horiz-adv-x="1331" 
d="M1051 0q-87 -74 -117.5 -124.5t-30.5 -104.5q0 -80 62.5 -111.5t169.5 4.5l8 -20q-83 -72 -182 -72q-72 0 -120 44.5t-48 117.5q0 150 221 266h-928v29q103 3 145.5 34t42.5 127v990q0 94 -43 125t-145 34v29h1036l56 -358h-29q-34 154 -106 227.5t-189 73.5h-453v-580
h310q54 0 87.5 10.5t50.5 37t22.5 57.5t7.5 86h28v-439h-28q-1 43 -5 70t-13.5 52.5t-28 39t-48 21.5t-73.5 8h-310v-484q0 -73 26 -103t87 -30h367q117 0 188.5 73.5t106.5 227.5h28l-57 -358h-96z" />
    <glyph glyph-name="eogonek" unicode="&#x119;" horiz-adv-x="1032" 
d="M602 -233q0 -81 62.5 -113t169.5 4l8 -20q-83 -72 -183 -72q-72 0 -119.5 44.5t-47.5 117.5q0 77 49 136.5t151 133.5q-79 -27 -149 -27q-133 0 -235 66.5t-157 183.5t-55 266q0 251 130 407.5t339 156.5q166 0 267.5 -126t101.5 -321h-713q-4 -32 -4 -53
q-6 -210 102 -337.5t287 -127.5q191 0 305 180l25 -10q-38 -120 -135 -195q-118 -108 -158.5 -171t-40.5 -123zM535 993q-115 0 -197 -90.5t-109 -240.5h570q-3 138 -76 234.5t-188 96.5z" />
    <glyph glyph-name="Ecaron" unicode="&#x11a;" horiz-adv-x="1331" 
d="M743 1503h-135l-196 320h28l236 -232l231 232h29zM1176 358h28l-57 -358h-1061v29q103 3 145.5 34t42.5 127v990q0 94 -43 125t-145 34v29h1036l56 -358h-29q-34 154 -106 227.5t-189 73.5h-453v-580h310q54 0 87.5 10.5t50.5 37t22.5 57.5t7.5 86h28v-439h-28
q-1 43 -5 70t-13.5 52.5t-28 39t-48 21.5t-73.5 8h-310v-484q0 -73 26 -103t87 -30h367q117 0 188.5 73.5t106.5 227.5z" />
    <glyph glyph-name="ecaron" unicode="&#x11b;" horiz-adv-x="1032" 
d="M621 1155h-136l-196 320h28l236 -232l231 232h29zM911 266l25 -10q-40 -125 -148 -205t-245 -80q-133 0 -235 66.5t-157 183.5t-55 266q0 251 130 407.5t339 156.5q166 0 267.5 -126t101.5 -321h-713q-4 -32 -4 -53q-6 -210 102 -337.5t287 -127.5q191 0 305 180z
M535 993q-115 0 -197 -90.5t-109 -240.5h570q-3 138 -76 234.5t-188 96.5z" />
    <glyph glyph-name="Gcircumflex" unicode="&#x11c;" horiz-adv-x="1497" 
d="M686 1827h135l193 -322h-29l-231 232l-236 -232h-29zM743 -31q-183 0 -331.5 90t-231.5 246.5t-82 345.5q0 219 83 388.5t237 264.5t356 95q186 0 325 -80.5t179 -212.5l-137 -45q-38 125 -148.5 203.5t-249.5 78.5q-217 0 -359 -177.5t-142 -456.5q0 -134 42.5 -257.5
t115.5 -216.5t178.5 -148.5t224.5 -55.5q95 0 184.5 30t149.5 91v342q0 88 -43 125t-154 40v29h510v-29q-96 -3 -140 -43.5t-44 -121.5v-291q-72 -101 -208 -167.5t-315 -66.5z" />
    <glyph glyph-name="gcircumflex" unicode="&#x11d;" horiz-adv-x="1073" 
d="M514 1389l-235 -232h-29l196 322h136l192 -322h-29zM702 127q310 -21 310 -248q0 -146 -144 -229.5t-379 -83.5q-189 0 -304 68.5t-115 179.5q0 50 17.5 93.5t47 74.5t59 51.5t62.5 36.5q-96 44 -96 143q0 57 32.5 110t92.5 89q-73 47 -113.5 120t-40.5 164
q0 157 109.5 256t285.5 99q95 0 174 -31h310v-57h-209q123 -99 123 -267q0 -153 -111 -251.5t-287 -98.5q-124 0 -219 53q-71 -65 -71 -133q0 -42 34.5 -78.5t108.5 -40.5zM512 991q-114 0 -185 -72.5t-71 -189.5q0 -144 79.5 -233.5t205.5 -89.5q115 0 186.5 72.5
t71.5 189.5q0 143 -80 233t-207 90zM535 -383q168 0 280.5 62t112.5 159q0 170 -236 185l-319 20q-51 3 -82 14q-31 -25 -50 -44t-40 -60t-21 -86q0 -112 99 -181t256 -69z" />
    <glyph glyph-name="Gbreve" unicode="&#x11e;" horiz-adv-x="1497" 
d="M764 1501q-241 0 -244 322h31q4 -62 24 -107.5t51.5 -69t65.5 -34t72 -10.5q39 0 73 10.5t65.5 34t52 69t24.5 107.5h31q-6 -322 -246 -322zM743 -31q-183 0 -331.5 90t-231.5 246.5t-82 345.5q0 219 83 388.5t237 264.5t356 95q186 0 325 -80.5t179 -212.5l-137 -45
q-38 125 -148.5 203.5t-249.5 78.5q-217 0 -359 -177.5t-142 -456.5q0 -134 42.5 -257.5t115.5 -216.5t178.5 -148.5t224.5 -55.5q95 0 184.5 30t149.5 91v342q0 88 -43 125t-154 40v29h510v-29q-96 -3 -140 -43.5t-44 -121.5v-291q-72 -101 -208 -167.5t-315 -66.5z" />
    <glyph glyph-name="gbreve" unicode="&#x11f;" horiz-adv-x="1073" 
d="M526 1153q-240 0 -243 322h30q7 -119 68.5 -170.5t144.5 -51.5q84 0 145.5 51.5t69.5 170.5h31q-6 -322 -246 -322zM702 127q310 -21 310 -248q0 -146 -144 -229.5t-379 -83.5q-189 0 -304 68.5t-115 179.5q0 50 17.5 93.5t47 74.5t59 51.5t62.5 36.5q-96 44 -96 143
q0 57 32.5 110t92.5 89q-73 47 -113.5 120t-40.5 164q0 157 109.5 256t285.5 99q95 0 174 -31h310v-57h-209q123 -99 123 -267q0 -153 -111 -251.5t-287 -98.5q-124 0 -219 53q-71 -65 -71 -133q0 -42 34.5 -78.5t108.5 -40.5zM512 991q-114 0 -185 -72.5t-71 -189.5
q0 -144 79.5 -233.5t205.5 -89.5q115 0 186.5 72.5t71.5 189.5q0 143 -80 233t-207 90zM535 -383q168 0 280.5 62t112.5 159q0 170 -236 185l-319 20q-51 3 -82 14q-31 -25 -50 -44t-40 -60t-21 -86q0 -112 99 -181t256 -69z" />
    <glyph glyph-name="Gdotaccent" unicode="&#x120;" horiz-adv-x="1497" 
d="M766 1554q-43 0 -72.5 29t-29.5 70t29.5 69.5t72.5 28.5q40 0 68 -28.5t28 -69.5t-28 -70t-68 -29zM743 -31q-183 0 -331.5 90t-231.5 246.5t-82 345.5q0 219 83 388.5t237 264.5t356 95q186 0 325 -80.5t179 -212.5l-137 -45q-38 125 -148.5 203.5t-249.5 78.5
q-217 0 -359 -177.5t-142 -456.5q0 -134 42.5 -257.5t115.5 -216.5t178.5 -148.5t224.5 -55.5q95 0 184.5 30t149.5 91v342q0 88 -43 125t-154 40v29h510v-29q-96 -3 -140 -43.5t-44 -121.5v-291q-72 -101 -208 -167.5t-315 -66.5z" />
    <glyph glyph-name="gdotaccent" unicode="&#x121;" horiz-adv-x="1073" 
d="M528 1206q-43 0 -72.5 29t-29.5 70t29.5 69.5t72.5 28.5q40 0 68.5 -28.5t28.5 -69.5t-28.5 -70t-68.5 -29zM702 127q310 -21 310 -248q0 -146 -144 -229.5t-379 -83.5q-189 0 -304 68.5t-115 179.5q0 50 17.5 93.5t47 74.5t59 51.5t62.5 36.5q-96 44 -96 143
q0 57 32.5 110t92.5 89q-73 47 -113.5 120t-40.5 164q0 157 109.5 256t285.5 99q95 0 174 -31h310v-57h-209q123 -99 123 -267q0 -153 -111 -251.5t-287 -98.5q-124 0 -219 53q-71 -65 -71 -133q0 -42 34.5 -78.5t108.5 -40.5zM512 991q-114 0 -185 -72.5t-71 -189.5
q0 -144 79.5 -233.5t205.5 -89.5q115 0 186.5 72.5t71.5 189.5q0 143 -80 233t-207 90zM535 -383q168 0 280.5 62t112.5 159q0 170 -236 185l-319 20q-51 3 -82 14q-31 -25 -50 -44t-40 -60t-21 -86q0 -112 99 -181t256 -69z" />
    <glyph glyph-name="uni0122" unicode="&#x122;" horiz-adv-x="1497" 
d="M743 -31q-183 0 -331.5 90t-231.5 246.5t-82 345.5q0 219 83 388.5t237 264.5t356 95q186 0 325 -80.5t179 -212.5l-137 -45q-38 125 -148.5 203.5t-249.5 78.5q-217 0 -359 -177.5t-142 -456.5q0 -134 42.5 -257.5t115.5 -216.5t178.5 -148.5t224.5 -55.5q95 0 184.5 30
t149.5 91v342q0 88 -43 125t-154 40v29h510v-29q-96 -3 -140 -43.5t-44 -121.5v-291q-72 -101 -208 -167.5t-315 -66.5zM717 -424l-23 14q34 66 44 152t-9 158l92 10q21 -76 -2.5 -162.5t-101.5 -171.5z" />
    <glyph glyph-name="uni0123" unicode="&#x123;" horiz-adv-x="1073" 
d="M580 1159l-93 -12q-22 75 2 162.5t103 173.5l22 -15q-34 -69 -44 -153t10 -156zM702 127q310 -21 310 -248q0 -146 -144 -229.5t-379 -83.5q-189 0 -304 68.5t-115 179.5q0 50 17.5 93.5t47 74.5t59 51.5t62.5 36.5q-96 44 -96 143q0 57 32.5 110t92.5 89
q-73 47 -113.5 120t-40.5 164q0 157 109.5 256t285.5 99q95 0 174 -31h310v-57h-209q123 -99 123 -267q0 -153 -111 -251.5t-287 -98.5q-124 0 -219 53q-71 -65 -71 -133q0 -42 34.5 -78.5t108.5 -40.5zM512 991q-114 0 -185 -72.5t-71 -189.5q0 -144 79.5 -233.5
t205.5 -89.5q115 0 186.5 72.5t71.5 189.5q0 143 -80 233t-207 90zM535 -383q168 0 280.5 62t112.5 159q0 170 -236 185l-319 20q-51 3 -82 14q-31 -25 -50 -44t-40 -60t-21 -86q0 -112 99 -181t256 -69z" />
    <glyph glyph-name="Hcircumflex" unicode="&#x124;" horiz-adv-x="1570" 
d="M774 1737l-235 -232h-29l197 322h135l192 -322h-28zM1483 1339q-51 -2 -82 -8.5t-57 -23t-37 -47.5t-11 -80v-990q0 -96 42 -126t145 -35v-29h-502v29q52 3 83 9t57 22.5t37 47.5t11 82v484h-768v-484q0 -96 42 -126t145 -35v-29h-502v29q52 3 83 9t57 22.5t37 47.5
t11 82v990q0 94 -42.5 124t-145.5 35v29h502v-29q-51 -2 -82 -8.5t-57 -23t-37 -47.5t-11 -80v-449h768v449q0 94 -42.5 124t-145.5 35v29h502v-29z" />
    <glyph glyph-name="hcircumflex" unicode="&#x125;" horiz-adv-x="1226" 
d="M557 1503l-231 232l-236 -232h-29l197 322h135l193 -322h-29zM1049 150q0 -34 11.5 -56.5t36 -35t44.5 -18t55 -11.5v-29h-410v29q35 6 55.5 11.5t45.5 18t37 35t12 56.5v593q0 103 -55 161.5t-150 58.5q-86 0 -162.5 -45.5t-165.5 -151.5v-616q0 -34 12 -56.5t37 -35
t45.5 -18t55.5 -11.5v-29h-410v29q28 5 44 8.5t38.5 12.5t35 20.5t21.5 32t9 47.5v1087q0 54 -24 78.5t-79 25.5h-57v29l244 70h28v-623q90 120 177 177t190 57q131 0 205 -78t74 -223v-600z" />
    <glyph glyph-name="Hbar" unicode="&#x126;" horiz-adv-x="1570" 
d="M1483 1339q-51 -2 -82 -8.5t-57 -23t-37 -47.5t-11 -80v-136h127v-51h-127v-803q0 -96 42 -126t145 -35v-29h-502v29q52 3 83 9t57 22.5t37 47.5t11 82v484h-768v-484q0 -96 42 -126t145 -35v-29h-502v29q52 3 83 9t57 22.5t37 47.5t11 82v803h-129v51h129v136
q0 94 -42.5 124t-145.5 35v29h502v-29q-51 -2 -82 -8.5t-57 -23t-37 -47.5t-11 -80v-136h768v136q0 94 -42.5 124t-145.5 35v29h502v-29zM1169 731v262h-768v-262h768z" />
    <glyph glyph-name="hbar" unicode="&#x127;" horiz-adv-x="1146" 
d="M969 150q0 -34 11.5 -56.5t36.5 -35t45.5 -18t55.5 -11.5v-29h-409v29q35 6 55 11.5t44.5 18t36 35t11.5 56.5v593q0 103 -54 161.5t-151 58.5q-86 0 -160.5 -45.5t-164.5 -151.5v-616q0 -34 11.5 -56.5t36 -35t44.5 -18t55 -11.5v-29h-410v29q35 6 55.5 11.5t45.5 18
t37 35t12 56.5v997h-219v57h219v33q0 54 -24.5 78.5t-79.5 25.5h-56v29l244 70h29v-236h262v-57h-262v-330q90 120 176.5 177t189.5 57q130 0 203.5 -78t73.5 -223v-600z" />
    <glyph glyph-name="Itilde" unicode="&#x128;" horiz-adv-x="675" 
d="M451 1530q-34 0 -84 29t-98.5 57.5t-80.5 28.5q-69 0 -98 -109h-27q9 87 52.5 140t105.5 53q38 0 86.5 -28.5t95.5 -57.5t80 -29q73 0 99 106l26 -2q-8 -84 -51 -136t-106 -52zM86 0v29q52 3 83 9t57 22.5t37 47.5t11 82v990q0 94 -42.5 124t-145.5 35v29h502v-29
q-51 -2 -82 -8.5t-57 -23t-37 -47.5t-11 -80v-990q0 -96 42 -126t145 -35v-29h-502z" />
    <glyph glyph-name="itilde" unicode="&#x129;" horiz-adv-x="575" 
d="M399 1182q-34 0 -84 28.5t-98.5 57t-79.5 28.5q-69 0 -98 -108h-27q9 87 52.5 139.5t105.5 52.5q46 0 134.5 -57t127.5 -57q72 0 98 106l27 -2q-8 -83 -51.5 -135.5t-106.5 -52.5zM356 150q0 -34 12 -56.5t37 -35t45.5 -18t55.5 -11.5v-29h-412v29q35 6 55.5 11.5
t45.5 18t37 35t12 56.5v700q0 54 -24.5 78t-80.5 26h-55v29l244 70h28v-903z" />
    <glyph glyph-name="Imacron" unicode="&#x12a;" horiz-adv-x="675" 
d="M94 1544v62h479v-62h-479zM86 0v29q52 3 83 9t57 22.5t37 47.5t11 82v990q0 94 -42.5 124t-145.5 35v29h502v-29q-51 -2 -82 -8.5t-57 -23t-37 -47.5t-11 -80v-990q0 -96 42 -126t145 -35v-29h-502z" />
    <glyph glyph-name="imacron" unicode="&#x12b;" horiz-adv-x="575" 
d="M45 1257h479v-61h-479v61zM356 150q0 -34 12 -56.5t37 -35t45.5 -18t55.5 -11.5v-29h-412v29q35 6 55.5 11.5t45.5 18t37 35t12 56.5v700q0 54 -24.5 78t-80.5 26h-55v29l244 70h28v-903z" />
    <glyph glyph-name="Ibreve" unicode="&#x12c;" horiz-adv-x="675" 
d="M336 1501q-241 0 -244 322h31q4 -62 24 -107.5t51.5 -69t65.5 -34t72 -10.5q39 0 73 10.5t65.5 34t52 69t24.5 107.5h31q-6 -322 -246 -322zM86 0v29q52 3 83 9t57 22.5t37 47.5t11 82v990q0 94 -42.5 124t-145.5 35v29h502v-29q-51 -2 -82 -8.5t-57 -23t-37 -47.5
t-11 -80v-990q0 -96 42 -126t145 -35v-29h-502z" />
    <glyph glyph-name="ibreve" unicode="&#x12d;" horiz-adv-x="575" 
d="M285 1153q-241 0 -244 322h31q7 -119 68.5 -170.5t144.5 -51.5q84 0 145.5 51.5t69.5 170.5h30q-6 -322 -245 -322zM356 150q0 -34 12 -56.5t37 -35t45.5 -18t55.5 -11.5v-29h-412v29q35 6 55.5 11.5t45.5 18t37 35t12 56.5v700q0 54 -24.5 78t-80.5 26h-55v29l244 70h28
v-903z" />
    <glyph glyph-name="Iogonek" unicode="&#x12e;" horiz-adv-x="675" 
d="M588 1339q-51 -2 -82 -8.5t-57 -23t-37 -47.5t-11 -80v-990q0 -96 42 -126t145 -35v-29h-176q-87 -74 -117.5 -124.5t-30.5 -104.5q0 -80 62.5 -111.5t169.5 4.5l8 -20q-83 -72 -182 -72q-72 0 -120 44.5t-48 117.5q0 150 221 266h-289v29q52 3 83 9t57 22.5t37 47.5
t11 82v990q0 94 -42.5 124t-145.5 35v29h502v-29z" />
    <glyph glyph-name="iogonek" unicode="&#x12f;" horiz-adv-x="575" 
d="M287 1206q-43 0 -73 29t-30 70t30 69.5t73 28.5q40 0 68 -28.5t28 -69.5t-28 -70t-68 -29zM379 0q-87 -74 -117.5 -124.5t-30.5 -104.5q0 -80 62.5 -111.5t169.5 4.5l8 -20q-83 -72 -182 -72q-72 0 -120 44.5t-48 117.5q0 150 221 266h-248v29q35 6 55.5 11.5t45.5 18
t37 35t12 56.5v700q0 54 -24.5 78t-80.5 26h-55v29l244 70h28v-903q0 -34 12 -56.5t37 -35t45.5 -18t55.5 -11.5v-29h-127z" />
    <glyph glyph-name="Idotaccent" unicode="&#x130;" horiz-adv-x="675" 
d="M338 1554q-43 0 -72.5 29t-29.5 70t29.5 69.5t72.5 28.5q40 0 68 -28.5t28 -69.5t-28 -70t-68 -29zM86 0v29q52 3 83 9t57 22.5t37 47.5t11 82v990q0 94 -42.5 124t-145.5 35v29h502v-29q-51 -2 -82 -8.5t-57 -23t-37 -47.5t-11 -80v-990q0 -96 42 -126t145 -35v-29h-502
z" />
    <glyph glyph-name="IJ" unicode="&#x132;" horiz-adv-x="1695" 
d="M86 0v29q52 3 83 9t57 22.5t37 47.5t11 82v990q0 94 -42.5 124t-145.5 35v29h502v-29q-51 -2 -82 -8.5t-57 -23t-37 -47.5t-11 -80v-990q0 -96 42 -126t145 -35v-29h-502zM1634 1368v-29q-97 -3 -139.5 -36.5t-42.5 -124.5v-799q0 -205 -97.5 -307.5t-275.5 -102.5
q-155 0 -247 81t-121 226l145 41q10 -133 77 -211.5t165 -78.5q104 0 165.5 78t61.5 237v836q0 91 -43.5 124.5t-144.5 36.5v29h497z" />
    <glyph glyph-name="ij" unicode="&#x133;" horiz-adv-x="1015" 
d="M834 1405q40 0 68 -29t28 -69q0 -41 -28 -70t-68 -29q-44 0 -73.5 28.5t-29.5 70.5q0 40 29.5 69t73.5 29zM285 1206q-43 0 -73 29t-30 70t30 69.5t73 28.5q41 0 68.5 -28.5t27.5 -69.5q0 -42 -27.5 -70.5t-68.5 -28.5zM356 150q0 -34 12 -56.5t37 -35t45.5 -18
t55.5 -11.5v-29h-412v29q35 6 55.5 11.5t45.5 18t37 35t12 56.5v700q0 54 -24.5 78t-80.5 26h-55v29l244 70h28v-903zM623 983l245 70h29v-897q0 -230 -69 -367t-236 -223l-14 20q110 90 158 209t48 316v739q0 54 -24 78t-80 26h-57v29z" />
    <glyph glyph-name="Jcircumflex" unicode="&#x134;" horiz-adv-x="1015" 
d="M631 1827h135l192 -322h-28l-232 232l-235 -232h-29zM952 1368v-29q-97 -3 -139.5 -36.5t-42.5 -124.5v-799q0 -205 -97.5 -307.5t-275.5 -102.5q-155 0 -247 81t-121 226l145 41q10 -133 77 -211.5t165 -78.5q104 0 165.5 78t61.5 237v836q0 91 -43.5 124.5t-144.5 36.5
v29h497z" />
    <glyph glyph-name="jcircumflex" unicode="&#x135;" horiz-adv-x="512" 
d="M336 1481l192 -322h-28l-232 232l-235 -232h-29l197 322h135zM72 983l243 70h29v-897q0 -231 -68.5 -367.5t-236.5 -222.5l-14 20q110 90 158 209t48 316v739q0 54 -23.5 78.5t-78.5 25.5h-57v29z" />
    <glyph glyph-name="uni0136" unicode="&#x136;" horiz-adv-x="1476" 
d="M1231 147q37 -51 96.5 -84t120.5 -34v-29h-291q-8 41 -65 117l-465 641l-226 -213v-355q0 -96 42 -126t145 -35v-29h-502v29q52 3 83 9t57 22.5t37 47.5t11 82v990q0 94 -42.5 124t-145.5 35v29h502v-29q-51 -2 -82 -8.5t-57 -23t-37 -47.5t-11 -80v-555l635 596
q64 62 41 88.5t-143 29.5v29h428v-29q-124 -6 -238 -114l-403 -379zM672 -100l92 10q20 -75 -3.5 -162t-101.5 -172l-22 14q34 66 44 152t-9 158z" />
    <glyph glyph-name="uni0137" unicode="&#x137;" horiz-adv-x="1150" 
d="M918 131q36 -53 82.5 -77t123.5 -25v-29h-266q-6 31 -51 100l-309 473l-158 -147v-276q0 -34 11.5 -56.5t36 -35t44.5 -18t55 -11.5v-29h-409v29q35 6 55.5 11.5t45.5 18t36.5 35t11.5 56.5v1087q0 54 -24.5 78.5t-79.5 25.5h-55v29l243 70h29v-932l410 385
q47 43 30.5 70.5t-94.5 27.5v29h356v-29q-60 0 -111.5 -27.5t-129.5 -101.5l-221 -211zM573 -100l93 10q20 -75 -3.5 -162t-101.5 -172l-22 14q34 66 43.5 152t-9.5 158z" />
    <glyph glyph-name="kgreenlandic" unicode="&#x138;" horiz-adv-x="1159" 
d="M926 131q34 -53 80.5 -77t123.5 -25v-29h-264q-9 35 -51 100l-311 475l-158 -151v-274q0 -34 12 -56.5t37 -35t45.5 -18t55.5 -11.5v-29h-410v29q35 6 55 11.5t44.5 18t36 35t11.5 56.5v698q0 56 -23.5 79t-80.5 25h-55v29l243 70h29v-545l410 387q48 43 32 70.5
t-94 27.5v29h355v-29q-60 0 -111 -27.5t-131 -101.5l-221 -209z" />
    <glyph glyph-name="Lacute" unicode="&#x139;" horiz-adv-x="1179" 
d="M575 1823l-249 -320h-29l135 320h143zM1079 358h29l-57 -358h-965v29q103 3 145.5 34t42.5 127v990q0 93 -42.5 124.5t-145.5 34.5v29h502v-29q-101 -3 -144 -34.5t-43 -124.5v-990q0 -73 26 -103t87 -30h270q117 0 188.5 73.5t106.5 227.5z" />
    <glyph glyph-name="lacute" unicode="&#x13a;" horiz-adv-x="555" 
d="M526 1864l-250 -320h-28l135 320h143zM340 150q0 -34 11.5 -56.5t36 -35t44.5 -18t55 -11.5v-29h-409v29q35 6 55.5 11.5t45.5 18t36.5 35t11.5 56.5v1087q0 54 -24.5 78.5t-79.5 25.5h-55v29l243 70h29v-1290z" />
    <glyph glyph-name="uni013B" unicode="&#x13b;" horiz-adv-x="1179" 
d="M1079 358h29l-57 -358h-965v29q103 3 145.5 34t42.5 127v990q0 93 -42.5 124.5t-145.5 34.5v29h502v-29q-101 -3 -144 -34.5t-43 -124.5v-990q0 -73 26 -103t87 -30h270q117 0 188.5 73.5t106.5 227.5zM545 -100l92 10q20 -75 -3.5 -162t-101.5 -172l-22 14q34 66 44 152
t-9 158z" />
    <glyph glyph-name="uni013C" unicode="&#x13c;" horiz-adv-x="555" 
d="M340 150q0 -34 11.5 -56.5t36 -35t44.5 -18t55 -11.5v-29h-409v29q35 6 55.5 11.5t45.5 18t36.5 35t11.5 56.5v1087q0 54 -24.5 78.5t-79.5 25.5h-55v29l243 70h29v-1290zM250 -100l92 10q21 -76 -2.5 -162.5t-101.5 -171.5l-23 14q34 66 44 152t-9 158z" />
    <glyph glyph-name="Lcaron" unicode="&#x13d;" horiz-adv-x="1179" 
d="M887 1563l-182 -412h-29l72 412h139zM1079 358h29l-57 -358h-965v29q103 3 145.5 34t42.5 127v990q0 93 -42.5 124.5t-145.5 34.5v29h502v-29q-101 -3 -144 -34.5t-43 -124.5v-990q0 -73 26 -103t87 -30h270q117 0 188.5 73.5t106.5 227.5z" />
    <glyph glyph-name="lcaron" unicode="&#x13e;" horiz-adv-x="581" 
d="M659 1563l-184 -412h-29l72 412h141zM340 150q0 -34 11.5 -56.5t36 -35t44.5 -18t55 -11.5v-29h-409v29q35 6 55.5 11.5t45.5 18t36.5 35t11.5 56.5v1087q0 54 -24.5 78.5t-79.5 25.5h-55v29l243 70h29v-1290z" />
    <glyph glyph-name="Ldot" unicode="&#x13f;" horiz-adv-x="1179" 
d="M1079 358h29l-57 -358h-965v29q103 3 145.5 34t42.5 127v990q0 93 -42.5 124.5t-145.5 34.5v29h502v-29q-101 -3 -144 -34.5t-43 -124.5v-990q0 -73 26 -103t87 -30h270q117 0 188.5 73.5t106.5 227.5zM782 590q-43 0 -74.5 31t-31.5 75t31.5 75.5t74.5 31.5
q48 0 77.5 -30.5t29.5 -76.5q0 -44 -31.5 -75t-75.5 -31z" />
    <glyph glyph-name="ldot" unicode="&#x140;" horiz-adv-x="731" 
d="M340 150q0 -34 11.5 -56.5t36 -35t44.5 -18t55 -11.5v-29h-409v29q35 6 55.5 11.5t45.5 18t36.5 35t11.5 56.5v1087q0 54 -24.5 78.5t-79.5 25.5h-55v29l243 70h29v-1290zM563 803q46 0 75.5 -31t29.5 -76q0 -44 -31 -75t-74 -31q-44 0 -75 31t-31 75t31 75.5t75 31.5z
" />
    <glyph glyph-name="Lslash" unicode="&#x141;" horiz-adv-x="1179" 
d="M1079 358h29l-57 -358h-965v29q103 3 145.5 34t42.5 127v428l-184 -90v64l184 90v498q0 93 -42.5 124.5t-145.5 34.5v29h502v-29q-101 -3 -144 -34.5t-43 -124.5v-437l398 195v-64l-398 -194v-490q0 -73 26 -103t87 -30h270q117 0 188.5 73.5t106.5 227.5z" />
    <glyph glyph-name="lslash" unicode="&#x142;" horiz-adv-x="559" 
d="M340 150q0 -34 11.5 -56.5t36 -35t44.5 -18t55 -11.5v-29h-409v29q35 6 55.5 11.5t45.5 18t36.5 35t11.5 56.5v530l-153 -78v66l153 75v494q0 54 -24.5 78.5t-79.5 25.5h-55v29l243 70h29v-641l156 78v-64l-156 -78v-585z" />
    <glyph glyph-name="Nacute" unicode="&#x143;" horiz-adv-x="1519" 
d="M987 1823l-250 -320h-28l135 320h143zM981 1368h453v-29q-109 -5 -148 -39t-39 -126v-1205h-37l-872 1209v-983q0 -92 43.5 -126.5t165.5 -39.5v-29h-453v29q107 5 147 40t40 126v1058q-38 44 -81 63.5t-114 22.5v29h274l830 -1155v961q0 91 -44 126t-165 39v29z" />
    <glyph glyph-name="nacute" unicode="&#x144;" horiz-adv-x="1183" 
d="M864 1475l-250 -320h-28l135 320h143zM1006 150q0 -34 12 -56.5t37 -35t45 -18t55 -11.5v-29h-410v29q28 5 44 8.5t39 12.5t35.5 20.5t22 32t9.5 47.5v593q0 103 -55 161.5t-152 58.5q-88 0 -164.5 -47t-167.5 -156v-610q0 -34 12 -56.5t37 -35t45.5 -18t55.5 -11.5v-29
h-412v29q35 6 55.5 11.5t45.5 18t37 35t12 56.5v698q0 55 -24.5 78.5t-80.5 25.5h-55v29l244 70h28v-242q91 125 179.5 183.5t193.5 58.5q130 0 203.5 -78t73.5 -223v-600z" />
    <glyph glyph-name="uni0145" unicode="&#x145;" horiz-adv-x="1519" 
d="M981 1368h453v-29q-109 -5 -148 -39t-39 -126v-1205h-37l-872 1209v-983q0 -92 43.5 -126.5t165.5 -39.5v-29h-453v29q107 5 147 40t40 126v1058q-38 44 -81 63.5t-114 22.5v29h274l830 -1155v961q0 91 -44 126t-165 39v29zM715 -100l92 10q20 -75 -3.5 -162t-101.5 -172
l-22 14q34 66 44 152t-9 158z" />
    <glyph glyph-name="uni0146" unicode="&#x146;" horiz-adv-x="1183" 
d="M1006 150q0 -34 12 -56.5t37 -35t45 -18t55 -11.5v-29h-410v29q28 5 44 8.5t39 12.5t35.5 20.5t22 32t9.5 47.5v593q0 103 -55 161.5t-152 58.5q-88 0 -164.5 -47t-167.5 -156v-610q0 -34 12 -56.5t37 -35t45.5 -18t55.5 -11.5v-29h-412v29q35 6 55.5 11.5t45.5 18t37 35
t12 56.5v698q0 55 -24.5 78.5t-80.5 25.5h-55v29l244 70h28v-242q91 125 179.5 183.5t193.5 58.5q130 0 203.5 -78t73.5 -223v-600zM592 -100l92 10q21 -76 -2.5 -162.5t-101.5 -171.5l-23 14q34 66 44 152t-9 158z" />
    <glyph glyph-name="Ncaron" unicode="&#x147;" horiz-adv-x="1519" 
d="M817 1503h-135l-197 320h29l236 -232l231 232h29zM981 1368h453v-29q-109 -5 -148 -39t-39 -126v-1205h-37l-872 1209v-983q0 -92 43.5 -126.5t165.5 -39.5v-29h-453v29q107 5 147 40t40 126v1058q-38 44 -81 63.5t-114 22.5v29h274l830 -1155v961q0 91 -44 126t-165 39
v29z" />
    <glyph glyph-name="ncaron" unicode="&#x148;" horiz-adv-x="1183" 
d="M696 1155h-135l-196 320h28l236 -232l231 232h29zM1006 150q0 -34 12 -56.5t37 -35t45 -18t55 -11.5v-29h-410v29q28 5 44 8.5t39 12.5t35.5 20.5t22 32t9.5 47.5v593q0 103 -55 161.5t-152 58.5q-88 0 -164.5 -47t-167.5 -156v-610q0 -34 12 -56.5t37 -35t45.5 -18
t55.5 -11.5v-29h-412v29q35 6 55.5 11.5t45.5 18t37 35t12 56.5v698q0 55 -24.5 78.5t-80.5 25.5h-55v29l244 70h28v-242q91 125 179.5 183.5t193.5 58.5q130 0 203.5 -78t73.5 -223v-600z" />
    <glyph glyph-name="napostrophe" unicode="&#x149;" horiz-adv-x="1183" 
d="M367 1368q0 -105 -63.5 -174t-174.5 -78v25q75 14 124.5 64t49.5 128q-28 -28 -74 -28t-73 25.5t-27 68.5q0 40 33 68t80 28q57 0 91 -35t34 -92zM1006 150q0 -34 12 -56.5t37 -35t45 -18t55 -11.5v-29h-410v29q28 5 44 8.5t39 12.5t35.5 20.5t22 32t9.5 47.5v593
q0 103 -55 161.5t-152 58.5q-88 0 -164.5 -47t-167.5 -156v-610q0 -34 12 -56.5t37 -35t45.5 -18t55.5 -11.5v-29h-412v29q35 6 55.5 11.5t45.5 18t37 35t12 56.5v698q0 55 -24.5 78.5t-80.5 25.5h-55v29l244 70h28v-242q91 125 179.5 183.5t193.5 58.5q130 0 203.5 -78
t73.5 -223v-600z" />
    <glyph glyph-name="Eng" unicode="&#x14a;" horiz-adv-x="1519" 
d="M915 -432q-137 0 -222 65.5t-113 190.5l129 29q19 -108 77.5 -173t159.5 -65q110 0 179 76t69 207q0 45 -13 77.5t-40 71.5l-803 1131v-990q0 -81 47.5 -118t161.5 -41v-29h-453v29q101 6 144 43t43 116v1067q-36 42 -79.5 61.5t-115.5 22.5v29h274l830 -1175v987
q0 83 -48 118.5t-161 40.5v29h453v-29q-100 -3 -143.5 -39.5t-43.5 -119.5v-1227q0 -195 -87 -290t-245 -95z" />
    <glyph glyph-name="eng" unicode="&#x14b;" horiz-adv-x="1173" 
d="M727 1051q129 0 204 -78.5t75 -222.5v-594q0 -230 -68.5 -367t-237.5 -223l-12 20q110 90 158.5 209t48.5 316v632q0 103 -55.5 161.5t-153.5 58.5q-86 0 -162.5 -47t-167.5 -156v-610q0 -34 12 -56.5t37 -35t45.5 -18t55.5 -11.5v-29h-412v29q35 6 55.5 11.5t45.5 18
t37 35t12 56.5v698q0 55 -24.5 78.5t-80.5 25.5h-55v29l244 70h28v-242q91 124 179 183t192 59z" />
    <glyph glyph-name="Omacron" unicode="&#x14c;" 
d="M520 1544v62h479v-62h-479zM758 -31q-194 0 -345 88t-233 244t-82 354q0 216 85 386t238 264t347 94t344.5 -88t231.5 -244t81 -354q0 -216 -84.5 -386t-236.5 -264t-346 -94zM793 27q147 0 258.5 83.5t171 230t59.5 333.5q0 193 -71.5 345.5t-197 237t-282.5 84.5
q-223 0 -356 -179.5t-133 -467.5q0 -192 72 -345t197.5 -237.5t281.5 -84.5z" />
    <glyph glyph-name="omacron" unicode="&#x14d;" horiz-adv-x="1101" 
d="M311 1196v61h480v-61h-480zM541 -29q-197 0 -321 144t-124 374q0 249 129.5 405.5t335.5 156.5q198 0 321.5 -144.5t123.5 -376.5q0 -249 -129 -404t-336 -155zM571 29q140 0 226 124.5t86 319.5q0 59 -10.5 124.5t-37 137t-65 128t-100.5 93.5t-138 37
q-140 0 -225.5 -122.5t-85.5 -317.5q0 -49 7.5 -103t23.5 -114.5t44 -114t65 -97.5t91.5 -69.5t118.5 -25.5z" />
    <glyph glyph-name="Obreve" unicode="&#x14e;" 
d="M762 1501q-241 0 -244 322h31q4 -62 24 -107.5t51.5 -69t65.5 -34t72 -10.5q39 0 73 10.5t65.5 34t52 69t24.5 107.5h31q-6 -322 -246 -322zM758 -31q-194 0 -345 88t-233 244t-82 354q0 216 85 386t238 264t347 94t344.5 -88t231.5 -244t81 -354q0 -216 -84.5 -386
t-236.5 -264t-346 -94zM793 27q147 0 258.5 83.5t171 230t59.5 333.5q0 193 -71.5 345.5t-197 237t-282.5 84.5q-223 0 -356 -179.5t-133 -467.5q0 -192 72 -345t197.5 -237.5t281.5 -84.5z" />
    <glyph glyph-name="obreve" unicode="&#x14f;" horiz-adv-x="1101" 
d="M553 1153q-241 0 -244 322h31q7 -119 68.5 -170.5t144.5 -51.5q84 0 145.5 51.5t69.5 170.5h31q-6 -322 -246 -322zM541 -29q-197 0 -321 144t-124 374q0 249 129.5 405.5t335.5 156.5q198 0 321.5 -144.5t123.5 -376.5q0 -249 -129 -404t-336 -155zM571 29
q140 0 226 124.5t86 319.5q0 59 -10.5 124.5t-37 137t-65 128t-100.5 93.5t-138 37q-140 0 -225.5 -122.5t-85.5 -317.5q0 -49 7.5 -103t23.5 -114.5t44 -114t65 -97.5t91.5 -69.5t118.5 -25.5z" />
    <glyph glyph-name="Ohungarumlaut" unicode="&#x150;" 
d="M647 1503l135 320h144l-250 -320h-29zM852 1503l135 320h143l-249 -320h-29zM758 -31q-194 0 -345 88t-233 244t-82 354q0 216 85 386t238 264t347 94t344.5 -88t231.5 -244t81 -354q0 -216 -84.5 -386t-236.5 -264t-346 -94zM793 27q147 0 258.5 83.5t171 230
t59.5 333.5q0 193 -71.5 345.5t-197 237t-282.5 84.5q-223 0 -356 -179.5t-133 -467.5q0 -192 72 -345t197.5 -237.5t281.5 -84.5z" />
    <glyph glyph-name="ohungarumlaut" unicode="&#x151;" horiz-adv-x="1101" 
d="M438 1155l135 320h144l-250 -320h-29zM643 1155l135 320h144l-250 -320h-29zM541 -29q-197 0 -321 144t-124 374q0 249 129.5 405.5t335.5 156.5q198 0 321.5 -144.5t123.5 -376.5q0 -249 -129 -404t-336 -155zM571 29q140 0 226 124.5t86 319.5q0 59 -10.5 124.5
t-37 137t-65 128t-100.5 93.5t-138 37q-140 0 -225.5 -122.5t-85.5 -317.5q0 -49 7.5 -103t23.5 -114.5t44 -114t65 -97.5t91.5 -69.5t118.5 -25.5z" />
    <glyph glyph-name="OE" unicode="&#x152;" horiz-adv-x="2091" 
d="M774 -29q-187 0 -341.5 87t-244.5 244t-90 353q0 161 54.5 300.5t147.5 235.5t219 151t265 55q157 0 263 -29h835l53 -346h-28q-65 293 -293 293h-453v-588h318q51 0 82.5 11t48 38.5t22 59t8.5 86.5h29v-439h-29q-3 55 -8.5 86t-22 58t-48 38t-82.5 11h-318v-486
q0 -73 26.5 -105t86.5 -32h366q116 0 187.5 73t105.5 220h29l-53 -346h-881q-98 -29 -254 -29zM791 33q108 0 175.5 42t67.5 122v966q0 174 -260 174q-231 0 -381.5 -180t-150.5 -463q0 -141 45.5 -265t120.5 -210t175 -136t208 -50z" />
    <glyph glyph-name="oe" unicode="&#x153;" horiz-adv-x="1824" 
d="M1704 266l22 -10q-39 -125 -146.5 -205t-244.5 -80q-134 0 -236 68t-157 188q-59 -121 -163 -188.5t-238 -67.5q-197 0 -321 144t-124 374q0 249 129.5 405.5t335.5 156.5q133 0 235.5 -68.5t157.5 -189.5q59 122 164 190t238 68q167 0 267.5 -125.5t100.5 -321.5h-710
q-4 -32 -4 -53q-6 -210 101 -337.5t286 -127.5q189 0 307 180zM571 29q140 0 226 124.5t86 319.5q0 59 -10.5 124.5t-37 137t-65 128t-100.5 93.5t-138 37q-140 0 -225.5 -122.5t-85.5 -317.5q0 -49 7.5 -103t23.5 -114.5t44 -114t65 -97.5t91.5 -69.5t118.5 -25.5z
M1327 993q-115 0 -196.5 -90.5t-108.5 -240.5h567q-3 138 -75 234.5t-187 96.5z" />
    <glyph glyph-name="Racute" unicode="&#x154;" horiz-adv-x="1345" 
d="M887 1823l-250 -320h-29l135 320h144zM1137 123q34 -41 85.5 -66.5t104.5 -27.5v-29h-270q-12 32 -60 96l-395 510h-201v-416q0 -96 42.5 -127t144.5 -34v-29h-502v29q103 3 145.5 34t42.5 127v990q0 94 -43 125t-145 34v29h541q116 0 209 -22t163 -67t108 -118.5
t38 -171.5q0 -164 -104.5 -258t-288.5 -117zM401 1311v-647h217q185 0 284 89t99 236q0 145 -99.5 233.5t-283.5 88.5h-217z" />
    <glyph glyph-name="racute" unicode="&#x155;" horiz-adv-x="763" 
d="M688 1477l-250 -320h-28l135 320h143zM641 1051q36 0 82 -19l-8 -119q-38 21 -92 21q-75 0 -146 -54.5t-121 -156.5v-571q0 -64 49 -88.5t162 -34.5v-29h-477v29q34 5 57 11.5t47.5 19.5t37 36t12.5 56v696q0 55 -24.5 78.5t-80.5 25.5h-55v29l244 70h28v-273
q55 135 128.5 204t156.5 69z" />
    <glyph glyph-name="uni0156" unicode="&#x156;" horiz-adv-x="1345" 
d="M1137 123q34 -41 85.5 -66.5t104.5 -27.5v-29h-270q-12 32 -60 96l-395 510h-201v-416q0 -96 42.5 -127t144.5 -34v-29h-502v29q103 3 145.5 34t42.5 127v990q0 94 -43 125t-145 34v29h541q116 0 209 -22t163 -67t108 -118.5t38 -171.5q0 -164 -104.5 -258t-288.5 -117z
M401 1311v-647h217q185 0 284 89t99 236q0 145 -99.5 233.5t-283.5 88.5h-217zM631 -100l92 10q20 -75 -3.5 -162t-101.5 -172l-22 14q34 66 44 152t-9 158z" />
    <glyph glyph-name="uni0157" unicode="&#x157;" horiz-adv-x="763" 
d="M641 1051q36 0 82 -19l-8 -119q-38 21 -92 21q-75 0 -146 -54.5t-121 -156.5v-571q0 -64 49 -88.5t162 -34.5v-29h-477v29q34 5 57 11.5t47.5 19.5t37 36t12.5 56v696q0 55 -24.5 78.5t-80.5 25.5h-55v29l244 70h28v-273q55 135 128.5 204t156.5 69zM272 -100l93 10
q20 -75 -3.5 -162t-101.5 -172l-22 14q34 66 43.5 152t-9.5 158z" />
    <glyph glyph-name="Rcaron" unicode="&#x158;" horiz-adv-x="1345" 
d="M717 1503h-135l-197 320h29l235 -232l232 232h28zM1137 123q34 -41 85.5 -66.5t104.5 -27.5v-29h-270q-12 32 -60 96l-395 510h-201v-416q0 -96 42.5 -127t144.5 -34v-29h-502v29q103 3 145.5 34t42.5 127v990q0 94 -43 125t-145 34v29h541q116 0 209 -22t163 -67
t108 -118.5t38 -171.5q0 -164 -104.5 -258t-288.5 -117zM401 1311v-647h217q185 0 284 89t99 236q0 145 -99.5 233.5t-283.5 88.5h-217z" />
    <glyph glyph-name="rcaron" unicode="&#x159;" horiz-adv-x="763" 
d="M520 1157h-135l-197 320h29l236 -232l231 232h29zM641 1051q36 0 82 -19l-8 -119q-38 21 -92 21q-75 0 -146 -54.5t-121 -156.5v-571q0 -64 49 -88.5t162 -34.5v-29h-477v29q34 5 57 11.5t47.5 19.5t37 36t12.5 56v696q0 55 -24.5 78.5t-80.5 25.5h-55v29l244 70h28v-273
q55 135 128.5 204t156.5 69z" />
    <glyph glyph-name="Sacute" unicode="&#x15a;" horiz-adv-x="1148" 
d="M539 1503l135 320h143l-250 -320h-28zM590 -29q-183 0 -317 88.5t-169 235.5l134 43q29 -138 132 -223.5t240 -85.5q138 0 224 75t86 195q0 69 -26 123t-70.5 90.5t-101.5 66t-120.5 54t-127 49.5t-120.5 57t-101.5 72t-70.5 100t-26 136q0 155 119 252.5t309 97.5
q155 0 281 -78t167 -205l-133 -43q-35 119 -131.5 193.5t-206.5 74.5q-131 0 -213 -67.5t-82 -175.5q0 -61 26.5 -110t71.5 -82.5t103.5 -62t123 -53t129 -51t123 -60.5t103.5 -76.5t71.5 -105t26.5 -139.5q0 -175 -122.5 -280t-331.5 -105z" />
    <glyph glyph-name="sacute" unicode="&#x15b;" horiz-adv-x="915" 
d="M412 1155l135 320h143l-250 -320h-28zM477 -29q-127 0 -234.5 66.5t-148.5 171.5l123 53q20 -104 94.5 -168.5t169.5 -64.5q106 0 172.5 56t65.5 146q-1 62 -34 107.5t-85 73t-115 50.5t-126 48t-115.5 55.5t-86 82.5t-34.5 122q-3 126 87 203.5t241 77.5
q123 0 219.5 -55t130.5 -146l-113 -51q-28 87 -95 140.5t-149 53.5q-100 0 -160.5 -50t-60.5 -130q0 -55 32.5 -95.5t84.5 -66t114.5 -48t126 -48t116.5 -58t87.5 -87t36.5 -127.5q3 -138 -93 -225t-251 -87z" />
    <glyph glyph-name="Scircumflex" unicode="&#x15c;" horiz-adv-x="1148" 
d="M500 1827h135l192 -322h-28l-232 232l-235 -232h-29zM590 -29q-183 0 -317 88.5t-169 235.5l134 43q29 -138 132 -223.5t240 -85.5q138 0 224 75t86 195q0 69 -26 123t-70.5 90.5t-101.5 66t-120.5 54t-127 49.5t-120.5 57t-101.5 72t-70.5 100t-26 136q0 155 119 252.5
t309 97.5q155 0 281 -78t167 -205l-133 -43q-35 119 -131.5 193.5t-206.5 74.5q-131 0 -213 -67.5t-82 -175.5q0 -61 26.5 -110t71.5 -82.5t103.5 -62t123 -53t129 -51t123 -60.5t103.5 -76.5t71.5 -105t26.5 -139.5q0 -175 -122.5 -280t-331.5 -105z" />
    <glyph glyph-name="scircumflex" unicode="&#x15d;" horiz-adv-x="915" 
d="M373 1479h135l192 -322h-28l-232 232l-235 -232h-29zM477 -29q-127 0 -234.5 66.5t-148.5 171.5l123 53q20 -104 94.5 -168.5t169.5 -64.5q106 0 172.5 56t65.5 146q-1 62 -34 107.5t-85 73t-115 50.5t-126 48t-115.5 55.5t-86 82.5t-34.5 122q-3 126 87 203.5t241 77.5
q123 0 219.5 -55t130.5 -146l-113 -51q-28 87 -95 140.5t-149 53.5q-100 0 -160.5 -50t-60.5 -130q0 -55 32.5 -95.5t84.5 -66t114.5 -48t126 -48t116.5 -58t87.5 -87t36.5 -127.5q3 -138 -93 -225t-251 -87z" />
    <glyph glyph-name="Scedilla" unicode="&#x15e;" horiz-adv-x="1148" 
d="M1044 356q0 -171 -118 -276t-320 -109l-28 -86q60 -13 95.5 -51.5t35.5 -103.5q0 -90 -81.5 -132.5t-207.5 -13.5l2 29q85 -15 138 13.5t56 86.5q3 97 -124 117l73 141q-174 6 -300.5 94t-160.5 230l134 43q29 -138 132 -223.5t240 -85.5q138 0 224 75t86 195
q0 69 -26 123t-70.5 90.5t-101.5 66t-120.5 54t-127 49.5t-120.5 57t-101.5 72t-70.5 100t-26 136q0 155 119 252.5t309 97.5q155 0 281 -78t167 -205l-133 -43q-35 119 -131.5 193.5t-206.5 74.5q-131 0 -213 -67.5t-82 -175.5q0 -61 26.5 -110t71.5 -82.5t103.5 -62
t123 -53t129 -51t123 -60.5t103.5 -76.5t71.5 -105t26.5 -139.5z" />
    <glyph glyph-name="scedilla" unicode="&#x15f;" horiz-adv-x="915" 
d="M477 -29h-16l-29 -86q60 -13 95.5 -51.5t35.5 -103.5q0 -90 -81.5 -132.5t-207.5 -13.5l2 29q85 -15 138.5 13.5t56.5 86.5q1 50 -32 78.5t-93 38.5l76 145q-111 14 -201.5 77.5t-126.5 156.5l123 53q20 -104 94.5 -168.5t169.5 -64.5q106 0 172.5 56t65.5 146
q-1 62 -34 107.5t-85 73t-115 50.5t-126 48t-115.5 55.5t-86 82.5t-34.5 122q-3 126 87 203.5t241 77.5q123 0 219.5 -55t130.5 -146l-113 -51q-28 87 -95 140.5t-149 53.5q-100 0 -160.5 -50t-60.5 -130q0 -55 32.5 -95.5t84.5 -66t114.5 -48t126 -48t116.5 -58t87.5 -87
t36.5 -127.5q3 -138 -93 -225t-251 -87z" />
    <glyph glyph-name="Scaron" unicode="&#x160;" horiz-adv-x="1148" 
d="M512 1503l-197 320h29l236 -232l231 232h29l-193 -320h-135zM590 -29q-183 0 -317 88.5t-169 235.5l134 43q29 -138 132 -223.5t240 -85.5q138 0 224 75t86 195q0 69 -26 123t-70.5 90.5t-101.5 66t-120.5 54t-127 49.5t-120.5 57t-101.5 72t-70.5 100t-26 136
q0 155 119 252.5t309 97.5q155 0 281 -78t167 -205l-133 -43q-35 119 -131.5 193.5t-206.5 74.5q-131 0 -213 -67.5t-82 -175.5q0 -61 26.5 -110t71.5 -82.5t103.5 -62t123 -53t129 -51t123 -60.5t103.5 -76.5t71.5 -105t26.5 -139.5q0 -175 -122.5 -280t-331.5 -105z" />
    <glyph glyph-name="scaron" unicode="&#x161;" horiz-adv-x="915" 
d="M385 1155l-197 320h29l236 -232l231 232h29l-193 -320h-135zM477 -29q-127 0 -234.5 66.5t-148.5 171.5l123 53q20 -104 94.5 -168.5t169.5 -64.5q106 0 172.5 56t65.5 146q-1 62 -34 107.5t-85 73t-115 50.5t-126 48t-115.5 55.5t-86 82.5t-34.5 122q-3 126 87 203.5
t241 77.5q123 0 219.5 -55t130.5 -146l-113 -51q-28 87 -95 140.5t-149 53.5q-100 0 -160.5 -50t-60.5 -130q0 -55 32.5 -95.5t84.5 -66t114.5 -48t126 -48t116.5 -58t87.5 -87t36.5 -127.5q3 -138 -93 -225t-251 -87z" />
    <glyph glyph-name="uni0162" unicode="&#x162;" horiz-adv-x="1372" 
d="M1241 1368l57 -358h-28q-35 154 -106.5 227.5t-188.5 73.5h-225v-1121q0 -95 42 -126.5t144 -34.5v-29h-238l-36 -115q60 -13 95.5 -51.5t35.5 -103.5q0 -90 -81.5 -132.5t-207.5 -13.5l2 29q85 -15 138 13.5t56 86.5q1 50 -32 78.5t-93 38.5l89 170h-230v29
q104 3 146.5 34.5t42.5 126.5v1121h-226q-117 0 -189 -73.5t-106 -227.5h-28l55 358h1112z" />
    <glyph glyph-name="uni0163" unicode="&#x163;" horiz-adv-x="651" 
d="M600 963h-309v-730q0 -88 41 -136t119 -48q36 0 64.5 10.5t41 21t29.5 28.5l14 -9q-17 -49 -68.5 -90t-134.5 -41h-14l-27 -84q60 -13 95.5 -51.5t35.5 -103.5q0 -90 -81 -132.5t-207 -13.5l2 29q85 -15 138 13.5t56 86.5q1 50 -32 78.5t-93 38.5l76 145
q-79 15 -123.5 81.5t-44.5 174.5v732h-110v28l194 232h29v-203h309v-57z" />
    <glyph glyph-name="Tcaron" unicode="&#x164;" horiz-adv-x="1372" 
d="M756 1503h-135l-197 320h29l235 -232l232 232h28zM1241 1368l57 -358h-28q-35 154 -106.5 227.5t-188.5 73.5h-225v-1121q0 -95 42 -126.5t144 -34.5v-29h-502v29q104 3 146.5 34.5t42.5 126.5v1121h-226q-117 0 -189 -73.5t-106 -227.5h-28l55 358h1112z" />
    <glyph glyph-name="tcaron" unicode="&#x165;" horiz-adv-x="657" 
d="M616 1563l-182 -412h-28l69 412h141zM291 1223v-203h309v-57h-309v-730q0 -88 41 -136t119 -48q36 0 64.5 10.5t41 21t29.5 28.5l14 -9q-17 -49 -68.5 -90t-134.5 -41q-102 0 -160.5 68.5t-58.5 193.5v732h-110v28l194 232h29z" />
    <glyph glyph-name="Tbar" unicode="&#x166;" horiz-adv-x="1372" 
d="M1241 1368l57 -358h-28q-35 154 -106.5 227.5t-188.5 73.5h-225v-600h231v-58h-231v-463q0 -95 42 -126.5t144 -34.5v-29h-502v29q104 3 146.5 34.5t42.5 126.5v463h-236v58h236v600h-226q-117 0 -189 -73.5t-106 -227.5h-28l55 358h1112z" />
    <glyph glyph-name="tbar" unicode="&#x167;" horiz-adv-x="651" 
d="M600 963h-309v-336h256v-58h-256v-336q0 -88 41 -136t119 -48q36 0 64.5 10.5t41 21t29.5 28.5l14 -9q-17 -49 -68.5 -90t-134.5 -41q-102 0 -160.5 68.5t-58.5 193.5v338h-217v58h217v336h-110v28l194 232h29v-203h309v-57z" />
    <glyph glyph-name="Utilde" unicode="&#x168;" 
d="M633 1645q-69 0 -98 -109h-27q9 87 52.5 140t105.5 53q38 0 86.5 -28.5t95.5 -57.5t80 -29q72 0 98 106l27 -2q-8 -83 -51.5 -135.5t-106.5 -52.5q-34 0 -84 29t-98 57.5t-80 28.5zM1014 1368h432v-29q-102 -3 -145.5 -34t-43.5 -125v-693q0 -238 -131.5 -377
t-357.5 -139q-241 0 -380.5 138.5t-139.5 377.5v693q0 94 -43 125t-144 34v29h500v-29q-101 -3 -143.5 -34t-42.5 -125v-693q0 -204 119.5 -323t324.5 -119q176 0 278.5 119.5t102.5 322.5v693q0 94 -42.5 125t-143.5 34v29z" />
    <glyph glyph-name="utilde" unicode="&#x169;" horiz-adv-x="1150" 
d="M408 1296q-70 0 -99 -108h-26q9 87 52 139.5t105 52.5q46 0 134.5 -57t127.5 -57q73 0 99 106l26 -2q-8 -84 -51 -136t-106 -52q-34 0 -84 28.5t-98.5 57t-79.5 28.5zM1063 68h55v-29l-244 -70h-28v240q-91 -124 -178.5 -182t-192.5 -58q-130 0 -203 78t-73 223v580
q0 54 -24.5 78t-80.5 26h-57v29l244 70h28v-777q0 -103 55 -161t152 -58q87 0 163.5 46.5t166.5 154.5v592q0 54 -24.5 78t-80.5 26h-55v29l244 70h28v-881q0 -55 24.5 -78.5t80.5 -25.5z" />
    <glyph glyph-name="Umacron" unicode="&#x16a;" 
d="M1020 1606v-62h-479v62h479zM1014 1368h432v-29q-102 -3 -145.5 -34t-43.5 -125v-693q0 -238 -131.5 -377t-357.5 -139q-241 0 -380.5 138.5t-139.5 377.5v693q0 94 -43 125t-144 34v29h500v-29q-101 -3 -143.5 -34t-42.5 -125v-693q0 -204 119.5 -323t324.5 -119
q176 0 278.5 119.5t102.5 322.5v693q0 94 -42.5 125t-143.5 34v29z" />
    <glyph glyph-name="umacron" unicode="&#x16b;" horiz-adv-x="1150" 
d="M795 1257v-61h-480v61h480zM1063 68h55v-29l-244 -70h-28v240q-91 -124 -178.5 -182t-192.5 -58q-130 0 -203 78t-73 223v580q0 54 -24.5 78t-80.5 26h-57v29l244 70h28v-777q0 -103 55 -161t152 -58q87 0 163.5 46.5t166.5 154.5v592q0 54 -24.5 78t-80.5 26h-55v29
l244 70h28v-881q0 -55 24.5 -78.5t80.5 -25.5z" />
    <glyph glyph-name="Ubreve" unicode="&#x16c;" 
d="M780 1501q-240 0 -243 322h30q4 -62 24 -107.5t51.5 -69t65.5 -34t72 -10.5q39 0 73 10.5t65.5 34t52 69t24.5 107.5h31q-6 -322 -246 -322zM1014 1368h432v-29q-102 -3 -145.5 -34t-43.5 -125v-693q0 -238 -131.5 -377t-357.5 -139q-241 0 -380.5 138.5t-139.5 377.5
v693q0 94 -43 125t-144 34v29h500v-29q-101 -3 -143.5 -34t-42.5 -125v-693q0 -204 119.5 -323t324.5 -119q176 0 278.5 119.5t102.5 322.5v693q0 94 -42.5 125t-143.5 34v29z" />
    <glyph glyph-name="ubreve" unicode="&#x16d;" horiz-adv-x="1150" 
d="M557 1153q-241 0 -244 322h31q7 -119 68.5 -170.5t144.5 -51.5q84 0 145.5 51.5t69.5 170.5h31q-6 -322 -246 -322zM1063 68h55v-29l-244 -70h-28v240q-91 -124 -178.5 -182t-192.5 -58q-130 0 -203 78t-73 223v580q0 54 -24.5 78t-80.5 26h-57v29l244 70h28v-777
q0 -103 55 -161t152 -58q87 0 163.5 46.5t166.5 154.5v592q0 54 -24.5 78t-80.5 26h-55v29l244 70h28v-881q0 -55 24.5 -78.5t80.5 -25.5z" />
    <glyph glyph-name="Uring" unicode="&#x16e;" 
d="M782 1491q-81 0 -133.5 50t-52.5 126q0 77 52 126.5t134 49.5q78 0 130.5 -50t52.5 -126q0 -75 -52.5 -125.5t-130.5 -50.5zM782 1790q-51 0 -84.5 -34.5t-33.5 -86.5q0 -53 33.5 -88t84.5 -35t85 35t34 88q0 52 -34 86.5t-85 34.5zM1014 1368h432v-29
q-102 -3 -145.5 -34t-43.5 -125v-693q0 -238 -131.5 -377t-357.5 -139q-241 0 -380.5 138.5t-139.5 377.5v693q0 94 -43 125t-144 34v29h500v-29q-101 -3 -143.5 -34t-42.5 -125v-693q0 -204 119.5 -323t324.5 -119q176 0 278.5 119.5t102.5 322.5v693q0 94 -42.5 125
t-143.5 34v29z" />
    <glyph glyph-name="uring" unicode="&#x16f;" horiz-adv-x="1150" 
d="M557 1143q-81 0 -133.5 50t-52.5 126q0 77 52 126.5t134 49.5q78 0 130 -50t52 -126q0 -75 -52 -125.5t-130 -50.5zM557 1442q-51 0 -85 -34.5t-34 -86.5q0 -53 34 -88t85 -35t85 35t34 88q0 52 -34 86.5t-85 34.5zM1063 68h55v-29l-244 -70h-28v240
q-91 -124 -178.5 -182t-192.5 -58q-130 0 -203 78t-73 223v580q0 54 -24.5 78t-80.5 26h-57v29l244 70h28v-777q0 -103 55 -161t152 -58q87 0 163.5 46.5t166.5 154.5v592q0 54 -24.5 78t-80.5 26h-55v29l244 70h28v-881q0 -55 24.5 -78.5t80.5 -25.5z" />
    <glyph glyph-name="Uhungarumlaut" unicode="&#x170;" 
d="M946 1823l-250 -320h-28l135 320h143zM901 1503h-29l136 320h143zM1014 1368h432v-29q-102 -3 -145.5 -34t-43.5 -125v-693q0 -238 -131.5 -377t-357.5 -139q-241 0 -380.5 138.5t-139.5 377.5v693q0 94 -43 125t-144 34v29h500v-29q-101 -3 -143.5 -34t-42.5 -125v-693
q0 -204 119.5 -323t324.5 -119q176 0 278.5 119.5t102.5 322.5v693q0 94 -42.5 125t-143.5 34v29z" />
    <glyph glyph-name="uhungarumlaut" unicode="&#x171;" horiz-adv-x="1165" 
d="M709 1475l-250 -320h-29l135 320h144zM664 1155h-29l135 320h143zM1063 68h55v-29l-244 -70h-28v240q-91 -124 -178.5 -182t-192.5 -58q-130 0 -203 78t-73 223v580q0 54 -24.5 78t-80.5 26h-57v29l244 70h28v-777q0 -103 55 -161t152 -58q87 0 163.5 46.5t166.5 154.5
v592q0 54 -24.5 78t-80.5 26h-55v29l244 70h28v-881q0 -55 24.5 -78.5t80.5 -25.5z" />
    <glyph glyph-name="Uogonek" unicode="&#x172;" 
d="M1014 1368h432v-29q-102 -3 -145.5 -34t-43.5 -125v-693q0 -196 -91 -327t-253 -172q-79 -68 -107 -116t-28 -101q0 -80 62.5 -111.5t169.5 4.5l8 -20q-83 -72 -182 -72q-72 0 -120 44.5t-48 117.5q0 133 178 241q-50 -4 -78 -4q-241 0 -380.5 138.5t-139.5 377.5v693
q0 94 -43 125t-144 34v29h500v-29q-101 -3 -143.5 -34t-42.5 -125v-693q0 -204 119.5 -323t324.5 -119q176 0 278.5 119.5t102.5 322.5v693q0 94 -42.5 125t-143.5 34v29z" />
    <glyph glyph-name="uogonek" unicode="&#x173;" horiz-adv-x="1150" 
d="M1165 -342l9 -20q-83 -72 -183 -72q-72 0 -120 44.5t-48 117.5q0 165 267 303l-216 -62h-28v240q-91 -124 -178.5 -182t-192.5 -58q-130 0 -203 78t-73 223v580q0 54 -24.5 78t-80.5 26h-57v29l244 70h28v-777q0 -103 55 -161t152 -58q87 0 163.5 46.5t166.5 154.5v592
q0 54 -24.5 78t-80.5 26h-55v29l244 70h28v-881q0 -55 24.5 -78.5t80.5 -25.5h55v-29h-2l2 -4q-106 -86 -145 -146t-39 -122q0 -81 62 -113t169 4z" />
    <glyph glyph-name="Wcircumflex" unicode="&#x174;" horiz-adv-x="2041" 
d="M903 1737l-235 -232h-29l197 322h135l192 -322h-28zM1679 1368h338v-29q-77 -11 -110 -39t-68 -126l-430 -1205h-29l-360 1008l-354 -1008h-29l-434 1205q-13 35 -21 55t-22.5 43t-31.5 35t-43 21t-60 11v29h405v-29q-51 -3 -78.5 -12t-35.5 -31t-3 -48t21 -74l348 -984
l307 871l-41 113q-13 36 -22 56.5t-23.5 43.5t-31.5 34.5t-42.5 20t-60.5 10.5v29h406v-29q-94 -6 -112 -43.5t17 -121.5l348 -990l351 990q11 30 15.5 46.5t8 38t-2.5 33t-19 23.5t-38.5 17.5t-62.5 6.5v29z" />
    <glyph glyph-name="wcircumflex" unicode="&#x175;" horiz-adv-x="1619" 
d="M766 1389l-236 -232h-28l196 322h136l192 -322h-29zM1303 1020h294v-29q-49 -3 -78 -27.5t-51 -80.5l-356 -914h-29l-270 695l-270 -695h-29l-356 914q-22 55 -52.5 80t-82.5 28v29h364v-29q-66 -2 -96.5 -31.5t-11.5 -76.5l280 -729l223 594l-53 135q-22 55 -53 80
t-84 28v29h366v-29q-67 -1 -97 -31t-13 -77l280 -729l277 729q17 47 -11 76.5t-91 31.5v29z" />
    <glyph glyph-name="Ycircumflex" unicode="&#x176;" horiz-adv-x="1267" 
d="M588 1827h135l192 -322h-28l-232 232l-235 -232h-29zM385 0v29q100 3 142 34t42 127v449l-346 535q-63 95 -105 128t-108 37v29h447v-29q-116 -5 -132.5 -36.5t46.5 -128.5l303 -469l301 469q62 97 44 128.5t-136 36.5v29h377v-29q-70 -5 -112.5 -37t-103.5 -128
l-348 -535v-449q0 -96 42.5 -127t142.5 -34v-29h-496z" />
    <glyph glyph-name="ycircumflex" unicode="&#x177;" horiz-adv-x="1058" 
d="M563 1389l-235 -232h-29l197 322h135l192 -322h-28zM758 1020h299v-29q-52 -3 -82 -26.5t-53 -81.5l-392 -994q-65 -165 -152 -244t-208 -79q-86 0 -147 24l47 134q75 -52 153 -52q167 0 254 232l41 106l-344 873q-23 57 -53.5 81t-81.5 27v29h367v-29q-70 -3 -99.5 -30
t-11.5 -76l283 -725l284 723q20 50 -8 77.5t-96 30.5v29z" />
    <glyph glyph-name="Ydieresis" unicode="&#x178;" horiz-adv-x="1267" 
d="M516 1550q-43 0 -72.5 29t-29.5 70t29.5 70.5t72.5 29.5q41 0 69.5 -29.5t28.5 -70.5t-28.5 -70t-69.5 -29zM840 1550q-44 0 -73.5 28.5t-29.5 70.5t29.5 71t73.5 29q41 0 69.5 -29.5t28.5 -70.5t-28.5 -70t-69.5 -29zM385 0v29q100 3 142 34t42 127v449l-346 535
q-63 95 -105 128t-108 37v29h447v-29q-116 -5 -132.5 -36.5t46.5 -128.5l303 -469l301 469q62 97 44 128.5t-136 36.5v29h377v-29q-70 -5 -112.5 -37t-103.5 -128l-348 -535v-449q0 -96 42.5 -127t142.5 -34v-29h-496z" />
    <glyph glyph-name="Zacute" unicode="&#x179;" horiz-adv-x="1193" 
d="M877 1823l-250 -320h-29l135 320h144zM1092 358h28l-57 -358h-989v29l862 1282h-492q-117 0 -188.5 -73.5t-105.5 -227.5h-29l55 358h932v-29l-860 -1282h549q117 0 188.5 73.5t106.5 227.5z" />
    <glyph glyph-name="zacute" unicode="&#x17a;" horiz-adv-x="950" 
d="M426 1155l135 320h144l-250 -320h-29zM866 1020v-29l-643 -934h393q92 0 143.5 63.5t86.5 207.5h28l-49 -328h-751v29l641 934h-373q-87 0 -133.5 -52t-85.5 -184h-29l27 293h745z" />
    <glyph glyph-name="Zdotaccent" unicode="&#x17b;" horiz-adv-x="1193" 
d="M641 1554q-43 0 -72.5 29t-29.5 70t29.5 69.5t72.5 28.5q40 0 68 -28.5t28 -69.5t-28 -70t-68 -29zM1092 358h28l-57 -358h-989v29l862 1282h-492q-117 0 -188.5 -73.5t-105.5 -227.5h-29l55 358h932v-29l-860 -1282h549q117 0 188.5 73.5t106.5 227.5z" />
    <glyph glyph-name="zdotaccent" unicode="&#x17c;" horiz-adv-x="950" 
d="M469 1206q-43 0 -72.5 29t-29.5 70t29.5 69.5t72.5 28.5q40 0 68 -28.5t28 -69.5t-28 -70t-68 -29zM866 1020v-29l-643 -934h393q92 0 143.5 63.5t86.5 207.5h28l-49 -328h-751v29l641 934h-373q-87 0 -133.5 -52t-85.5 -184h-29l27 293h745z" />
    <glyph glyph-name="Zcaron" unicode="&#x17d;" horiz-adv-x="1193" 
d="M709 1503h-136l-196 320h29l235 -232l231 232h29zM1092 358h28l-57 -358h-989v29l862 1282h-492q-117 0 -188.5 -73.5t-105.5 -227.5h-29l55 358h932v-29l-860 -1282h549q117 0 188.5 73.5t106.5 227.5z" />
    <glyph glyph-name="zcaron" unicode="&#x17e;" horiz-adv-x="950" 
d="M401 1155l-196 320h28l236 -232l231 232h29l-192 -320h-136zM866 1020v-29l-643 -934h393q92 0 143.5 63.5t86.5 207.5h28l-49 -328h-751v29l641 934h-373q-87 0 -133.5 -52t-85.5 -184h-29l27 293h745z" />
    <glyph glyph-name="longs" unicode="&#x17f;" horiz-adv-x="671" 
d="M569 1468q62 0 117 -17.5t86 -51.5l-96 -99q-14 48 -50.5 79.5t-78.5 31.5q-89 0 -135.5 -63t-46.5 -181v-1015q0 -64 50 -88.5t163 -34.5v-29h-480v29q27 4 46 8.5t41.5 13.5t36 21.5t23 32.5t9.5 47v786h-174v57h174v123q0 171 84.5 260.5t230.5 89.5z" />
    <glyph glyph-name="florin" unicode="&#x192;" horiz-adv-x="796" 
d="M678 1503q90 0 148.5 -42.5t76.5 -112.5l-98 -68q-9 36 -18.5 61.5t-26 51.5t-42 39.5t-59.5 13.5q-76 0 -119.5 -65.5t-43.5 -184.5v-412h231v-59h-231v-401q0 -172 -81.5 -264.5t-211.5 -92.5q-90 0 -149 43t-77 113l99 67q9 -36 18.5 -61.5t26 -51t41.5 -39t59 -13.5
q76 0 120 65t44 184v451h-229v59h229v363q0 172 81.5 264t211.5 92z" />
    <glyph glyph-name="Aringacute" unicode="&#x1fa;" horiz-adv-x="1478" 
d="M741 1489q-79 0 -131.5 51.5t-52.5 126.5q0 70 45.5 119t116.5 55l117 279h143l-217 -277q73 -8 118.5 -56.5t45.5 -119.5q0 -75 -53 -126.5t-132 -51.5zM741 1790q-51 0 -84.5 -34.5t-33.5 -86.5q0 -53 33.5 -88t84.5 -35q52 0 85.5 35t33.5 88t-33.5 87t-85.5 34z
M1255 195q40 -95 81 -128t124 -38v-29h-456v29q108 4 130 37.5t-18 128.5l-108 264h-613l-108 -264q-40 -95 -18.5 -128.5t128.5 -37.5v-29h-372v29q81 4 120.5 37t79.5 129l498 1204h31zM418 516h565l-283 688z" />
    <glyph glyph-name="aringacute" unicode="&#x1fb;" horiz-adv-x="1034" 
d="M500 1143q-81 0 -134 50.5t-53 125.5q0 70 45 118t117 56l117 279h143l-217 -277q71 -6 117.5 -55.5t46.5 -120.5q0 -75 -52 -125.5t-130 -50.5zM500 1442q-51 0 -85 -34.5t-34 -86.5q0 -53 34 -88t85 -35t84.5 35t33.5 88q0 52 -33.5 86.5t-84.5 34.5zM950 68h56v-29
l-244 -70h-29v273q-47 -127 -140 -200t-208 -73q-117 0 -190.5 74.5t-73.5 192.5q0 145 98 224t328 124l186 37v63q0 145 -70.5 227t-193.5 82q-61 0 -110 -27.5t-74 -71.5t-29 -100t25 -114l-119 -43q-29 62 -31 121t28 112.5t78 93.5t117.5 63.5t147.5 23.5
q157 0 250.5 -98.5t93.5 -268.5v-512q0 -55 24 -78.5t80 -25.5zM733 295v268l-178 -37q-164 -31 -237.5 -91.5t-73.5 -164.5q0 -91 54.5 -149t141.5 -58t166 63.5t127 168.5z" />
    <glyph glyph-name="AEacute" unicode="&#x1fc;" horiz-adv-x="2064" 
d="M1499 1823l-250 -320h-28l135 320h143zM1907 358h28l-55 -358h-1061v29q102 3 144.5 34t42.5 127v283h-496l-168 -258q-56 -85 -36 -128t124 -58v-29h-407v29q77 17 136.5 61t112.5 125l629 965q46 72 14 108.5t-149 50.5v29h1087l56 -358h-29q-34 154 -106 227.5
t-189 73.5h-452v-580h317q51 0 82.5 10.5t48.5 37t22.5 57.5t8.5 86h28v-439h-28q-2 43 -6 70t-13.5 52.5t-27 39t-46 21.5t-69.5 8h-317v-484q0 -73 25.5 -103t86.5 -30h367q117 0 188.5 73.5t106.5 227.5zM547 530h459v705z" />
    <glyph glyph-name="aeacute" unicode="&#x1fd;" horiz-adv-x="1669" 
d="M1063 1475l-250 -320h-29l136 320h143zM1548 266l23 -10q-39 -125 -146.5 -205t-244.5 -80q-136 0 -238.5 68.5t-157.5 189.5q-60 -125 -155.5 -192.5t-222.5 -67.5q-128 0 -206.5 74t-78.5 193q0 144 98 223t328 125l186 37v63q0 145 -70.5 227t-193.5 82
q-61 0 -110 -27.5t-74 -71.5t-29 -101t25 -115l-119 -43q-29 62 -31 122t28 113t78 93.5t117.5 64t147.5 23.5q119 0 201 -57.5t116 -162.5q61 104 159.5 162t221.5 58q168 0 268.5 -126t100.5 -321h-711q-4 -32 -4 -53q-6 -210 101.5 -337.5t285.5 -127.5q189 0 307 180z
M1171 993q-115 0 -196.5 -90.5t-108.5 -240.5h568q-3 138 -75.5 234.5t-187.5 96.5zM455 63q183 0 315 201q-37 98 -37 221v78l-178 -37q-165 -34 -238 -93t-73 -163q0 -92 57 -149.5t154 -57.5z" />
    <glyph glyph-name="Oslashacute" unicode="&#x1fe;" 
d="M999 1823l-249 -320h-29l135 320h143zM1081 1327q162 -82 253 -243t91 -371q0 -216 -84.5 -386t-236.5 -264t-346 -94q-143 0 -258 47l-86 -192l-54 22l86 193q-164 82 -256 243.5t-92 372.5q0 216 85 386t238 264t347 94q142 0 260 -47l84 190l53 -22zM242 694
q0 -183 64.5 -330t178.5 -235l506 1141q-115 71 -260 71q-223 0 -356 -179.5t-133 -467.5zM793 27q147 0 258.5 83.5t171 230t59.5 333.5q0 182 -64.5 328.5t-177.5 234.5l-505 -1141q117 -69 258 -69z" />
    <glyph glyph-name="oslashacute" unicode="&#x1ff;" horiz-adv-x="1101" 
d="M791 1475l-250 -320h-29l135 320h144zM776 995q107 -62 168.5 -184t61.5 -281q0 -249 -129 -404t-336 -155q-87 0 -166 31l-58 -143l-49 20l60 148q-109 62 -170.5 182.5t-61.5 279.5q0 249 129.5 405.5t335.5 156.5q90 0 166 -31l57 141l50 -22zM221 553
q0 -109 35.5 -232t108.5 -202l331 821q-72 53 -164 53q-140 0 -225.5 -122.5t-85.5 -317.5zM571 29q140 0 226 124.5t86 319.5q0 107 -36.5 229t-109.5 201l-329 -821q72 -53 163 -53z" />
    <glyph glyph-name="uni0218" unicode="&#x218;" horiz-adv-x="1148" 
d="M590 -29q-183 0 -317 88.5t-169 235.5l134 43q29 -138 132 -223.5t240 -85.5q138 0 224 75t86 195q0 69 -26 123t-70.5 90.5t-101.5 66t-120.5 54t-127 49.5t-120.5 57t-101.5 72t-70.5 100t-26 136q0 155 119 252.5t309 97.5q155 0 281 -78t167 -205l-133 -43
q-35 119 -131.5 193.5t-206.5 74.5q-131 0 -213 -67.5t-82 -175.5q0 -61 26.5 -110t71.5 -82.5t103.5 -62t123 -53t129 -51t123 -60.5t103.5 -76.5t71.5 -105t26.5 -139.5q0 -175 -122.5 -280t-331.5 -105zM553 -424l-23 14q34 66 44 152t-9 158l92 10q21 -76 -2.5 -162.5
t-101.5 -171.5z" />
    <glyph glyph-name="uni0219" unicode="&#x219;" horiz-adv-x="915" 
d="M477 -29q-127 0 -234.5 66.5t-148.5 171.5l123 53q20 -104 94.5 -168.5t169.5 -64.5q106 0 172.5 56t65.5 146q-1 62 -34 107.5t-85 73t-115 50.5t-126 48t-115.5 55.5t-86 82.5t-34.5 122q-3 126 87 203.5t241 77.5q123 0 219.5 -55t130.5 -146l-113 -51
q-28 87 -95 140.5t-149 53.5q-100 0 -160.5 -50t-60.5 -130q0 -55 32.5 -95.5t84.5 -66t114.5 -48t126 -48t116.5 -58t87.5 -87t36.5 -127.5q3 -138 -93 -225t-251 -87zM408 -424l-23 14q34 66 44 152t-9 158l92 10q21 -76 -2.5 -162.5t-101.5 -171.5z" />
    <glyph glyph-name="uni021A" unicode="&#x21a;" horiz-adv-x="1372" 
d="M1241 1368l57 -358h-28q-35 154 -106.5 227.5t-188.5 73.5h-225v-1121q0 -95 42 -126.5t144 -34.5v-29h-502v29q104 3 146.5 34.5t42.5 126.5v1121h-226q-117 0 -189 -73.5t-106 -227.5h-28l55 358h1112zM649 -100l92 10q21 -76 -2.5 -162.5t-101.5 -171.5l-23 14
q34 66 44 152t-9 158z" />
    <glyph glyph-name="uni021B" unicode="&#x21b;" horiz-adv-x="651" 
d="M600 963h-309v-730q0 -88 41 -136t119 -48q36 0 64.5 10.5t41 21t29.5 28.5l14 -9q-17 -49 -68.5 -90t-134.5 -41q-102 0 -160.5 68.5t-58.5 193.5v732h-110v28l194 232h29v-203h309v-57zM342 -100l92 10q21 -76 -2.5 -162.5t-101.5 -171.5l-23 14q34 66 44 152t-9 158z
" />
    <glyph glyph-name="circumflex" unicode="&#x2c6;" horiz-adv-x="729" 
d="M299 1475h135l193 -320h-29l-231 231l-236 -231h-29z" />
    <glyph glyph-name="caron" unicode="&#x2c7;" horiz-adv-x="729" 
d="M299 1155l-197 320h29l236 -232l231 232h29l-193 -320h-135z" />
    <glyph glyph-name="breve" unicode="&#x2d8;" horiz-adv-x="694" 
d="M346 1153q-241 0 -244 322h31q7 -119 68.5 -170.5t144.5 -51.5q84 0 145.5 51.5t69.5 170.5h31q-6 -322 -246 -322z" />
    <glyph glyph-name="dotaccent" unicode="&#x2d9;" horiz-adv-x="403" 
d="M205 1206q-43 0 -73 29t-30 70t30 69.5t73 28.5q40 0 68 -28.5t28 -69.5t-28 -70t-68 -29z" />
    <glyph glyph-name="ring" unicode="&#x2da;" horiz-adv-x="573" 
d="M289 1143q-81 0 -134 50.5t-53 125.5q0 77 52.5 126.5t134.5 49.5q78 0 130 -50t52 -126q0 -75 -52 -125.5t-130 -50.5zM289 1198q51 0 85 35t34 88q0 52 -34 86.5t-85 34.5t-85 -34.5t-34 -86.5q0 -53 34 -88t85 -35z" />
    <glyph glyph-name="ogonek" unicode="&#x2db;" horiz-adv-x="555" 
d="M270 -434q-72 0 -120 44.5t-48 117.5q0 97 78 173t213 142l4 -8q-106 -86 -145 -146t-39 -122q0 -81 62 -113t169 4l9 -20q-83 -72 -183 -72z" />
    <glyph glyph-name="tilde" unicode="&#x2dc;" horiz-adv-x="749" 
d="M489 1182q-34 0 -84 28.5t-98.5 57t-79.5 28.5q-69 0 -98 -108h-27q9 87 52.5 139.5t105.5 52.5q46 0 134.5 -57t127.5 -57q73 0 99 106l26 -2q-8 -83 -51.5 -135.5t-106.5 -52.5z" />
    <glyph glyph-name="hungarumlaut" unicode="&#x2dd;" horiz-adv-x="688" 
d="M102 1155l136 320h143l-250 -320h-29zM307 1155l135 320h144l-250 -320h-29z" />
    <glyph glyph-name="pi" unicode="&#x3c0;" horiz-adv-x="1128" 
d="M993 -12q-109 0 -165 64t-56 190v716h-444v-958h-68v958h-213v60h1004v-60h-211v-712q0 -102 40.5 -152t120.5 -47z" />
    <glyph glyph-name="Wgrave" unicode="&#x1e80;" horiz-adv-x="2041" 
d="M969 1503h-29l-250 320h144zM1679 1368h338v-29q-77 -11 -110 -39t-68 -126l-430 -1205h-29l-360 1008l-354 -1008h-29l-434 1205q-13 35 -21 55t-22.5 43t-31.5 35t-43 21t-60 11v29h405v-29q-51 -3 -78.5 -12t-35.5 -31t-3 -48t21 -74l348 -984l307 871l-41 113
q-13 36 -22 56.5t-23.5 43.5t-31.5 34.5t-42.5 20t-60.5 10.5v29h406v-29q-94 -6 -112 -43.5t17 -121.5l348 -990l351 990q11 30 15.5 46.5t8 38t-2.5 33t-19 23.5t-38.5 17.5t-62.5 6.5v29z" />
    <glyph glyph-name="wgrave" unicode="&#x1e81;" horiz-adv-x="1619" 
d="M831 1155h-28l-250 320h143zM1303 1020h294v-29q-49 -3 -78 -27.5t-51 -80.5l-356 -914h-29l-270 695l-270 -695h-29l-356 914q-22 55 -52.5 80t-82.5 28v29h364v-29q-66 -2 -96.5 -31.5t-11.5 -76.5l280 -729l223 594l-53 135q-22 55 -53 80t-84 28v29h366v-29
q-67 -1 -97 -31t-13 -77l280 -729l277 729q17 47 -11 76.5t-91 31.5v29z" />
    <glyph glyph-name="Wacute" unicode="&#x1e82;" horiz-adv-x="2041" 
d="M1151 1823l-250 -320h-29l136 320h143zM1679 1368h338v-29q-77 -11 -110 -39t-68 -126l-430 -1205h-29l-360 1008l-354 -1008h-29l-434 1205q-13 35 -21 55t-22.5 43t-31.5 35t-43 21t-60 11v29h405v-29q-51 -3 -78.5 -12t-35.5 -31t-3 -48t21 -74l348 -984l307 871
l-41 113q-13 36 -22 56.5t-23.5 43.5t-31.5 34.5t-42.5 20t-60.5 10.5v29h406v-29q-94 -6 -112 -43.5t17 -121.5l348 -990l351 990q11 30 15.5 46.5t8 38t-2.5 33t-19 23.5t-38.5 17.5t-62.5 6.5v29z" />
    <glyph glyph-name="wacute" unicode="&#x1e83;" horiz-adv-x="1619" 
d="M1014 1475l-250 -320h-29l135 320h144zM1303 1020h294v-29q-49 -3 -78 -27.5t-51 -80.5l-356 -914h-29l-270 695l-270 -695h-29l-356 914q-22 55 -52.5 80t-82.5 28v29h364v-29q-66 -2 -96.5 -31.5t-11.5 -76.5l280 -729l223 594l-53 135q-22 55 -53 80t-84 28v29h366
v-29q-67 -1 -97 -31t-13 -77l280 -729l277 729q17 47 -11 76.5t-91 31.5v29z" />
    <glyph glyph-name="Wdieresis" unicode="&#x1e84;" horiz-adv-x="2041" 
d="M762 1550q-43 0 -73 29t-30 70t30 70.5t73 29.5q41 0 69.5 -29.5t28.5 -70.5t-28.5 -70t-69.5 -29zM1085 1550q-44 0 -73 28.5t-29 70.5t29 71t73 29q41 0 70 -29.5t29 -70.5t-29 -70t-70 -29zM1679 1368h338v-29q-77 -11 -110 -39t-68 -126l-430 -1205h-29l-360 1008
l-354 -1008h-29l-434 1205q-13 35 -21 55t-22.5 43t-31.5 35t-43 21t-60 11v29h405v-29q-51 -3 -78.5 -12t-35.5 -31t-3 -48t21 -74l348 -984l307 871l-41 113q-13 36 -22 56.5t-23.5 43.5t-31.5 34.5t-42.5 20t-60.5 10.5v29h406v-29q-94 -6 -112 -43.5t17 -121.5l348 -990
l351 990q11 30 15.5 46.5t8 38t-2.5 33t-19 23.5t-38.5 17.5t-62.5 6.5v29z" />
    <glyph glyph-name="wdieresis" unicode="&#x1e85;" horiz-adv-x="1619" 
d="M625 1202q-43 0 -73 28.5t-30 69.5t30 71t73 30q41 0 69.5 -29.5t28.5 -71.5q0 -41 -28.5 -69.5t-69.5 -28.5zM948 1202q-44 0 -73 28t-29 70t29 71.5t73 29.5q41 0 70 -30t29 -71t-29 -69.5t-70 -28.5zM1303 1020h294v-29q-49 -3 -78 -27.5t-51 -80.5l-356 -914h-29
l-270 695l-270 -695h-29l-356 914q-22 55 -52.5 80t-82.5 28v29h364v-29q-66 -2 -96.5 -31.5t-11.5 -76.5l280 -729l223 594l-53 135q-22 55 -53 80t-84 28v29h366v-29q-67 -1 -97 -31t-13 -77l280 -729l277 729q17 47 -11 76.5t-91 31.5v29z" />
    <glyph glyph-name="uni1E9E" unicode="&#x1e9e;" horiz-adv-x="1394" 
d="M854 -29q-194 0 -326 138l21 22q55 -52 133.5 -75t153.5 -23q143 0 231 95.5t88 250.5q0 200 -148 287t-386 28l-13 35l447 565q-146 47 -301 47q-156 0 -254.5 -103t-98.5 -259v-979h-315v29q103 3 145.5 34t42.5 127v779q0 183 132.5 306.5t347.5 123.5q224 0 428 -58
l20 -57l-418 -493q221 32 357.5 -75t136.5 -313q0 -185 -118.5 -308.5t-305.5 -123.5z" />
    <glyph glyph-name="Ygrave" unicode="&#x1ef2;" horiz-adv-x="1267" 
d="M721 1503h-29l-250 320h144zM385 0v29q100 3 142 34t42 127v449l-346 535q-63 95 -105 128t-108 37v29h447v-29q-116 -5 -132.5 -36.5t46.5 -128.5l303 -469l301 469q62 97 44 128.5t-136 36.5v29h377v-29q-70 -5 -112.5 -37t-103.5 -128l-348 -535v-449q0 -96 42.5 -127
t142.5 -34v-29h-496z" />
    <glyph glyph-name="ygrave" unicode="&#x1ef3;" horiz-adv-x="1058" 
d="M629 1155h-29l-250 320h144zM758 1020h299v-29q-52 -3 -82 -26.5t-53 -81.5l-392 -994q-65 -165 -152 -244t-208 -79q-86 0 -147 24l47 134q75 -52 153 -52q167 0 254 232l41 106l-344 873q-23 57 -53.5 81t-81.5 27v29h367v-29q-70 -3 -99.5 -30t-11.5 -76l283 -725
l284 723q20 50 -8 77.5t-96 30.5v29z" />
    <glyph glyph-name="endash" unicode="&#x2013;" horiz-adv-x="792" 
d="M59 549v59h672v-59h-672z" />
    <glyph glyph-name="emdash" unicode="&#x2014;" horiz-adv-x="1630" 
d="M98 549v59h1434v-59h-1434z" />
    <glyph glyph-name="quoteleft" unicode="&#x2018;" horiz-adv-x="471" 
d="M354 1518v-29q-75 -14 -125 -70t-51 -141q31 31 74 31q47 0 74.5 -28.5t27.5 -76.5q0 -44 -32.5 -75t-79.5 -31q-57 0 -91 38.5t-34 102.5q0 116 63 192.5t174 86.5z" />
    <glyph glyph-name="quoteright" unicode="&#x2019;" horiz-adv-x="471" 
d="M117 1102v28q75 16 125 72t51 141q-30 -30 -74 -30q-46 0 -74 28.5t-28 75.5q0 44 32.5 75.5t79.5 31.5q57 0 91 -38.5t34 -103.5q0 -116 -63 -192t-174 -88z" />
    <glyph glyph-name="quotesinglbase" unicode="&#x201a;" horiz-adv-x="471" 
d="M117 -229v28q75 14 125 70t51 141q-30 -30 -74 -30q-46 0 -74 28.5t-28 75.5q0 44 32.5 75t79.5 31q57 0 91 -38.5t34 -102.5q0 -116 -63 -192t-174 -86z" />
    <glyph glyph-name="quotedblleft" unicode="&#x201c;" horiz-adv-x="806" 
d="M354 1518v-29q-75 -14 -125 -70t-51 -141q31 31 74 31q47 0 74.5 -28.5t27.5 -76.5q0 -44 -32.5 -75t-79.5 -31q-57 0 -91 38.5t-34 102.5q0 116 63 192.5t174 86.5zM690 1518v-29q-75 -14 -125 -70t-51 -141q31 31 74 31q47 0 74.5 -28.5t27.5 -76.5q0 -44 -32.5 -75
t-79.5 -31q-57 0 -91 38.5t-34 102.5q0 116 63 192.5t174 86.5z" />
    <glyph glyph-name="quotedblright" unicode="&#x201d;" horiz-adv-x="647" 
d="M20 1102v28q75 16 125 72t50 141q-27 -30 -72 -30q-47 0 -75 28.5t-28 75.5q0 44 33 75.5t80 31.5q57 0 91 -38.5t34 -103.5q0 -116 -63.5 -192t-174.5 -88zM356 1102v28q75 16 124.5 72t49.5 141q-27 -30 -71 -30q-47 0 -75 28.5t-28 75.5q0 44 33 75.5t80 31.5
q57 0 91 -38.5t34 -103.5q0 -116 -63.5 -192t-174.5 -88z" />
    <glyph glyph-name="quotedblbase" unicode="&#x201e;" horiz-adv-x="806" 
d="M117 -229v28q75 14 125 70t51 141q-30 -30 -74 -30q-46 0 -74 28.5t-28 75.5q0 44 32.5 75t79.5 31q57 0 91 -38.5t34 -102.5q0 -116 -63 -192t-174 -86zM453 -229v28q75 14 125 70t51 141q-30 -30 -74 -30q-46 0 -74 28.5t-28 75.5q0 44 32.5 75t79.5 31q57 0 91 -38.5
t34 -102.5q0 -116 -63 -192t-174 -86z" />
    <glyph glyph-name="dagger" unicode="&#x2020;" horiz-adv-x="712" 
d="M326 467v584h-254v59h254v291h61v-291h254v-59h-254v-584h-61z" />
    <glyph glyph-name="daggerdbl" unicode="&#x2021;" horiz-adv-x="712" 
d="M387 383h254v-59h-254v-291h-61v291h-254v59h254v668h-254v59h254v291h61v-291h254v-59h-254v-668z" />
    <glyph glyph-name="bullet" unicode="&#x2022;" horiz-adv-x="995" 
d="M512 147q-173 0 -293.5 119.5t-120.5 290.5q0 169 120.5 289.5t293.5 120.5q167 0 286.5 -120.5t119.5 -289.5q0 -170 -119 -290t-287 -120z" />
    <glyph glyph-name="ellipsis" unicode="&#x2026;" horiz-adv-x="1091" 
d="M223 -23q-43 0 -74.5 31.5t-31.5 75.5t31.5 75t74.5 31q46 0 75.5 -30.5t29.5 -75.5q0 -44 -31 -75.5t-74 -31.5zM545 -23q-43 0 -75 31.5t-32 75.5t32 75t75 31q48 0 77 -30t29 -76q0 -44 -31 -75.5t-75 -31.5zM870 -23q-44 0 -75 31.5t-31 75.5t31 75t75 31
q46 0 75.5 -30.5t29.5 -75.5q0 -44 -31 -75.5t-74 -31.5z" />
    <glyph glyph-name="perthousand" unicode="&#x2030;" horiz-adv-x="1921" 
d="M322 768q-112 0 -180 86t-68 227q0 143 67.5 229.5t180.5 86.5q112 0 179.5 -87t67.5 -229q0 -140 -67.5 -226.5t-179.5 -86.5zM252 0l754 1368h53l-754 -1368h-53zM336 807q49 0 83 65t34 179q0 133 -43.5 219t-102.5 86q-50 0 -83.5 -64t-33.5 -180q0 -138 41.5 -221.5
t104.5 -83.5zM987 -31q-112 0 -180 86.5t-68 229.5q0 142 67.5 227.5t180.5 85.5q112 0 180 -86.5t68 -226.5q0 -142 -68 -229t-180 -87zM1599 -31q-113 0 -180 86.5t-67 229.5q0 142 67 227.5t180 85.5q112 0 179 -86.5t67 -226.5q0 -142 -67 -229t-179 -87zM1001 8
q48 0 82.5 65.5t34.5 178.5q0 133 -43 219t-102 86q-50 0 -82.5 -63.5t-32.5 -178.5q0 -140 40 -223.5t103 -83.5zM1612 8q48 0 82.5 65.5t34.5 178.5q0 133 -42.5 219t-101.5 86q-52 0 -84.5 -63t-32.5 -179q0 -140 40.5 -223.5t103.5 -83.5z" />
    <glyph glyph-name="guilsinglleft" unicode="&#x2039;" horiz-adv-x="411" 
d="M41 621v22l291 238l16 -19l-176 -229l176 -236l-16 -12z" />
    <glyph glyph-name="guilsinglright" unicode="&#x203a;" horiz-adv-x="411" 
d="M348 621l-289 -236l-18 12l178 236l-178 229l18 19l289 -238v-22z" />
    <glyph glyph-name="fraction" unicode="&#x2044;" horiz-adv-x="327" 
d="M-240 0l754 1368h53l-753 -1368h-54z" />
    <glyph glyph-name="uni2070" unicode="&#x2070;" horiz-adv-x="759" 
d="M381 735q-104 0 -179.5 59t-112 154.5t-36.5 214.5q0 120 36.5 216t112 155t179.5 59q153 0 239.5 -122t86.5 -308q0 -120 -36.5 -215.5t-112 -154t-177.5 -58.5zM397 770q78 0 130.5 98t52.5 248q0 70 -12 143t-36.5 142.5t-69.5 113.5t-102 44q-79 0 -129.5 -98.5
t-50.5 -248.5q0 -76 11.5 -150t35.5 -141.5t68 -109t102 -41.5z" />
    <glyph glyph-name="uni2074" unicode="&#x2074;" horiz-adv-x="712" 
d="M281 752v16q81 4 109 23.5t28 66.5v125h-389v23l417 567h91v-553h143v-37h-143v-125q0 -49 25.5 -67t86.5 -23v-16h-368zM84 1020h334v453z" />
    <glyph glyph-name="uni2075" unicode="&#x2075;" horiz-adv-x="673" 
d="M315 735q-110 0 -190 49.5t-96 147.5l125 37q3 -90 54.5 -145.5t127.5 -55.5q78 0 122 56t44 149q0 108 -57.5 168.5t-155.5 60.5q-102 0 -185 -61l-12 6l72 426h420v-113h-402l-47 -264q92 82 209 82q121 0 202 -73.5t81 -194.5q0 -124 -82.5 -199.5t-229.5 -75.5z" />
    <glyph glyph-name="uni2076" unicode="&#x2076;" horiz-adv-x="710" 
d="M371 735q-153 0 -235.5 109t-82.5 307q0 97 21 174.5t55 126.5t79.5 81.5t90.5 46t92 13.5q87 0 162 -40t100 -111l-127 -45q-11 71 -54.5 116.5t-100.5 45.5q-88 0 -137.5 -103t-49.5 -289q41 59 102.5 87t121.5 28q110 0 184 -73t74 -193q0 -124 -81.5 -202.5
t-213.5 -78.5zM381 770q74 0 117 63t43 156q0 106 -56 167t-137 61q-42 0 -88 -19.5t-76 -58.5q5 -156 56.5 -262.5t140.5 -106.5z" />
    <glyph glyph-name="uni2077" unicode="&#x2077;" horiz-adv-x="636" 
d="M193 752q-2 77 9.5 149.5t39 138.5t54 118t72.5 113t75.5 97t80.5 94h-313q-69 0 -97 -22.5t-46 -100.5h-19l27 234h555v-19q-71 -93 -121 -172t-96.5 -179.5t-68.5 -213.5t-19 -237h-133z" />
    <glyph glyph-name="uni2078" unicode="&#x2078;" horiz-adv-x="692" 
d="M348 733q-133 0 -214 58.5t-81 154.5q0 151 201 213q-83 41 -125.5 87.5t-42.5 123.5q0 95 71.5 158t188.5 63q115 0 187.5 -56.5t72.5 -137.5q0 -66 -47 -114.5t-131 -68.5q50 -24 79.5 -41.5t64 -47t51 -68t16.5 -88.5q0 -101 -79 -168.5t-212 -67.5zM391 1231
q57 32 77.5 69.5t20.5 92.5q0 71 -41 117t-102 46q-64 0 -105.5 -38t-41.5 -97q0 -37 14 -65.5t45.5 -51.5t58 -37.5t74.5 -35.5zM348 768q72 0 121 46t49 116q0 25 -8 47t-16.5 38t-31 33.5t-34 26.5t-45 25t-44 20.5t-48.5 20.5q-39 -21 -64 -45t-35.5 -51t-14 -47.5
t-3.5 -49.5q0 -78 49.5 -129t124.5 -51z" />
    <glyph glyph-name="uni2079" unicode="&#x2079;" horiz-adv-x="710" 
d="M317 735q-88 0 -161.5 40.5t-100.5 113.5l127 43q13 -73 58.5 -117.5t97.5 -44.5q91 0 140.5 105t49.5 288q-82 -116 -225 -116q-110 0 -184 73t-74 193q0 123 81 201.5t214 78.5q152 0 234.5 -108.5t82.5 -306.5q0 -120 -31.5 -210t-83 -138.5t-108.5 -71.5t-117 -23z
M365 1112q42 0 87 19t76 59q-7 157 -58 263t-142 106q-73 0 -114.5 -63.5t-41.5 -156.5q0 -106 55.5 -166.5t137.5 -60.5z" />
    <glyph glyph-name="Euro" unicode="&#x20ac;" horiz-adv-x="1529" 
d="M1421 399l25 -6q-57 -198 -199.5 -311t-337.5 -113q-242 0 -412 159t-204 409h-248v59h242q-2 18 -2 55q0 65 10 140h-250v59h260q52 251 221 400t414 149q180 0 306 -79t163 -214l-135 -45q-37 130 -134.5 206t-226.5 76q-187 0 -315.5 -134t-159.5 -359h525v-59h-533
q0 -11 -1 -35t-1 -37q0 -71 8 -123h527v-59h-517q43 -206 181.5 -326.5t337.5 -120.5q164 0 285 83t171 226z" />
    <glyph glyph-name="uni2116" unicode="&#x2116;" horiz-adv-x="2185" 
d="M1788 745q-127 0 -208 88t-81 226q0 151 84 245.5t217 94.5q128 0 208.5 -87.5t80.5 -228.5q0 -149 -84 -243.5t-217 -94.5zM981 1339v29h453v-29q-109 -5 -148 -39t-39 -126v-1205h-37l-872 1209v-983q0 -92 43.5 -126.5t165.5 -39.5v-29h-453v29q107 5 147 40t40 126
v1058q-38 44 -81 63.5t-114 22.5v29h274l830 -1155v961q0 91 -44 126t-165 39zM1780 1364q-74 0 -119 -70.5t-45 -183.5q0 -57 11 -113t33.5 -106t61 -80.5t88.5 -30.5q74 0 118 71t44 183q0 57 -11 112.5t-33 105.5t-60.5 81t-87.5 31zM1491 647h604v-49h-604v49z" />
    <glyph glyph-name="uni2117" unicode="&#x2117;" horiz-adv-x="1630" 
d="M813 -29q-144 0 -275.5 57t-227 152.5t-152 227.5t-56.5 276t56.5 276t152 227.5t227 152.5t275.5 57q145 0 277 -57t228 -152.5t153 -227.5t57 -276t-57 -276t-153 -227.5t-228 -152.5t-277 -57zM813 27q178 0 330 88.5t241 240t89 328.5t-89 328.5t-241 240t-330 88.5
q-133 0 -254 -52.5t-209 -140.5t-140 -209.5t-52 -254.5t52 -254.5t140 -209.5t209 -140.5t254 -52.5zM870 649h-221v-395h-63v858h284q113 0 183.5 -63.5t70.5 -167.5t-70.5 -168t-183.5 -64zM649 1055v-348h221q89 0 141 47.5t52 126.5t-52 126.5t-141 47.5h-221z" />
    <glyph glyph-name="trademark" unicode="&#x2122;" horiz-adv-x="1060" 
d="M229 893v424h-151v51h358v-51h-151v-424h-56zM500 893v475h90l153 -412l156 412h86v-475h-49v426l-166 -426h-55l-162 426v-426h-53z" />
    <glyph glyph-name="uni2126" unicode="&#x2126;" horiz-adv-x="1437" 
d="M104 0v61h349q-171 99 -276 269.5t-105 386.5q0 140 49 264.5t133.5 215t205.5 143.5t259 53q136 0 256.5 -52t206 -141.5t135 -214.5t49.5 -266q0 -216 -105 -385.5t-276 -272.5h346v-61h-444v61q182 99 300 268.5t118 387.5q0 170 -76 310.5t-211 222t-299 81.5
t-299 -81.5t-211 -222t-76 -310.5q0 -215 115.5 -383.5t302.5 -272.5v-61h-447z" />
    <glyph glyph-name="estimated" unicode="&#x212e;" horiz-adv-x="1562" 
d="M799 -29q-151 0 -286.5 55t-233 150t-154.5 227t-57 281t55.5 281t150 227t226.5 150t280 55q151 0 284 -55.5t228 -151t149.5 -229t53.5 -283.5h-1165v-430q80 -87 201.5 -146t267.5 -59q320 0 510 270l57 -41q-93 -143 -241 -222t-326 -79zM1235 762v362
q-72 80 -193 140.5t-262 60.5t-261.5 -60.5t-188.5 -142.5v-360h905z" />
    <glyph glyph-name="oneeighth" unicode="&#x215b;" 
d="M68 547v16q78 5 106.5 22.5t28.5 67.5v590h-135v17q163 42 239 112h17v-719q0 -49 25.5 -67t86.5 -23v-16h-368zM246 0l753 1368h54l-754 -1368h-53zM1161 -18q-133 0 -214 58.5t-81 154.5q0 151 201 213q-83 41 -125.5 87t-42.5 123q0 95 71.5 158.5t188.5 63.5
q114 0 187 -57t73 -138q0 -66 -46.5 -114t-131.5 -68q50 -24 79.5 -41.5t64 -47t51 -68.5t16.5 -89q0 -101 -79 -168t-212 -67zM1204 479q57 32 78 69.5t21 92.5q0 71 -41.5 117.5t-102.5 46.5q-64 0 -105.5 -38t-41.5 -97q0 -30 11 -55t26.5 -43t43.5 -36t51 -29.5
t60 -27.5zM1161 16q72 0 121 46t49 116q0 25 -8 47t-16.5 38t-31 33.5t-34 26.5t-45 25t-44 20.5t-48.5 20.5q-39 -21 -64 -45t-35.5 -50.5t-14 -47t-3.5 -49.5q0 -78 49.5 -129.5t124.5 -51.5z" />
    <glyph glyph-name="threeeighths" unicode="&#x215c;" horiz-adv-x="1687" 
d="M322 530q-108 0 -188.5 49.5t-96.5 147.5l121 37q11 -91 59.5 -146t120.5 -55q71 0 112.5 54t41.5 139q0 94 -68 150t-193 55v18q106 12 165 63t59 119q0 62 -45.5 104t-112.5 42q-68 0 -125 -38t-80 -102l-14 4q16 88 87.5 150.5t182.5 62.5q107 0 170.5 -56t63.5 -138
q0 -84 -64 -137t-174 -74q132 -6 204.5 -62t72.5 -155q0 -107 -80.5 -169.5t-218.5 -62.5zM428 0l754 1368h53l-754 -1368h-53zM1343 -18q-133 0 -213.5 58.5t-80.5 154.5q0 151 200 213q-83 41 -125.5 87t-42.5 123q0 95 71.5 158.5t188.5 63.5q115 0 188 -57t73 -138
q0 -66 -47 -114t-132 -68q50 -24 79.5 -41.5t64 -47t51 -68.5t16.5 -89q0 -101 -79 -168t-212 -67zM1386 479q57 32 78 69.5t21 92.5q0 71 -41.5 117.5t-102.5 46.5q-64 0 -105.5 -38t-41.5 -97q0 -30 11 -55t26.5 -43t43.5 -36t51 -29.5t60 -27.5zM1343 16q72 0 121 46
t49 116q0 25 -8 47t-16.5 38t-31 33.5t-34 26.5t-45 25t-44 20.5t-48.5 20.5q-39 -21 -64 -45t-35.5 -50.5t-14 -47t-3.5 -49.5q0 -78 49.5 -129.5t124.5 -51.5z" />
    <glyph glyph-name="fiveeighths" unicode="&#x215d;" horiz-adv-x="1693" 
d="M315 530q-110 0 -190 49.5t-96 147.5l125 37q3 -90 54.5 -145.5t127.5 -55.5q78 0 122 56t44 149q0 108 -57.5 168.5t-155.5 60.5q-102 0 -185 -61l-12 6l72 426h420v-113h-402l-47 -264q92 82 209 82q121 0 202 -73.5t81 -194.5q0 -124 -82.5 -199.5t-229.5 -75.5z
M434 0l754 1368h53l-754 -1368h-53zM1350 -18q-133 0 -214 58.5t-81 154.5q0 151 200 213q-83 41 -125.5 87t-42.5 123q0 95 72 158.5t189 63.5q114 0 187 -57t73 -138q0 -66 -46.5 -114t-131.5 -68q50 -24 79.5 -41.5t63.5 -47t50.5 -68.5t16.5 -89q0 -101 -78.5 -168
t-211.5 -67zM1393 479q57 32 77.5 69.5t20.5 92.5q0 71 -41 117.5t-102 46.5q-64 0 -106 -38t-42 -97q0 -37 14.5 -66t45.5 -52t58.5 -37.5t74.5 -35.5zM1350 16q72 0 121 46t49 116q0 33 -13.5 61.5t-31 47.5t-50.5 38.5t-56.5 30.5t-64.5 28q-8 3 -12 5q-39 -21 -64 -45
t-35.5 -50.5t-13.5 -47t-3 -49.5q0 -78 49.5 -129.5t124.5 -51.5z" />
    <glyph glyph-name="seveneighths" unicode="&#x215e;" horiz-adv-x="1515" 
d="M193 547q-2 77 9.5 149.5t39 138.5t54 118t72.5 113t75.5 97t80.5 94h-313q-70 0 -97.5 -22.5t-45.5 -99.5h-19l27 233h555v-18q-71 -93 -121 -172t-96 -180t-68.5 -214t-19.5 -237h-133zM256 0l754 1368h53l-754 -1368h-53zM1171 -18q-133 0 -213.5 58.5t-80.5 154.5
q0 151 200 213q-83 41 -125.5 87t-42.5 123q0 95 71.5 158.5t188.5 63.5q115 0 188 -57t73 -138q0 -66 -47 -114t-132 -68q50 -24 79.5 -41.5t64 -47t51 -68.5t16.5 -89q0 -101 -79 -168t-212 -67zM1214 479q57 32 78 69.5t21 92.5q0 71 -41.5 117.5t-102.5 46.5
q-64 0 -105.5 -38t-41.5 -97q0 -30 11 -55t26.5 -43t43.5 -36t51 -29.5t60 -27.5zM1171 16q72 0 121 46t49 116q0 25 -8 47t-16.5 38t-31 33.5t-34 26.5t-45 25t-44 20.5t-48.5 20.5q-39 -21 -64 -45t-35.5 -50.5t-14 -47t-3.5 -49.5q0 -78 49.5 -129.5t124.5 -51.5z" />
    <glyph glyph-name="arrowleft" unicode="&#x2190;" horiz-adv-x="1361" 
d="M1303 549v-62h-1125l449 -436l-45 -45l-512 512l514 512l45 -45l-451 -436h1125z" />
    <glyph glyph-name="arrowup" unicode="&#x2191;" horiz-adv-x="1204" 
d="M1114 723l-45 -47l-436 448v-1122h-62v1122l-436 -450l-45 47l512 514z" />
    <glyph glyph-name="arrowright" unicode="&#x2192;" horiz-adv-x="1361" 
d="M780 1030l512 -512l-512 -512l-45 45l449 436h-1125v62h1125l-451 436z" />
    <glyph glyph-name="arrowdown" unicode="&#x2193;" horiz-adv-x="1204" 
d="M1069 573l45 -47l-512 -514l-512 512l45 47l436 -448v1122h62v-1122z" />
    <glyph glyph-name="arrowboth" unicode="&#x2194;" horiz-adv-x="1994" 
d="M1413 1030l514 -512l-512 -512l-47 45l449 436h-1639l449 -436l-45 -45l-512 512l514 512l45 -45l-451 -436h1639l-449 436z" />
    <glyph glyph-name="arrowupdn" unicode="&#x2195;" horiz-adv-x="1204" 
d="M633 -158l436 451l45 -45l-512 -514l-512 512l45 47l436 -451v1641l-436 -449l-45 45l512 512l512 -514l-45 -45l-436 451v-1641z" />
    <glyph glyph-name="uni2196" unicode="&#x2196;" horiz-adv-x="1011" 
d="M993 98l-43 -43l-794 795l8 -625h-64v723h725v-65l-626 10z" />
    <glyph glyph-name="uni2197" unicode="&#x2197;" horiz-adv-x="1011" 
d="M188 928l725 2v-725h-65l10 629l-797 -797l-41 43l795 794l-629 -10z" />
    <glyph glyph-name="uni2198" unicode="&#x2198;" horiz-adv-x="1013" 
d="M188 59v66l629 -10l-799 796l43 41l795 -794l-8 628l63 -2l2 -725h-725z" />
    <glyph glyph-name="uni2199" unicode="&#x2199;" horiz-adv-x="1013" 
d="M993 907l-794 -794l626 8l-2 -64h-723l2 725h64l-10 -626l794 794z" />
    <glyph glyph-name="partialdiff" unicode="&#x2202;" horiz-adv-x="1130" 
d="M541 -29q-196 0 -320.5 128t-124.5 333t126.5 333t326.5 128q70 0 136 -20t126.5 -62t103.5 -117.5t56 -175.5q12 167 -15 312t-89.5 257t-169.5 178.5t-248 71.5v60q140 -7 251.5 -66.5t184 -161t111 -236.5t38.5 -294q0 -319 -134 -493.5t-359 -174.5zM545 33
q168 0 273.5 115t105.5 286q0 173 -107 285t-272 112q-166 0 -272.5 -112t-106.5 -287q0 -174 106 -286.5t273 -112.5z" />
    <glyph glyph-name="uni2206" unicode="&#x2206;" horiz-adv-x="1265" 
d="M20 0l588 1368h51l588 -1368h-1227zM111 61h1044l-522 1221z" />
    <glyph glyph-name="product" unicode="&#x220f;" horiz-adv-x="1150" 
d="M131 0v1368h889v-1368h-62v1309h-765v-1309h-62z" />
    <glyph glyph-name="summation" unicode="&#x2211;" horiz-adv-x="925" 
d="M25 0v51l544 633l-544 633v51h899v-59h-813l520 -600v-47l-518 -601h811v-61h-899z" />
    <glyph glyph-name="minus" unicode="&#x2212;" horiz-adv-x="1009" 
d="M78 623v61h852v-61h-852z" />
    <glyph glyph-name="radical" unicode="&#x221a;" horiz-adv-x="1075" 
d="M514 0l-240 676h-196v59h239l238 -672l442 1305h64l-465 -1368h-82z" />
    <glyph glyph-name="infinity" unicode="&#x221e;" horiz-adv-x="1773" 
d="M1321 1018q161 0 263 -97.5t102 -258.5t-101.5 -259t-261.5 -98q-263 0 -434 293q-89 -147 -196 -220t-242 -73q-159 0 -261 98t-102 259t102.5 258.5t262.5 97.5q132 0 239 -70.5t197 -220.5q169 291 432 291zM457 365q242 0 397 297q-155 296 -397 296q-135 0 -218 -82
t-83 -214t83 -214.5t218 -82.5zM1319 365q136 0 218.5 82t82.5 215t-82.5 214.5t-218.5 81.5q-241 0 -399 -296q163 -297 399 -297z" />
    <glyph glyph-name="integral" unicode="&#x222b;" horiz-adv-x="479" 
d="M27 -408v62h30q73 0 111.5 50.5t38.5 143.5v1348q0 121 59 188.5t162 67.5h25v-59h-25q-75 0 -116.5 -52t-41.5 -145v-1348q0 -122 -55.5 -189t-157.5 -67h-30z" />
    <glyph glyph-name="approxequal" unicode="&#x2248;" horiz-adv-x="1083" 
d="M752 827q-54 0 -115 20.5t-107.5 45t-103.5 45t-102 20.5q-117 0 -246 -120v63q124 119 250 119q51 0 110.5 -20.5t105 -45t104 -45t108.5 -20.5q124 0 248 121v-64q-114 -119 -252 -119zM752 453q-54 0 -115 20.5t-107.5 45t-103.5 45t-102 20.5q-116 0 -246 -121v61
q124 119 250 119q51 0 110.5 -20.5t105 -45t104 -45t108.5 -20.5q124 0 248 121v-62q-113 -118 -252 -118z" />
    <glyph glyph-name="notequal" unicode="&#x2260;" horiz-adv-x="1009" 
d="M930 807h-336l-102 -268h438v-62h-461l-102 -268h-66l102 268h-325v62h348l102 268h-450v61h473l92 240h66l-93 -240h314v-61z" />
    <glyph glyph-name="lessequal" unicode="&#x2264;" horiz-adv-x="917" 
d="M834 219l-762 393v86l762 394l24 -54l-739 -383l739 -381zM862 2h-792v59h792v-59z" />
    <glyph glyph-name="greaterequal" unicode="&#x2265;" horiz-adv-x="917" 
d="M78 219l-27 55l742 381l-742 383l27 54l762 -394v-86zM53 2v59h791v-59h-791z" />
    <glyph glyph-name="uni2460" unicode="&#x2460;" horiz-adv-x="1554" 
d="M774 -29q-144 0 -275.5 57t-227 152.5t-152 227.5t-56.5 276t56.5 276t152 227.5t227 152.5t275.5 57q145 0 277 -57t228 -152.5t153 -227.5t57 -276t-57 -276t-153 -227.5t-228 -152.5t-277 -57zM774 27q178 0 330 88.5t241 240t89 328.5t-89 328.5t-241 240t-330 88.5
q-133 0 -254 -52.5t-209 -140.5t-140 -209.5t-52 -254.5t52 -254.5t140 -209.5t209 -140.5t254 -52.5zM590 279v16q78 5 106.5 22.5t28.5 67.5v590h-135v16q158 41 239 113h17v-719q0 -49 25 -67t85 -23v-16h-366z" />
    <glyph glyph-name="uni2461" unicode="&#x2461;" horiz-adv-x="1554" 
d="M774 -29q-144 0 -275.5 57t-227 152.5t-152 227.5t-56.5 276t56.5 276t152 227.5t227 152.5t275.5 57q145 0 277 -57t228 -152.5t153 -227.5t57 -276t-57 -276t-153 -227.5t-228 -152.5t-277 -57zM774 27q178 0 330 88.5t241 240t89 328.5t-89 328.5t-241 240t-330 88.5
q-133 0 -254 -52.5t-209 -140.5t-140 -209.5t-52 -254.5t52 -254.5t140 -209.5t209 -140.5t254 -52.5zM479 279v16l215 235q58 62 94.5 107.5t68.5 113t32 128.5q0 72 -45 115.5t-117 43.5q-66 0 -121.5 -37t-79.5 -102l-14 4q16 88 87.5 150.5t180.5 62.5q107 0 172.5 -61
t65.5 -162q0 -52 -19 -101.5t-47.5 -91t-82 -93t-102.5 -93t-128 -105.5q-8 -6 -12 -9.5t-11 -9t-12 -9.5h268q78 0 110 21t56 102h17l-35 -225h-541z" />
    <glyph glyph-name="uni2462" unicode="&#x2462;" horiz-adv-x="1554" 
d="M774 -29q-144 0 -275.5 57t-227 152.5t-152 227.5t-56.5 276t56.5 276t152 227.5t227 152.5t275.5 57q145 0 277 -57t228 -152.5t153 -227.5t57 -276t-57 -276t-153 -227.5t-228 -152.5t-277 -57zM774 27q178 0 330 88.5t241 240t89 328.5t-89 328.5t-241 240t-330 88.5
q-133 0 -254 -52.5t-209 -140.5t-140 -209.5t-52 -254.5t52 -254.5t140 -209.5t209 -140.5t254 -52.5zM766 270q-108 0 -188.5 49t-96.5 146l121 37q11 -90 59.5 -144.5t120.5 -54.5q71 0 113.5 53.5t42.5 139.5q0 93 -67.5 148.5t-194.5 55.5v19q107 12 166 62.5t59 119.5
q0 61 -45 102t-113 41t-125 -37t-81 -102l-15 6q19 88 90.5 150.5t182.5 62.5q106 0 168.5 -56t62.5 -138q0 -86 -63.5 -138.5t-171.5 -72.5q130 -6 203 -62t73 -155q0 -107 -81.5 -169.5t-219.5 -62.5z" />
    <glyph glyph-name="uni2463" unicode="&#x2463;" horiz-adv-x="1554" 
d="M774 -29q-144 0 -275.5 57t-227 152.5t-152 227.5t-56.5 276t56.5 276t152 227.5t227 152.5t275.5 57q145 0 277 -57t228 -152.5t153 -227.5t57 -276t-57 -276t-153 -227.5t-228 -152.5t-277 -57zM774 27q178 0 330 88.5t241 240t89 328.5t-89 328.5t-241 240t-330 88.5
q-133 0 -254 -52.5t-209 -140.5t-140 -209.5t-52 -254.5t52 -254.5t140 -209.5t209 -140.5t254 -52.5zM662 279v16q81 4 108 23.5t27 66.5v125h-387v22l417 568h91v-553h141v-37h-141v-125q0 -49 25.5 -67t86.5 -23v-16h-368zM465 547h332v452z" />
    <glyph glyph-name="uni2464" unicode="&#x2464;" horiz-adv-x="1554" 
d="M774 -29q-144 0 -275.5 57t-227 152.5t-152 227.5t-56.5 276t56.5 276t152 227.5t227 152.5t275.5 57q145 0 277 -57t228 -152.5t153 -227.5t57 -276t-57 -276t-153 -227.5t-228 -152.5t-277 -57zM774 27q178 0 330 88.5t241 240t89 328.5t-89 328.5t-241 240t-330 88.5
q-133 0 -254 -52.5t-209 -140.5t-140 -209.5t-52 -254.5t52 -254.5t140 -209.5t209 -140.5t254 -52.5zM739 270q-110 0 -190 49t-96 146l125 39q4 -90 55.5 -145.5t128.5 -55.5t120.5 56.5t43.5 148.5q0 107 -57.5 168t-153.5 61q-98 0 -185 -61l-12 6l72 426h420v-113h-404
l-45 -264q94 80 209 80q121 0 202 -73t81 -193q0 -125 -83.5 -200t-230.5 -75z" />
    <glyph glyph-name="uni2465" unicode="&#x2465;" horiz-adv-x="1554" 
d="M774 -27q-144 0 -275.5 57t-227 152.5t-152 227.5t-56.5 276t56.5 276t152 227.5t227 152.5t275.5 57q145 0 277 -57t228 -152.5t153 -227.5t57 -276t-57 -276t-153 -227.5t-228 -152.5t-277 -57zM774 29q178 0 330 88.5t241 240t89 328.5t-89 328.5t-241 240t-330 88.5
q-133 0 -254 -52.5t-209 -140.5t-140 -209.5t-52 -254.5t52 -254.5t140 -209.5t209 -140.5t254 -52.5zM791 270q-152 0 -235 109.5t-83 306.5q0 97 21 174.5t55 126.5t79.5 81.5t90.5 46t92 13.5q87 0 162 -40t100 -113l-125 -45q-12 71 -56 117.5t-101 46.5
q-88 0 -137.5 -104t-49.5 -288q41 59 102 87t121 28q111 0 184.5 -73.5t73.5 -192.5q0 -124 -81 -202.5t-213 -78.5zM803 305q74 0 116 63t42 156q0 106 -56 167t-137 61q-40 0 -86 -20.5t-78 -59.5q5 -155 57 -261t142 -106z" />
    <glyph glyph-name="uni2466" unicode="&#x2466;" horiz-adv-x="1554" 
d="M774 -29q-144 0 -275.5 57t-227 152.5t-152 227.5t-56.5 276t56.5 276t152 227.5t227 152.5t275.5 57q145 0 277 -57t228 -152.5t153 -227.5t57 -276t-57 -276t-153 -227.5t-228 -152.5t-277 -57zM774 27q178 0 330 88.5t241 240t89 328.5t-89 328.5t-241 240t-330 88.5
q-133 0 -254 -52.5t-209 -140.5t-140 -209.5t-52 -254.5t52 -254.5t140 -209.5t209 -140.5t254 -52.5zM639 279q-2 66 8.5 131t26 117t44.5 110t53.5 97.5t65 92.5t65.5 82.5t69 79.5h-314q-69 0 -96 -22.5t-45 -100.5h-18l26 234h555v-19q-72 -92 -122.5 -171.5t-96.5 -180
t-68.5 -213.5t-19.5 -237h-133z" />
    <glyph glyph-name="uni2467" unicode="&#x2467;" horiz-adv-x="1554" 
d="M774 -27q-144 0 -275.5 57t-227 152.5t-152 227.5t-56.5 276t56.5 276t152 227.5t227 152.5t275.5 57q145 0 277 -57t228 -152.5t153 -227.5t57 -276t-57 -276t-153 -227.5t-228 -152.5t-277 -57zM774 29q178 0 330 88.5t241 240t89 328.5t-89 328.5t-241 240t-330 88.5
q-133 0 -254 -52.5t-209 -140.5t-140 -209.5t-52 -254.5t52 -254.5t140 -209.5t209 -140.5t254 -52.5zM780 270q-135 0 -216 58t-81 155q0 147 201 213q-81 38 -123.5 85.5t-42.5 123.5q0 95 71 159t187 64t189 -56.5t73 -137.5q0 -67 -47 -114.5t-133 -69.5
q49 -23 79.5 -40.5t65 -46.5t51.5 -68t17 -89q0 -102 -79 -169t-212 -67zM821 768q57 31 79 68.5t22 93.5q0 71 -41.5 117.5t-102.5 46.5q-64 0 -105.5 -38.5t-41.5 -97.5q0 -25 6.5 -46.5t21.5 -39.5t29 -31t40.5 -27.5t43 -22.5t49.5 -23zM780 305q72 0 120 45.5t48 114.5
q0 24 -7 45.5t-15 37t-27.5 32.5t-31 26t-40.5 24t-40.5 20t-45.5 20q-12 5 -18 8q-51 -28 -78.5 -64.5t-33 -63.5t-5.5 -65q0 -78 49.5 -129t124.5 -51z" />
    <glyph glyph-name="uni2468" unicode="&#x2468;" horiz-adv-x="1554" 
d="M774 -27q-144 0 -275.5 57t-227 152.5t-152 227.5t-56.5 276t56.5 276t152 227.5t227 152.5t275.5 57q145 0 277 -57t228 -152.5t153 -227.5t57 -276t-57 -276t-153 -227.5t-228 -152.5t-277 -57zM774 29q178 0 330 88.5t241 240t89 328.5t-89 328.5t-241 240t-330 88.5
q-133 0 -254 -52.5t-209 -140.5t-140 -209.5t-52 -254.5t52 -254.5t140 -209.5t209 -140.5t254 -52.5zM748 270q-89 0 -163 39.5t-100 112.5l127 45q13 -75 58.5 -118.5t97.5 -43.5q91 0 140.5 104.5t49.5 286.5q-83 -114 -225 -114q-111 0 -184.5 72.5t-73.5 193.5
q0 123 81 201.5t214 78.5q152 0 234.5 -109t82.5 -306q0 -97 -21 -174.5t-55 -127t-79 -82t-90.5 -46t-93.5 -13.5zM795 645q41 0 86.5 20t76.5 60q-7 157 -58 263t-142 106q-73 0 -114.5 -63.5t-41.5 -156.5q0 -106 55.5 -167.5t137.5 -61.5z" />
    <glyph glyph-name="lozenge" unicode="&#x25ca;" horiz-adv-x="993" 
d="M459 0l-387 684l387 684h76l387 -684l-387 -684h-76zM498 51l354 633l-354 633l-355 -633z" />
    <glyph glyph-name="uni25CF" unicode="&#x25cf;" horiz-adv-x="1566" 
d="M780 -29q145 0 277 57t228 152.5t153 227.5t57 276t-57 276t-153 227.5t-228 152.5t-277 57q-144 0 -275.5 -57t-226.5 -152.5t-151.5 -227.5t-56.5 -276t56.5 -276t151.5 -227.5t226.5 -152.5t275.5 -57z" />
    <glyph glyph-name="uni2776" unicode="&#x2776;" horiz-adv-x="1554" 
d="M774 -29q145 0 277 57t228 152.5t153 227.5t57 276t-57 276t-153 227.5t-228 152.5t-277 57q-144 0 -275.5 -57t-227 -152.5t-152 -227.5t-56.5 -276t56.5 -276t152 -227.5t227 -152.5t275.5 -57zM590 279v16q78 5 106.5 22.5t28.5 67.5v590h-135v16q158 41 239 113h17
v-719q0 -49 25 -67t85 -23v-16h-366z" />
    <glyph glyph-name="uni2777" unicode="&#x2777;" horiz-adv-x="1554" 
d="M774 -29q145 0 277 57t228 152.5t153 227.5t57 276t-57 276t-153 227.5t-228 152.5t-277 57q-144 0 -275.5 -57t-227 -152.5t-152 -227.5t-56.5 -276t56.5 -276t152 -227.5t227 -152.5t275.5 -57zM479 279v16l215 235q58 62 94.5 107.5t68.5 113t32 128.5q0 72 -45 115.5
t-117 43.5q-66 0 -121.5 -37t-79.5 -102l-14 4q16 88 87.5 150.5t180.5 62.5q107 0 172.5 -61t65.5 -162q0 -52 -19 -101.5t-47.5 -91t-82 -93t-102.5 -93t-128 -105.5q-8 -6 -12 -9.5t-11 -9t-12 -9.5h268q78 0 110 21t56 102h17l-35 -225h-541z" />
    <glyph glyph-name="uni2778" unicode="&#x2778;" horiz-adv-x="1554" 
d="M774 -29q145 0 277 57t228 152.5t153 227.5t57 276t-57 276t-153 227.5t-228 152.5t-277 57q-144 0 -275.5 -57t-227 -152.5t-152 -227.5t-56.5 -276t56.5 -276t152 -227.5t227 -152.5t275.5 -57zM766 270q-108 0 -188.5 49t-96.5 146l121 37q11 -90 59.5 -144.5
t120.5 -54.5q71 0 113.5 53.5t42.5 139.5q0 93 -67.5 148.5t-194.5 55.5v19q107 12 166 62.5t59 119.5q0 61 -45 102t-113 41t-125 -37t-81 -102l-15 6q19 88 90.5 150.5t182.5 62.5q106 0 168.5 -56t62.5 -138q0 -86 -63.5 -138.5t-171.5 -72.5q130 -6 203 -62t73 -155
q0 -107 -81.5 -169.5t-219.5 -62.5z" />
    <glyph glyph-name="uni2779" unicode="&#x2779;" horiz-adv-x="1554" 
d="M774 -29q145 0 277 57t228 152.5t153 227.5t57 276t-57 276t-153 227.5t-228 152.5t-277 57q-144 0 -275.5 -57t-227 -152.5t-152 -227.5t-56.5 -276t56.5 -276t152 -227.5t227 -152.5t275.5 -57zM662 279v16q81 4 108 23.5t27 66.5v125h-387v22l417 568h91v-553h141v-37
h-141v-125q0 -49 25.5 -67t86.5 -23v-16h-368zM465 547h332v452z" />
    <glyph glyph-name="uni277A" unicode="&#x277a;" horiz-adv-x="1554" 
d="M774 -29q145 0 277 57t228 152.5t153 227.5t57 276t-57 276t-153 227.5t-228 152.5t-277 57q-144 0 -275.5 -57t-227 -152.5t-152 -227.5t-56.5 -276t56.5 -276t152 -227.5t227 -152.5t275.5 -57zM739 270q-110 0 -190 49t-96 146l125 39q4 -90 55.5 -145.5t128.5 -55.5
t120.5 56.5t43.5 148.5q0 107 -57.5 168t-153.5 61q-98 0 -185 -61l-12 6l72 426h420v-113h-404l-45 -264q94 80 209 80q121 0 202 -73t81 -193q0 -125 -83.5 -200t-230.5 -75z" />
    <glyph glyph-name="uni277B" unicode="&#x277b;" horiz-adv-x="1554" 
d="M774 -27q145 0 277 57t228 152.5t153 227.5t57 276t-57 276t-153 227.5t-228 152.5t-277 57q-144 0 -275.5 -57t-227 -152.5t-152 -227.5t-56.5 -276t56.5 -276t152 -227.5t227 -152.5t275.5 -57zM791 270q-152 0 -235 109.5t-83 306.5q0 97 21 174.5t55 126.5t79.5 81.5
t90.5 46t92 13.5q87 0 162 -40t100 -113l-125 -45q-12 71 -56 117.5t-101 46.5q-88 0 -137.5 -104t-49.5 -288q41 59 102 87t121 28q111 0 184.5 -73.5t73.5 -192.5q0 -124 -81 -202.5t-213 -78.5zM803 305q74 0 116 63t42 156q0 106 -56 167t-137 61q-40 0 -86 -20.5
t-78 -59.5q5 -155 57 -261t142 -106z" />
    <glyph glyph-name="uni277C" unicode="&#x277c;" horiz-adv-x="1554" 
d="M774 -29q145 0 277 57t228 152.5t153 227.5t57 276t-57 276t-153 227.5t-228 152.5t-277 57q-144 0 -275.5 -57t-227 -152.5t-152 -227.5t-56.5 -276t56.5 -276t152 -227.5t227 -152.5t275.5 -57zM639 279q-2 66 8.5 131t26 117t44.5 110t53.5 97.5t65 92.5t65.5 82.5
t69 79.5h-314q-69 0 -96 -22.5t-45 -100.5h-18l26 234h555v-19q-72 -92 -122.5 -171.5t-96.5 -180t-68.5 -213.5t-19.5 -237h-133z" />
    <glyph glyph-name="uni277D" unicode="&#x277d;" horiz-adv-x="1554" 
d="M774 -27q145 0 277 57t228 152.5t153 227.5t57 276t-57 276t-153 227.5t-228 152.5t-277 57q-144 0 -275.5 -57t-227 -152.5t-152 -227.5t-56.5 -276t56.5 -276t152 -227.5t227 -152.5t275.5 -57zM778 270q-135 0 -215 58t-80 155q0 148 201 213q-82 38 -125 85.5
t-43 123.5q0 95 71.5 159t188.5 64q115 0 187.5 -56.5t72.5 -137.5q0 -67 -46.5 -114.5t-133.5 -69.5q49 -22 80.5 -40t65.5 -47t50.5 -68t16.5 -89q0 -102 -79 -169t-212 -67zM819 768q58 31 79.5 68.5t21.5 93.5q0 71 -41.5 117.5t-102.5 46.5q-64 0 -105.5 -38.5
t-41.5 -97.5q0 -25 6.5 -46.5t21.5 -39.5t29 -31t40.5 -27.5t43 -22.5t49.5 -23zM778 305q72 0 121 45.5t49 114.5q0 41 -15 72t-52 57t-61 38.5t-79 36.5q-4 2 -6.5 3t-6.5 3t-7 3q-51 -28 -78.5 -64.5t-33 -63.5t-5.5 -65q0 -78 49.5 -129t124.5 -51z" />
    <glyph glyph-name="uni277E" unicode="&#x277e;" horiz-adv-x="1554" 
d="M774 -27q145 0 277 57t228 152.5t153 227.5t57 276t-57 276t-153 227.5t-228 152.5t-277 57q-144 0 -275.5 -57t-227 -152.5t-152 -227.5t-56.5 -276t56.5 -276t152 -227.5t227 -152.5t275.5 -57zM748 270q-89 0 -163 39.5t-100 112.5l127 45q13 -75 58.5 -118.5
t97.5 -43.5q91 0 140.5 104.5t49.5 286.5q-83 -114 -225 -114q-111 0 -184.5 72.5t-73.5 193.5q0 123 81 201.5t214 78.5q152 0 234.5 -109t82.5 -306q0 -97 -21 -174.5t-55 -127t-79 -82t-90.5 -46t-93.5 -13.5zM795 645q41 0 86.5 20t76.5 60q-7 157 -58 263t-142 106
q-73 0 -114.5 -63.5t-41.5 -156.5q0 -106 55.5 -167.5t137.5 -61.5z" />
    <glyph glyph-name="uniF8FF" unicode="&#xf8ff;" horiz-adv-x="1572" 
d="M328 -27q-106 0 -181 75t-75 181q0 119 70.5 191t185.5 72h202v387h-202q-116 0 -186 72t-70 190q0 106 76 182t180 76q110 0 187 -75.5t77 -182.5v-201h391v201q0 106 77 182t185 76q106 0 181 -76t75 -182q0 -118 -70 -190t-186 -72h-203v-387h203q115 0 185.5 -72
t70.5 -191q0 -105 -75.5 -180.5t-180.5 -75.5q-107 0 -184.5 75t-77.5 181v201h-391v-201q0 -106 -77 -181t-187 -75zM328 940h202v201q0 83 -58 139.5t-144 56.5q-80 0 -136.5 -57t-56.5 -139q0 -90 53 -145.5t140 -55.5zM1042 940h203q87 0 141 55.5t54 145.5
q0 81 -57.5 138.5t-137.5 57.5q-86 0 -144.5 -56.5t-58.5 -139.5v-201zM592 492h391v387h-391v-387zM328 35q85 0 143.5 55.5t58.5 138.5v201h-202q-87 0 -140 -55.5t-53 -145.5q0 -81 56.5 -137.5t136.5 -56.5zM1245 35q80 0 137.5 56.5t57.5 137.5q0 90 -54 145.5
t-141 55.5h-203v-201q0 -83 59 -138.5t144 -55.5z" />
    <glyph glyph-name="K.ss05" horiz-adv-x="1433" 
d="M1188 147q39 -36 63 -55.5t67.5 -40.5t86.5 -22v-29h-242l-762 662v-472q0 -96 42 -126t145 -35v-29h-502v29q52 3 83 9t57 22.5t37 47.5t11 82v990q0 94 -42.5 124t-145.5 35v29h502v-29q-51 -2 -82 -8.5t-57 -23t-37 -47.5t-11 -80v-465l592 506q66 59 41.5 87
t-143.5 31v29h428v-29q-64 -3 -119 -30t-121 -84l-571 -492z" />
    <glyph glyph-name="M.ss11" horiz-adv-x="1820" 
d="M1595 172q7 -79 46.5 -107t138.5 -36v-29h-494v29q100 8 144 38t38 105l-84 999l-510 -1171h-49l-446 1159l-96 -987q-6 -77 38 -106t148 -37v-29h-426v29q98 8 137 37t45 106l101 1030q7 80 -35 107t-139 30l2 29h284l455 -1184l516 1184h270l2 -29q-99 -3 -139 -34
t-33 -123z" />
    <glyph glyph-name="R.ss12" horiz-adv-x="1345" 
d="M1137 123q108 -92 190 -94v-29h-264q-13 35 -78 96l-582 510h-2v-416q0 -96 42.5 -127t144.5 -34v-29h-502v29q103 3 145.5 34t42.5 127v990q0 94 -43 125t-145 34v29h541q117 0 210 -22t163 -67t107.5 -118.5t37.5 -171.5q0 -192 -139.5 -287.5t-378.5 -95.5h-54z
M621 1311h-220v-647h220q184 0 282 88t98 237q0 145 -98.5 233.5t-281.5 88.5z" />
    <glyph glyph-name="Racute.ss12" horiz-adv-x="1345" 
d="M887 1823l-250 -320h-29l135 320h144zM1137 123q108 -92 190 -94v-29h-264q-13 35 -78 96l-582 510h-2v-416q0 -96 42.5 -127t144.5 -34v-29h-502v29q103 3 145.5 34t42.5 127v990q0 94 -43 125t-145 34v29h541q117 0 210 -22t163 -67t107.5 -118.5t37.5 -171.5
q0 -192 -139.5 -287.5t-378.5 -95.5h-54zM621 1311h-220v-647h220q184 0 282 88t98 237q0 145 -98.5 233.5t-281.5 88.5z" />
    <glyph glyph-name="Rcaron.ss12" horiz-adv-x="1345" 
d="M717 1503h-135l-197 320h29l235 -232l232 232h28zM1137 123q108 -92 190 -94v-29h-264q-13 35 -78 96l-582 510h-2v-416q0 -96 42.5 -127t144.5 -34v-29h-502v29q103 3 145.5 34t42.5 127v990q0 94 -43 125t-145 34v29h541q117 0 210 -22t163 -67t107.5 -118.5
t37.5 -171.5q0 -192 -139.5 -287.5t-378.5 -95.5h-54zM621 1311h-220v-647h220q184 0 282 88t98 237q0 145 -98.5 233.5t-281.5 88.5z" />
    <glyph glyph-name="uni0156.ss12" horiz-adv-x="1345" 
d="M1137 123q108 -92 190 -94v-29h-264q-13 35 -78 96l-582 510h-2v-416q0 -96 42.5 -127t144.5 -34v-29h-502v29q103 3 145.5 34t42.5 127v990q0 94 -43 125t-145 34v29h541q117 0 210 -22t163 -67t107.5 -118.5t37.5 -171.5q0 -192 -139.5 -287.5t-378.5 -95.5h-54z
M621 1311h-220v-647h220q184 0 282 88t98 237q0 145 -98.5 233.5t-281.5 88.5zM631 -100l92 10q20 -75 -3.5 -162t-101.5 -172l-22 14q34 66 44 152t-9 158z" />
    <glyph glyph-name="i.loclTRK" horiz-adv-x="575" 
d="M287 1206q-43 0 -73 29t-30 70t30 69.5t73 28.5q40 0 68 -28.5t28 -69.5t-28 -70t-68 -29zM356 150q0 -34 12 -56.5t37 -35t45.5 -18t55.5 -11.5v-29h-412v29q35 6 55.5 11.5t45.5 18t37 35t12 56.5v700q0 54 -24.5 78t-80.5 26h-55v29l244 70h28v-903z" />
    <glyph glyph-name="germandbls.calt" horiz-adv-x="1394" 
d="M854 -29q-194 0 -326 138l21 22q55 -52 133.5 -75t153.5 -23q143 0 231 95.5t88 250.5q0 200 -148 287t-386 28l-13 35l447 565q-146 47 -301 47q-156 0 -254.5 -103t-98.5 -259v-979h-315v29q103 3 145.5 34t42.5 127v779q0 183 132.5 306.5t347.5 123.5q224 0 428 -58
l20 -57l-418 -493q221 32 357.5 -75t136.5 -313q0 -185 -118.5 -308.5t-305.5 -123.5z" />
    <glyph glyph-name="a.ss01" horiz-adv-x="1148" 
d="M1061 66h55v-29l-244 -70h-28v269q-47 -114 -137.5 -191.5t-206.5 -77.5q-176 0 -290 146.5t-114 361.5q0 140 38.5 251.5t105 180.5t150.5 105.5t179 36.5q84 0 159 -39t126 -109l74 150h28v-881q0 -55 24.5 -78.5t80.5 -25.5zM547 68q89 0 176.5 70.5t120.5 162.5v385
q0 47 -19.5 97.5t-56.5 97t-99 76.5t-137 30q-134 0 -223.5 -127t-89.5 -307q0 -86 19.5 -169.5t58 -155.5t103.5 -116t147 -44z" />
    <glyph glyph-name="aacute.ss01" horiz-adv-x="1148" 
d="M803 1475l-250 -320h-29l135 320h144zM1061 66h55v-29l-244 -70h-28v269q-47 -114 -137.5 -191.5t-206.5 -77.5q-176 0 -290 146.5t-114 361.5q0 140 38.5 251.5t105 180.5t150.5 105.5t179 36.5q84 0 159 -39t126 -109l74 150h28v-881q0 -55 24.5 -78.5t80.5 -25.5z
M547 68q89 0 176.5 70.5t120.5 162.5v385q0 47 -19.5 97.5t-56.5 97t-99 76.5t-137 30q-134 0 -223.5 -127t-89.5 -307q0 -86 19.5 -169.5t58 -155.5t103.5 -116t147 -44z" />
    <glyph glyph-name="abreve.ss01" horiz-adv-x="1148" 
d="M565 1153q-240 0 -243 322h30q7 -119 68.5 -170.5t144.5 -51.5q84 0 145.5 51.5t69.5 170.5h31q-6 -322 -246 -322zM1061 66h55v-29l-244 -70h-28v269q-47 -114 -137.5 -191.5t-206.5 -77.5q-176 0 -290 146.5t-114 361.5q0 140 38.5 251.5t105 180.5t150.5 105.5
t179 36.5q84 0 159 -39t126 -109l74 150h28v-881q0 -55 24.5 -78.5t80.5 -25.5zM547 68q89 0 176.5 70.5t120.5 162.5v385q0 47 -19.5 97.5t-56.5 97t-99 76.5t-137 30q-134 0 -223.5 -127t-89.5 -307q0 -86 19.5 -169.5t58 -155.5t103.5 -116t147 -44z" />
    <glyph glyph-name="acircumflex.ss01" horiz-adv-x="1148" 
d="M555 1389l-236 -232h-28l196 322h136l192 -322h-29zM1061 66h55v-29l-244 -70h-28v269q-47 -114 -137.5 -191.5t-206.5 -77.5q-176 0 -290 146.5t-114 361.5q0 140 38.5 251.5t105 180.5t150.5 105.5t179 36.5q84 0 159 -39t126 -109l74 150h28v-881q0 -55 24.5 -78.5
t80.5 -25.5zM547 68q89 0 176.5 70.5t120.5 162.5v385q0 47 -19.5 97.5t-56.5 97t-99 76.5t-137 30q-134 0 -223.5 -127t-89.5 -307q0 -86 19.5 -169.5t58 -155.5t103.5 -116t147 -44z" />
    <glyph glyph-name="adieresis.ss01" horiz-adv-x="1148" 
d="M414 1202q-43 0 -73 28.5t-30 69.5t30 71t73 30q41 0 69.5 -29.5t28.5 -71.5q0 -41 -28.5 -69.5t-69.5 -28.5zM737 1202q-44 0 -73 28t-29 70t29 71.5t73 29.5q41 0 70 -30t29 -71t-29 -69.5t-70 -28.5zM1061 66h55v-29l-244 -70h-28v269q-47 -114 -137.5 -191.5
t-206.5 -77.5q-176 0 -290 146.5t-114 361.5q0 140 38.5 251.5t105 180.5t150.5 105.5t179 36.5q84 0 159 -39t126 -109l74 150h28v-881q0 -55 24.5 -78.5t80.5 -25.5zM547 68q89 0 176.5 70.5t120.5 162.5v385q0 47 -19.5 97.5t-56.5 97t-99 76.5t-137 30
q-134 0 -223.5 -127t-89.5 -307q0 -86 19.5 -169.5t58 -155.5t103.5 -116t147 -44z" />
    <glyph glyph-name="agrave.ss01" horiz-adv-x="1148" 
d="M621 1155h-29l-250 320h143zM1061 66h55v-29l-244 -70h-28v269q-47 -114 -137.5 -191.5t-206.5 -77.5q-176 0 -290 146.5t-114 361.5q0 140 38.5 251.5t105 180.5t150.5 105.5t179 36.5q84 0 159 -39t126 -109l74 150h28v-881q0 -55 24.5 -78.5t80.5 -25.5zM547 68
q89 0 176.5 70.5t120.5 162.5v385q0 47 -19.5 97.5t-56.5 97t-99 76.5t-137 30q-134 0 -223.5 -127t-89.5 -307q0 -86 19.5 -169.5t58 -155.5t103.5 -116t147 -44z" />
    <glyph glyph-name="amacron.ss01" horiz-adv-x="1148" 
d="M803 1257v-61h-479v61h479zM1061 66h55v-29l-244 -70h-28v269q-47 -114 -137.5 -191.5t-206.5 -77.5q-176 0 -290 146.5t-114 361.5q0 140 38.5 251.5t105 180.5t150.5 105.5t179 36.5q84 0 159 -39t126 -109l74 150h28v-881q0 -55 24.5 -78.5t80.5 -25.5zM547 68
q89 0 176.5 70.5t120.5 162.5v385q0 47 -19.5 97.5t-56.5 97t-99 76.5t-137 30q-134 0 -223.5 -127t-89.5 -307q0 -86 19.5 -169.5t58 -155.5t103.5 -116t147 -44z" />
    <glyph glyph-name="aogonek.ss01" horiz-adv-x="1148" 
d="M1163 -342l8 -20q-83 -72 -182 -72q-72 0 -120 44.5t-48 117.5q0 164 258 299l-207 -60h-28v269q-47 -114 -137.5 -191.5t-206.5 -77.5q-176 0 -290 146.5t-114 361.5q0 140 38.5 251.5t105 180.5t150.5 105.5t179 36.5q84 0 159 -39t126 -109l74 150h28v-881
q0 -55 24.5 -78.5t80.5 -25.5h55v-31q-106 -86 -145 -146t-39 -122q0 -81 62 -113t169 4zM547 68q89 0 176.5 70.5t120.5 162.5v385q0 47 -19.5 97.5t-56.5 97t-99 76.5t-137 30q-134 0 -223.5 -127t-89.5 -307q0 -86 19.5 -169.5t58 -155.5t103.5 -116t147 -44z" />
    <glyph glyph-name="aring.ss01" horiz-adv-x="1148" 
d="M565 1143q-81 0 -133.5 50t-52.5 126q0 77 52 126.5t134 49.5q78 0 130.5 -50t52.5 -126q0 -75 -52.5 -125.5t-130.5 -50.5zM565 1442q-51 0 -85 -34.5t-34 -86.5q0 -53 34 -88t85 -35t85 35t34 88q0 52 -34 86.5t-85 34.5zM1061 66h55v-29l-244 -70h-28v269
q-47 -114 -137.5 -191.5t-206.5 -77.5q-176 0 -290 146.5t-114 361.5q0 140 38.5 251.5t105 180.5t150.5 105.5t179 36.5q84 0 159 -39t126 -109l74 150h28v-881q0 -55 24.5 -78.5t80.5 -25.5zM547 68q89 0 176.5 70.5t120.5 162.5v385q0 47 -19.5 97.5t-56.5 97t-99 76.5
t-137 30q-134 0 -223.5 -127t-89.5 -307q0 -86 19.5 -169.5t58 -155.5t103.5 -116t147 -44z" />
    <glyph glyph-name="aringacute.ss01" horiz-adv-x="1148" 
d="M565 1143q-81 0 -133.5 50t-52.5 126q0 70 45 118t117 56l116 279h144l-217 -277q71 -6 117.5 -55.5t46.5 -120.5q0 -75 -52.5 -125.5t-130.5 -50.5zM565 1442q-51 0 -85 -34.5t-34 -86.5q0 -53 34 -88t85 -35t85 35t34 88q0 52 -34 86.5t-85 34.5zM1061 66h55v-29
l-244 -70h-28v269q-47 -114 -137.5 -191.5t-206.5 -77.5q-176 0 -290 146.5t-114 361.5q0 140 38.5 251.5t105 180.5t150.5 105.5t179 36.5q84 0 159 -39t126 -109l74 150h28v-881q0 -55 24.5 -78.5t80.5 -25.5zM547 68q89 0 176.5 70.5t120.5 162.5v385q0 47 -19.5 97.5
t-56.5 97t-99 76.5t-137 30q-134 0 -223.5 -127t-89.5 -307q0 -86 19.5 -169.5t58 -155.5t103.5 -116t147 -44z" />
    <glyph glyph-name="atilde.ss01" horiz-adv-x="1148" 
d="M418 1296q-70 0 -99 -108h-26q9 87 52.5 139.5t105.5 52.5q46 0 134.5 -57t127.5 -57q72 0 98 106l27 -2q-8 -83 -51.5 -135.5t-106.5 -52.5q-34 0 -84 28.5t-98.5 57t-79.5 28.5zM1061 66h55v-29l-244 -70h-28v269q-47 -114 -137.5 -191.5t-206.5 -77.5
q-176 0 -290 146.5t-114 361.5q0 140 38.5 251.5t105 180.5t150.5 105.5t179 36.5q84 0 159 -39t126 -109l74 150h28v-881q0 -55 24.5 -78.5t80.5 -25.5zM547 68q89 0 176.5 70.5t120.5 162.5v385q0 47 -19.5 97.5t-56.5 97t-99 76.5t-137 30q-134 0 -223.5 -127t-89.5 -307
q0 -86 19.5 -169.5t58 -155.5t103.5 -116t147 -44z" />
    <glyph glyph-name="ae.ss01" horiz-adv-x="1779" 
d="M1659 266l22 -10q-39 -125 -146.5 -205t-244.5 -80q-112 0 -202 48t-150 135l-64 -185h-28l-2 228q-104 -230 -344 -230q-176 0 -290 146.5t-114 361.5q0 140 38.5 251.5t105 180.5t150.5 105.5t179 36.5q241 0 353 -232q61 110 162 172t227 62q167 0 267.5 -125.5
t100.5 -321.5h-710q-4 -32 -4 -53q-6 -210 101.5 -337.5t285.5 -127.5q189 0 307 180zM1282 993q-115 0 -196.5 -90.5t-108.5 -240.5h567q-3 138 -75 234.5t-187 96.5zM547 68q91 0 169 49.5t128 156.5v289q-12 424 -312 424q-134 0 -223.5 -127t-89.5 -307
q0 -86 19.5 -169.5t58 -155.5t103.5 -116t147 -44z" />
    <glyph glyph-name="aeacute.ss01" horiz-adv-x="1779" 
d="M1151 1475l-250 -320h-29l136 320h143zM1659 266l22 -10q-39 -125 -146.5 -205t-244.5 -80q-112 0 -202 48t-150 135l-64 -185h-28l-2 228q-104 -230 -344 -230q-176 0 -290 146.5t-114 361.5q0 140 38.5 251.5t105 180.5t150.5 105.5t179 36.5q241 0 353 -232
q61 110 162 172t227 62q167 0 267.5 -125.5t100.5 -321.5h-710q-4 -32 -4 -53q-6 -210 101.5 -337.5t285.5 -127.5q189 0 307 180zM1282 993q-115 0 -196.5 -90.5t-108.5 -240.5h567q-3 138 -75 234.5t-187 96.5zM547 68q91 0 169 49.5t128 156.5v289q-12 424 -312 424
q-134 0 -223.5 -127t-89.5 -307q0 -86 19.5 -169.5t58 -155.5t103.5 -116t147 -44z" />
    <glyph glyph-name="g.ss02" horiz-adv-x="1087" 
d="M928 1051h28v-1057q0 -209 -108.5 -318.5t-317.5 -109.5q-142 0 -241.5 49.5t-149.5 116.5l131 80q37 -81 114 -136t179 -55q145 0 213 83t68 230v302q-47 -114 -137.5 -191.5t-208.5 -77.5q-116 0 -208.5 68t-143 183.5t-50.5 256.5q0 140 38.5 251.5t105 180.5
t150.5 105.5t179 36.5q84 0 159 -39t126 -109zM547 68q89 0 176.5 70.5t120.5 162.5v385q0 47 -19.5 97.5t-56.5 97t-99 76.5t-137 30q-134 0 -223.5 -127t-89.5 -307q0 -86 19.5 -169.5t58 -155.5t103.5 -116t147 -44z" />
    <glyph glyph-name="gbreve.ss02" horiz-adv-x="1087" 
d="M580 1153q-241 0 -244 322h31q7 -119 68.5 -170.5t144.5 -51.5q84 0 145.5 51.5t69.5 170.5h30q-6 -322 -245 -322zM928 1051h28v-1057q0 -209 -108.5 -318.5t-317.5 -109.5q-142 0 -241.5 49.5t-149.5 116.5l131 80q37 -81 114 -136t179 -55q145 0 213 83t68 230v302
q-47 -114 -137.5 -191.5t-208.5 -77.5q-116 0 -208.5 68t-143 183.5t-50.5 256.5q0 140 38.5 251.5t105 180.5t150.5 105.5t179 36.5q84 0 159 -39t126 -109zM547 68q89 0 176.5 70.5t120.5 162.5v385q0 47 -19.5 97.5t-56.5 97t-99 76.5t-137 30q-134 0 -223.5 -127
t-89.5 -307q0 -86 19.5 -169.5t58 -155.5t103.5 -116t147 -44z" />
    <glyph glyph-name="gcircumflex.ss02" horiz-adv-x="1087" 
d="M569 1389l-235 -232h-29l197 322h135l192 -322h-28zM928 1051h28v-1057q0 -209 -108.5 -318.5t-317.5 -109.5q-142 0 -241.5 49.5t-149.5 116.5l131 80q37 -81 114 -136t179 -55q145 0 213 83t68 230v302q-47 -114 -137.5 -191.5t-208.5 -77.5q-116 0 -208.5 68
t-143 183.5t-50.5 256.5q0 140 38.5 251.5t105 180.5t150.5 105.5t179 36.5q84 0 159 -39t126 -109zM547 68q89 0 176.5 70.5t120.5 162.5v385q0 47 -19.5 97.5t-56.5 97t-99 76.5t-137 30q-134 0 -223.5 -127t-89.5 -307q0 -86 19.5 -169.5t58 -155.5t103.5 -116t147 -44z
" />
    <glyph glyph-name="uni0123.ss02" horiz-adv-x="1087" 
d="M633 1159l-92 -12q-22 75 1.5 162.5t102.5 173.5l23 -15q-34 -69 -44.5 -153t9.5 -156zM928 1051h28v-1057q0 -209 -108.5 -318.5t-317.5 -109.5q-142 0 -241.5 49.5t-149.5 116.5l131 80q37 -81 114 -136t179 -55q145 0 213 83t68 230v302q-47 -114 -137.5 -191.5
t-208.5 -77.5q-116 0 -208.5 68t-143 183.5t-50.5 256.5q0 140 38.5 251.5t105 180.5t150.5 105.5t179 36.5q84 0 159 -39t126 -109zM547 68q89 0 176.5 70.5t120.5 162.5v385q0 47 -19.5 97.5t-56.5 97t-99 76.5t-137 30q-134 0 -223.5 -127t-89.5 -307q0 -86 19.5 -169.5
t58 -155.5t103.5 -116t147 -44z" />
    <glyph glyph-name="gdotaccent.ss02" horiz-adv-x="1087" 
d="M582 1206q-43 0 -73 29t-30 70t30 69.5t73 28.5q40 0 68 -28.5t28 -69.5t-28 -70t-68 -29zM928 1051h28v-1057q0 -209 -108.5 -318.5t-317.5 -109.5q-142 0 -241.5 49.5t-149.5 116.5l131 80q37 -81 114 -136t179 -55q145 0 213 83t68 230v302q-47 -114 -137.5 -191.5
t-208.5 -77.5q-116 0 -208.5 68t-143 183.5t-50.5 256.5q0 140 38.5 251.5t105 180.5t150.5 105.5t179 36.5q84 0 159 -39t126 -109zM547 68q89 0 176.5 70.5t120.5 162.5v385q0 47 -19.5 97.5t-56.5 97t-99 76.5t-137 30q-134 0 -223.5 -127t-89.5 -307q0 -86 19.5 -169.5
t58 -155.5t103.5 -116t147 -44z" />
    <glyph glyph-name="g.ss03" horiz-adv-x="1091" 
d="M598 184q74 -1 132 -7.5t116.5 -25t97 -48.5t62.5 -80t24 -117q0 -162 -150.5 -251t-390.5 -89q-203 0 -311 66.5t-108 195.5q0 92 53.5 166.5t122.5 114.5v337q-109 98 -109 250q0 157 109.5 256t285.5 99q96 0 175 -31h309v-57h-209q123 -99 123 -267
q0 -153 -110.5 -251.5t-287.5 -98.5q-132 0 -229 60v-222h295zM518 991q-114 0 -185 -72.5t-71 -189.5q0 -144 79.5 -233.5t207.5 -89.5q114 0 185 72.5t71 189.5q0 143 -80 233t-207 90zM539 -383q171 0 289 66.5t118 179.5q0 114 -85 160.5t-261 48.5l-326 2
q-36 -40 -64 -96.5t-28 -110.5q0 -117 102 -183.5t255 -66.5z" />
    <glyph glyph-name="gbreve.ss03" horiz-adv-x="1091" 
d="M530 1153q-240 0 -243 322h30q7 -119 68.5 -170.5t144.5 -51.5q84 0 145.5 51.5t69.5 170.5h31q-6 -322 -246 -322zM598 184q74 -1 132 -7.5t116.5 -25t97 -48.5t62.5 -80t24 -117q0 -162 -150.5 -251t-390.5 -89q-203 0 -311 66.5t-108 195.5q0 92 53.5 166.5
t122.5 114.5v337q-109 98 -109 250q0 157 109.5 256t285.5 99q96 0 175 -31h309v-57h-209q123 -99 123 -267q0 -153 -110.5 -251.5t-287.5 -98.5q-132 0 -229 60v-222h295zM518 991q-114 0 -185 -72.5t-71 -189.5q0 -144 79.5 -233.5t207.5 -89.5q114 0 185 72.5t71 189.5
q0 143 -80 233t-207 90zM539 -383q171 0 289 66.5t118 179.5q0 114 -85 160.5t-261 48.5l-326 2q-36 -40 -64 -96.5t-28 -110.5q0 -117 102 -183.5t255 -66.5z" />
    <glyph glyph-name="gcircumflex.ss03" horiz-adv-x="1091" 
d="M518 1389l-235 -232h-29l197 322h135l192 -322h-28zM598 184q74 -1 132 -7.5t116.5 -25t97 -48.5t62.5 -80t24 -117q0 -162 -150.5 -251t-390.5 -89q-203 0 -311 66.5t-108 195.5q0 92 53.5 166.5t122.5 114.5v337q-109 98 -109 250q0 157 109.5 256t285.5 99
q96 0 175 -31h309v-57h-209q123 -99 123 -267q0 -153 -110.5 -251.5t-287.5 -98.5q-132 0 -229 60v-222h295zM518 991q-114 0 -185 -72.5t-71 -189.5q0 -144 79.5 -233.5t207.5 -89.5q114 0 185 72.5t71 189.5q0 143 -80 233t-207 90zM539 -383q171 0 289 66.5t118 179.5
q0 114 -85 160.5t-261 48.5l-326 2q-36 -40 -64 -96.5t-28 -110.5q0 -117 102 -183.5t255 -66.5z" />
    <glyph glyph-name="uni0123.ss03" horiz-adv-x="1091" 
d="M584 1159l-92 -12q-22 75 1.5 162.5t102.5 173.5l22 -15q-34 -69 -44 -153t10 -156zM598 184q74 -1 132 -7.5t116.5 -25t97 -48.5t62.5 -80t24 -117q0 -162 -150.5 -251t-390.5 -89q-203 0 -311 66.5t-108 195.5q0 92 53.5 166.5t122.5 114.5v337q-109 98 -109 250
q0 157 109.5 256t285.5 99q96 0 175 -31h309v-57h-209q123 -99 123 -267q0 -153 -110.5 -251.5t-287.5 -98.5q-132 0 -229 60v-222h295zM518 991q-114 0 -185 -72.5t-71 -189.5q0 -144 79.5 -233.5t207.5 -89.5q114 0 185 72.5t71 189.5q0 143 -80 233t-207 90zM539 -383
q171 0 289 66.5t118 179.5q0 114 -85 160.5t-261 48.5l-326 2q-36 -40 -64 -96.5t-28 -110.5q0 -117 102 -183.5t255 -66.5z" />
    <glyph glyph-name="gdotaccent.ss03" horiz-adv-x="1091" 
d="M530 1206q-43 0 -72.5 29t-29.5 70t29.5 69.5t72.5 28.5q40 0 68.5 -28.5t28.5 -69.5t-28.5 -70t-68.5 -29zM598 184q74 -1 132 -7.5t116.5 -25t97 -48.5t62.5 -80t24 -117q0 -162 -150.5 -251t-390.5 -89q-203 0 -311 66.5t-108 195.5q0 92 53.5 166.5t122.5 114.5v337
q-109 98 -109 250q0 157 109.5 256t285.5 99q96 0 175 -31h309v-57h-209q123 -99 123 -267q0 -153 -110.5 -251.5t-287.5 -98.5q-132 0 -229 60v-222h295zM518 991q-114 0 -185 -72.5t-71 -189.5q0 -144 79.5 -233.5t207.5 -89.5q114 0 185 72.5t71 189.5q0 143 -80 233
t-207 90zM539 -383q171 0 289 66.5t118 179.5q0 114 -85 160.5t-261 48.5l-326 2q-36 -40 -64 -96.5t-28 -110.5q0 -117 102 -183.5t255 -66.5z" />
    <glyph glyph-name="g.ss04" horiz-adv-x="1087" 
d="M928 1051h28v-1362q0 -41 -25.5 -66.5t-66.5 -25.5h-657v57h637v582q-47 -114 -137.5 -191.5t-206.5 -77.5q-176 0 -290 146.5t-114 361.5q0 140 38.5 251.5t105 180.5t150.5 105.5t179 36.5q84 0 159 -39t126 -109zM547 68q89 0 176.5 70.5t120.5 162.5v385
q0 47 -19.5 97.5t-56.5 97t-99 76.5t-137 30q-134 0 -223.5 -127t-89.5 -307q0 -86 19.5 -169.5t58 -155.5t103.5 -116t147 -44z" />
    <glyph glyph-name="gbreve.ss04" horiz-adv-x="1087" 
d="M551 1153q-241 0 -244 322h31q7 -119 68.5 -170.5t144.5 -51.5q84 0 145.5 51.5t69.5 170.5h31q-6 -322 -246 -322zM928 1051h28v-1362q0 -41 -25.5 -66.5t-66.5 -25.5h-657v57h637v582q-47 -114 -137.5 -191.5t-206.5 -77.5q-176 0 -290 146.5t-114 361.5
q0 140 38.5 251.5t105 180.5t150.5 105.5t179 36.5q84 0 159 -39t126 -109zM547 68q89 0 176.5 70.5t120.5 162.5v385q0 47 -19.5 97.5t-56.5 97t-99 76.5t-137 30q-134 0 -223.5 -127t-89.5 -307q0 -86 19.5 -169.5t58 -155.5t103.5 -116t147 -44z" />
    <glyph glyph-name="gcircumflex.ss04" horiz-adv-x="1087" 
d="M539 1389l-236 -232h-29l197 322h135l193 -322h-29zM928 1051h28v-1362q0 -41 -25.5 -66.5t-66.5 -25.5h-657v57h637v582q-47 -114 -137.5 -191.5t-206.5 -77.5q-176 0 -290 146.5t-114 361.5q0 140 38.5 251.5t105 180.5t150.5 105.5t179 36.5q84 0 159 -39t126 -109z
M547 68q89 0 176.5 70.5t120.5 162.5v385q0 47 -19.5 97.5t-56.5 97t-99 76.5t-137 30q-134 0 -223.5 -127t-89.5 -307q0 -86 19.5 -169.5t58 -155.5t103.5 -116t147 -44z" />
    <glyph glyph-name="uni0123.ss04" horiz-adv-x="1087" 
d="M604 1159l-92 -12q-22 75 1.5 162.5t102.5 173.5l23 -15q-34 -69 -44.5 -153t9.5 -156zM928 1051h28v-1362q0 -41 -25.5 -66.5t-66.5 -25.5h-657v57h637v582q-47 -114 -137.5 -191.5t-206.5 -77.5q-176 0 -290 146.5t-114 361.5q0 140 38.5 251.5t105 180.5t150.5 105.5
t179 36.5q84 0 159 -39t126 -109zM547 68q89 0 176.5 70.5t120.5 162.5v385q0 47 -19.5 97.5t-56.5 97t-99 76.5t-137 30q-134 0 -223.5 -127t-89.5 -307q0 -86 19.5 -169.5t58 -155.5t103.5 -116t147 -44z" />
    <glyph glyph-name="gdotaccent.ss04" horiz-adv-x="1087" 
d="M551 1206q-43 0 -72.5 29t-29.5 70t29.5 69.5t72.5 28.5q40 0 68 -28.5t28 -69.5t-28 -70t-68 -29zM928 1051h28v-1362q0 -41 -25.5 -66.5t-66.5 -25.5h-657v57h637v582q-47 -114 -137.5 -191.5t-206.5 -77.5q-176 0 -290 146.5t-114 361.5q0 140 38.5 251.5t105 180.5
t150.5 105.5t179 36.5q84 0 159 -39t126 -109zM547 68q89 0 176.5 70.5t120.5 162.5v385q0 47 -19.5 97.5t-56.5 97t-99 76.5t-137 30q-134 0 -223.5 -127t-89.5 -307q0 -86 19.5 -169.5t58 -155.5t103.5 -116t147 -44z" />
    <glyph glyph-name="k.ss05" horiz-adv-x="1136" 
d="M901 131q51 -53 93 -77t114 -25v-29h-262q-12 50 -62 100l-444 471v-421q0 -34 11.5 -56.5t36 -35t44.5 -18t55 -11.5v-29h-409v29q35 6 55.5 11.5t45.5 18t36.5 35t11.5 56.5v1087q0 54 -24.5 78.5t-79.5 25.5h-55v29l243 70h29v-854l410 307q54 38 34.5 68t-98.5 30v29
h361v-29q-16 0 -33.5 -3.5t-30.5 -7.5t-33 -15t-30 -16t-33 -21.5t-29.5 -21.5t-33 -25.5t-31.5 -24.5l-334 -250z" />
    <glyph glyph-name="kgreenlandic.ss05" horiz-adv-x="1140" 
d="M907 131q51 -53 92.5 -77t112.5 -25v-29h-262q-13 54 -59 100l-445 469v-419q0 -34 12 -56.5t37 -35t45.5 -18t55.5 -11.5v-29h-410v29q35 6 55 11.5t44.5 18t36 35t11.5 56.5v698q0 56 -23.5 79t-80.5 25h-55v29l243 70h29v-463l408 305q54 38 35.5 68t-97.5 30v29h359
v-29q-38 0 -82 -20t-74.5 -41.5t-80.5 -61.5l-15 -12l-334 -250z" />
    <glyph glyph-name="r.ss06" horiz-adv-x="745" 
d="M348 150q0 -27 9.5 -47.5t22 -32t35.5 -20.5t39 -12.5t44 -8.5v-29h-410v29q28 5 44 8.5t39 12.5t35.5 20.5t22 32t9.5 47.5v778q0 41 25.5 66.5t66.5 25.5h393v-57h-375v-813z" />
    <glyph glyph-name="racute.ss06" horiz-adv-x="745" 
d="M717 1475l-250 -320h-29l135 320h144zM348 150q0 -27 9.5 -47.5t22 -32t35.5 -20.5t39 -12.5t44 -8.5v-29h-410v29q28 5 44 8.5t39 12.5t35.5 20.5t22 32t9.5 47.5v778q0 41 25.5 66.5t66.5 25.5h393v-57h-375v-813z" />
    <glyph glyph-name="rcaron.ss06" horiz-adv-x="745" 
d="M549 1155h-135l-197 320h29l235 -232l232 232h28zM238 928q0 41 25.5 66.5t66.5 25.5h393v-57h-375v-813q0 -27 9.5 -47.5t22 -32t35.5 -20.5t39 -12.5t44 -8.5v-29h-410v29q28 5 44 8.5t39 12.5t35.5 20.5t22 32t9.5 47.5v778z" />
    <glyph glyph-name="uni0157.ss06" horiz-adv-x="745" 
d="M348 150q0 -27 9.5 -47.5t22 -32t35.5 -20.5t39 -12.5t44 -8.5v-29h-410v29q28 5 44 8.5t39 12.5t35.5 20.5t22 32t9.5 47.5v778q0 41 25.5 66.5t66.5 25.5h393v-57h-375v-813zM266 -100l92 10q21 -76 -2.5 -162.5t-101.5 -171.5l-23 14q34 66 44 152t-9 158z" />
    <glyph glyph-name="t.ss07" horiz-adv-x="575" 
d="M270 0q-41 0 -66.5 25.5t-25.5 66.5v871h-110v28l194 232h29v-203h233v-57h-233v-906h233v-57h-254z" />
    <glyph glyph-name="tbar.ss07" horiz-adv-x="571" 
d="M557 963h-233v-336h217v-58h-217v-512h233v-57h-254q-41 0 -66.5 25.5t-25.5 66.5v477h-193v58h193v336h-111v28l195 232h29v-203h233v-57z" />
    <glyph glyph-name="tcaron.ss07" horiz-adv-x="575" 
d="M438 1151l72 412h141l-184 -412h-29zM270 0q-41 0 -66.5 25.5t-25.5 66.5v871h-110v28l194 232h29v-203h233v-57h-233v-906h233v-57h-254z" />
    <glyph glyph-name="uni0163.ss07" horiz-adv-x="575" 
d="M524 963h-233v-906h233v-57h-145l-37 -115q60 -13 95.5 -51.5t35.5 -103.5q0 -90 -81.5 -132.5t-207.5 -13.5l2 29q85 -15 138.5 13.5t56.5 86.5q1 50 -32 78.5t-93 38.5l88 170h-74q-41 0 -66.5 25.5t-25.5 66.5v871h-110v28l194 232h29v-203h233v-57z" />
    <glyph glyph-name="uni021B.ss07" horiz-adv-x="575" 
d="M270 0q-41 0 -66.5 25.5t-25.5 66.5v871h-110v28l194 232h29v-203h233v-57h-233v-906h233v-57h-254zM317 -424l-22 14q34 66 44 152t-9 158l92 10q20 -75 -3.5 -162t-101.5 -172z" />
    <glyph glyph-name="y.ss08" horiz-adv-x="1042" 
d="M741 1020h299v-29q-52 -3 -82 -26.5t-51 -79.5l-352 -877l-170 -411h-131v28l256 385l-352 875q-23 57 -52.5 80t-82.5 26v29h368v-29q-70 -3 -100 -30t-10 -74l282 -719l283 717q20 48 -8.5 75.5t-96.5 30.5v29z" />
    <glyph glyph-name="yacute.ss08" horiz-adv-x="1042" 
d="M512 1155l135 320h144l-250 -320h-29zM741 1020h299v-29q-52 -3 -82 -26.5t-51 -79.5l-352 -877l-170 -411h-131v28l256 385l-352 875q-23 57 -52.5 80t-82.5 26v29h368v-29q-70 -3 -100 -30t-10 -74l282 -719l283 717q20 48 -8.5 75.5t-96.5 30.5v29z" />
    <glyph glyph-name="ycircumflex.ss08" horiz-adv-x="1042" 
d="M475 1479h135l193 -322h-29l-231 232l-236 -232h-28zM741 1020h299v-29q-52 -3 -82 -26.5t-51 -79.5l-352 -877l-170 -411h-131v28l256 385l-352 875q-23 57 -52.5 80t-82.5 26v29h368v-29q-70 -3 -100 -30t-10 -74l282 -719l283 717q20 48 -8.5 75.5t-96.5 30.5v29z" />
    <glyph glyph-name="ydieresis.ss08" horiz-adv-x="1042" 
d="M403 1202q-43 0 -72.5 28.5t-29.5 69.5q0 42 29.5 71.5t72.5 29.5q41 0 70 -30t29 -71t-29 -69.5t-70 -28.5zM727 1202q-44 0 -73 28t-29 70t29 71.5t73 29.5q41 0 69.5 -29.5t28.5 -71.5q0 -41 -28.5 -69.5t-69.5 -28.5zM741 1020h299v-29q-52 -3 -82 -26.5t-51 -79.5
l-352 -877l-170 -411h-131v28l256 385l-352 875q-23 57 -52.5 80t-82.5 26v29h368v-29q-70 -3 -100 -30t-10 -74l282 -719l283 717q20 48 -8.5 75.5t-96.5 30.5v29z" />
    <glyph glyph-name="ygrave.ss08" horiz-adv-x="1042" 
d="M608 1155h-28l-250 320h143zM741 1020h299v-29q-52 -3 -82 -26.5t-51 -79.5l-352 -877l-170 -411h-131v28l256 385l-352 875q-23 57 -52.5 80t-82.5 26v29h368v-29q-70 -3 -100 -30t-10 -74l282 -719l283 717q20 48 -8.5 75.5t-96.5 30.5v29z" />
    <glyph glyph-name="y.ss09" horiz-adv-x="1089" 
d="M930 1051h28v-1057q0 -209 -109.5 -318.5t-316.5 -109.5q-142 0 -241.5 49.5t-149.5 116.5l131 80q35 -80 113 -135.5t180 -55.5q144 0 212.5 83.5t68.5 229.5v275q-91 -124 -178.5 -182t-192.5 -58q-130 0 -203 78t-73 223v578q0 55 -24.5 78.5t-80.5 25.5h-57v29
l244 70h28v-775q0 -103 55 -161t152 -58q87 0 163.5 46.5t166.5 154.5v590q0 55 -24.5 78.5t-80.5 25.5h-55v29z" />
    <glyph glyph-name="yacute.ss09" horiz-adv-x="1089" 
d="M797 1475l-250 -320h-29l135 320h144zM930 1051h28v-1057q0 -209 -109.5 -318.5t-316.5 -109.5q-142 0 -241.5 49.5t-149.5 116.5l131 80q35 -80 113 -135.5t180 -55.5q144 0 212.5 83.5t68.5 229.5v275q-91 -124 -178.5 -182t-192.5 -58q-130 0 -203 78t-73 223v578
q0 55 -24.5 78.5t-80.5 25.5h-57v29l244 70h28v-775q0 -103 55 -161t152 -58q87 0 163.5 46.5t166.5 154.5v590q0 55 -24.5 78.5t-80.5 25.5h-55v29z" />
    <glyph glyph-name="ycircumflex.ss09" horiz-adv-x="1089" 
d="M549 1389l-236 -232h-28l196 322h135l193 -322h-29zM930 1051h28v-1057q0 -209 -109.5 -318.5t-316.5 -109.5q-142 0 -241.5 49.5t-149.5 116.5l131 80q35 -80 113 -135.5t180 -55.5q144 0 212.5 83.5t68.5 229.5v275q-91 -124 -178.5 -182t-192.5 -58q-130 0 -203 78
t-73 223v578q0 55 -24.5 78.5t-80.5 25.5h-57v29l244 70h28v-775q0 -103 55 -161t152 -58q87 0 163.5 46.5t166.5 154.5v590q0 55 -24.5 78.5t-80.5 25.5h-55v29z" />
    <glyph glyph-name="ydieresis.ss09" horiz-adv-x="1089" 
d="M410 1202q-43 0 -73 28.5t-30 69.5t30 71t73 30q41 0 69.5 -29.5t28.5 -71.5q0 -41 -28.5 -69.5t-69.5 -28.5zM733 1202q-44 0 -73 28t-29 70t29 71.5t73 29.5q41 0 69.5 -29.5t28.5 -71.5q0 -41 -28.5 -69.5t-69.5 -28.5zM930 1051h28v-1057q0 -209 -109.5 -318.5
t-316.5 -109.5q-142 0 -241.5 49.5t-149.5 116.5l131 80q35 -80 113 -135.5t180 -55.5q144 0 212.5 83.5t68.5 229.5v275q-91 -124 -178.5 -182t-192.5 -58q-130 0 -203 78t-73 223v578q0 55 -24.5 78.5t-80.5 25.5h-57v29l244 70h28v-775q0 -103 55 -161t152 -58
q87 0 163.5 46.5t166.5 154.5v590q0 55 -24.5 78.5t-80.5 25.5h-55v29z" />
    <glyph glyph-name="ygrave.ss09" horiz-adv-x="1089" 
d="M614 1155h-28l-250 320h143zM930 1051h28v-1057q0 -209 -109.5 -318.5t-316.5 -109.5q-142 0 -241.5 49.5t-149.5 116.5l131 80q35 -80 113 -135.5t180 -55.5q144 0 212.5 83.5t68.5 229.5v275q-91 -124 -178.5 -182t-192.5 -58q-130 0 -203 78t-73 223v578
q0 55 -24.5 78.5t-80.5 25.5h-57v29l244 70h28v-775q0 -103 55 -161t152 -58q87 0 163.5 46.5t166.5 154.5v590q0 55 -24.5 78.5t-80.5 25.5h-55v29z" />
    <glyph glyph-name="y.ss10" horiz-adv-x="1089" 
d="M930 1051h28v-1364q0 -41 -25.5 -67t-66.5 -26h-657v58h637v557q-91 -124 -178.5 -182t-192.5 -58q-130 0 -203 78t-73 223v578q0 55 -24.5 78.5t-80.5 25.5h-57v29l244 70h28v-775q0 -103 55 -161t152 -58q87 0 163.5 46.5t166.5 154.5v590q0 55 -24.5 78.5t-80.5 25.5
h-55v29z" />
    <glyph glyph-name="yacute.ss10" horiz-adv-x="1089" 
d="M799 1475l-250 -320h-29l135 320h144zM930 1051h28v-1364q0 -41 -25.5 -67t-66.5 -26h-657v58h637v557q-91 -124 -178.5 -182t-192.5 -58q-130 0 -203 78t-73 223v578q0 55 -24.5 78.5t-80.5 25.5h-57v29l244 70h28v-775q0 -103 55 -161t152 -58q87 0 163.5 46.5
t166.5 154.5v590q0 55 -24.5 78.5t-80.5 25.5h-55v29z" />
    <glyph glyph-name="ycircumflex.ss10" horiz-adv-x="1089" 
d="M551 1389l-236 -232h-28l196 322h135l193 -322h-29zM930 1051h28v-1364q0 -41 -25.5 -67t-66.5 -26h-657v58h637v557q-91 -124 -178.5 -182t-192.5 -58q-130 0 -203 78t-73 223v578q0 55 -24.5 78.5t-80.5 25.5h-57v29l244 70h28v-775q0 -103 55 -161t152 -58
q87 0 163.5 46.5t166.5 154.5v590q0 55 -24.5 78.5t-80.5 25.5h-55v29z" />
    <glyph glyph-name="ydieresis.ss10" horiz-adv-x="1089" 
d="M412 1202q-43 0 -73 28.5t-30 69.5t30 71t73 30q41 0 69.5 -29.5t28.5 -71.5q0 -41 -28.5 -69.5t-69.5 -28.5zM735 1202q-44 0 -73 28t-29 70t29 71.5t73 29.5q41 0 70 -30t29 -71t-29 -69.5t-70 -28.5zM930 1051h28v-1364q0 -41 -25.5 -67t-66.5 -26h-657v58h637v557
q-91 -124 -178.5 -182t-192.5 -58q-130 0 -203 78t-73 223v578q0 55 -24.5 78.5t-80.5 25.5h-57v29l244 70h28v-775q0 -103 55 -161t152 -58q87 0 163.5 46.5t166.5 154.5v590q0 55 -24.5 78.5t-80.5 25.5h-55v29z" />
    <glyph glyph-name="ygrave.ss10" horiz-adv-x="1089" 
d="M616 1155h-28l-250 320h143zM930 1051h28v-1364q0 -41 -25.5 -67t-66.5 -26h-657v58h637v557q-91 -124 -178.5 -182t-192.5 -58q-130 0 -203 78t-73 223v578q0 55 -24.5 78.5t-80.5 25.5h-57v29l244 70h28v-775q0 -103 55 -161t152 -58q87 0 163.5 46.5t166.5 154.5v590
q0 55 -24.5 78.5t-80.5 25.5h-55v29z" />
    <glyph glyph-name="F_T" horiz-adv-x="2365" 
d="M2234 1368l58 -358h-29q-35 154 -106.5 227.5t-188.5 73.5h-225v-1121q0 -95 42 -126.5t144 -34.5v-29h-499v29q102 3 144 34.5t42 126.5v1121h-225q-117 0 -188.5 -73.5t-106.5 -227.5h-29l47 305h-713v-588h316q51 0 83 11t48.5 38.5t22 59t8.5 86.5h28v-439h-28
q-3 54 -8.5 85.5t-22 58.5t-48.5 38t-83 11h-316v-483q0 -100 51.5 -130.5t196.5 -33.5v-29h-563v29q103 3 145.5 34t42.5 127v990q0 94 -43 125t-145 34v29h2148z" />
    <glyph glyph-name="T_T" horiz-adv-x="2101" 
d="M1972 1368l56 -358h-29q-34 154 -106 227.5t-189 73.5h-223v-1121q0 -95 42 -126.5t144 -34.5v-29h-502v29q103 3 145 34t42 127v1121h-602v-1121q0 -95 42 -126.5t144 -34.5v-29h-502v29q104 3 146.5 34.5t42.5 126.5v1121h-226q-117 0 -189 -73.5t-106 -227.5h-28
l55 358h1843z" />
    <glyph glyph-name="T_h" horiz-adv-x="2226" 
d="M2048 150q0 -27 9.5 -47.5t22 -32t35.5 -20.5t39 -12.5t44 -8.5v-29h-410v29q35 6 55 11.5t45 18t37 35t12 56.5v593q0 103 -54.5 161.5t-151.5 58.5q-86 0 -161.5 -45.5t-164.5 -151.5v-616q0 -34 11.5 -56.5t36.5 -35t45.5 -18t55.5 -11.5v-29h-411v29q35 6 55.5 11.5
t45.5 18t36.5 35t11.5 56.5v1161h-542v-1121q0 -95 42 -126.5t144 -34.5v-29h-502v29q104 3 146.5 34.5t42.5 126.5v1121h-228q-116 0 -187.5 -71.5t-105.5 -217.5h-28l53 346h1034l215 72h29v-623q90 120 177 177t190 57q130 0 203 -78t73 -223v-600z" />
    <glyph glyph-name="T_i" horiz-adv-x="1603" 
d="M750 1311v-1121q0 -95 42 -126.5t144 -34.5v-29h-502v29q104 3 146.5 34.5t42.5 126.5v1121h-226q-117 0 -189 -73.5t-106 -227.5h-28l55 358h840q118 0 188.5 9t106 17.5t67.5 8.5q40 0 68 -28.5t28 -69.5t-28 -70t-68 -29t-68.5 24.5t-31.5 61.5v19h-481zM1403 150
q0 -34 11.5 -56.5t36 -35t44.5 -18t55 -11.5v-29h-409v29q35 6 55.5 11.5t45.5 18t36.5 35t11.5 56.5v700q0 54 -24.5 78t-79.5 26h-58v29l246 70h29v-903z" />
    </font>
</defs>
</svg>
