<?xml version="1.0" standalone="no"?>
<!DOCTYPE svg PUBLIC "-//W3C//DTD SVG 20010904//EN"
 "http://www.w3.org/TR/2001/REC-SVG-20010904/DTD/svg10.dtd">
<svg version="1.0" xmlns="http://www.w3.org/2000/svg"
 width="1667.000000pt" height="1667.000000pt" viewBox="0 0 1667.000000 1667.000000"
 preserveAspectRatio="xMidYMid meet">
<metadata>
Created by potrace 1.14, written by Peter Selinger 2001-2017
</metadata>
<g transform="translate(0.000000,1667.000000) scale(0.100000,-0.100000)"
fill="#000000" stroke="none">
<path d="M8272 16251 c-6 -4 -10 -1162 -10 -3424 0 -1880 -2 -3420 -5 -3423
-4 -4 -10 29 -23 134 -1 12 -7 53 -13 90 -6 37 -13 85 -16 107 -6 39 -19 134
-30 208 -3 20 -7 54 -10 75 -3 20 -7 48 -9 62 -2 14 -7 47 -11 73 -4 27 -8 56
-10 65 -1 10 -6 40 -9 67 -4 28 -11 77 -16 110 -5 33 -12 80 -15 105 -9 61
-11 79 -40 285 -28 194 -30 208 -40 273 -4 23 -8 52 -9 65 -2 12 -6 40 -9 62
-4 22 -9 60 -12 85 -3 25 -8 56 -10 70 -3 14 -7 45 -10 70 -3 25 -10 74 -16
110 -6 36 -13 83 -15 105 -3 22 -12 81 -19 130 -8 50 -17 113 -20 140 -3 28
-10 73 -15 100 -5 28 -12 75 -16 105 -3 30 -8 62 -9 71 -2 9 -6 40 -10 69 -4
29 -8 60 -10 69 -1 9 -6 39 -9 66 -4 28 -8 61 -11 75 -2 14 -7 43 -10 65 -3
22 -7 51 -10 65 -2 14 -7 48 -10 75 -3 28 -8 61 -10 75 -7 45 -55 377 -60 421
-3 24 -7 51 -10 59 -2 8 -7 40 -10 70 -3 30 -8 66 -10 80 -6 33 -13 77 -19
125 -3 22 -17 119 -31 215 -14 96 -27 193 -30 215 -3 22 -8 51 -10 65 -3 14
-7 45 -10 70 -3 25 -7 56 -10 70 -2 14 -7 45 -10 70 -3 25 -8 52 -10 60 -2 8
-7 40 -10 70 -3 30 -12 96 -20 145 -8 50 -17 113 -20 140 -3 28 -10 75 -15
105 -5 30 -12 78 -16 105 -3 28 -8 58 -10 69 -2 10 -6 44 -9 75 -4 31 -8 63
-10 71 -2 8 -7 38 -10 65 -3 28 -10 73 -15 100 -5 28 -12 73 -15 100 -8 63
-14 105 -25 175 -5 30 -12 78 -15 105 -3 28 -8 64 -11 80 -28 193 -56 389 -61
425 -3 25 -7 52 -9 60 -1 8 -3 21 -3 29 -1 11 -14 12 -63 6 -35 -4 -68 -8 -75
-8 -7 0 -11 -3 -9 -6 2 -3 7 -31 10 -62 4 -31 9 -67 11 -80 3 -13 8 -44 11
-69 3 -25 7 -56 9 -70 2 -14 11 -74 20 -135 8 -60 18 -126 21 -145 2 -19 9
-64 14 -100 18 -125 21 -145 25 -170 3 -14 7 -47 10 -75 3 -27 8 -61 10 -75 3
-14 7 -43 11 -65 3 -22 7 -51 9 -65 2 -14 9 -63 15 -110 6 -47 13 -96 15 -110
15 -96 25 -161 30 -200 3 -25 7 -56 10 -70 2 -14 7 -43 10 -65 2 -22 8 -58 12
-80 4 -22 6 -43 5 -47 -1 -4 2 -29 7 -55 11 -59 20 -117 26 -169 2 -21 8 -68
14 -104 5 -36 12 -83 15 -105 3 -22 15 -103 26 -180 12 -77 23 -156 26 -175 2
-19 7 -51 10 -70 3 -19 8 -48 10 -65 4 -38 14 -105 19 -136 2 -13 11 -77 20
-141 9 -65 18 -125 19 -135 2 -10 7 -40 10 -68 7 -51 14 -101 21 -145 2 -14
20 -137 40 -275 19 -137 37 -265 40 -282 3 -18 7 -50 10 -70 3 -21 7 -51 10
-68 3 -16 7 -46 10 -65 2 -19 12 -84 20 -145 9 -60 18 -126 21 -145 6 -49 16
-112 19 -130 2 -8 6 -37 9 -65 14 -105 17 -122 28 -190 7 -38 11 -73 10 -77
-1 -4 3 -30 8 -57 5 -28 12 -74 15 -103 3 -29 8 -60 10 -68 2 -8 7 -35 9 -60
3 -25 21 -153 40 -285 20 -132 38 -260 41 -285 3 -25 10 -74 16 -110 11 -75
15 -97 24 -163 4 -27 8 -56 10 -65 1 -10 6 -39 9 -67 4 -27 12 -81 17 -120 6
-38 12 -83 14 -100 3 -16 16 -109 30 -205 29 -202 36 -259 30 -245 -3 6 -41
134 -85 285 -44 151 -91 311 -105 355 -13 44 -44 150 -69 235 -24 85 -92 317
-150 515 -59 198 -127 430 -151 515 -25 85 -56 191 -70 235 -13 44 -51 172
-84 285 -33 113 -105 360 -161 550 -125 427 -169 575 -265 905 -42 143 -89
303 -105 355 -16 52 -137 466 -270 920 -133 454 -259 884 -280 955 -21 72 -60
202 -85 290 -26 88 -50 164 -54 168 -12 13 -131 -24 -131 -40 0 -8 27 -108 60
-221 57 -194 71 -242 135 -454 42 -141 116 -392 119 -408 6 -21 192 -656 226
-770 16 -52 50 -167 75 -255 26 -88 69 -236 97 -330 44 -149 93 -317 198 -677
16 -54 31 -101 34 -106 3 -5 7 -19 10 -33 4 -22 30 -112 165 -569 22 -74 101
-344 176 -600 75 -256 157 -535 182 -620 25 -85 67 -229 93 -320 27 -91 73
-248 103 -350 30 -102 96 -327 146 -500 51 -173 97 -326 102 -340 7 -17 7 -22
0 -15 -5 6 -79 163 -164 350 -146 320 -347 761 -582 1275 -154 337 -163 357
-212 465 -53 117 -143 314 -183 400 -15 33 -51 112 -80 175 -29 63 -66 144
-82 180 -17 36 -49 108 -73 160 -24 52 -57 124 -73 160 -34 74 -34 75 -246
540 -87 190 -170 372 -185 405 -16 33 -39 83 -51 110 -12 28 -119 262 -237
520 -119 259 -248 542 -288 630 -40 88 -86 189 -103 225 -17 36 -54 117 -82
180 -28 63 -62 138 -75 165 -53 114 -98 212 -116 252 l-18 42 -63 -28 c-48
-21 -62 -32 -60 -46 3 -17 20 -56 95 -215 14 -30 61 -134 105 -230 44 -96 94
-206 112 -245 18 -38 75 -164 127 -280 53 -115 111 -244 130 -285 19 -41 54
-118 78 -170 24 -52 59 -129 78 -170 40 -86 235 -513 427 -935 73 -159 167
-366 210 -460 43 -93 91 -199 108 -235 63 -138 231 -507 252 -555 12 -27 38
-84 57 -125 35 -75 217 -473 268 -585 50 -110 237 -518 295 -645 31 -69 111
-244 178 -390 66 -146 166 -364 221 -484 56 -121 101 -222 101 -224 0 -3 -26
35 -58 84 -105 162 -467 724 -482 749 -8 14 -46 73 -84 132 -38 60 -96 149
-128 198 -137 213 -1102 1714 -1263 1965 -97 151 -238 371 -313 487 -76 117
-318 495 -540 840 -780 1214 -841 1308 -851 1311 -5 2 -34 -13 -65 -33 l-55
-37 43 -66 c241 -376 577 -900 611 -952 23 -36 246 -382 495 -770 249 -388
467 -727 485 -755 66 -103 145 -224 235 -365 51 -80 116 -181 145 -225 28 -44
109 -170 180 -280 70 -110 151 -236 180 -280 28 -44 125 -195 215 -335 90
-140 229 -356 308 -480 158 -245 187 -290 312 -485 46 -71 102 -159 125 -195
102 -157 353 -548 370 -575 23 -37 19 -33 -35 30 -23 28 -68 79 -100 115 -49
56 -113 130 -389 450 -59 67 -264 304 -300 345 -15 17 -172 199 -350 405 -178
206 -333 385 -345 397 -12 12 -26 28 -31 35 -6 7 -112 130 -235 272 -124 143
-272 314 -329 380 -57 67 -115 135 -130 151 -43 48 -285 327 -421 485 -68 80
-127 147 -130 150 -3 3 -61 70 -129 150 -68 80 -129 150 -135 155 -6 6 -65 73
-131 150 -66 77 -122 142 -125 145 -5 4 -102 117 -280 324 -14 16 -30 34 -35
40 -6 6 -53 61 -105 121 -52 61 -97 112 -100 115 -3 3 -32 37 -65 75 -33 39
-62 72 -65 75 -3 3 -34 39 -70 80 -36 41 -67 77 -70 80 -3 3 -59 68 -125 145
-65 77 -131 154 -146 170 -15 17 -47 53 -71 81 l-45 51 -51 -41 c-28 -23 -51
-45 -51 -50 -1 -9 42 -64 90 -117 13 -14 35 -39 49 -55 112 -131 219 -254 241
-279 27 -30 136 -156 235 -271 189 -218 480 -554 502 -579 15 -16 81 -93 147
-170 66 -77 122 -142 125 -145 3 -3 50 -57 105 -120 55 -63 102 -117 105 -120
3 -3 30 -34 60 -70 30 -36 57 -67 60 -70 3 -3 62 -70 130 -149 69 -80 156
-181 195 -225 38 -45 77 -90 87 -101 48 -57 64 -75 112 -130 29 -33 117 -134
196 -225 78 -91 164 -190 190 -220 424 -488 907 -1046 1071 -1237 89 -103 165
-190 168 -193 4 -3 74 -84 156 -180 83 -96 152 -177 155 -180 3 -3 48 -54 100
-115 52 -60 97 -112 100 -115 29 -29 117 -138 95 -119 -17 14 -43 37 -60 51
-16 14 -66 57 -110 95 -44 38 -93 80 -109 94 -16 13 -34 29 -40 34 -6 6 -63
55 -126 110 -63 55 -128 112 -145 126 -58 51 -442 383 -615 533 -96 83 -180
155 -186 161 -6 5 -37 33 -69 60 -32 28 -95 82 -139 121 -91 79 -448 388 -485
419 -13 11 -29 25 -35 30 -6 6 -49 43 -96 84 -47 40 -98 85 -115 100 -16 15
-79 69 -140 121 -60 52 -115 99 -121 105 -6 5 -37 33 -70 61 -140 121 -243
210 -299 259 -33 29 -233 202 -445 385 -335 290 -470 406 -514 445 -6 6 -49
43 -96 84 -47 40 -98 85 -115 100 -16 15 -79 69 -140 121 -60 52 -115 99 -121
105 -6 5 -24 21 -40 34 -46 39 -318 275 -324 281 -3 3 -54 48 -115 100 -60 52
-112 97 -115 100 -38 41 -191 159 -201 155 -8 -3 -29 -25 -47 -49 -31 -41 -40
-66 -24 -66 4 0 23 -15 42 -33 19 -17 100 -88 180 -157 80 -68 147 -127 150
-130 3 -3 104 -91 225 -195 121 -104 234 -202 250 -216 17 -15 172 -149 345
-299 173 -150 331 -287 350 -304 19 -17 82 -71 140 -121 58 -49 107 -92 110
-95 3 -3 36 -32 75 -65 61 -52 106 -92 149 -130 6 -5 43 -37 81 -70 39 -33 75
-64 81 -70 6 -5 37 -32 69 -60 74 -63 218 -188 225 -195 3 -3 37 -32 75 -65
39 -33 72 -62 75 -65 3 -3 37 -32 75 -65 39 -33 72 -62 75 -65 3 -3 34 -30 70
-61 36 -30 121 -104 190 -164 69 -60 154 -133 189 -164 69 -60 150 -130 191
-165 107 -92 327 -283 336 -291 6 -5 37 -32 69 -60 32 -27 63 -55 69 -60 6 -6
40 -35 76 -66 97 -83 423 -366 454 -394 6 -5 43 -37 81 -70 39 -33 72 -62 75
-65 3 -3 84 -73 180 -155 96 -82 177 -152 180 -156 3 -3 58 -51 123 -107 65
-56 115 -102 113 -102 -5 0 -110 67 -306 195 -36 23 -155 100 -265 170 -110
70 -229 147 -265 170 -36 23 -281 181 -545 350 -264 170 -516 332 -560 360
-44 29 -359 231 -700 450 -341 219 -660 424 -710 456 -49 32 -317 204 -595
383 -278 179 -580 373 -673 433 -92 59 -178 114 -190 121 -12 7 -94 59 -182
117 -88 57 -223 144 -300 193 -77 49 -217 139 -312 200 l-171 110 -36 -54
c-20 -29 -36 -58 -36 -63 0 -5 201 -139 448 -297 246 -158 483 -311 527 -339
44 -29 541 -348 1105 -710 564 -362 1063 -683 1110 -714 47 -31 92 -59 100
-63 15 -8 516 -330 536 -345 5 -4 19 -13 30 -19 10 -7 260 -166 554 -356 294
-189 720 -463 947 -608 226 -146 410 -266 409 -268 -2 -1 -50 20 -107 46 -57
27 -147 69 -199 92 -52 24 -137 63 -188 87 -51 23 -95 43 -96 43 -2 0 -46 20
-97 44 -52 24 -218 100 -369 169 -241 109 -762 347 -920 420 -30 14 -129 59
-220 100 -91 41 -195 89 -232 106 -166 76 -219 100 -483 221 -154 70 -311 142
-350 160 -38 18 -113 51 -165 75 -52 24 -126 57 -165 75 -38 18 -167 76 -285
130 -118 54 -350 160 -515 235 -165 76 -352 161 -415 190 -216 99 -235 107
-253 117 -16 8 -17 7 -7 -11 6 -12 9 -21 6 -21 -4 0 -244 109 -436 197 -30 14
-102 47 -160 73 -58 26 -134 61 -170 78 -182 84 -422 192 -428 192 -4 0 -15
-16 -24 -35 -15 -33 -14 -36 1 -44 16 -9 197 -92 546 -251 99 -45 222 -101
274 -126 51 -24 95 -44 96 -44 2 0 43 -18 92 -41 48 -23 129 -59 178 -80 53
-23 101 -52 115 -69 14 -16 62 -46 105 -65 44 -20 105 -48 135 -62 30 -14 127
-58 215 -98 88 -40 270 -123 405 -185 135 -62 376 -172 535 -245 160 -73 315
-144 345 -158 30 -14 100 -45 155 -70 55 -25 138 -63 185 -85 47 -22 108 -50
135 -62 28 -12 102 -46 165 -75 138 -63 666 -304 730 -333 88 -40 416 -190
503 -231 49 -23 90 -41 92 -41 4 0 67 -29 263 -121 57 -27 105 -49 107 -49 2
0 39 -16 82 -36 299 -138 665 -305 715 -327 26 -11 46 -22 45 -24 -2 -1 -41 9
-88 23 -46 15 -88 27 -94 28 -5 2 -44 13 -85 25 -41 12 -104 31 -140 41 -36
11 -110 33 -165 49 -55 16 -170 50 -255 75 -85 25 -254 74 -375 110 -761 224
-871 256 -1300 381 -88 25 -179 53 -202 60 -23 8 -52 17 -65 19 -13 3 -189 54
-393 114 -203 61 -512 151 -685 202 -173 50 -358 105 -410 121 -110 34 -111
34 -103 13 5 -13 2 -15 -14 -10 -10 3 -102 31 -204 60 -225 67 -558 164 -1124
331 -236 70 -468 138 -515 151 -77 23 -282 84 -353 105 -19 5 -29 4 -32 -4 -2
-7 -7 -25 -12 -42 l-9 -29 145 -43 c80 -24 245 -72 366 -107 121 -36 303 -89
405 -119 102 -30 327 -96 500 -146 173 -51 351 -103 395 -117 84 -25 211 -63
404 -119 100 -29 121 -40 133 -66 2 -3 161 -51 353 -108 193 -56 386 -113 430
-127 44 -13 350 -103 680 -200 330 -96 731 -214 890 -260 160 -47 297 -87 305
-89 8 -2 222 -65 475 -140 518 -153 609 -180 885 -260 191 -56 242 -74 168
-61 -21 4 -59 9 -85 11 -27 3 -59 7 -73 10 -14 3 -41 7 -60 10 -19 2 -114 16
-210 30 -96 14 -193 28 -215 30 -22 3 -49 7 -61 9 -12 2 -45 7 -75 11 -30 3
-61 8 -69 10 -8 2 -40 7 -70 10 -30 3 -66 8 -80 10 -14 3 -38 7 -55 9 -51 7
-119 17 -145 21 -14 2 -90 14 -170 25 -80 12 -154 23 -165 24 -11 2 -47 7 -80
11 -33 4 -69 9 -80 11 -11 2 -40 7 -65 10 -25 3 -85 12 -135 19 -49 8 -112 17
-140 20 -50 6 -73 10 -130 19 -42 7 -312 45 -360 52 -22 2 -51 7 -65 9 -14 2
-45 7 -70 10 -25 3 -56 8 -70 10 -14 2 -45 7 -70 10 -25 3 -56 8 -70 10 -36 6
-448 65 -565 81 -22 3 -47 7 -55 9 -8 2 -37 7 -65 10 -27 3 -61 7 -75 10 -14
2 -47 7 -75 10 -27 3 -58 8 -67 11 -12 4 -18 0 -18 -10 0 -12 -8 -15 -32 -11
-18 2 -69 9 -113 15 -44 6 -91 13 -105 15 -21 4 -309 45 -420 60 -20 3 -45 7
-55 9 -11 2 -42 7 -70 10 -27 4 -97 13 -155 22 -58 8 -118 17 -135 19 -16 3
-106 16 -200 29 -93 14 -192 28 -220 32 -27 3 -57 8 -66 9 -9 2 -40 6 -70 10
-30 3 -65 8 -79 10 -45 8 -134 21 -205 30 -21 3 -50 7 -64 10 -43 7 -173 26
-211 31 -19 2 -46 6 -60 8 -14 3 -52 8 -85 12 -33 3 -62 8 -65 9 -3 2 -30 6
-60 10 -30 3 -62 8 -70 10 -8 2 -39 7 -69 10 -30 4 -62 8 -71 10 -9 2 -39 6
-66 10 -27 3 -88 12 -135 19 l-87 12 -5 -40 c-3 -22 -5 -41 -4 -43 2 -1 159
-25 255 -39 32 -4 64 -9 137 -19 22 -3 49 -7 60 -10 11 -2 47 -7 80 -10 33 -4
67 -8 75 -10 8 -3 38 -7 65 -10 28 -3 61 -8 75 -10 33 -6 63 -11 200 -30 63
-9 126 -18 140 -20 39 -6 240 -35 285 -41 54 -7 95 -13 125 -19 14 -3 43 -7
65 -10 53 -6 124 -16 155 -21 14 -2 45 -6 70 -9 25 -3 56 -8 70 -10 14 -3 41
-7 60 -10 19 -2 100 -14 180 -26 80 -11 159 -23 175 -25 17 -2 48 -6 70 -9 52
-8 80 -12 135 -20 55 -7 83 -12 135 -19 22 -4 58 -9 79 -11 22 -3 51 -7 65
-10 32 -5 149 -22 216 -30 30 -4 56 -14 66 -25 9 -10 37 -21 65 -25 27 -4 58
-9 69 -11 10 -2 37 -6 60 -9 22 -3 58 -8 80 -12 22 -3 47 -7 55 -8 26 -3 124
-16 150 -20 61 -10 229 -34 270 -40 25 -3 56 -8 70 -10 14 -3 45 -7 70 -10 25
-3 56 -7 70 -10 14 -2 45 -7 70 -10 25 -3 56 -8 70 -10 14 -2 45 -7 70 -10 25
-3 56 -8 70 -10 33 -6 95 -15 145 -21 22 -2 51 -7 65 -9 14 -2 45 -7 70 -10
25 -3 72 -10 105 -15 33 -5 80 -12 105 -15 25 -3 56 -8 70 -10 14 -2 106 -16
205 -30 99 -14 194 -27 210 -30 17 -2 53 -7 80 -11 28 -3 57 -8 67 -9 9 -2 38
-6 65 -10 55 -8 60 -9 208 -30 61 -9 126 -19 145 -21 19 -3 96 -13 170 -24 74
-11 153 -22 175 -25 46 -6 111 -16 140 -21 56 -8 101 -15 143 -19 26 -3 72
-10 102 -15 71 -12 112 -17 185 -25 33 -4 62 -9 64 -11 6 -5 89 -5 -1796 -6
-1403 0 -1641 -2 -1636 -14 4 -12 -245 -14 -1718 -14 l-1724 0 -1 -40 c-1 -22
2 -41 5 -41 3 -1 790 -2 1749 -3 1543 -1 1744 -3 1752 -16 7 -13 199 -15 1669
-15 914 0 1661 -3 1661 -7 0 -5 -10 -8 -22 -9 -13 0 -32 -2 -43 -4 -11 -3 -42
-7 -70 -10 -27 -3 -57 -7 -65 -10 -8 -2 -37 -6 -65 -10 -90 -11 -183 -24 -219
-31 -16 -3 -127 -19 -201 -29 -50 -6 -140 -19 -145 -20 -3 -1 -30 -5 -60 -9
-30 -4 -66 -9 -80 -11 -14 -2 -137 -20 -275 -40 -137 -20 -261 -38 -275 -40
-14 -2 -43 -6 -65 -9 -35 -5 -214 -30 -285 -41 -14 -2 -45 -6 -70 -10 -124
-18 -173 -25 -216 -30 -22 -3 -50 -7 -64 -10 -14 -2 -45 -7 -70 -10 -25 -4
-90 -13 -145 -21 -55 -8 -118 -18 -140 -21 -22 -3 -141 -20 -265 -37 -189 -27
-225 -34 -222 -48 2 -12 -11 -17 -55 -23 -32 -4 -65 -8 -74 -10 -9 -2 -40 -6
-70 -10 -30 -3 -79 -10 -109 -15 -30 -5 -74 -12 -97 -15 -23 -3 -57 -8 -75
-10 -18 -3 -53 -8 -78 -11 -25 -2 -52 -7 -60 -9 -8 -2 -37 -7 -65 -10 -27 -3
-61 -8 -75 -10 -14 -3 -41 -7 -60 -10 -239 -33 -401 -56 -421 -60 -13 -3 -60
-9 -104 -15 -44 -6 -89 -12 -101 -14 -12 -2 -45 -7 -74 -11 -29 -4 -61 -8 -70
-10 -9 -2 -41 -6 -71 -10 -61 -7 -103 -13 -139 -20 -14 -3 -43 -7 -65 -10 -22
-2 -87 -11 -145 -20 -58 -8 -118 -17 -135 -19 -61 -9 -251 -37 -275 -41 -14
-2 -47 -6 -75 -10 -27 -3 -90 -12 -140 -20 -49 -8 -112 -17 -140 -20 -27 -3
-61 -8 -75 -10 -34 -6 -77 -13 -130 -20 -25 -3 -56 -8 -70 -10 -14 -2 -61 -9
-105 -15 -44 -6 -91 -13 -105 -15 -14 -2 -45 -7 -70 -10 -25 -3 -56 -8 -70
-10 -14 -2 -45 -7 -70 -10 -25 -3 -52 -7 -60 -9 -8 -3 -40 -7 -70 -11 -90 -10
-95 -11 -94 -28 4 -74 -1 -69 56 -62 28 4 59 8 68 10 9 2 41 6 70 10 29 4 60
8 69 10 9 1 41 6 71 10 30 4 62 9 71 10 9 2 40 6 69 10 29 4 61 8 70 10 9 2
41 6 70 10 29 4 60 8 69 10 9 1 39 6 66 9 28 4 77 11 110 16 33 5 76 11 95 14
232 33 312 44 385 56 33 5 83 12 110 15 28 3 61 8 75 10 39 7 81 13 130 20 25
3 61 8 80 11 19 2 49 6 65 9 27 3 262 37 355 51 19 2 46 6 60 9 37 6 308 45
355 51 22 2 52 7 67 10 15 3 42 7 60 9 18 3 49 7 68 10 19 3 51 7 70 9 51 7
393 56 417 60 11 3 44 7 73 11 29 4 60 8 69 10 9 1 39 6 66 9 55 8 97 14 135
21 78 14 142 16 155 5 10 -8 31 -10 62 -5 27 3 64 9 83 11 19 3 46 7 60 9 114
18 162 25 205 30 28 3 77 10 110 15 82 12 129 19 168 25 287 41 373 53 417 60
14 2 48 7 75 10 28 4 91 12 140 20 50 8 110 16 135 20 25 3 56 8 70 10 14 3
49 7 79 10 30 3 57 7 60 9 3 2 33 7 66 10 33 4 69 9 80 11 11 3 36 7 55 9 54
7 882 126 910 131 103 16 262 36 265 33 3 -3 -606 -184 -988 -293 -64 -19
-121 -36 -125 -39 -5 -3 -19 -7 -33 -10 -13 -2 -184 -52 -379 -109 -321 -95
-425 -125 -455 -133 -5 -1 -57 -17 -115 -34 -58 -17 -181 -54 -275 -81 -93
-28 -206 -61 -250 -74 -44 -13 -105 -31 -136 -40 -40 -11 -56 -20 -55 -32 1
-12 -38 -27 -164 -65 -91 -27 -173 -51 -182 -53 -10 -2 -96 -27 -190 -55 -95
-29 -180 -53 -188 -55 -8 -2 -85 -24 -170 -50 -85 -25 -184 -54 -220 -65 -115
-34 -844 -247 -865 -253 -11 -3 -144 -42 -295 -87 -151 -45 -282 -83 -290 -85
-8 -2 -85 -24 -170 -50 -85 -25 -247 -73 -360 -106 -379 -111 -515 -151 -583
-171 l-69 -20 7 -37 c9 -49 12 -52 43 -40 15 6 72 23 127 39 55 16 168 48 250
73 83 25 290 86 460 135 171 50 348 102 395 116 47 13 146 43 220 65 130 38
1611 473 1855 545 66 19 161 47 210 61 210 62 227 66 240 55 9 -8 100 15 336
85 178 53 331 98 339 100 8 2 110 31 225 65 116 34 440 129 720 211 660 194
891 262 1048 309 129 38 166 41 79 6 -26 -11 -83 -36 -127 -57 -44 -20 -264
-121 -490 -224 -225 -103 -448 -205 -493 -226 -46 -22 -85 -39 -87 -39 -2 0
-41 -17 -87 -39 -181 -84 -233 -108 -503 -231 -154 -70 -302 -138 -330 -150
-27 -13 -131 -60 -230 -105 -130 -59 -180 -87 -180 -99 0 -12 -31 -31 -100
-62 -55 -25 -128 -59 -163 -75 -35 -16 -65 -29 -67 -29 -1 0 -52 -23 -111 -51
-60 -28 -226 -104 -369 -169 -143 -65 -296 -135 -340 -155 -44 -21 -102 -47
-130 -60 -117 -54 -975 -445 -1030 -470 -33 -15 -89 -41 -125 -57 -36 -17
-112 -52 -170 -78 -58 -26 -215 -98 -350 -160 -135 -62 -317 -145 -405 -184
-88 -40 -188 -85 -222 -101 l-61 -28 16 -36 c9 -20 17 -38 18 -39 2 -2 128 53
281 123 153 70 303 138 333 152 30 14 163 75 295 135 132 61 362 166 510 233
149 68 310 142 358 164 49 23 90 41 91 41 2 0 50 22 107 49 57 26 131 61 164
75 168 77 830 379 895 409 72 33 461 211 565 257 34 16 54 19 64 13 15 -10 19
-8 280 113 51 24 95 44 97 44 2 0 39 16 81 36 43 20 103 48 133 61 30 14 78
35 105 48 86 40 186 85 285 130 52 24 127 57 165 75 251 115 1343 613 1400
638 39 17 62 26 52 19 -32 -21 -379 -244 -447 -287 -36 -22 -154 -98 -263
-168 -108 -70 -530 -341 -937 -602 -547 -351 -739 -479 -737 -492 2 -17 -9
-25 -288 -203 -66 -42 -153 -97 -192 -123 -120 -77 -524 -337 -781 -502 -81
-52 -196 -126 -257 -165 -147 -95 -653 -420 -980 -630 -725 -465 -857 -551
-866 -561 -5 -7 0 -22 15 -42 l23 -32 169 110 c93 61 176 113 184 117 8 4 20
11 25 15 10 9 2434 1567 2735 1759 80 51 171 109 202 130 32 22 60 34 63 29 3
-6 10 -10 14 -10 7 0 188 115 481 304 139 90 1080 695 1145 736 68 43 334 215
508 327 70 46 129 83 132 83 2 0 34 21 70 46 36 25 65 43 65 41 0 -3 -33 -33
-72 -67 -40 -35 -100 -86 -133 -115 -33 -29 -152 -133 -265 -230 -113 -97
-230 -199 -260 -225 -30 -26 -111 -97 -180 -156 -104 -91 -317 -275 -444 -384
-16 -14 -34 -30 -40 -35 -6 -6 -42 -37 -81 -70 -38 -33 -75 -64 -81 -70 -6 -5
-39 -35 -74 -65 -35 -30 -102 -89 -150 -130 -47 -41 -110 -95 -139 -120 -29
-25 -59 -50 -66 -57 -12 -11 -30 -27 -158 -137 -41 -35 -56 -54 -52 -67 4 -11
-4 -25 -22 -39 -15 -12 -44 -36 -63 -53 -19 -18 -132 -115 -250 -217 -118
-101 -231 -199 -250 -216 -29 -26 -152 -133 -320 -278 -205 -176 -347 -299
-400 -346 -65 -58 -336 -292 -445 -385 -32 -27 -63 -55 -69 -60 -6 -6 -166
-145 -356 -309 -190 -164 -359 -310 -375 -325 -26 -22 -73 -63 -198 -171 -16
-14 -46 -40 -66 -58 -20 -18 -64 -56 -97 -85 l-62 -51 25 -33 c22 -28 28 -31
43 -20 14 10 189 160 370 317 9 8 46 40 81 70 34 30 84 73 109 95 25 22 72 63
104 90 33 28 64 55 70 60 6 6 74 65 151 132 77 66 215 185 306 264 91 79 191
167 223 194 32 28 68 58 80 68 11 11 45 40 75 65 30 26 59 52 65 57 13 12 230
201 266 231 14 12 100 87 191 165 91 79 225 196 299 259 73 63 138 120 144
125 6 6 42 37 81 70 38 33 83 72 100 86 194 171 241 207 251 198 8 -6 16 -5
25 3 8 7 46 40 84 73 39 33 72 63 75 66 3 3 174 151 380 329 206 178 413 357
460 398 47 41 96 84 110 96 14 12 129 111 255 220 127 110 259 224 295 255 36
31 67 58 70 61 3 3 55 48 115 100 61 52 112 97 115 100 3 3 52 46 110 95 58
50 111 96 118 103 28 26 24 10 -5 -21 -17 -17 -41 -45 -54 -61 -13 -16 -31
-36 -39 -45 -9 -9 -43 -47 -75 -86 -33 -38 -62 -72 -65 -75 -3 -3 -32 -36 -65
-75 -53 -62 -100 -116 -130 -149 -5 -6 -50 -58 -100 -116 -49 -58 -121 -141
-160 -185 -38 -44 -97 -112 -130 -150 -33 -38 -91 -105 -130 -150 -38 -44 -97
-112 -130 -150 -33 -39 -64 -75 -70 -81 -11 -12 -42 -47 -285 -329 -95 -110
-184 -213 -199 -230 -222 -252 -344 -400 -345 -421 -1 -20 -134 -181 -423
-510 -40 -46 -126 -146 -254 -294 -73 -85 -136 -157 -139 -160 -3 -3 -32 -36
-65 -75 -33 -38 -74 -86 -91 -105 -18 -19 -78 -89 -135 -156 -164 -190 -1042
-1204 -1064 -1228 -11 -11 -257 -297 -284 -329 -14 -16 -12 -20 14 -42 15 -14
31 -25 35 -25 3 0 55 57 115 126 60 70 114 131 120 138 6 6 78 90 160 186 83
96 155 180 161 185 6 6 66 75 135 155 68 80 126 147 129 150 3 3 48 55 99 115
52 61 102 117 110 126 9 9 23 25 32 35 8 11 62 73 120 140 57 66 174 201 259
300 85 98 157 181 160 184 3 3 62 70 130 150 68 80 136 159 151 175 15 17 78
89 140 160 61 72 137 159 168 194 31 36 74 85 96 111 22 25 65 74 95 109 30
35 59 70 63 78 6 10 12 11 22 3 10 -8 29 7 85 72 40 46 87 99 104 118 18 19
175 202 351 405 175 204 321 372 324 375 4 3 76 86 161 185 85 99 157 182 160
185 3 3 30 34 60 70 30 36 58 67 61 70 3 3 38 43 78 90 40 47 85 99 99 115 15
17 44 50 66 75 64 75 138 161 186 215 25 28 70 80 100 115 30 35 60 68 65 74
6 6 43 50 84 99 40 48 75 87 77 87 2 0 -11 -23 -29 -50 -18 -28 -48 -75 -67
-106 -19 -30 -105 -164 -191 -297 -227 -352 -818 -1270 -915 -1422 -46 -71
-133 -206 -193 -300 -61 -93 -124 -192 -141 -220 -17 -27 -84 -133 -150 -234
-84 -131 -116 -190 -111 -200 6 -11 -25 -67 -105 -191 -62 -96 -172 -267 -244
-380 -72 -113 -200 -311 -283 -441 -84 -129 -175 -271 -203 -315 -28 -43 -275
-427 -548 -852 -274 -426 -499 -779 -502 -785 -2 -7 11 -22 30 -34 l34 -22 40
62 c22 34 288 449 592 922 304 473 576 896 604 940 167 257 558 866 595 926
31 50 46 67 52 58 5 -9 11 -10 17 -4 8 9 287 443 322 500 16 27 283 441 415
645 44 69 103 160 130 203 28 43 68 106 90 140 22 34 85 132 140 217 89 140
152 238 294 457 25 39 84 131 131 204 47 73 116 180 154 238 38 58 91 142 118
185 54 89 60 91 22 8 -14 -31 -48 -106 -76 -167 -27 -60 -63 -139 -80 -175
-49 -104 -296 -646 -343 -750 -23 -52 -81 -178 -128 -280 -46 -102 -97 -212
-112 -245 -15 -33 -45 -98 -66 -143 -22 -46 -39 -85 -39 -87 0 -2 -17 -41 -39
-87 -21 -45 -49 -105 -61 -133 -51 -111 -79 -173 -103 -225 -13 -30 -34 -75
-45 -100 -11 -25 -39 -85 -62 -135 -35 -74 -186 -405 -260 -570 -10 -22 -39
-84 -64 -138 -32 -69 -44 -106 -40 -125 4 -19 -9 -57 -44 -132 -27 -58 -59
-127 -72 -155 -87 -193 -179 -394 -216 -474 -24 -51 -44 -95 -44 -97 0 -1 -18
-42 -41 -91 -23 -48 -109 -236 -191 -418 -83 -181 -170 -372 -194 -424 -24
-51 -44 -95 -44 -96 0 -2 -17 -41 -39 -87 -21 -45 -85 -184 -141 -308 -56
-124 -118 -259 -137 -300 -89 -192 -114 -251 -109 -259 7 -10 65 -35 70 -30 2
2 24 49 49 104 25 55 62 136 82 180 21 44 81 177 135 295 53 118 193 424 310
680 265 581 247 541 345 755 46 99 95 207 110 240 97 216 122 269 157 345 22
47 47 102 55 123 11 28 19 35 28 27 9 -7 21 10 48 68 19 42 52 113 72 157 21
44 70 152 110 240 40 88 111 243 158 345 46 102 94 205 105 230 11 25 39 85
61 133 23 49 41 90 41 92 0 1 20 45 44 96 24 52 90 195 146 319 57 124 116
254 133 290 37 80 76 166 112 245 15 33 37 83 50 110 13 28 35 77 50 110 27
59 317 695 379 830 18 39 47 105 66 147 19 42 35 76 37 75 1 -2 -79 -278 -228
-787 -22 -74 -42 -142 -44 -150 -2 -8 -45 -154 -95 -325 -50 -170 -103 -348
-116 -395 -89 -303 -672 -2289 -705 -2398 -31 -103 -37 -137 -29 -152 8 -16
-24 -136 -159 -597 -235 -798 -340 -1158 -422 -1438 -39 -132 -79 -266 -89
-297 -20 -63 -17 -71 35 -82 l30 -6 209 712 c115 392 214 731 221 753 7 22 63
213 125 425 104 357 130 434 130 385 0 -41 12 -6 110 330 16 55 59 199 94 320
271 921 561 1908 571 1945 18 63 92 316 235 800 126 429 207 704 241 825 24
81 34 97 25 40 -22 -137 -26 -165 -31 -210 -4 -27 -8 -61 -10 -75 -2 -14 -7
-45 -10 -70 -6 -44 -22 -150 -30 -200 -2 -14 -11 -79 -20 -145 -17 -126 -23
-164 -30 -205 -2 -14 -7 -50 -10 -80 -3 -30 -8 -62 -10 -70 -3 -8 -7 -33 -10
-55 -2 -22 -7 -58 -11 -80 -11 -72 -41 -285 -50 -350 -3 -22 -7 -51 -9 -65
-13 -85 -57 -390 -61 -415 -2 -16 -6 -52 -10 -79 -3 -27 -7 -56 -9 -65 -6 -35
-21 -132 -29 -196 -6 -46 -34 -244 -42 -295 -7 -47 -44 -306 -50 -350 -3 -19
-7 -46 -9 -60 -2 -14 -7 -45 -10 -70 -3 -25 -8 -56 -10 -70 -2 -14 -7 -43 -9
-65 -7 -55 -35 -246 -40 -270 -2 -11 -7 -45 -11 -75 -3 -30 -8 -66 -10 -80 -2
-14 -7 -45 -10 -70 -3 -25 -8 -56 -10 -70 -2 -14 -6 -45 -10 -70 -3 -25 -8
-56 -10 -70 -2 -14 -6 -41 -9 -60 -3 -19 -17 -116 -31 -215 -14 -99 -28 -198
-31 -220 -3 -22 -12 -80 -19 -130 -8 -49 -17 -110 -20 -135 -3 -25 -7 -58 -10
-75 -3 -16 -7 -48 -10 -70 -3 -22 -10 -67 -15 -100 -28 -179 -33 -240 -21
-263 9 -18 -1 -121 -34 -322 -3 -22 -18 -126 -30 -215 -2 -16 -16 -109 -30
-205 -14 -96 -27 -193 -30 -215 -3 -22 -8 -51 -10 -65 -2 -14 -7 -45 -10 -70
-3 -25 -8 -56 -10 -70 -2 -14 -7 -43 -10 -65 -3 -22 -7 -51 -10 -65 -2 -14 -7
-45 -10 -70 -3 -25 -9 -69 -14 -98 -4 -29 -5 -54 -2 -56 3 -2 21 -6 40 -8 38
-3 43 4 54 93 25 189 46 339 52 371 3 13 8 43 11 68 3 25 7 56 9 70 2 14 7 45
10 70 3 25 8 56 10 70 2 14 7 45 10 70 3 25 8 56 10 70 8 57 17 117 20 140 3
14 11 72 19 130 8 58 18 128 22 155 4 28 7 56 7 64 0 10 3 10 12 -3 15 -19 22
-20 22 -3 1 19 14 121 18 137 2 8 7 39 10 69 4 30 8 62 10 71 2 9 6 41 10 70
4 29 8 60 10 69 3 18 12 79 19 131 3 19 12 85 21 145 9 61 19 124 21 140 2 17
6 48 9 70 4 22 8 51 10 65 2 14 6 43 9 65 3 22 8 60 11 85 3 25 8 52 11 61 2
8 6 37 9 65 2 27 9 73 14 102 6 29 10 56 9 60 -1 4 3 36 10 72 6 36 14 85 17
110 9 76 15 123 25 180 8 50 12 75 25 175 3 17 14 95 25 175 27 181 24 163 60
420 17 118 32 226 35 240 2 14 7 45 10 70 8 55 14 97 20 130 2 14 7 49 10 79
4 30 8 63 11 74 2 10 6 45 10 76 3 31 8 58 9 61 2 3 6 34 10 70 4 36 9 67 10
70 2 3 6 30 10 60 3 30 12 96 20 145 14 93 19 125 30 210 4 28 9 61 11 75 13
80 36 240 39 270 2 19 8 64 14 100 6 36 13 88 16 115 4 28 8 57 11 65 2 8 6
38 10 65 3 28 12 91 19 140 8 50 17 108 20 130 2 22 7 56 10 75 2 19 7 55 10
80 3 25 8 52 10 60 2 8 6 38 10 65 6 55 34 249 40 280 2 11 4 33 4 49 1 16 4
27 7 23 4 -3 6 -1548 6 -3432 l0 -3425 72 0 71 0 0 3424 c0 1884 3 3422 7
3418 3 -4 9 -32 12 -62 4 -30 8 -66 10 -80 4 -24 32 -208 42 -280 21 -153 24
-171 39 -270 2 -14 9 -61 15 -106 6 -44 12 -89 14 -100 2 -10 7 -41 10 -69 4
-27 9 -61 11 -75 2 -14 13 -90 24 -170 12 -80 23 -154 25 -165 2 -11 7 -49 12
-85 4 -36 8 -67 9 -70 1 -4 11 -72 20 -140 2 -14 6 -45 10 -70 4 -25 8 -56 10
-70 5 -34 17 -111 21 -134 2 -10 6 -44 10 -75 3 -31 8 -58 9 -61 2 -3 6 -34
10 -70 4 -36 8 -67 10 -70 2 -3 6 -34 10 -70 3 -35 8 -67 10 -70 2 -3 6 -34
10 -70 3 -35 8 -67 10 -70 1 -3 6 -32 9 -65 4 -33 9 -67 11 -75 2 -8 6 -37 10
-65 3 -27 10 -77 15 -110 16 -109 22 -150 25 -175 4 -27 33 -229 40 -270 2
-14 9 -61 15 -105 6 -44 13 -91 15 -105 4 -26 13 -89 21 -150 3 -19 7 -47 10
-62 3 -15 7 -42 9 -60 1 -18 6 -53 10 -78 12 -85 34 -235 40 -280 3 -25 8 -56
10 -70 4 -31 15 -106 20 -140 12 -79 67 -461 71 -490 2 -19 6 -48 9 -65 3 -16
7 -48 10 -70 4 -22 10 -67 15 -100 5 -33 12 -82 16 -110 3 -27 8 -57 9 -65 2
-9 7 -43 11 -75 4 -33 9 -63 10 -67 1 -5 2 -20 3 -35 2 -27 2 -27 16 -9 11 15
15 16 16 5 0 -8 2 -23 4 -34 2 -11 7 -40 10 -65 10 -82 13 -105 18 -135 3 -16
8 -50 12 -75 4 -25 8 -56 10 -70 3 -14 7 -45 10 -69 3 -23 7 -55 10 -70 2 -14
13 -93 25 -176 11 -82 22 -157 25 -165 2 -8 6 -42 10 -74 3 -32 7 -62 9 -65 2
-3 7 -37 11 -76 4 -38 8 -72 10 -75 2 -3 6 -29 9 -59 3 -29 8 -70 11 -90 13
-80 11 -77 55 -73 47 5 45 -2 24 135 -8 56 -17 120 -19 142 -3 22 -7 51 -10
65 -3 14 -7 45 -10 70 -3 25 -7 52 -10 60 -2 8 -7 39 -10 69 -4 30 -9 63 -11
75 -2 12 -6 44 -9 71 -3 28 -10 75 -15 105 -5 30 -12 75 -15 100 -3 25 -8 56
-10 70 -2 14 -7 45 -10 70 -6 46 -8 60 -20 140 -4 25 -8 56 -10 70 -2 14 -11
76 -21 139 -13 91 -15 121 -5 147 6 18 9 45 7 61 -3 15 -10 64 -16 108 -6 44
-12 91 -15 105 -2 14 -9 61 -15 105 -6 44 -13 91 -15 105 -2 14 -7 45 -10 70
-8 55 -12 83 -20 135 -3 22 -7 54 -9 70 -2 17 -7 50 -11 75 -4 25 -8 56 -10
70 -2 21 -10 73 -20 130 -1 8 -6 40 -10 70 -4 30 -9 63 -11 74 -2 10 -6 44 -9
75 -4 31 -8 63 -10 71 -2 8 -6 33 -9 55 -3 22 -13 90 -21 150 -9 61 -18 126
-21 145 -3 19 -7 46 -9 60 -2 14 -7 45 -10 70 -4 25 -8 56 -10 70 -2 14 -6 43
-9 65 -3 22 -17 119 -31 215 -14 96 -28 189 -30 205 -15 102 -36 254 -40 275
-4 29 -13 88 -20 145 -2 22 -7 49 -9 61 -2 12 -7 45 -11 75 -3 30 -8 65 -11
79 -2 14 -7 43 -9 64 -3 22 -7 51 -10 65 -2 14 -11 78 -20 141 -9 63 -18 126
-20 140 -2 14 -11 76 -20 138 -9 62 -18 121 -20 131 -2 10 -6 42 -10 72 -3 30
-12 95 -20 144 -8 50 -16 108 -19 130 -3 22 -15 103 -26 180 -11 77 -22 158
-25 180 -7 55 -17 116 -21 140 -3 11 -7 40 -10 65 -3 25 -7 56 -9 69 -2 13 -7
45 -11 70 -3 25 -8 57 -10 71 -2 14 -6 45 -9 70 -3 25 -8 54 -10 65 -2 11 -7
47 -10 80 -4 33 -8 62 -10 65 -2 3 -7 33 -10 65 -4 33 -11 77 -15 99 -12 57 6
30 23 -34 16 -57 70 -242 86 -295 5 -16 49 -163 96 -325 47 -162 113 -385 145
-495 32 -110 98 -333 145 -495 48 -162 115 -392 150 -510 35 -118 118 -402
185 -630 110 -375 151 -517 221 -750 12 -41 23 -79 25 -85 1 -5 30 -104 64
-220 34 -115 76 -257 92 -315 17 -58 32 -107 35 -110 2 -2 8 2 12 9 6 10 12 4
20 -20 15 -49 131 -441 136 -460 2 -9 24 -85 49 -170 53 -178 193 -656 296
-1009 39 -135 82 -281 95 -325 13 -44 38 -127 55 -184 17 -58 32 -107 35 -109
5 -6 46 5 64 17 12 8 -3 66 -83 338 -53 180 -99 337 -101 347 -3 11 -11 40
-20 66 -9 26 -17 55 -19 66 -5 22 -153 527 -190 649 -14 44 -45 150 -70 235
-24 85 -79 272 -121 415 -59 201 -75 266 -68 285 8 24 3 46 -97 380 -10 36
-60 205 -110 375 -50 171 -104 355 -120 410 -16 55 -61 208 -100 340 -38 132
-74 254 -79 270 -5 17 -30 100 -55 185 -58 200 -432 1475 -496 1690 -27 91
-63 215 -80 275 -17 61 -40 137 -51 169 -40 123 -22 102 53 -64 73 -162 235
-516 260 -570 17 -36 63 -138 104 -227 40 -89 86 -190 102 -225 16 -35 42 -90
57 -123 15 -33 50 -109 77 -170 28 -60 63 -137 78 -170 15 -33 60 -132 100
-220 40 -88 92 -202 116 -254 24 -51 44 -95 44 -96 0 -2 25 -55 55 -120 30
-64 55 -118 55 -121 0 -2 23 -52 50 -110 28 -58 50 -107 50 -109 0 -2 25 -56
55 -120 30 -65 55 -118 55 -120 0 -2 18 -41 39 -87 35 -74 73 -158 191 -416
22 -47 36 -68 41 -60 4 7 10 10 13 8 4 -4 393 -854 771 -1685 15 -33 66 -143
113 -245 103 -226 133 -290 162 -355 82 -182 118 -261 156 -343 24 -52 44 -97
44 -102 0 -18 20 -20 55 -6 39 17 39 14 -9 119 -24 52 -60 132 -111 242 -15
33 -87 191 -160 350 -73 160 -151 330 -174 378 -22 49 -41 91 -41 93 0 2 -23
52 -51 111 -28 60 -54 117 -59 128 -4 11 -59 133 -123 270 -63 138 -124 273
-137 300 -12 28 -32 73 -45 100 -13 28 -48 104 -78 170 -30 66 -64 140 -75
165 -143 307 -189 416 -181 431 6 12 -24 87 -107 270 -64 140 -174 381 -245
537 -71 156 -141 309 -155 340 -15 31 -133 291 -264 577 -131 286 -249 545
-263 575 -14 30 -86 188 -160 350 -176 385 -175 384 -242 530 -98 214 -105
230 -101 230 4 0 10 -9 441 -680 381 -593 405 -630 556 -863 60 -92 109 -169
109 -171 0 -3 22 -37 49 -78 26 -40 110 -170 186 -288 76 -118 157 -244 180
-280 23 -36 84 -130 135 -210 176 -275 181 -282 193 -272 12 10 27 -13 357
-528 142 -222 751 -1169 838 -1303 35 -55 156 -244 269 -420 114 -177 238
-371 277 -432 40 -60 87 -134 105 -162 18 -29 37 -53 42 -53 5 0 22 8 39 18
l30 19 -43 69 c-34 55 -557 868 -822 1279 -28 44 -74 116 -103 160 -28 44
-177 276 -331 515 -560 871 -601 937 -595 954 4 11 -219 366 -672 1071 -374
580 -690 1073 -704 1095 -38 62 -317 495 -372 578 -26 39 -46 72 -44 72 2 0
47 -48 98 -107 138 -158 669 -771 773 -893 50 -58 95 -109 101 -115 6 -5 37
-41 70 -80 32 -38 64 -75 69 -81 15 -16 89 -101 320 -369 114 -132 222 -256
239 -275 17 -19 74 -84 126 -145 52 -60 97 -112 100 -115 4 -4 85 -98 142
-165 6 -6 12 -5 17 3 6 10 35 -17 102 -95 51 -59 96 -110 99 -113 3 -3 46 -52
95 -110 50 -58 102 -118 116 -135 79 -89 217 -249 308 -355 36 -41 74 -85 85
-97 12 -12 26 -28 31 -35 13 -16 207 -241 215 -248 3 -3 30 -34 60 -70 30 -36
57 -67 60 -70 4 -3 76 -86 161 -185 166 -193 206 -240 229 -265 8 -9 69 -79
135 -155 160 -187 168 -196 180 -209 6 -6 53 -60 105 -121 52 -60 97 -112 100
-115 3 -3 75 -86 160 -185 85 -99 167 -193 182 -210 16 -16 28 -33 28 -37 0
-17 28 -6 52 19 l26 28 -130 150 c-294 338 -377 434 -633 730 -147 171 -282
326 -299 345 -17 19 -87 100 -156 180 -68 80 -158 183 -199 230 -41 47 -86 99
-100 115 -15 17 -114 131 -221 255 -191 222 -305 354 -325 376 -15 16 -117
134 -138 158 -40 47 -117 136 -195 225 -60 69 -79 97 -72 106 11 13 -15 46
-200 255 -31 36 -164 189 -295 340 -131 151 -249 289 -264 305 -14 17 -53 62
-86 100 -33 39 -63 72 -66 75 -3 3 -52 59 -109 125 -102 119 -206 238 -225
259 -5 6 -35 40 -65 76 -30 36 -67 78 -81 95 -23 26 -139 159 -218 250 -14 17
-71 82 -126 145 -55 63 -111 128 -125 144 -14 17 -43 50 -65 75 -21 26 -51 59
-65 76 -19 22 90 -64 120 -95 3 -3 70 -61 150 -130 158 -136 197 -170 214
-185 6 -6 43 -37 81 -70 39 -33 72 -62 75 -65 3 -3 70 -61 150 -130 80 -68
147 -127 150 -130 3 -3 37 -32 75 -65 39 -33 72 -62 75 -65 3 -3 54 -48 115
-100 60 -52 123 -107 140 -121 16 -15 120 -104 230 -199 110 -95 216 -187 235
-204 37 -33 308 -267 349 -301 13 -11 30 -26 38 -33 9 -10 17 -11 26 -4 9 7
125 -88 427 -350 228 -198 429 -372 445 -386 17 -15 77 -68 135 -117 91 -78
139 -120 184 -160 6 -5 76 -66 156 -135 80 -68 147 -127 150 -130 3 -3 70 -61
150 -130 80 -68 147 -127 150 -130 3 -3 52 -45 110 -95 58 -49 107 -92 110
-95 3 -3 55 -48 115 -100 61 -52 115 -99 121 -105 6 -5 35 -31 65 -57 30 -25
64 -54 75 -65 12 -10 48 -40 80 -68 32 -27 81 -70 109 -95 111 -99 377 -325
389 -332 8 -5 21 4 36 24 l23 31 -45 41 c-47 42 -133 117 -203 177 -22 19 -42
36 -45 39 -3 3 -36 32 -75 65 -38 33 -72 62 -75 65 -3 3 -54 48 -115 100 -166
142 -479 414 -485 420 -3 3 -68 59 -145 125 -77 66 -144 125 -150 131 -5 6
-75 66 -155 134 -80 68 -152 131 -161 139 -9 9 -29 27 -45 41 -16 14 -61 52
-99 85 -38 33 -83 71 -99 85 -16 14 -34 30 -40 35 -6 6 -76 66 -156 135 -80
68 -147 127 -150 130 -3 3 -36 32 -75 65 -38 33 -83 72 -100 86 -31 27 -171
149 -418 363 -103 90 -137 125 -137 143 0 12 -3 23 -7 23 -5 0 -26 17 -48 38
-22 20 -87 77 -145 127 -58 49 -107 92 -110 95 -3 3 -54 48 -115 100 -60 52
-115 99 -121 105 -6 5 -37 33 -70 60 -32 28 -144 124 -249 215 -104 91 -208
181 -231 200 -80 69 -479 415 -490 425 -33 30 -244 212 -313 270 -13 11 -31
27 -40 36 -9 8 -64 57 -123 108 -169 145 -185 153 276 -144 196 -126 364 -235
374 -240 9 -6 49 -30 87 -55 91 -59 124 -81 605 -389 223 -143 410 -264 417
-270 7 -6 14 -11 16 -11 3 0 113 -70 246 -155 132 -85 245 -155 250 -155 5 0
11 4 13 10 2 7 1063 -668 1883 -1199 50 -32 187 -120 305 -196 118 -76 356
-228 528 -339 172 -110 391 -251 487 -313 l175 -112 20 29 c11 15 20 32 20 38
0 5 -181 125 -402 268 -371 237 -491 314 -668 429 -36 23 -186 120 -335 215
-148 95 -299 192 -335 215 -36 24 -193 125 -350 225 -157 101 -314 202 -350
225 -36 23 -103 66 -150 97 -47 30 -242 155 -433 278 -234 150 -346 228 -343
237 5 12 -8 22 -92 78 -8 6 -99 63 -201 129 -102 65 -222 142 -266 170 -44 29
-185 119 -313 202 -279 179 -465 299 -669 431 -84 54 -171 109 -193 123 -53
33 -595 382 -647 417 -10 7 23 -6 72 -28 156 -71 635 -289 755 -344 63 -29
250 -115 415 -190 165 -75 338 -155 383 -176 46 -21 86 -39 87 -39 2 0 41 -17
87 -39 46 -21 128 -59 183 -84 55 -25 140 -64 188 -86 48 -22 115 -53 149 -68
34 -16 106 -49 162 -75 79 -36 103 -44 110 -34 7 10 41 -1 150 -51 78 -36 184
-85 236 -108 52 -24 135 -61 183 -84 49 -23 90 -41 92 -41 1 0 41 -17 87 -39
45 -21 212 -98 370 -170 158 -72 311 -142 340 -155 126 -58 436 -200 473 -216
22 -10 72 -32 110 -50 203 -94 1583 -723 1603 -731 20 -8 25 -5 38 27 9 20 12
40 7 44 -6 5 -359 167 -688 316 -33 14 -197 90 -365 166 -168 77 -314 144
-325 148 -11 4 -69 31 -129 59 -59 28 -110 51 -112 51 -1 0 -55 25 -119 55
-65 30 -119 55 -120 55 -2 0 -41 18 -87 39 -46 22 -162 75 -258 119 -96 44
-195 89 -220 100 -66 30 -1117 511 -1168 534 -26 12 -42 25 -40 34 2 10 -126
73 -447 220 -785 359 -1257 575 -1343 615 -46 22 -86 39 -88 39 -2 0 -50 22
-106 48 -57 26 -212 97 -344 158 -133 60 -241 111 -239 112 4 4 314 -85 860
-246 94 -28 224 -66 290 -86 66 -19 190 -56 275 -81 85 -25 179 -53 209 -61
30 -8 113 -32 185 -54 589 -176 961 -280 964 -271 5 15 29 14 82 -4 25 -8 353
-105 730 -216 377 -110 759 -222 850 -249 91 -26 235 -69 320 -94 85 -25 277
-81 425 -125 149 -43 358 -104 465 -135 107 -32 206 -61 220 -66 116 -41 693
-201 700 -194 16 18 22 74 8 78 -7 2 -131 38 -276 80 -144 43 -270 79 -280 81
-9 2 -109 31 -222 65 -249 74 -534 158 -815 240 -313 92 -642 188 -715 210
-159 47 -707 208 -935 274 -497 145 -504 148 -498 161 3 10 -18 20 -69 35 -40
12 -84 25 -98 30 -14 5 -144 43 -290 85 -146 42 -330 96 -410 120 -80 24 -293
87 -475 140 -181 53 -559 164 -840 247 -280 83 -535 157 -565 165 -119 32 -78
29 240 -17 107 -16 215 -32 240 -35 25 -3 56 -8 70 -10 14 -2 61 -9 105 -15
44 -6 91 -13 105 -15 59 -9 117 -17 145 -21 17 -2 47 -6 68 -10 20 -3 47 -7
60 -9 22 -2 99 -13 147 -21 14 -2 45 -6 70 -9 25 -3 55 -7 67 -9 11 -3 43 -7
70 -11 26 -4 61 -9 76 -11 23 -4 272 -40 472 -68 17 -3 53 -8 80 -11 72 -10
107 -15 135 -20 14 -2 41 -6 60 -9 19 -3 85 -12 145 -21 61 -9 126 -18 145
-20 19 -2 62 -8 95 -13 33 -6 83 -14 110 -17 57 -7 109 -14 145 -21 86 -15
130 -16 130 -4 0 12 76 10 145 -4 11 -2 40 -7 65 -10 25 -3 54 -8 65 -10 18
-3 43 -7 145 -21 14 -2 48 -7 75 -11 28 -4 55 -8 60 -8 39 -5 143 -19 155 -21
22 -4 101 -16 130 -20 14 -2 45 -6 70 -10 25 -4 56 -8 70 -10 23 -3 75 -11
140 -20 57 -9 458 -66 495 -71 55 -7 105 -15 135 -19 14 -3 57 -9 95 -14 125
-18 149 -22 245 -36 52 -8 118 -17 145 -20 57 -7 99 -13 135 -20 26 -4 61 -9
145 -21 28 -3 57 -7 65 -9 32 -6 97 -15 130 -19 90 -11 139 -18 190 -26 30 -5
73 -12 95 -15 22 -3 67 -10 100 -15 33 -5 84 -12 114 -15 30 -4 61 -8 70 -10
9 -1 52 -8 96 -14 44 -7 96 -14 115 -17 19 -3 53 -7 75 -10 22 -3 51 -7 65
-10 14 -2 46 -7 71 -10 l47 -6 4 38 c3 22 4 40 3 42 -4 5 -175 32 -295 47 -19
2 -51 7 -70 10 -19 3 -48 7 -65 9 -16 2 -77 11 -135 20 -58 8 -127 18 -155 21
-27 3 -72 10 -100 15 -27 5 -68 11 -90 14 -22 3 -89 12 -150 21 -60 8 -126 18
-145 20 -19 3 -48 7 -65 10 -16 3 -48 7 -70 10 -46 7 -44 6 -280 40 -99 15
-192 28 -206 31 -15 2 -47 6 -70 9 -24 3 -152 21 -284 40 -132 20 -258 38
-280 41 -22 3 -51 7 -65 9 -14 2 -45 6 -70 10 -25 3 -56 8 -70 10 -14 2 -45 7
-70 10 -25 4 -56 8 -70 10 -14 3 -45 7 -70 10 -25 3 -54 7 -65 9 -46 8 -122
20 -215 31 -30 4 -62 9 -70 10 -18 3 -95 15 -130 20 -64 9 -112 16 -137 19
-15 2 -50 7 -78 12 -63 9 -85 12 -109 13 -12 1 -16 6 -13 15 7 17 -8 23 -78
31 -27 3 -61 7 -75 10 -14 2 -45 7 -70 10 -25 3 -56 8 -70 10 -14 2 -43 7 -65
10 -22 3 -51 7 -65 10 -14 2 -47 7 -75 10 -27 3 -90 12 -140 20 -49 7 -112 17
-140 20 -27 3 -106 15 -175 25 -69 11 -147 22 -175 25 -27 3 -57 8 -65 10 -8
2 -40 7 -70 10 -30 3 -77 10 -105 15 -27 5 -70 11 -95 14 -25 3 -65 8 -90 11
-25 3 -54 8 -66 10 -18 4 -206 31 -349 51 -22 3 -51 7 -65 9 -14 2 -45 7 -70
10 -25 3 -70 10 -100 15 -30 5 -73 11 -95 14 -38 5 -277 39 -360 51 -22 4 -67
10 -100 15 -33 5 -82 12 -110 15 -27 4 -57 8 -65 10 -8 2 -42 7 -75 11 -33 3
-65 9 -72 13 -6 3 742 6 1664 6 1484 0 1676 2 1683 15 7 13 206 15 1754 15
l1746 0 0 42 0 43 -1720 0 c-1467 0 -1720 2 -1720 14 0 12 -251 14 -1705 14
-938 0 -1709 2 -1712 6 -4 3 7 6 23 7 16 0 36 2 44 3 15 3 220 33 275 40 17 3
59 9 95 15 36 5 85 13 110 16 25 3 56 8 70 10 14 2 45 7 70 10 25 3 56 8 70
10 14 2 45 7 70 10 25 3 56 8 70 10 14 2 45 6 70 10 25 3 56 8 70 10 14 2 45
7 70 10 38 5 172 25 270 39 14 2 47 7 73 11 27 4 56 8 65 9 17 3 87 13 152 22
19 3 46 7 60 9 14 3 48 7 75 11 28 3 58 8 69 10 10 2 44 6 75 9 31 4 63 8 71
10 8 2 38 7 65 10 28 3 61 8 75 10 50 9 86 14 130 20 25 3 70 9 100 14 30 6
75 12 100 16 58 7 188 25 220 30 14 2 48 7 75 11 28 3 59 8 70 10 11 3 40 7
65 10 25 3 56 7 69 9 27 5 91 14 136 20 60 8 251 35 271 39 12 2 45 7 75 11
30 3 81 10 114 15 33 5 78 12 100 15 22 4 47 15 55 24 12 14 64 25 245 51 127
18 237 34 246 35 9 2 40 6 70 10 30 3 79 10 109 15 30 5 75 12 100 15 25 3 58
8 74 11 15 4 45 7 65 9 20 2 50 6 66 8 39 7 134 21 215 32 25 3 88 13 140 20
52 8 111 17 130 19 19 3 87 13 150 22 63 9 129 18 145 20 17 2 46 6 65 9 19 3
49 8 65 10 17 2 158 22 315 45 157 22 303 43 325 46 22 3 65 9 95 14 30 5 78
12 105 16 28 3 57 8 66 9 9 2 40 6 70 10 68 8 183 25 185 28 6 7 -14 82 -22
80 -5 0 -34 -4 -64 -8 -30 -3 -62 -8 -70 -10 -8 -2 -39 -7 -69 -10 -30 -4 -61
-8 -70 -10 -9 -1 -38 -6 -66 -9 -27 -4 -61 -9 -75 -11 -39 -6 -113 -17 -130
-20 -8 -1 -42 -6 -75 -10 -32 -4 -66 -8 -75 -10 -8 -1 -37 -6 -65 -9 -27 -4
-78 -11 -113 -17 -34 -5 -84 -12 -110 -15 -26 -3 -54 -7 -62 -9 -8 -2 -37 -7
-65 -10 -27 -4 -57 -8 -65 -10 -8 -2 -40 -7 -70 -10 -30 -3 -62 -8 -70 -10 -8
-2 -40 -7 -70 -10 -48 -5 -126 -16 -210 -30 -14 -2 -45 -7 -70 -10 -25 -3 -56
-8 -70 -10 -14 -2 -47 -6 -73 -10 -27 -4 -56 -8 -65 -10 -10 -1 -39 -6 -67 -9
-82 -11 -119 -17 -145 -21 -14 -2 -45 -7 -70 -10 -25 -3 -56 -8 -70 -10 -14
-2 -45 -7 -70 -10 -25 -3 -56 -8 -70 -10 -14 -3 -45 -7 -70 -10 -25 -3 -56 -7
-69 -10 -21 -4 -146 -22 -206 -30 -44 -5 -131 -18 -147 -20 -9 -2 -38 -7 -65
-11 -45 -7 -47 -6 -34 10 14 16 12 17 -30 11 -70 -10 -91 -13 -134 -19 -22 -4
-58 -9 -79 -11 -22 -3 -51 -7 -65 -10 -14 -2 -46 -7 -71 -10 -25 -3 -74 -11
-110 -16 -36 -6 -81 -13 -100 -15 -19 -2 -159 -22 -310 -44 -151 -21 -295 -42
-320 -45 -25 -3 -70 -10 -100 -15 -30 -5 -77 -12 -105 -15 -27 -3 -61 -8 -75
-10 -14 -3 -41 -7 -60 -10 -19 -2 -82 -12 -140 -21 -58 -8 -118 -17 -135 -18
-16 -2 -50 -7 -75 -10 -25 -4 -56 -9 -70 -11 -14 -2 -45 -6 -70 -10 -25 -4
-56 -8 -70 -10 -25 -3 -91 -13 -140 -20 -14 -2 -104 -15 -200 -29 -96 -14
-191 -27 -210 -30 -19 -3 -100 -15 -180 -26 -80 -12 -156 -23 -170 -25 -14 -2
-47 -7 -75 -11 -27 -3 -57 -8 -66 -9 -9 -2 -40 -6 -69 -10 -29 -4 -61 -8 -70
-10 -9 -2 -41 -6 -71 -10 -30 -3 -76 -10 -104 -15 -27 -5 -72 -12 -100 -15
-52 -6 -103 -13 -144 -20 -72 -12 -115 -17 -111 -13 3 3 124 40 270 83 146 42
346 101 445 130 212 63 1419 418 1810 532 189 55 374 110 450 133 39 12 79 23
89 25 11 3 40 11 65 19 25 8 55 16 66 19 11 3 182 53 380 111 198 59 423 125
500 148 95 28 146 48 160 63 13 15 59 33 135 55 63 17 135 38 160 46 25 8 299
88 610 179 311 91 592 174 625 184 33 10 227 67 430 126 204 60 371 110 373
111 2 1 -2 20 -8 42 -10 40 -11 40 -43 31 -17 -6 -39 -12 -47 -14 -8 -2 -123
-35 -255 -75 -132 -39 -249 -73 -259 -75 -11 -3 -47 -13 -80 -24 -59 -18 -140
-42 -161 -47 -5 -1 -77 -22 -160 -47 -82 -25 -352 -104 -600 -177 -247 -72
-493 -145 -545 -161 -108 -33 -117 -35 -100 -14 8 10 9 15 2 15 -6 0 -156 -43
-334 -96 -178 -52 -327 -97 -333 -98 -5 -1 -30 -9 -55 -16 -25 -7 -50 -14 -55
-15 -6 -2 -80 -23 -165 -48 -85 -26 -317 -94 -515 -152 -198 -58 -466 -137
-595 -175 -245 -72 -348 -102 -365 -106 -5 -2 -102 -31 -215 -64 -113 -34
-212 -63 -220 -65 -30 -8 -657 -192 -875 -256 -55 -17 -129 -39 -165 -49 -36
-10 -150 -44 -254 -75 -103 -31 -190 -54 -192 -52 -2 2 49 28 113 57 65 29
165 75 222 102 57 26 105 48 106 48 2 0 36 15 77 34 40 19 98 45 128 59 30 14
84 38 120 55 36 16 88 40 115 52 28 13 84 38 125 57 41 19 172 79 290 133 279
127 338 154 438 201 46 21 85 39 87 39 2 0 46 20 97 44 51 24 116 54 143 66
28 12 129 58 225 103 96 44 222 101 280 127 58 26 134 61 170 78 36 17 110 50
165 75 55 25 132 59 170 77 39 18 97 45 130 60 33 15 85 39 115 53 30 14 132
60 225 102 94 43 212 97 263 121 52 24 95 44 97 44 2 0 50 22 107 48 57 26
276 127 486 223 281 127 386 180 392 195 5 13 49 39 132 76 102 47 260 119
678 310 25 12 72 33 105 48 144 65 184 84 255 117 41 19 92 42 113 50 20 8 37
19 37 25 0 13 -29 68 -36 68 -6 0 -109 -46 -254 -113 -41 -19 -176 -81 -300
-137 -124 -56 -256 -117 -295 -135 -68 -31 -113 -52 -212 -96 -27 -12 -66 -30
-87 -40 -48 -23 -50 -23 -42 -4 3 8 3 15 0 15 -3 0 -182 -81 -397 -179 -479
-219 -517 -236 -592 -271 -33 -15 -107 -49 -165 -75 -58 -25 -134 -60 -170
-77 -110 -51 -154 -71 -510 -233 -190 -86 -372 -170 -405 -185 -33 -16 -161
-74 -285 -130 -124 -57 -262 -120 -308 -141 -45 -22 -84 -39 -86 -39 -4 0 -88
-39 -275 -126 -51 -24 -95 -44 -96 -44 -2 0 -41 -17 -87 -39 -45 -21 -182 -84
-303 -139 -121 -55 -254 -115 -295 -135 -134 -62 -211 -97 -215 -97 -2 0 -45
-20 -97 -44 -51 -24 -167 -78 -258 -119 -91 -41 -187 -85 -215 -97 -203 -92
-287 -131 -300 -138 -31 -16 21 21 95 69 71 46 410 264 732 471 40 25 135 86
211 135 307 196 676 433 837 538 69 44 185 119 257 165 180 115 211 135 444
285 248 160 318 204 506 324 82 52 207 133 280 180 72 48 189 123 260 168 70
45 418 269 773 497 355 228 808 519 1008 647 199 128 362 235 362 238 0 3 -17
32 -38 63 l-37 56 -225 -144 c-124 -80 -276 -177 -338 -217 -119 -76 -302
-194 -467 -300 -55 -36 -518 -334 -1030 -662 -511 -329 -952 -612 -980 -630
-27 -18 -144 -93 -260 -167 -374 -240 -808 -519 -875 -563 -36 -23 -243 -155
-460 -294 -217 -139 -406 -261 -420 -270 -14 -10 -178 -116 -365 -236 -187
-120 -346 -222 -352 -228 -7 -5 -13 -7 -13 -4 0 3 28 29 63 57 34 29 89 76
122 105 33 29 119 103 190 165 72 62 144 124 160 139 17 14 61 53 100 86 38
33 85 74 105 91 19 18 143 125 275 239 132 114 254 219 270 234 45 39 222 193
475 411 124 107 227 197 230 200 3 3 86 75 185 160 99 85 182 157 185 160 3 3
36 32 75 65 38 33 75 65 81 70 6 6 37 33 69 60 32 28 63 55 69 60 6 6 79 69
161 140 83 71 152 132 155 135 3 3 34 30 70 60 36 30 78 67 95 81 33 29 202
177 250 218 53 45 179 155 210 183 16 14 51 43 76 65 42 34 452 390 524 454
37 32 329 285 409 354 67 57 69 59 161 140 70 61 150 131 195 169 117 99 230
200 230 205 0 4 -19 29 -43 55 -49 57 -44 57 -138 -24 -34 -30 -102 -89 -149
-130 -47 -41 -115 -100 -150 -130 -35 -30 -85 -73 -110 -95 -65 -56 -169 -147
-194 -168 -25 -22 -109 -95 -231 -201 -49 -43 -101 -88 -115 -100 -27 -22
-228 -196 -270 -233 -14 -12 -36 -31 -50 -43 -14 -12 -52 -45 -85 -74 -33 -29
-202 -176 -375 -326 -173 -150 -340 -294 -370 -320 -30 -26 -113 -98 -185
-160 -71 -62 -143 -124 -160 -139 -16 -14 -111 -96 -210 -181 -99 -85 -185
-159 -191 -165 -17 -15 -124 -109 -269 -235 -71 -62 -144 -124 -160 -139 -17
-14 -77 -66 -135 -116 -58 -49 -110 -95 -116 -101 -6 -5 -89 -77 -185 -160
-171 -148 -379 -328 -494 -429 -33 -29 -82 -71 -110 -95 -47 -40 -155 -134
-179 -155 -6 -5 -58 -50 -116 -100 -57 -49 -118 -101 -134 -115 -16 -14 -34
-30 -40 -35 -6 -6 -63 -55 -126 -110 -63 -55 -117 -102 -120 -105 -3 -3 -21
-18 -39 -35 l-34 -30 21 30 c11 17 33 44 49 61 15 17 53 59 83 94 76 89 192
223 205 236 5 6 33 37 60 70 28 32 81 95 120 139 38 44 81 93 95 109 14 16 30
34 35 40 6 6 39 45 74 86 35 41 89 104 121 140 31 36 176 202 321 370 145 168
266 307 269 310 3 3 43 50 90 105 47 55 94 109 105 121 11 11 43 47 70 80 57
67 245 284 260 300 5 6 33 37 60 69 70 82 447 518 460 531 5 6 33 37 60 70 28
32 97 113 155 179 57 66 135 156 173 200 38 44 81 94 96 110 15 17 67 77 116
135 50 58 92 107 95 110 11 11 213 244 459 531 68 79 129 149 135 154 6 6 51
57 101 115 49 58 92 107 95 110 3 3 73 84 155 180 83 96 155 180 161 185 42
39 194 227 190 234 -4 5 -28 27 -54 50 l-49 40 -104 -120 c-57 -67 -114 -133
-127 -147 -13 -15 -45 -51 -70 -81 -26 -30 -110 -127 -186 -215 -76 -89 -162
-188 -190 -221 -28 -32 -58 -66 -66 -75 -8 -9 -69 -79 -135 -155 -66 -77 -134
-156 -151 -175 -18 -19 -80 -91 -139 -160 -59 -69 -119 -138 -134 -155 -14
-16 -84 -97 -155 -180 -72 -82 -133 -152 -136 -155 -3 -3 -46 -52 -95 -110
-49 -58 -92 -107 -95 -110 -3 -3 -61 -70 -130 -150 -69 -80 -129 -150 -135
-156 -5 -6 -32 -37 -60 -69 -27 -32 -55 -63 -60 -69 -15 -16 -118 -137 -146
-170 -13 -16 -31 -36 -40 -45 -8 -9 -58 -65 -109 -126 -52 -60 -109 -126 -126
-145 -17 -19 -181 -208 -364 -420 -183 -212 -356 -412 -385 -445 -29 -33 -147
-168 -261 -300 -199 -231 -308 -356 -329 -379 -5 -6 -50 -58 -100 -116 -49
-58 -92 -107 -95 -110 -3 -3 -32 -36 -65 -75 -33 -38 -62 -72 -65 -75 -3 -3
-32 -36 -65 -75 -101 -117 -119 -138 -153 -174 -30 -32 -32 -33 -14 -6 11 17
426 662 922 1435 496 773 917 1428 935 1455 17 28 57 88 87 135 30 47 193 301
363 565 169 264 358 558 419 652 61 95 197 306 301 468 105 163 233 362 285
444 320 497 380 592 380 599 -1 4 -27 23 -59 43 l-58 36 -138 -216 c-77 -119
-167 -259 -201 -311 -123 -191 -155 -241 -369 -575 -205 -320 -284 -442 -360
-560 -18 -27 -216 -336 -441 -685 -224 -349 -435 -678 -469 -730 -53 -83 -198
-307 -512 -797 -45 -71 -125 -195 -178 -278 -53 -82 -179 -278 -280 -435 -101
-157 -263 -409 -360 -560 -290 -451 -395 -613 -401 -619 -10 -9 59 144 187
417 21 46 39 85 39 87 0 2 25 55 55 120 30 64 55 118 55 120 0 3 15 37 34 77
43 92 498 1089 559 1223 25 55 61 136 82 180 20 44 45 98 55 120 10 22 33 74
53 115 19 41 92 201 162 355 70 154 140 307 155 340 15 33 74 161 130 285 56
124 116 254 132 290 17 36 76 166 133 290 57 124 117 257 135 295 43 92 52
112 235 515 86 190 174 383 196 428 21 46 39 85 39 87 0 2 21 47 46 102 25 54
78 168 116 253 78 173 102 225 147 323 78 168 92 199 94 209 1 5 -26 22 -61
38 l-63 29 -44 -92 c-23 -51 -102 -222 -175 -382 -72 -159 -144 -317 -160
-350 -16 -33 -86 -186 -155 -340 -70 -154 -141 -309 -158 -345 -16 -36 -76
-168 -134 -295 -58 -126 -117 -257 -133 -290 -15 -33 -73 -161 -130 -285 -56
-124 -116 -254 -132 -290 -17 -36 -54 -117 -83 -180 -29 -63 -69 -150 -89
-193 -20 -43 -36 -80 -36 -82 0 -1 -20 -45 -44 -96 -24 -52 -90 -195 -146
-319 -57 -124 -116 -254 -132 -290 -17 -36 -41 -89 -54 -117 -13 -29 -36 -79
-50 -110 -15 -32 -39 -85 -54 -118 -47 -104 -72 -158 -103 -225 -16 -36 -53
-117 -82 -180 -29 -63 -88 -194 -132 -290 -108 -236 -116 -252 -233 -510 -56
-124 -118 -259 -137 -300 -19 -41 -54 -118 -78 -170 -24 -52 -63 -138 -87
-190 -24 -52 -55 -121 -68 -152 -13 -32 -25 -56 -27 -54 -2 1 29 110 67 242
39 131 73 246 74 254 2 8 15 53 29 100 22 74 73 246 152 515 79 268 129 438
146 497 10 37 60 206 110 375 50 170 108 367 129 438 21 72 66 225 100 340 34
116 73 248 86 295 72 244 344 1172 396 1345 32 110 61 207 63 215 1 8 121 416
265 905 144 490 272 927 286 973 13 45 24 86 24 90 0 7 -104 42 -126 42 -12 0
18 99 -453 -1505 -203 -693 -377 -1287 -387 -1320 -10 -33 -19 -64 -20 -70 -1
-5 -72 -246 -157 -535 -198 -670 -320 -1083 -364 -1235 -19 -66 -86 -293 -148
-505 -152 -517 -351 -1194 -382 -1305 -14 -49 -30 -94 -36 -100 -7 -7 -8 -7
-5 0 3 6 9 33 12 60 4 28 11 77 16 110 5 33 12 80 15 105 3 25 10 70 15 100 6
30 12 78 15 105 4 28 8 61 10 75 2 14 7 48 10 75 4 28 8 57 10 65 2 8 7 38 10
65 4 28 13 91 20 140 8 50 17 110 20 135 3 25 7 59 10 75 6 47 55 387 60 415
2 14 7 48 11 75 3 28 8 59 10 70 2 11 7 45 10 75 3 30 7 57 9 60 2 3 6 30 10
60 3 30 8 66 10 80 4 26 32 222 40 275 5 37 33 237 41 285 2 19 9 64 14 100 5
36 12 81 15 100 6 42 44 310 51 359 4 35 11 75 19 121 2 14 7 48 10 75 6 48
12 91 20 145 2 14 7 48 11 75 3 28 7 57 9 65 6 30 29 199 40 285 4 28 8 57 10
65 3 8 7 35 10 60 3 25 13 92 21 150 8 58 17 121 20 140 2 19 11 78 19 131 8
53 17 118 20 145 3 27 10 72 15 99 5 28 12 73 15 100 6 51 9 69 20 140 3 22 8
55 10 73 5 39 15 107 20 142 2 14 13 90 25 170 11 80 23 161 26 180 10 61 13
83 19 140 3 30 8 62 10 70 2 8 7 40 10 70 4 30 8 57 10 60 2 3 6 30 9 60 3 30
8 64 10 76 2 11 7 47 10 79 4 32 8 61 10 64 3 3 7 38 11 76 4 39 9 72 10 75 2
3 6 29 10 59 4 30 8 61 10 70 4 21 13 87 19 131 5 38 25 180 31 220 2 14 7 46
10 73 l7 47 -36 0 c-20 0 -37 0 -38 -1 -2 0 -16 4 -31 10 -24 9 -29 8 -36 -12
-8 -19 -36 -196 -56 -357 -4 -25 -8 -56 -10 -70 -2 -14 -7 -45 -10 -70 -3 -25
-8 -56 -10 -70 -5 -32 -93 -642 -101 -695 -5 -42 -8 -61 -19 -135 -11 -75 -14
-93 -20 -140 -3 -25 -8 -56 -10 -70 -2 -14 -29 -200 -60 -415 -31 -214 -58
-401 -60 -415 -2 -14 -9 -61 -15 -105 -6 -44 -13 -91 -15 -105 -2 -14 -7 -45
-10 -70 -3 -25 -8 -56 -10 -70 -2 -14 -7 -45 -10 -70 -3 -25 -8 -56 -10 -70
-2 -14 -7 -45 -10 -70 -3 -25 -8 -56 -10 -70 -2 -14 -7 -45 -10 -70 -9 -65
-16 -112 -20 -140 -2 -14 -16 -108 -30 -210 -32 -229 -29 -204 -65 -450 -16
-113 -32 -223 -35 -245 -3 -22 -8 -51 -10 -65 -2 -14 -7 -45 -10 -70 -3 -25
-8 -56 -10 -70 -2 -14 -7 -45 -10 -70 -4 -25 -8 -56 -10 -70 -2 -14 -7 -45
-10 -70 -3 -25 -8 -56 -10 -70 -2 -14 -9 -61 -15 -105 -6 -44 -13 -91 -15
-105 -2 -14 -7 -45 -10 -70 -7 -53 -14 -96 -20 -130 -2 -14 -7 -47 -10 -75 -3
-27 -8 -61 -10 -75 -2 -14 -18 -122 -35 -240 -17 -118 -33 -226 -35 -240 -2
-14 -7 -43 -9 -65 -6 -44 -54 -384 -61 -425 -2 -14 -7 -45 -10 -70 -3 -25 -8
-56 -10 -70 -2 -14 -7 -45 -10 -70 -3 -25 -8 -52 -10 -60 -2 -8 -6 -40 -10
-71 -3 -31 -8 -67 -11 -80 -2 -13 -7 -52 -11 -86 -3 -35 -9 -63 -12 -63 -3 0
-6 1542 -6 3427 l0 3427 -61 2 c-34 1 -66 -1 -72 -5z"/>
</g>
</svg>
