<svg xmlns="http://www.w3.org/2000/svg" width="36.16" height="35.44" viewBox="0 0 36.16 35.44">
  <path id="Icon_map-doctor" data-name="Icon map-doctor" d="M30.905,9.36H27.36V5.6A4.829,4.829,0,0,0,22.54.72H13.46A4.828,4.828,0,0,0,8.64,5.6V9.36H5.094A4.294,4.294,0,0,0,.72,13.635V30.2a4.367,4.367,0,0,0,4.374,4.36H30.905A4.368,4.368,0,0,0,35.28,30.2V13.635A4.3,4.3,0,0,0,30.905,9.36ZM11.52,5.6a2.079,2.079,0,0,1,1.94-2h9.08a2.081,2.081,0,0,1,1.94,2V9.36H11.52Zm14.4,19.6H20.88v5.04H15.12V25.2H10.08V19.44h5.04V14.4h5.76v5.04h5.04V25.2Z" transform="translate(0.08 0.08)" fill="none" stroke="#a19b97" stroke-width="1.6"/>
</svg>
