<svg xmlns="http://www.w3.org/2000/svg" width="16.967" height="30" viewBox="0 0 16.967 30">
  <path id="Icon_material-attach-money" data-name="Icon material-attach-money" d="M18.613,17.667c-3.783-.983-5-2-5-3.583,0-1.817,1.683-3.083,4.5-3.083,2.967,0,4.067,1.417,4.167,3.5h3.683a6.644,6.644,0,0,0-5.35-6.35V4.5h-5V8.1c-3.233.7-5.833,2.8-5.833,6.017,0,3.85,3.183,5.767,7.833,6.883,4.167,1,5,2.467,5,4.017,0,1.15-.817,2.983-4.5,2.983-3.433,0-4.783-1.533-4.967-3.5H9.48c.2,3.65,2.933,5.7,6.133,6.383V34.5h5V30.917c3.25-.617,5.833-2.5,5.833-5.917C26.447,20.267,22.4,18.65,18.613,17.667Z" transform="translate(-9.48 -4.5)" fill="#a19b97"/>
</svg>
