<svg class="logo" xmlns="http://www.w3.org/2000/svg" viewBox="0 0 299.094 100">
  <g id="Group_45912" data-name="Group 45912" transform="translate(12131 -9462)">
    <path id="Path_107631" data-name="Path 107631" d="M234.813,54.119c-1.322-3.2-2.237-3.965-4.931-4.067V49.34h10.166v.712c-3.66.1-4.168.864-2.846,4.067L247.725,80.2,258.2,54.119c1.322-3.2.864-3.965-2.694-4.067V49.34h9.15v.712c-2.694.1-3.609.864-4.931,4.067L247.673,84.059h-.813Z" transform="translate(-12251.882 9436.055)" fill="#635651" />
    <path id="Path_107632" data-name="Path 107632" d="M333.868,74.553,332.445,83.3H306.418v-.711c3.05-.051,4.677-.509,4.677-4.118V54.119c0-3.508-1.627-4.016-4.677-4.067V49.34h25.366l1.423,8.743H332.5c-1.118-5.134-3.253-7.32-6.659-7.32H313.331V65.149h8.439c3.66,0,3.914-1.373,4.016-4.626h.712V71.249h-.712c-.1-3.2-.356-4.677-4.016-4.677h-8.439v11.9c0,2.541.814,3.405,2.9,3.405H326.5c3.406,0,5.541-2.185,6.659-7.32Z" transform="translate(-12292.128 9436.055)" fill="#635651" />
    <path id="Path_107633" data-name="Path 107633" d="M395.87,82.585V83.3h-5.439a11.668,11.668,0,0,0-1.525-2.237L378.587,68.2h-5.44V78.468c0,3.609,1.627,4.066,4.677,4.118V83.3h-11.59v-.711c3.05-.051,4.677-.509,4.677-4.118V54.119c0-3.508-1.626-4.016-4.677-4.067V49.34h12.81c7.269,0,12.606,2.694,12.606,9.354,0,5.947-4.27,8.845-10.319,9.4L391.4,80.5a6.107,6.107,0,0,0,4.473,2.084M373.147,66.776h5.9c6.608,0,9.963-3.355,9.963-8.082,0-4.626-3.405-7.93-9.963-7.93h-5.9Z" transform="translate(-12323.582 9436.055)" fill="#635651" />
    <path id="Path_107634" data-name="Path 107634" d="M432.478,82.584c3.05-.1,4.677-.508,4.677-4.118V54.118c0-3.508-1.627-3.965-4.677-4.066v-.712h11.59v.712c-3.051.1-4.678.559-4.678,4.066V78.467c0,3.609,1.627,4.016,4.678,4.118V83.3h-11.59Z" transform="translate(-12358.416 9436.056)" fill="#635651" />
    <path id="Path_107635" data-name="Path 107635" d="M491.3,58.083h-.712c-1.119-5.134-3.253-7.32-6.659-7.32h-6.558v27.7c0,3.609,1.626,4.066,4.677,4.118V83.3h-11.59v-.711c3.05-.051,4.677-.509,4.677-4.118v-27.7h-6.558c-3.406,0-5.54,2.186-6.66,7.32h-.711l1.423-8.743h27.247Z" transform="translate(-12373.522 9436.055)" fill="#635651" />
    <path id="Path_107636" data-name="Path 107636" d="M548.5,81.739v.712H538.335v-.712c3.66-.1,4.168-.864,2.847-4.066l-2.745-6.761H522.882l-2.694,6.761c-1.322,3.2-.864,3.965,2.694,4.066v.712h-9.15v-.712c2.694-.1,3.609-.864,4.93-4.066L530.71,47.731h.813l12.047,29.942c1.322,3.2,2.237,3.965,4.931,4.066M537.877,69.488l-7.218-17.893-7.167,17.893Z" transform="translate(-12401.143 9436.901)" fill="#635651" />
    <path id="Path_107637" data-name="Path 107637" d="M583.513,75.238l2.643-.915a9.415,9.415,0,0,0,9.4,7.473c4.829,0,8.133-2.847,8.133-6.964,0-10.828-18.859-6.913-18.859-18.554,0-4.982,4.168-8.439,10.116-8.439,4.778,0,9.353,2.745,10.624,6.862l-2.644.915a9.193,9.193,0,0,0-8.489-6.354c-4.524,0-7.727,2.541-7.727,6.252,0,9.608,19.215,6.456,19.215,18.351,0,5.541-4.118,9.353-10.827,9.353-5.8,0-10.522-3.253-11.59-7.981" transform="translate(-12437.837 9436.845)" fill="#635651" />
    <path id="Path_107638" data-name="Path 107638" d="M297.546,137.547c-1.185.036-1.616.431-1.616,1.545v8.694c0,.952.5,1.167,1.616,1.257v.252H293.2v-.252c1.1-.09,1.617-.323,1.617-1.257V139.02l-4.976,10.275h-.323l-4.724-10.329v8.82c0,.952.521,1.167,1.635,1.257v.252h-3.737v-.252c1.114-.09,1.6-.323,1.6-1.257v-8.694c0-1.114-.431-1.509-1.616-1.545V137.3h2.586l4.778,10.419,5.047-10.419h2.461Z" transform="translate(-12279.642 9389.805)" fill="#a19b97" />
    <path id="Path_107639" data-name="Path 107639" d="M323.072,150.137a3.614,3.614,0,0,1-3.449,2.5c-2.371,0-3.916-1.9-3.916-4.527,0-2.928,1.671-4.94,4.113-4.94,1.976,0,3.234,1.671,3.234,3.916H316.8a3.783,3.783,0,0,0-.036.467c-.072,2.461,1.329,4.077,3.413,4.077a3.07,3.07,0,0,0,2.676-1.58Zm-6.2-3.557h4.994c-.036-1.563-.934-2.91-2.317-2.91-1.365,0-2.371,1.185-2.677,2.91" transform="translate(-12297.013 9386.717)" fill="#a19b97" />
    <path id="Path_107640" data-name="Path 107640" d="M333.853,144.412c0-3.377,1.976-5.03,4.114-5.03a3.122,3.122,0,0,1,2.443,1.239v-2.874c0-.629-.269-.9-.916-.916h-.485v-.251l2.138-.611h.252v11.119c0,.646.269.9.916.916h.485v.252l-2.137.611h-.251v-2.353a3.318,3.318,0,0,1-3.018,2.353c-2.083,0-3.539-1.976-3.539-4.455m6.557,1.527v-3.287a2.758,2.758,0,0,0-2.73-2.73c-1.6,0-2.749,1.743-2.749,3.808,0,1.958.862,4.275,2.874,4.275a2.877,2.877,0,0,0,2.6-2.065" transform="translate(-12306.555 9390.501)" fill="#a19b97" />
    <path id="Path_107641" data-name="Path 107641" d="M357.479,148.7v.252h-3.611V148.7c.647-.108,1.312-.233,1.312-1.06V141.5c0-.629-.269-.9-.916-.916h-.485v-.251l2.137-.611h.252v7.921c0,.826.664.952,1.311,1.06m-2.838-11.191a.87.87,0,0,1,.9-.862.862.862,0,0,1,0,1.724.87.87,0,0,1-.9-.862" transform="translate(-12317.032 9390.143)" fill="#a19b97" />
    <path id="Path_107642" data-name="Path 107642" d="M363.364,148.071c0-2.856,1.652-4.9,4.15-4.9a2.917,2.917,0,0,1,2.946,2.1l-1.06.377a2.271,2.271,0,0,0-2.138-1.976c-1.671,0-2.838,1.545-2.838,3.7,0,2.407,1.239,4.221,3.269,4.221a3.2,3.2,0,0,0,2.82-1.814l.216.054a3.555,3.555,0,0,1-3.431,2.8c-2.3,0-3.934-1.976-3.934-4.562" transform="translate(-12322.072 9386.717)" fill="#a19b97" />
    <path id="Path_107643" data-name="Path 107643" d="M388.549,151.789v.251l-2.138.611h-.251v-2.389a3.343,3.343,0,0,1-3.054,2.389,2.22,2.22,0,0,1-2.317-2.335c0-1.706,1.06-2.532,3.736-3.054l1.635-.323v-.557c0-1.688-.88-2.712-2.317-2.712a1.841,1.841,0,0,0-1.652,2.748l-1.042.377c-.934-1.778.646-3.628,2.982-3.628a2.9,2.9,0,0,1,3.018,3.215v4.491c0,.647.27.9.917.916Zm-2.389-4.347-1.563.323c-1.922.359-2.73,1.024-2.73,2.246a1.694,1.694,0,0,0,1.724,1.814,3.077,3.077,0,0,0,2.569-2.03Z" transform="translate(-12331.235 9386.717)" fill="#a19b97" />
    <path id="Path_107644" data-name="Path 107644" d="M402.239,148.345v.251h-3.593v-.251c.647-.108,1.312-.234,1.312-1.06v-9.539c0-.628-.269-.9-.916-.916h-.485v-.252l2.137-.611h.251v11.317c0,.826.665.952,1.293,1.06" transform="translate(-12340.579 9390.502)" fill="#a19b97" />
    <path id="Path_107645" data-name="Path 107645" d="M428.84,148.744V149h-4.006v-.252c1.258-.054,1.455-.341.97-1.455l-.952-2.317H419.5l-.952,2.317c-.467,1.114-.287,1.4.97,1.455V149h-3.269v-.252c.935-.054,1.294-.341,1.761-1.455l4.347-10.562h.287l4.4,10.562c.467,1.114.826,1.4,1.8,1.455m-4.2-4.275-2.479-6.036-2.461,6.036Z" transform="translate(-12349.881 9390.103)" fill="#a19b97" />
    <path id="Path_107646" data-name="Path 107646" d="M450.321,150.137a3.614,3.614,0,0,1-3.449,2.5c-2.371,0-3.916-1.9-3.916-4.527,0-2.928,1.671-4.94,4.113-4.94,1.976,0,3.234,1.671,3.234,3.916h-6.251a3.777,3.777,0,0,0-.036.467c-.072,2.461,1.329,4.077,3.413,4.077a3.07,3.07,0,0,0,2.676-1.58Zm-6.2-3.557h4.993c-.036-1.563-.934-2.91-2.317-2.91-1.366,0-2.371,1.185-2.676,2.91" transform="translate(-12363.926 9386.717)" fill="#a19b97" />
    <path id="Path_107647" data-name="Path 107647" d="M460.685,150.55l1.077-.467a2.4,2.4,0,0,0,2.317,2.048c1.24,0,2.1-.719,2.084-1.779-.036-2.676-5.174-1.706-5.228-4.724-.036-1.473,1.114-2.461,2.874-2.461a3.16,3.16,0,0,1,3.072,1.76l-.988.449a2.334,2.334,0,0,0-2.138-1.706c-1.185,0-1.94.646-1.94,1.58,0,2.389,5.137,1.509,5.245,4.652a2.716,2.716,0,0,1-3.018,2.73,3.6,3.6,0,0,1-3.358-2.083" transform="translate(-12373.248 9386.717)" fill="#a19b97" />
    <path id="Path_107648" data-name="Path 107648" d="M478.4,142.266v6.394c0,1.024.485,1.617,1.4,1.617a1.423,1.423,0,0,0,1.186-.521l.125.072a1.824,1.824,0,0,1-1.778,1.149c-1.185,0-1.922-.826-1.922-2.3v-6.412h-.97v-.251l1.706-2.03h.252v1.778h2.712v.5Z" transform="translate(-12381.534 9388.39)" fill="#a19b97" />
    <path id="Path_107649" data-name="Path 107649" d="M496.542,148.345v.251h-3.593v-.251c.629-.108,1.293-.234,1.293-1.06v-5.21a1.708,1.708,0,0,0-1.8-1.922c-1.006,0-1.814.485-2.856,1.725v5.407c0,.826.664.952,1.293,1.06v.251h-3.593v-.251c.647-.108,1.311-.234,1.311-1.06v-9.539c0-.628-.269-.9-.916-.916H487.2v-.252l2.138-.611h.252v5.461c1.024-1.365,1.976-2.048,3.215-2.048,1.509,0,2.425.934,2.425,2.641v5.263c0,.826.665.952,1.311,1.06" transform="translate(-12387.191 9390.502)" fill="#a19b97" />
    <path id="Path_107650" data-name="Path 107650" d="M515.213,150.137a3.614,3.614,0,0,1-3.449,2.5c-2.371,0-3.916-1.9-3.916-4.527,0-2.928,1.671-4.94,4.113-4.94,1.976,0,3.234,1.671,3.234,3.916h-6.251a3.783,3.783,0,0,0-.036.467c-.072,2.461,1.329,4.077,3.413,4.077a3.07,3.07,0,0,0,2.676-1.58Zm-6.2-3.557h4.994c-.035-1.563-.934-2.91-2.317-2.91-1.365,0-2.371,1.185-2.677,2.91" transform="translate(-12398.049 9386.717)" fill="#a19b97" />
    <path id="Path_107651" data-name="Path 107651" d="M527.423,142.266v6.394c0,1.024.485,1.617,1.4,1.617a1.421,1.421,0,0,0,1.186-.521l.125.072a1.824,1.824,0,0,1-1.778,1.149c-1.185,0-1.922-.826-1.922-2.3v-6.412h-.97v-.251l1.706-2.03h.251v1.778h2.712v.5Z" transform="translate(-12407.313 9388.39)" fill="#a19b97" />
    <path id="Path_107652" data-name="Path 107652" d="M541.059,148.7v.252h-3.611V148.7c.647-.108,1.312-.233,1.312-1.06V141.5c0-.629-.269-.9-.916-.916h-.485v-.251l2.138-.611h.252v7.921c0,.826.664.952,1.311,1.06m-2.838-11.191a.871.871,0,0,1,.9-.862.862.862,0,0,1,0,1.724.871.871,0,0,1-.9-.862" transform="translate(-12413.567 9390.143)" fill="#a19b97" />
    <path id="Path_107653" data-name="Path 107653" d="M546.716,148.071c0-2.856,1.652-4.9,4.15-4.9a2.917,2.917,0,0,1,2.946,2.1l-1.06.377a2.271,2.271,0,0,0-2.138-1.976c-1.671,0-2.838,1.545-2.838,3.7,0,2.407,1.239,4.221,3.269,4.221a3.2,3.2,0,0,0,2.82-1.814l.216.054a3.555,3.555,0,0,1-3.431,2.8c-2.3,0-3.934-1.976-3.934-4.562" transform="translate(-12418.487 9386.717)" fill="#a19b97" />
    <path id="Path_107654" data-name="Path 107654" d="M564.029,150.55l1.078-.467a2.4,2.4,0,0,0,2.317,2.048c1.239,0,2.1-.719,2.084-1.779-.036-2.676-5.174-1.706-5.228-4.724-.036-1.473,1.114-2.461,2.874-2.461a3.16,3.16,0,0,1,3.072,1.76l-.988.449a2.335,2.335,0,0,0-2.138-1.706c-1.185,0-1.94.646-1.94,1.58,0,2.389,5.137,1.509,5.245,4.652a2.716,2.716,0,0,1-3.018,2.73,3.6,3.6,0,0,1-3.359-2.083" transform="translate(-12427.591 9386.717)" fill="#a19b97" />
    <path id="Path_107655" data-name="Path 107655" d="M35.983,164.746l.391.339,15.535-17.928-.266-.482Z" transform="translate(-12149.921 9384.872)" fill="#a19b97" />
    <path id="Path_107656" data-name="Path 107656" d="M89.9,199.23l.512.073,1.266-8.809-.414-.751Z" transform="translate(-12178.275 9362.225)" fill="#a19b97" />
    <path id="Path_107657" data-name="Path 107657" d="M75.219,189.812l.5.146,4.268-14.535-.352-.637Z" transform="translate(-12170.554 9370.09)" fill="#a19b97" />
    <path id="Path_107658" data-name="Path 107658" d="M61.148,181.373l.47.215,7.982-17.48-.311-.563Z" transform="translate(-12163.154 9376.001)" fill="#a19b97" />
    <path id="Path_107659" data-name="Path 107659" d="M47.981,173.145l.435.279,11.857-18.45-.284-.514Z" transform="translate(-12156.23 9380.778)" fill="#a19b97" />
    <path id="Path_107660" data-name="Path 107660" d="M25.4,155.988l.339.39L44.5,140.123l-.256-.463Z" transform="translate(-12144.356 9388.561)" fill="#a19b97" />
    <path id="Path_107661" data-name="Path 107661" d="M16.445,146.78l.279.435,21.33-13.708-.25-.453Z" transform="translate(-12139.647 9392.035)" fill="#a19b97" />
    <path id="Path_107662" data-name="Path 107662" d="M9.3,137.088l.215.47L32.6,127.016l-.25-.454Z" transform="translate(-12135.892 9395.448)" fill="#a19b97" />
    <path id="Path_107663" data-name="Path 107663" d="M4.118,126.9l.146.5,23.877-7.011-.256-.464Z" transform="translate(-12133.165 9398.941)" fill="#a19b97" />
    <path id="Path_107664" data-name="Path 107664" d="M1,116.188l.073.512,23.585-3.391-.267-.484Z" transform="translate(-12131.523 9402.672)" fill="#a19b97" />
    <path id="Path_107665" data-name="Path 107665" d="M0,104.906v.517H22.076l-.285-.517Z" transform="translate(-12131 9406.836)" fill="#a19b97" />
    <path id="Path_107666" data-name="Path 107666" d="M1.069,89.9,1,90.415l19.2,2.761-.313-.568Z" transform="translate(-12131.523 9414.725)" fill="#a19b97" />
    <path id="Path_107667" data-name="Path 107667" d="M4.264,75.219l-.146.5,14.73,4.325-.355-.642Z" transform="translate(-12133.165 9422.446)" fill="#a19b97" />
    <path id="Path_107668" data-name="Path 107668" d="M9.518,61.149l-.215.47L17.576,65.4l-.419-.76Z" transform="translate(-12135.892 9429.846)" fill="#a19b97" />
    <path id="Path_107669" data-name="Path 107669" d="M192.423,61.619l-.215-.47-7.639,3.489-.419.76Z" transform="translate(-12227.834 9429.846)" fill="#a19b97" />
    <path id="Path_107670" data-name="Path 107670" d="M190.447,75.714l-.146-.5L176.073,79.4l-.355.642Z" transform="translate(-12223.4 9422.447)" fill="#a19b97" />
    <path id="Path_107671" data-name="Path 107671" d="M188.614,90.415l-.073-.512-18.812,2.7-.313.567Z" transform="translate(-12220.086 9414.725)" fill="#a19b97" />
    <path id="Path_107672" data-name="Path 107672" d="M164.343,105.422h22.076v-.517h-21.79Z" transform="translate(-12217.419 9406.836)" fill="#a19b97" />
    <path id="Path_107673" data-name="Path 107673" d="M183.595,116.7l.074-.512-23.391-3.363-.267.484Z" transform="translate(-12215.141 9402.672)" fill="#a19b97" />
    <path id="Path_107674" data-name="Path 107674" d="M180,127.393l.146-.5-23.767-6.979-.256.464Z" transform="translate(-12213.095 9398.941)" fill="#a19b97" />
    <path id="Path_107675" data-name="Path 107675" d="M175.546,137.558l.215-.47-23.047-10.525-.25.454Z" transform="translate(-12211.172 9395.448)" fill="#a19b97" />
    <path id="Path_107676" data-name="Path 107676" d="M170.212,147.214l.279-.435-21.359-13.726-.25.453Z" transform="translate(-12209.288 9392.035)" fill="#a19b97" />
    <path id="Path_107677" data-name="Path 107677" d="M163.983,156.378l.339-.391L145.48,139.66l-.256.463Z" transform="translate(-12207.365 9388.561)" fill="#a19b97" />
    <path id="Path_107678" data-name="Path 107678" d="M156.865,165.084l.391-.339L141.6,146.674l-.266.482Z" transform="translate(-12205.318 9384.873)" fill="#a19b97" />
    <path id="Path_107679" data-name="Path 107679" d="M148.853,173.425l.435-.279L137.28,154.461l-.284.514Z" transform="translate(-12203.038 9380.777)" fill="#a19b97" />
    <path id="Path_107680" data-name="Path 107680" d="M139.907,181.588l.47-.215-8.142-17.828-.311.563Z" transform="translate(-12200.372 9376.001)" fill="#a19b97" />
    <path id="Path_107681" data-name="Path 107681" d="M129.9,189.957l.5-.146-4.412-15.026-.351.637Z" transform="translate(-12197.064 9370.091)" fill="#a19b97" />
    <path id="Path_107682" data-name="Path 107682" d="M118.513,199.3l.512-.074-1.364-9.486-.414.751Z" transform="translate(-12192.653 9362.225)" fill="#a19b97" />
    <path id="Path_107683" data-name="Path 107683" d="M174.485,25.739l-.391-.339Z" transform="translate(-12222.546 9448.644)" fill="#a19b97" />
    <path id="Path_107684" data-name="Path 107684" d="M100.838,23.344l-.1-.158-.14-.217-.241-.376L63.544,46.25l33.07-28.656-.123-.142h0l-.169-.2-.293-.337L62.961,45.573,91.615,12.505l-.142-.123-.391-.339-.142-.123L62.284,44.991,85.942,8.179l-.158-.1-.218-.139L85.191,7.7,61.534,44.507,79.711,4.7,78.9,4.333,60.721,44.14,73.05,2.151,72.193,1.9,59.865,43.885,66.092.573,65.906.546,65.65.509,65.208.446,58.981,43.759V0h-.893V43.759L51.86.446l-.883.127L57.2,43.886,44.876,1.9l-.18.053-.248.073-.429.126L56.348,44.137,38.17,4.333,38,4.411l-.47.214-.171.078,18.178,39.8L31.878,7.7l-.751.483L54.785,44.991,26.129,11.92l-.142.123-.032.028-.5.434L54.11,45.576,21.04,16.92l-.123.142-.339.391-.123.142L53.525,46.25,16.713,22.593l-.1.158-.14.218-.241.376L53.043,47l-32.4-14.795.153.276.419.76.153.276,31.3,14.3-27.941-8.2.129.234.355.642.129.234,27.073,7.95-24.64-3.543.114.206.313.567.114.206L52.3,49.554H30.221l.1.188.285.517.1.188H52.292L32.3,53.321l.1.176.267.484.1.176L52.42,51.33,34.161,56.691l.093.169.256.464.093.168,18.07-5.306L35.9,59.846l.092.165.25.454.091.165L53.043,53,37.6,62.923l.091.165.25.454.091.165,15.494-9.957-14.2,12.3.093.168.255.463.093.168L54.11,54.425,41.159,69.371l.1.175.266.482.1.175L54.785,55.01,43.19,73.051l.1.187.284.514.1.187L55.536,55.492,45.558,77.341l.113.2.311.563.113.2L56.35,55.859,48.484,82.644l.128.232.351.637.128.232L57.2,56.117,52.376,89.7l.151.273.414.751.15.273,5-34.751V100h.892V56.243l5,34.749.151-.273.414-.751.151-.273L59.865,56.113l8.113,27.631.128-.231.352-.637.128-.231-7.863-26.78,10.253,22.45.113-.2.311-.563.113-.2-9.979-21.85L73.389,73.94l.1-.187.284-.514.1-.187-11.6-18.042L75.451,70.2l.1-.175.266-.482.1-.175L62.958,54.423,77.3,66.852l.093-.168.256-.463.092-.168-14.2-12.3,15.493,9.957.091-.165.25-.454.091-.165L64.029,53l16.706,7.629.091-.165.25-.454.091-.165L64.4,52.187l18.071,5.306.093-.168.256-.464.093-.169L64.65,51.331l19.657,2.826.1-.176.267-.484.1-.176L64.776,50.446h21.58l.1-.188.285-.517.1-.188H64.776l23.975-3.447.114-.207.313-.567.114-.206L64.649,48.67l27.074-7.95.129-.234.355-.642.129-.234L64.4,47.813,95.7,33.519l.153-.276.419-.76.153-.276L64.024,47Z" transform="translate(-12139.535 9462)" fill="#635651" />
    <rect id="Rectangle_24143" data-name="Rectangle 24143" width="299.094" height="100" transform="translate(-12131 9462)" fill="none" />
  </g>
</svg>