<svg xmlns="http://www.w3.org/2000/svg" width="130" height="27.02" viewBox="0 0 130 27.02">
  <path id="nuyou" d="M115,98.55C115,90.76,120.49,85,128.38,85s13.43,5.72,13.43,13.51-5.6,13.51-13.43,13.51S115,106.34,115,98.55Zm4.36,0c0,5.36,3.75,9.59,9.07,9.59s9-4.22,9-9.59-3.75-9.56-9-9.56-9.12,4.15-9.12,9.56ZM146,101.3V85.6h4.12v15.59c0,4.1,2,7,5.89,7s5.89-2.85,5.89-7V85.71H166V101.3c0,6.37-3.3,10.67-10,10.67S146,107.68,146,101.3Zm-80.71,0V89.73h4.12v11.42c0,4.1,2,6.95,5.89,6.95s5.9-2.85,5.9-6.95V89.73h4.13v11.54c0,6.37-3.29,10.67-10,10.67s-10-4.28-10-10.67ZM99.4,111.49v-9l-9.79-16.7h5.2l6.8,12.56,6.89-12.56h5.08l-9.77,16.71v9Zm-45.6,0,.07-16.1c0-4-2.62-6.4-5.78-6.4-3,0-6.92,1.26-7.55,7.35v15.15h-4.3V89.74l-.24-4h4.28l.2,3.23a10.34,10.34,0,0,1,8.16-3.78c5.76-.11,9.22,3.82,9.41,9.83v16.47Zm99.76-9.27a4,4,0,0,1-.53.74l-1.38-1.29A7.71,7.71,0,0,0,153.69,97h-1.38V95.3h1.34v-.83h1.85v.83h4.26V97h-4.37s-.09.58-.1.63H159a7,7,0,0,1-.15,1.93,8.071,8.071,0,0,1-1,1.7,8.17,8.17,0,0,0,1.9.29l-.62,1.78a9.581,9.581,0,0,1-1.55-.41,4.81,4.81,0,0,1-.94-.46,6.78,6.78,0,0,1-2.15.9Zm.32-.59s.89-.14,1-.18.43-.13.4-.15l-.38-.47a6.458,6.458,0,0,1-.35-.56,11.369,11.369,0,0,1-.66,1.36Zm2.71-1.16a2.74,2.74,0,0,0,.76-1.29h-1.58a2.35,2.35,0,0,0,.82,1.29Zm-4.43-7.54a5,5,0,0,0,2.54-.79c-.55-.32-1.38-.63-2.16-1,.24-.55.9-1.42,1.13-2.1h-1.51V87.2h2.1c.12-.4.13-.91.24-1.51h1.88c-.13.59-.18,1.22-.28,1.51h3.85V89h-1.26a7.339,7.339,0,0,1-.36,1.47,7.869,7.869,0,0,1-.67,1.25c1.08.68,1.9,1,2.26,1.32l-1.38,1.42c-.45-.35-1.43-.92-2.13-1.42a8.18,8.18,0,0,1-3.2,1.46Zm2.63-2.44c.19.08.4.14.75.3a4.07,4.07,0,0,0,.58.22,5.39,5.39,0,0,0,.9-2h-1.54c-.13.33-.57,1.07-.71,1.4ZM81.19,88.7v-3h4.14v3Zm-16,0v-3h4.14v3Z" transform="translate(-36 -85)" fill="#635651"/>
</svg>
