<svg id="Group_44524" data-name="Group 44524" xmlns="http://www.w3.org/2000/svg" xmlns:xlink="http://www.w3.org/1999/xlink" width="180" height="31.991" viewBox="0 0 180 31.991">
  <defs>
    <clipPath id="clip-path">
      <rect id="Rectangle_23780" data-name="Rectangle 23780" width="180" height="31.991" fill="#635651"/>
    </clipPath>
  </defs>
  <g id="Group_44523" data-name="Group 44523" clip-path="url(#clip-path)">
    <path id="Path_240" data-name="Path 240" d="M151.263,27.619c-.282,1.763-.587,3.522-.833,5.29-.078.562-.335.694-.852.692-6.526-.025-13.057.117-19.575-.106a10.844,10.844,0,0,1-9.421-5.574c-.613-1.051-1.059-2.2-1.725-3.218a21.824,21.824,0,0,0-2.667-3.475,5.687,5.687,0,0,0-4.412-1.676c-1.357.059-2.718.012-4.3.012.12,3.832.177,7.549.411,11.254.04.635.778,1.282,1.305,1.813a7.124,7.124,0,0,0,1.6.871h-9.839c.027-.107.031-.221.062-.229,2.814-.7,3.069-2.983,3.092-5.236.068-6.6.031-13.2.014-19.794,0-.749-.141-1.5-.212-2.246-.142-1.5-1.357-2.087-2.607-2.889A9.243,9.243,0,0,1,102.252,3c4.254.015,8.511-.057,12.759.107a14.994,14.994,0,0,1,4.905,1.071,6.581,6.581,0,0,1,4.342,6.448,7.025,7.025,0,0,1-4.169,7.04c-.837.4-1.741.664-2.621.993.007.024.005.126.043.143,3.147,1.457,4.793,4.219,6.262,7.13,1.324,2.623,2.816,5.1,5.588,6.557a5.305,5.305,0,0,0,1.807-4.473c.04-6.526,0-13.053.023-19.58a6.209,6.209,0,0,0-2.707-5.378c.3-.021.606-.06.91-.06,6.094,0,12.187.017,18.28-.024.917-.006,1.235.224,1.3,1.166.112,1.563.414,3.113.642,4.715-.145-.059-.236-.067-.253-.107-1.419-3.174-3.975-4.45-7.351-4.413-2.411.026-4.823.005-7.312.005v12.8c2.785-.171,5.585-.187,8.334-.569,1.727-.24,2.887-1.618,3.869-3.373v8.627c-1.621-3.173-4.379-3.6-7.382-3.519-1.581.041-3.163.007-4.8.007a4.968,4.968,0,0,0-.095.663c0,3.084-.019,6.168.019,9.251.037,3.015,1.117,4.05,4.149,4.034,1.548-.008,3.1-.027,4.644-.109a9.391,9.391,0,0,0,7.822-4.533m-43.657-9.3c2.363,0,4.638.158,6.881-.039a5.572,5.572,0,0,0,5.372-4.635,12.6,12.6,0,0,0,.254-3.409c-.173-2.638-1.171-4.826-3.943-5.684-2.807-.869-5.686-.288-8.564-.44Z" transform="translate(-79.083 -2.33)" fill="#635651"/>
    <path id="Path_241" data-name="Path 241" d="M623.357,8.2c-.81-1.273-1.409-2.374-2.157-3.363a10.665,10.665,0,0,0-12.774-2.815,10.023,10.023,0,0,0-4.37,4.49,20.213,20.213,0,0,0-.216,18.514c1.8,3.709,4.872,6.083,9.227,6a11.722,11.722,0,0,0,4.4-1.226,3.5,3.5,0,0,0,2.135-3.651c-.117-1.965-.1-3.938-.126-5.907a2.342,2.342,0,0,0-1.854-2.437,8.72,8.72,0,0,1-2.063-.913h9.73c0,.053.024.159,0,.174a3.945,3.945,0,0,0-2.019,4.145c.142,2.142.05,4.3.015,6.452a1.426,1.426,0,0,1-.4,1c-4.9,3.762-13.608,4.676-18.769.956-4.228-3.048-6.15-7.258-6.373-12.33-.2-4.54.7-8.766,3.785-12.313A13.968,13.968,0,0,1,613.311.021a21.627,21.627,0,0,1,8.551,1.989,1.56,1.56,0,0,1,1.024,1.464c.086,1.5.29,2.988.471,4.726" transform="translate(-468.212 0)" fill="#635651"/>
    <path id="Path_242" data-name="Path 242" d="M721.727,3.279H742.04l.717,5.728-.166.053c-.167-.331-.329-.665-.5-.993A6.1,6.1,0,0,0,736.8,4.675c-2.938-.162-5.892-.039-8.9-.039V17.065a1.682,1.682,0,0,0,.474.145c1.983.011,3.969.079,5.949-.007a6.458,6.458,0,0,0,5.76-3.763v8.519c-1.43-2.908-3.914-3.42-6.657-3.407-1.8.008-3.6,0-5.347,0-.1.114-.19.166-.19.218.023,3.689,0,7.379.107,11.065a2.488,2.488,0,0,0,2.438,2.558,57.625,57.625,0,0,0,7.754-.208,8.248,8.248,0,0,0,6.257-4.253c-.148.952-.295,1.9-.446,2.855-.156.984-.318,1.967-.481,2.97H720.554c.726-.469,1.171-.793,1.649-1.059a4,4,0,0,0,2.1-3.745c.023-7.029,0-14.058.014-21.087,0-2.007-1.176-3.3-2.592-4.588" transform="translate(-564.437 -2.569)" fill="#635651"/>
    <path id="Path_243" data-name="Path 243" d="M6.146,20.127c0,3.179-.188,6.2.053,9.181.236,2.918.428,2.9,3.2,4.238H.06c0-.019-.019-.137,0-.145,2.416-.9,2.417-3.078,2.444-5.028.1-6.845.052-13.693.026-20.539C2.526,5.9,2.186,4.075,0,3.181a6.133,6.133,0,0,1,.757-.089c4.108.017,8.217-.012,12.323.081,2.852.065,5.526.829,7.472,3.049,3.23,3.685,1.928,9.8-2.5,12.161a18.139,18.139,0,0,1-7.83,1.733c-1.359.067-2.725.012-4.072.012M6.045,4.1V18.825a17.98,17.98,0,0,0,6.647-.3c3.828-1.08,5.674-3.83,5.46-8.138-.169-3.4-1.967-5.519-5.35-5.943-2.2-.276-4.435-.236-6.758-.343" transform="translate(0 -2.422)" fill="#635651"/>
    <path id="Path_244" data-name="Path 244" d="M341,25.267a11.31,11.31,0,0,0,6.914,5.121,8.3,8.3,0,0,0,5.5-.323c4.045-1.755,5.1-6.574,1.955-9.64a21.526,21.526,0,0,0-4.48-2.9c-2.02-1.153-4.245-2-6.122-3.339a7.335,7.335,0,0,1-2.99-8.7c.862-2.8,3.973-5.042,7.332-5.368,3.284-.318,6.343.638,9.407,1.563a1.1,1.1,0,0,1,.5.875c-.019,1.249-.136,2.5-.23,3.955-.239-.406-.407-.648-.532-.91C357.036,3.066,352.1.4,348.567,1.55c-3.89,1.265-5.108,5.6-2.289,8.561,1.653,1.737,3.824,2.624,5.967,3.576a29.843,29.843,0,0,1,4.574,2.373,8.5,8.5,0,0,1-.582,14.4,11.6,11.6,0,0,1-8.644,1.24c-2.037-.435-4.049-.991-6.071-1.495-.543-.135-.834-.35-.749-1.04.159-1.291.163-2.6.232-3.9" transform="translate(-266.928 -0.046)" fill="#635651"/>
    <path id="Path_245" data-name="Path 245" d="M432.182,8.7c.26-1.913.436-3.514.738-5.091.046-.239.671-.522,1.031-.525,4.291-.036,8.583-.024,12.875-.024h10.255l.7,4.917-.138.037c-.317-.545-.6-1.113-.959-1.63a4.8,4.8,0,0,0-3.8-2.171c-1.976-.1-3.961-.024-6.075-.024-.02.417-.053.793-.053,1.168q0,10.814,0,21.629c0,.93.084,1.861.153,2.79a3.3,3.3,0,0,0,2.277,3.2,2.4,2.4,0,0,1,.928.567h-10.3a2.92,2.92,0,0,1,.526-.33c2.14-.715,2.862-2.373,2.9-4.42.055-2.868.047-5.738.051-8.607q.01-7.371,0-14.742V4.213c-2.163,0-4.22-.137-6.249.04A5.132,5.132,0,0,0,432.869,7.3c-.189.369-.365.745-.687,1.4" transform="translate(-338.545 -2.399)" fill="#635651"/>
    <path id="Path_246" data-name="Path 246" d="M559.033,3.274h7.973c0,.076.027.183.01.189-1.823.7-2.166,2.172-2.16,3.908q.04,10.919,0,21.839c-.006,1.911.314,3.591,2.362,4.479h-8.143c2.767-1.132,2.207-3.654,2.247-5.75.12-6.346.049-12.7.036-19.043,0-.822-.121-1.643-.147-2.466a3.579,3.579,0,0,0-2.18-3.157" transform="translate(-437.912 -2.565)" fill="#635651"/>
  </g>
</svg>
