<svg xmlns="http://www.w3.org/2000/svg" xmlns:xlink="http://www.w3.org/1999/xlink" width="140" height="26.807" viewBox="0 0 140 26.807">
  <defs>
    <clipPath id="clip-path">
      <rect id="Rectangle_23783" data-name="Rectangle 23783" width="140" height="26.807" transform="translate(0 0)" fill="#635651"/>
    </clipPath>
  </defs>
  <g id="Group_44528" data-name="Group 44528" transform="translate(0 0)">
    <g id="Group_44528-2" data-name="Group 44528" transform="translate(0 0)" clip-path="url(#clip-path)">
      <path id="Path_252" data-name="Path 252" d="M143.634,20.33h5.44l3.37,12.351.369.013,3.035-12.3H160.9l3.118,12.29.352.01,3.381-12.338h5.289c-2,6.38-3.959,12.624-5.93,18.906h-5.35l-3.3-12.265-.322.013-3.127,12.241h-5.41L143.634,20.33" transform="translate(-91.98 -13.019)" fill="#635651"/>
      <path id="Path_253" data-name="Path 253" d="M350.127,9.431V.381h4.942v26.07h-4.557l-.28-2.143c-1.722,2.308-3.957,2.8-6.445,2.667a7.173,7.173,0,0,1-6.274-3.863,12.185,12.185,0,0,1-.235-11.877,7.628,7.628,0,0,1,12.264-2.016c.076.071.21.079.586.212m.367,7.644a20.673,20.673,0,0,0-1.135-4.063,4.173,4.173,0,0,0-6.817-.734c-2.03,2.356-1.892,7.446.262,9.654a4.05,4.05,0,0,0,6.62-.981,23.185,23.185,0,0,0,1.07-3.875" transform="translate(-215.069 -0.244)" fill="#635651"/>
      <path id="Path_254" data-name="Path 254" d="M4.959,26.314c-1.262,0-2.271.008-3.28,0C1.152,26.305.625,26.267,0,26.24V.1C.35.064.634.008.919.006,2.171,0,3.424,0,4.906,0v9.79a8.864,8.864,0,0,0,.8-.678c2.147-2.558,4.934-2.7,7.876-1.992a4.779,4.779,0,0,1,3.486,3.33,6.373,6.373,0,0,1,.411,1.924c.035,4.55.018,9.1.018,13.8H12.575c-.036-.462-.11-.976-.112-1.49-.01-2.936,0-5.873-.009-8.809a11.926,11.926,0,0,0-.139-2.146c-.378-2.01-1.269-2.813-3.074-2.888-2.059-.085-3.462.812-3.905,2.693a15.9,15.9,0,0,0-.361,3.38c-.047,3.048-.016,6.1-.016,9.4" transform="translate(0 0)" fill="#635651"/>
      <path id="Path_255" data-name="Path 255" d="M70.681,30.066H57.18a3.976,3.976,0,0,0,1.844,4.242,5.213,5.213,0,0,0,5.591-.337c2.221-1.691,2.266-1.7,5.619-1.3a7.71,7.71,0,0,1-4.411,5.284,11.152,11.152,0,0,1-7.039.511c-4.19-.976-6.287-3.908-6.883-8-.716-4.912,1.589-9.9,6.647-11.281,6.356-1.733,10.784,1.706,11.884,7.1a21.568,21.568,0,0,1,.319,2.305,11.732,11.732,0,0,1-.071,1.474M65.392,26.7c-.49-3.143-2.078-4.406-4.778-4.007A3.52,3.52,0,0,0,57.305,26.7Z" transform="translate(-33.155 -11.997)" fill="#635651"/>
      <path id="Path_256" data-name="Path 256" d="M232.3,38.731c-5.793-.032-9.59-3.76-9.569-9.549a15.374,15.374,0,0,1,.674-4.569,8.131,8.131,0,0,1,5.76-5.434,11.577,11.577,0,0,1,6.039-.147,8.5,8.5,0,0,1,6.411,5.7,11.963,11.963,0,0,1,.3,7.059c-1.164,4.562-4.567,6.963-9.611,6.935m4.962-9.858a31.447,31.447,0,0,0-.74-3.4,3.987,3.987,0,0,0-3.763-2.843,3.911,3.911,0,0,0-4.113,2.3,8.671,8.671,0,0,0,.05,7.791,4.314,4.314,0,0,0,7.729-.411,31.537,31.537,0,0,0,.836-3.435" transform="translate(-142.633 -11.978)" fill="#635651"/>
      <path id="Path_257" data-name="Path 257" d="M113.048,22.557c2.895-3.2,4.219-3.8,7.17-3.2v4.471c-.765,0-1.348-.011-1.93,0a4.622,4.622,0,0,0-4.882,4.305,54.541,54.541,0,0,0-.161,5.562c-.022,1.548,0,3.1,0,4.884h-5.072V19.628H112.9l.151,2.929" transform="translate(-69.269 -12.264)" fill="#635651"/>
      <rect id="Rectangle_23782" data-name="Rectangle 23782" width="4.917" height="26.129" transform="translate(114.366 0.106)" fill="#635651"/>
      <path id="Path_258" data-name="Path 258" d="M285.621,38.467h-4.777c-.385-1.273-.514-16-.162-18.892h4.674c.048.9.095,1.778.16,3.011,1.867-2.468,3.939-4.039,7.09-3.4v4.57c-.694,0-1.333-.018-1.971,0a4.564,4.564,0,0,0-4.7,3.868,18.511,18.511,0,0,0-.3,3.379c-.043,2.436-.013,4.873-.013,7.461" transform="translate(-179.611 -12.195)" fill="#635651"/>
    </g>
  </g>
</svg>
