<svg xmlns="http://www.w3.org/2000/svg" xmlns:xlink="http://www.w3.org/1999/xlink" width="120" height="28.315" viewBox="0 0 120 28.315">
  <defs>
    <clipPath id="clip-path">
      <rect id="Rectangle_23781" data-name="Rectangle 23781" width="120" height="28.315" fill="#635651"/>
    </clipPath>
  </defs>
  <g id="Group_44525" data-name="Group 44525" clip-path="url(#clip-path)">
    <path id="Path_247" data-name="Path 247" d="M0,3c4.584.076,9.178-.012,13.747.285,3.163.206,5.189,2.333,5.867,5.371.572,2.564-.473,4.764-3.113,6.557-.1.071-.2.146-.406.29a2.973,2.973,0,0,0,.4.263c3.4,1.442,4.943,3.9,4.57,7.3a7.038,7.038,0,0,1-6.29,6.446c-3.216.347-6.476.311-9.719.385-1.685.039-3.372-.05-5.058-.081ZM3.727,26.932c3.428-.137,6.789-.144,10.116-.483a4.424,4.424,0,0,0,2.685-1.792c2.171-3.019.056-6.818-3.906-7.053-2.721-.161-5.454-.112-8.182-.142a3.1,3.1,0,0,0-.713.163Zm0-20.618V14.1c3.13,0,6.2.189,9.239-.065,2.122-.177,3.22-1.863,3.176-3.936C16.1,8,15.034,6.541,12.8,6.37c-2.964-.227-5.957-.056-9.066-.056" transform="translate(0 -2.219)" fill="#635651"/>
    <path id="Path_248" data-name="Path 248" d="M333.038,0a40.486,40.486,0,0,1,6.089,2,13.809,13.809,0,0,1,7.1,14.4,14.2,14.2,0,0,1-12.077,11.728,5.559,5.559,0,0,0-.85.243h-2.343c-.832-.182-1.683-.3-2.493-.555-5.305-1.652-9.021-4.926-10.189-10.524-1.21-5.8.711-10.536,5.214-14.315A14.911,14.911,0,0,1,330.7,0ZM321.556,14.087a10.635,10.635,0,1,0,21.264.1A10.551,10.551,0,0,0,332.345,3.379a10.443,10.443,0,0,0-10.79,10.708" transform="translate(-235.164 0.001)" fill="#635651"/>
    <path id="Path_249" data-name="Path 249" d="M451.1,97.046a5.174,5.174,0,0,1-1.378,1.035,1.484,1.484,0,0,1-2.065-.982,2.621,2.621,0,0,1,.508-2.033,1.627,1.627,0,0,1,2.326.049,6.7,6.7,0,0,1,.61.629Z" transform="translate(-331.1 -69.974)" fill="#635651"/>
    <path id="Path_250" data-name="Path 250" d="M236.4,29.616c-1.531,0-2.773.062-4-.036a2.165,2.165,0,0,1-1.131-.751c-3.344-3.464-6.649-6.965-10.022-10.4a2.953,2.953,0,0,0-1.767-.759c-1.506-.107-3.024-.035-4.7-.035v11.94H211.2V2.837a1.539,1.539,0,0,1,.435-.122c4.815.02,9.631-.039,14.442.1,3.643.109,6.049,1.925,6.937,4.865,1.357,4.489-1.2,8.511-5.984,9.418-.594.112-1.189.215-2.061.373L236.4,29.616M214.773,14.6c2.146,0,4.175.047,6.2-.014a36.935,36.935,0,0,0,5.157-.384,4.146,4.146,0,0,0,3.476-4.246,3.921,3.921,0,0,0-3.528-4.009c-3.725-.334-7.48-.327-11.306-.466Z" transform="translate(-156.225 -2.008)" fill="#635651"/>
    <path id="Path_251" data-name="Path 251" d="M120.289,3.065h3.475a7.452,7.452,0,0,1,.091.822c-.027,5.508.035,11.019-.116,16.524-.169,6.172-3.654,9.543-9.827,9.694a23.422,23.422,0,0,1-4.016-.247c-4.408-.658-7.248-3.429-7.455-7.865-.289-6.23-.207-12.478-.28-18.718,0-.035.043-.071.123-.193h3.475V4.426c0,4.685-.018,9.37.013,14.054a29.928,29.928,0,0,0,.269,3.622c.353,2.729,2.26,4.454,5.462,4.821a12.136,12.136,0,0,0,3.485-.139c3.4-.614,4.909-2.235,5.076-5.711.188-3.9.17-7.8.22-11.7.026-2.071,0-4.143,0-6.307" transform="translate(-75.569 -2.267)" fill="#635651"/>
  </g>
</svg>
