<svg xmlns="http://www.w3.org/2000/svg" width="254.7" height="19.6" viewBox="0 0 254.7 19.6">
  <g id="The_Straits_Times_Logo" transform="translate(-1 -1)">
    <path id="Path_239" data-name="Path 239" d="M218.6,1.3l-4,11.9L211,1.3h-7v.5c1,.1,1.6.6,1.6,2.4V16.1c0,1.9-.7,3.5-2.4,3.7v.5h5.9v-.5c-1.7-.2-2.4-1.5-2.4-3.5V3.2h.1l5.7,17.2h.7L219,2.8h0V17.1c0,2.2-1.2,2.6-2,2.7v.5h8.3v-.5c-.7-.1-1.8-.6-1.8-2.7V4.3c0-2.1,1.2-2.5,1.8-2.5V1.3Zm-18.2,3c0-2.2,1.2-2.5,2.1-2.5V1.3h-8.6v.5c.8.1,2,.4,2,2.5V17.1c0,2.2-1.2,2.6-2,2.7v.5h8.2v-.5c-.6-.1-1.8-.6-1.8-2.7V4.3Zm32.7,15.4V10.9h1.5c2.3,0,3.1.8,3.7,2.3h.5V7.8h-.5c-.6,1.6-1.5,2.4-3.7,2.4h-1.5V2h1.8c2.1,0,4.8.4,5.8,3.6h.5V1.3H226.9v.5c.6.1,1.6.3,1.6,2.4v13c0,2.1-1,2.5-1.6,2.6v.5h14.5V15.9h-.5c-1.1,2.6-2.1,3.7-5.5,3.7h-2.3ZM176.5,1.3V5.6h.5c1.2-2.8,3.1-3.6,4.7-3.6h.7V17.2c0,2.2-1.3,2.6-2.1,2.7v.5H189v-.5c-.9-.1-2-.5-2-2.7V2h.7c1.8,0,3.5.8,4.7,3.6h.5V1.3Zm71.9,18.6c-2.7,0-3.9-2.1-4.7-4h-.5V20a21.541,21.541,0,0,0,5.1.6c3.8,0,7.4-1.7,7.4-5.8,0-2.7-1.4-4.6-5-6-2.5-.9-3.9-1.9-3.9-4a3.1,3.1,0,0,1,3.3-3.1c2.4,0,3.6,1.8,4.4,3.9h.5V1.5a24.5,24.5,0,0,0-4.5-.5c-4.6,0-7.2,2.2-7.2,5.5s2.3,4.6,4.7,5.7c2.6,1.1,4,2.1,4,4.4a3.281,3.281,0,0,1-3.6,3.3M35.9,4.3c0-2.2,1.2-2.5,2-2.5V1.3H29.5v.5c.8.1,2,.4,2,2.5V10H25.1V4.3c0-2.2,1.2-2.5,2-2.5V1.3H18.7v.5c.8.1,2,.4,2,2.5V17.1c0,2.2-1.2,2.6-2,2.7v.5h8.4v-.5c-.8-.1-2-.5-2-2.7V10.9h6.4v6.2c0,2.2-1.2,2.6-2,2.7v.5h8.4v-.5c-.8-.1-2-.5-2-2.7Zm9.6,15.4V10.9h1.6c2.3,0,3.1.8,3.7,2.3h.5V7.8h-.5c-.6,1.6-1.5,2.4-3.7,2.4H45.5V2h1.8c2.1,0,4.7.4,5.8,3.6h.5V1.3H39.4v.5c.6.1,1.6.3,1.6,2.4v13c0,2.1-1.1,2.5-1.7,2.6v.5H54V15.9h-.5c-1.3,3.2-2.8,3.7-5.5,3.7H45.5ZM1,1.3V5.6h.5C2.7,2.8,4.4,2,6.2,2h.7V17.2c0,2.2-1.4,2.6-2.1,2.7v.5h8.6v-.5c-.8-.1-2-.5-2-2.7V2H12c1.8,0,3.5.8,4.7,3.6h.5V1.3ZM67.6,19.9c-2.7,0-3.9-2.1-4.7-4h-.5V20a21.3,21.3,0,0,0,5,.6c3.8,0,7.4-1.7,7.4-5.8,0-2.7-1.4-4.6-5-6-2.5-.9-3.9-1.9-3.9-4a3.1,3.1,0,0,1,3.3-3.1c2.4,0,3.6,1.8,4.4,3.9h.5V1.4A26.09,26.09,0,0,0,69.5,1c-4.6,0-7.2,2.2-7.2,5.5s2.3,4.6,4.7,5.7c2.6,1.1,4,2.1,4,4.4.1,2.2-1.4,3.3-3.4,3.3m95.3,0c-2.7,0-3.9-2.1-4.6-4h-.5V20a21.541,21.541,0,0,0,5.1.6c3.8,0,7.4-1.7,7.4-5.8,0-2.7-1.4-4.6-5-6-2.5-.9-3.9-1.9-3.9-4a3.1,3.1,0,0,1,3.3-3.1c2.4,0,3.7,1.8,4.4,3.9h.5V1.5A25.744,25.744,0,0,0,165,1c-4.6,0-7.2,2.2-7.2,5.5s2.3,4.6,4.8,5.7c2.6,1.1,4,2.1,4,4.4-.1,2.2-1.6,3.3-3.7,3.3M75.6,1.3V5.6h.5C77.3,2.8,79,2,80.8,2h.7V17.2c0,2.2-1.3,2.6-2.1,2.7v.5H88v-.5c-.8-.1-2-.5-2-2.7V2h.7c1.8,0,3.5.8,4.7,3.6h.5V1.3Zm64.8,0V5.6h.5c1.2-2.8,3-3.6,4.6-3.6h.7V17.2c0,2.2-1.3,2.6-2.1,2.7v.5h8.6v-.5c-.8-.1-2-.5-2-2.7V2h.7c1.8,0,3.5.8,4.7,3.6h.5V1.3Zm-3.1,3.1c0-2.2,1.2-2.5,2-2.6V1.3h-8.4v.5c.8.1,2,.4,2,2.6V17.1c0,2.2-1.2,2.6-2,2.7v.5h8.4v-.5c-.8-.1-2-.5-2-2.7Zm-9.1,13.3L123.3,1.3h-6.1v.5a1.274,1.274,0,0,1,1.2,1.1,6.529,6.529,0,0,1-.2,1.1l-4,11.2c-1.3,3.6-2.2,4.5-3.1,4.7v.5h5.3v-.5a1.992,1.992,0,0,1-1.7-2.1,7.816,7.816,0,0,1,.6-2.7l.4-1.2h6.7a29.592,29.592,0,0,1,1.1,4.6,1.358,1.358,0,0,1-1.4,1.4v.5h8.2v-.5c-1-.1-1.6-.7-2.1-2.2m-12.4-4.6,3.3-9.6h.1l2.7,9.6Zm-5.3,7.2v-.5c-.7-.1-.9-.5-1.7-3.3-1.1-3.6-2.3-5.8-5.7-6l.1-.2c3.1-.1,5.5-1.6,5.5-4.6,0-3.7-3.9-4.4-8.1-4.4H93v.5c.7.1,2,.4,2,2.5V17.1c0,2.2-1.2,2.6-2,2.7v.5h8.1v-.5c-.8-.1-1.6-.6-1.6-2.9V11h.4c2.1,0,3.4,2.4,4.4,6.2a18.916,18.916,0,0,1,.7,2.9v.2h5.5Zm-10.3-9.9h-.7V2a4.142,4.142,0,0,1,1-.1c2.5,0,3.9,1,3.9,3.8,0,3.2-1.6,4.7-4.2,4.7" fill="#635651"/>
  </g>
</svg>
