<svg xmlns="http://www.w3.org/2000/svg" width="40.708" height="40.7" viewBox="0 0 40.708 40.7">
  <path id="Path_107573" data-name="Path 107573" d="M14.744,25.352c-.342.335-.676.662-1.01.99-.16.157-.31.375-.53.4a1.8,1.8,0,0,0-1.091.717c-1.364,1.362-2.723,2.729-4.094,4.084-.154.153-.329.517-.574.277s.123-.412.27-.561c1.417-1.435,2.847-2.858,4.274-4.284a1.362,1.362,0,0,0,.483-.78c.058-.406.419-.622.683-.889.767-.78.771-.776.051-1.564-.35-.383-.357-.41.045-.814,1.629-1.636,3.266-3.263,4.894-4.9.642-.645.65-.482.024-1.109Q12.968,11.705,7.759,6.5l-.1-.1c-.558-.553-.564-.56-1.1-.021a19.016,19.016,0,0,0-5.259,9.585A18.4,18.4,0,0,0,3.1,28.935,18.57,18.57,0,0,0,17.142,38.9,18.4,18.4,0,0,0,32.1,34.816a18.365,18.365,0,0,0,6.878-12.377A18.572,18.572,0,0,0,34.44,7.476,18.664,18.664,0,0,0,22.468,1.03a18.616,18.616,0,0,0-9.989,1.388c-.227.1-.457.188-.676.3-.257.13-.409.06-.532-.195-.173-.36-.172-.427.219-.6A21.009,21.009,0,0,1,13.925.951a19.864,19.864,0,0,1,7.494-.9A19.6,19.6,0,0,1,32.185,4.167,19.4,19.4,0,0,1,39.8,17.239a19.428,19.428,0,0,1-5.023,16.206,19.845,19.845,0,0,1-16.8,6.444A19.624,19.624,0,0,1,7.557,35.627,19.786,19.786,0,0,1,1.37,27.234a19.387,19.387,0,0,1-1.306-8.7A19.744,19.744,0,0,1,4.243,7.726,23.523,23.523,0,0,1,6.815,4.988c.259-.239.448-.244.669.018.1.119.221.223.332.334L18.7,16.226c.127.127.261.247.379.381.178.2.326.166.5-.013.437-.451.886-.889,1.329-1.333Q23.455,12.718,26,10.175c.441-.44.467-.462.875-.049.311.315.482.151.707-.076.449-.453.456-.447.026-.887-.11-.112-.215-.23-.333-.332-.247-.214-.206-.4.009-.617s.361-.186.557.012q1.585,1.6,3.186,3.184c.24.237.186.4-.021.616s-.378.183-.558-.023c-.074-.084-.157-.159-.237-.238-.512-.5-.873-.448-1.237.171-.095.161-.008.242.076.348.45.57.45.572-.063,1.085l-5.8,5.8c-.111.111-.223.22-.332.333-.421.435-.421.435-.023.851.093.1.19.191.285.286L31.2,28.721c.111.111.214.231.334.332.254.216.2.4-.017.612-.23.232-.4.2-.615-.018-.53-.548-1.075-1.08-1.614-1.619l-6.894-6.893q-.19-.19-.384-.376a.261.261,0,0,0-.411.007c-.112.11-.225.219-.336.33L16.554,25.8c-.111.111-.23.215-.332.334-.2.238-.386.246-.613.013a4.693,4.693,0,0,0-.865-.8m5.264-7.873a16.689,16.689,0,0,0,1.335,1.385c.457.465.467.461.937-.007q2.255-2.25,4.505-4.5c.411-.411.812-.833,1.236-1.23.259-.242.243-.427-.009-.661-.377-.349-.73-.724-1.094-1.087-.5-.5-.428-.469-.922.024q-2.8,2.8-5.595,5.6a1.341,1.341,0,0,0-.393.484M21.1,19.91a1.219,1.219,0,0,0-.135-.2c-.472-.478-.952-.949-1.421-1.43-.166-.17-.3-.145-.449.014-.312.322-.633.634-.95.951q-1.877,1.877-3.753,3.756c-.34.341-.337.353-.016.682.423.432.859.852,1.281,1.285a.3.3,0,0,0,.508,0c.343-.354.7-.7,1.045-1.046q1.782-1.782,3.563-3.566a.85.85,0,0,0,.326-.45" transform="translate(0.35 0.35)" fill="#a19b97" stroke="#a19b97" stroke-width="0.7"/>
</svg>
