<svg xmlns="http://www.w3.org/2000/svg" width="43.634" height="43.632" viewBox="0 0 43.634 43.632">
  <path id="Icon_awesome-certificate" data-name="Icon awesome-certificate" d="M37.621,20.993,41.393,17.3a1.954,1.954,0,0,0-.875-3.309l-5.139-1.312,1.449-5.087A1.987,1.987,0,0,0,34.4,5.16L29.31,6.609,28,1.468A1.968,1.968,0,0,0,24.691.593L21,4.394l-3.69-3.8A1.968,1.968,0,0,0,14,1.468L12.69,6.609,7.6,5.16A1.987,1.987,0,0,0,5.172,7.594L6.62,12.681,1.481,13.993A1.954,1.954,0,0,0,.606,17.3l3.772,3.692L.606,24.685a1.954,1.954,0,0,0,.875,3.309L6.62,29.306,5.172,34.393A1.987,1.987,0,0,0,7.6,36.827l5.085-1.449L14,40.519a1.95,1.95,0,0,0,3.308.875L21,37.62l3.691,3.774A1.959,1.959,0,0,0,28,40.519l1.311-5.141L34.4,36.827a1.987,1.987,0,0,0,2.433-2.434l-1.449-5.087,5.139-1.312a1.954,1.954,0,0,0,.875-3.309l-3.772-3.692Z" transform="translate(0.817 0.817)" fill="none" stroke="#a19b97" stroke-width="1.6"/>
</svg>
