<svg xmlns="http://www.w3.org/2000/svg" width="24.727" height="24.724" viewBox="0 0 24.727 24.724">
  <g id="Group_45912" data-name="Group 45912" transform="translate(5834.361 -1260.649)">
    <path id="Path_107621" data-name="Path 107621" d="M151.633,68.234a12,12,0,1,1-4.314-6.992.606.606,0,0,1-.749.949,10.734,10.734,0,1,0,3.875,6.286c-.048-.243-.106-.485-.173-.721h0a.606.606,0,1,1,1.167-.324c.076.264.139.533.194.8ZM135.66,68.4a.607.607,0,0,0-.858.858l4.8,4.792a.606.606,0,0,0,.858,0L151.7,62.793a.607.607,0,1,0-.858-.858L140.018,72.76Z" transform="translate(-5961.881 1202.342)" fill="#a19b97" stroke="#a19b97" stroke-width="0.7"/>
  </g>
</svg>
